<?xml version="1.0" encoding="utf-8"?>
<!-- Generator: Adobe Illustrator 19.0.0, SVG Export Plug-In . SVG Version: 6.00 Build 0)  -->
<svg version="1.1" id="Ebene_1" xmlns="http://www.w3.org/2000/svg" xmlns:xlink="http://www.w3.org/1999/xlink" x="0px" y="0px"
	 viewBox="0 0 512 512" style="enable-background:new 0 0 512 512;" xml:space="preserve">
<style type="text/css">
	.st0{display:none;fill:#121211;}
	.st1{fill:#E30664;}
	.st2{fill:#DA0567;}
	.st3{fill:#FFFFFF;}
	.st4{fill:#030303;}
	.st5{fill:#F9B216;}
</style>
<g id="XMLID_192_">
	<path id="XMLID_196_" class="st0" d="M552.3-74.5c0.5,0,1.1,0,1.5,0c9.2,4,18,8.6,19.5,20.1c-0.1,2.9-0.4,5.8-0.4,8.6
		c0,283.6,0,567.1,0,850.7c0,2.9,0.2,5.8,0.4,8.6c-1.5,11.5-10.2,16.1-19.5,20.2c-0.5,0-1.1,0-1.5,0c-2-2.7-4.8-1.4-7.3-1.4
		c-190.5-0.1-381-0.1-571.6,0c-2.4,0-5.3-1.4-7.2,1.4c-0.5,0-1.1,0-1.5,0c-9.3-4-18-8.6-19.5-20.1c0.1-2.9,0.4-5.8,0.4-8.6
		c0-283.6,0-567.1,0-850.7c0-2.9-0.2-5.8-0.4-8.6c1.5-11.5,10.2-16.2,19.5-20.2c0.5,0,1.1,0,1.5,0c1.9,2.9,4.8,1.4,7.2,1.4
		C164-73,354.5-73,545-73.1C547.4-73.1,550.3-71.8,552.3-74.5z M-43.9,379.9c0,141.4,0,282.7,0,424.1c0,14.9,3.1,17.9,18.2,17.9
		c190,0,380.1,0,570.1,0c15,0,18.1-3,18.1-18c0-282.7,0-565.4,0-848.1c0-15.4-2.9-18.3-18.5-18.3c-189.8,0-379.5,0-569.4,0
		c-15.6-0.1-18.5,2.9-18.5,18.4C-43.9,97.2-43.9,238.5-43.9,379.9z"/>
	<path id="XMLID_95_" class="st1" d="M255.4,89.7c-76.4,1.4-143.8,27.9-200.6,80.9c-9,8.5-19.3,10.8-28.9,6.3
		c-9.8-4.5-16.2-14.9-15.8-25.3c0.3-7,3.6-12.4,8.5-17c52.4-49.4,114-80.6,185.3-91c101.8-14.9,192.7,11.2,272.6,75.9
		c6.1,4.9,11.8,10.4,17.5,15.8c10.1,9.5,10.5,24.6,0.8,34.9c-10.1,10.9-24.8,12-35.3,2.1c-40-37.9-86.7-63.1-140.5-75.3
		C298.5,92.2,277.6,90.3,255.4,89.7z"/>
	<path id="XMLID_94_" class="st1" d="M274.7,166.9c66.8,1.6,124.8,24.4,173.4,70.4c11.2,10.6,11.4,25.3,0.8,36.4
		c-10.1,10.6-24.8,10.7-35.9,0.3c-42.7-40.1-93.4-59.5-151.9-55.7c-48.2,3.1-90,22.2-125,55.7c-9,8.7-20.5,10.4-30.7,4.4
		c-10-5.9-15-17.7-12.2-28.9c1.1-4.3,3.3-7.8,6.4-10.8c39.9-38.8,87.4-61.7,142.5-69.4C252.9,167.8,263.9,167.4,274.7,166.9z"/>
	<path id="XMLID_93_" class="st1" d="M392.5,313.4c-0.2,10.7-6.6,20.6-16,24.1c-10.1,3.8-19.3,2-27.3-5.7
		c-43.7-42.1-105.8-42-149.7,0.2c-10.5,10.1-25.7,10.1-35.5,0.1c-10.4-10.7-10.5-25.6-0.3-35.9c60.3-61.3,161.2-61.4,221.3-0.3
		C390.2,300.9,393,306.6,392.5,313.4z"/>
</g>
<path id="XMLID_92_" class="st2" d="M274.2,494.9c-11.5-0.1-22.3-2.2-32.5-6.7c-7.2-3.2-13.9-7.3-19.9-12.4
	c-0.4-0.3-0.5-0.3-0.8,0.1c-6.4,7.1-14.1,12.2-23.2,15.2c-5.8,1.9-11.7,2.8-17.9,2.7c-8.7-0.2-16.8-2.3-24.4-6.4
	c-12.4-6.8-20.8-16.8-25.4-30.1c-2.2-6.2-3.1-12.7-2.7-19.3c1.2-18,9.2-32.1,24.1-42.2c6.5-4.4,13.7-7,21.5-8.2
	c7.9-1.2,15.7-0.6,23.4,1.7c0.5,0.2,0.7,0.2,0.9-0.4c3.2-9.9,8.2-18.8,15-26.7c8.8-10.4,19.6-18.2,32.3-23.2c6-2.4,12.2-4,18.6-4.8
	c5.8-0.8,11.7-1,17.6-0.4c15.6,1.4,29.8,6.8,42.2,16.4c14.1,10.9,23.7,25,28.7,42.1c1.6,5.6,2.5,11.3,2.9,17
	c1,17.4-3.2,33.6-12.5,48.3c-5.4,8.6-12.4,15.9-20.6,21.9c-7.1,5.2-14.9,9.1-23.3,11.8c-5.6,1.7-11.3,2.9-17.1,3.4
	C278.5,494.8,276.2,494.9,274.2,494.9z"/>
<path id="XMLID_91_" class="st3" d="M180.7,389.6c5.3-0.1,10.1,0.7,14.9,2.1c0.5,0.2,0.7,0.3,0.5,1c-2.2,7.8-3.1,15.7-2.9,23.8
	c0.4,13.3,3.8,25.7,10.3,37.3c4.1,7.4,9.4,14,15.5,19.7c0.4,0.3,0.3,0.5,0,0.8c-3.2,3.6-6.8,6.7-10.9,9.2c-5.8,3.6-12.1,6-18.8,7.1
	c-5.3,0.9-10.7,0.9-16,0.1c-7.6-1.2-14.5-3.8-20.8-8.1c-9-6.1-15.5-14.3-19.3-24.5c-2.5-6.6-3.5-13.3-3.1-20.2
	c0.9-14.3,6.7-26.3,17.5-35.8c6.9-6.1,15-9.9,24.1-11.6C174.7,389.9,177.9,389.6,180.7,389.6z"/>
<path id="XMLID_90_" class="st3" d="M227.8,460.6c-2.6-2.6-5-5.3-7.2-8.3c-6.1-8.4-9.9-17.8-11.6-28c-1.3-8.4-1-16.7,1-25
	c0.2-0.6,0.3-0.5,0.7-0.3c2.2,1.5,4.2,3.2,6.1,5.1c0.2,0.2,0.3,0.4,0.3,0.7c-2,12.4-0.1,24.3,5.7,35.5c2.1,4.1,4.7,7.8,7.6,11.2
	c0.2,0.2,0.4,0.4,0.3,0.6C229.8,455.1,228.9,457.8,227.8,460.6z"/>
<path id="XMLID_89_" class="st3" d="M272,468.8c-14-0.3-27.3-5.9-38.2-17.1c-0.3-0.3-0.4-0.5-0.3-1c0.7-3.6,1.1-7.3,1-11.1
	c-0.3-12.4-4.3-23.4-12.1-33.1c-0.7-0.8-1.4-1.7-2.2-2.5c-0.4-0.4-0.4-0.7-0.3-1.1c0.9-4.2,2.2-8.2,4-12c6.8-14,17.5-23.5,32.1-28.5
	c5.4-1.9,11-2.9,16.8-2.9c14.1,0,26.5,4.5,37.1,13.9c9.1,8.1,15,18.1,17.3,30.1c3.2,16.7-0.6,31.8-11.3,45.1
	c-7.4,9.2-17,15.2-28.3,18.3C283.1,468.2,278.4,468.7,272,468.8z"/>
<path id="XMLID_88_" class="st3" d="M217.7,401.5c-1.7-1.6-3.5-3.1-5.4-4.4c0,0-0.1,0-0.1-0.1c-0.4-0.4-1.2-0.5-1.3-1.1
	c-0.1-0.5,0.3-1.1,0.4-1.6c3.2-10,8.6-18.8,16.1-26.2c9.1-9,19.9-14.9,32.5-17.6c7.2-1.5,14.4-1.9,21.7-1c17,2.2,31,9.8,42.1,22.8
	c7.1,8.4,11.7,18,14,28.7c1.3,6.1,1.6,12.4,1.1,18.6c-1.1,12.8-5.7,24.3-13.5,34.5c-5.8,7.5-13,13.4-21.4,17.8
	c-6.4,3.4-13.3,5.6-20.5,6.7c-5.2,0.8-10.5,0.9-15.8,0.4c-6.9-0.6-13.6-2.3-20-5.1c-6.4-2.7-12.2-6.5-17.4-11.1
	c-0.2-0.2-0.4-0.3-0.2-0.6c1.2-2.5,2.1-5.1,2.7-7.7c0-0.1,0.1-0.1,0.1-0.1c11,10.7,24.2,16.5,39.5,16.9c12.3,0.3,23.6-3,33.7-9.9
	c21.1-14.5,29.8-40.5,22.3-64.3c-7.6-24.2-29.9-40.3-55.3-40.1C246.6,357.2,223.5,375.5,217.7,401.5z"/>
<path id="XMLID_87_" class="st3" d="M231.3,448.6c-4.1-5-7.2-10.5-9.4-16.5c-2.8-8.1-3.7-16.4-2.5-25.2
	C229.6,419.1,233.5,432.9,231.3,448.6z"/>
<g id="Ausrufer">
	<path id="XMLID_114_" class="st4" d="M358.3,77.2c0.8,0,1.7,0,3.5,0c-3.1,3.1-5.7,5.6-8.2,8.2c-0.5,0.5-1.6,1-1,2.1
		c0.7,1.4,1.7,0.3,2.6,0.1c4.4-0.8,5.7-5.7,9.5-7.4c2.3,0.6-0.7,4,2.2,4.2c2.1,0.2,2.7-1.9,4.1-2.8c4.4-3.2,8.6-6.6,11.5-11.3
		c0.6-1,1.9-0.5,2.9-0.4c-0.7,1-1.4,1.9-2.1,2.9c-3.7,3.2-7.2,6.6-8.6,11.6c3.3-3.2,7.6-5,10.8-8.1c0.2-0.1,0.3-0.2,0.5-0.2
		c2-0.7,1.7-5.3,4.1-3.5c1.7,1.2-1.8,2.9-2.9,4.3c-0.8,1.1-0.6,2.2-0.8,3.3c-0.6,0.5-1.1,1.1-1.7,1.6c-0.3,0.5-0.6,1-1,1.4
		c0.8,0.4,1.5,0.3,1.9-0.7c0.5-0.4,1-0.9,1.5-1.3c1.9-0.9,3.4-2.1,4.9-3.6c0.8-0.8,1.3-2.8,3-1.7c1.7,1.1,1,2.6,0,4.5
		c4.7-4,7.4,0.5,10.7,2c1.8,0.8,3.8,3.1,2.6,5c-1,1.6-2.7,3.9-5.7,3.1c-1.5-0.4-1.7,0.1-0.8,1.3c2.1,2.9-1.5,5.6,0.1,8.6
		c1.6,3.1,0.5,6-2.4,8.1c-0.1,0.1-0.1,0.3-0.2,0.4c1.4,1.2,2.1-0.6,3.2-0.8c1.3-0.3,2.1-2.8,4-0.4c1.7,2.2-1.1,2.5-1.5,3.1
		c-1.7,2.4-3.6,4.5-7.3,5c-3.2,0.4-3.3,4.7-3.1,7.2c0.4,3.8,0.8,7.1-2.6,9.6c-0.6,0.4-1.3,1-0.6,2.1c2.5,4.1-0.4,6.8-2.5,9.7
		c-0.2,0.1-0.3,0.2-0.4,0.4c-0.6,0.4-1.7,0.9-1.3,1.6c0.6,0.9,1.3,0.3,1.7-0.6c0.4-0.4,0.7-0.7,1.1-1.1c3.5-0.5,4.7-4.6,8.1-5.2
		c-1.5,4.8-4.6,8.5-7.9,12.3c5.4-2.9,9.1-8.8,15.9-9.3c-5.3-0.4-2.2,6-5.4,7c3.2-0.9,5.5-3.2,8-5.1c3.3,0.3,1.8,2.2,1.3,3.8
		c-0.3,0.5-0.6,1-0.9,1.4c0.8,0.4,1.5,0.3,1.9-0.7c1.3,0.5,3-2.1,3.8,0.2c0.9,2.7,4.3,4.9,2.6,8.1c-0.8,1.6-0.7,1.7,0.6,2.7
		c3.5,3-0.2,5-1.7,7.2c5.1,0.9,5.3,1.6,2.2,6.1c-0.3,0.5-0.6,1-1,1.4c0.8,0.4,1.5,0.3,1.9-0.7c1,7.3,6.9,4.3,10.9,5.2
		c2,0.5,4.1,0.1,6.2,0.1c-0.2,5.7-3.2,10.9-2.7,16.8c0.3,2.9-3.3,4.5-4.4,7.1c-0.6,1.4-3.4,3.3,1.3,3.8c3.9,0.4,7.1,4.1,9.1,7.3
		c2,3.1-0.8,6.6-3.2,8.3c-3.3,2.3-5.7,5.5-9,8.2c5.4,0.1,4.4,3.1,3.3,6c1.7,1.3,3-2.4,4.5-0.3c1.7,2.3-1.2,2.7-1.9,4
		c-0.4,0.9-1,1.8-1.4,2.6c-1.6,2.6-5.5,3.1-6.8,7.1c3.9-1.4,6.8-2.6,7.7-6.4c1.5-1.1,3.5-1.3,4.2-2.7c6.8,9.3-0.4,14.5-6.6,20
		c2.4,1,2.7-1.3,4.4-1.4c-1.9,6.5-4.3,12.3-11.4,14.9c-1.6,0.6-3.1,0.6-4.5,0.4c-4.1-0.7-5.4,0.9-4,5.1c0.1,0.2,0.1,0.4,0.1,0.5
		c-2.1,4.5,1.6,9.3-0.8,13.7c-0.3,0.5-0.6,1-1,1.4c0.8,0.4,1.5,0.3,1.9-0.7c0.2,5.8,3.6,12-2.1,17.1c-0.7,0.6-0.5,1.2-0.3,2.1
		c1.1,4.2,0.1,7.8-4.2,10.5c5.1-0.2,3.5,2.5,2.7,4.8c-1.8,5-2.3,10.3-2.4,15.5c-0.1,3.8-1.6,6.5-3.8,8.6c3.2,2.7,1.8,5.4,0.2,7.9
		c-0.8,1.2-2.9,2.3,0.6,2.5c0.2,0,0.5,0.4,0.6,0.6c1.4,3.1-2.4,7-2.2,7.1c4.7,2,2.3,4.5,0.6,6.7c-1.2,1.5-1.1,1.2,0.6,2.4
		c2.5,1.7,1,4.4-0.8,6.4c-0.3,0.5-0.7,1-1,1.4c0.8,0.4,1.5,0.3,1.9-0.7c1.1,1,2.2,1.8,1.2,3.6c-2.7,4.8-2.7,10.5-4.9,15.7
		c-1.6,3.8-2.7,8.6-2.5,13.1c0.1,3.3,0.2,6.5-3,8.7c-0.5,0.4-1.1,0.8-1.6,1.3c-0.4,0.6-1.2,1.2-0.8,2.1c0.1,0.1,0.7,0.2,0.8,0.1
		c0.5-0.7,0.4-1.5-0.1-2.3c1,0.5,2,0.8,2.7-0.4c4.6,3.2,0.5,5.1-1,7.5c-0.3,0.5-0.7,1-1,1.4c0.8,0.4,1.5,0.3,1.9-0.7
		c2,2.8,1.4,5.3-0.8,7.7c-0.3,0.5-0.6,1-1,1.4c0.8,0.4,1.5,0.3,1.9-0.7c1.7,0.6,1,2.1,0.9,3.1c-0.1,3-2.1,5.3-0.3,9
		c1.7,3.5-4.2,5.1-5.8,8.6c3.4,0.1,5.1-2.6,7.1-4.5c1.1-1,1.6-1.9,3.1-0.3c1.6,1.9,0.4,2.3-0.9,2.8c-2.3,0.8-2.4,2.9-3.5,5.1
		c3.2-0.9,5-2.3,5.8-5c4.1,4.9-0.1,6.4-2.9,8.2c-1.3,0.8-2,1.6-1.2,2.7c0.8,1.1,2.4,0.8,3.1-0.4c1.1-2.1,3-2.9,4.8-4.2
		c0.4,11-5.9,14.1-19.4,9.8c0.4-1.7,4-1.3,2.5-4.4c-1.3,0.8-2.5,1.6-3.8,2.6c-0.3,0.2-0.3,0.6-0.8,0.9c-3.7,1.9-0.1-5.2-4.7-3.5
		c-2.6,1-3.4-2.5-1.4-6.2c-2.1,1.8-3,2.6-3.9,3.4c-0.6,0.3-0.8,0.1-0.8-0.4c0.3-5.2-4.6-5.9-7.4-8.4c-0.7-0.7-2.3-1.4-1.9-2.1
		c3.2-4.8-1.4-8.7-1.2-13c0.2-4.7,0.3-9.3,0.3-14c0-6.6-0.6-13.2-0.1-19.7c0.3-3.7,0-7.4,0.6-11.2c0.8-4.9,1.1-9.9,0.2-14.9
		c-0.2-1-0.3-2.3,0.2-3.1c3.8-5.6-0.1-11.2,0.3-16.8c-0.1,7.3-1.9,14.3-2.7,21.5c-0.9,7.4-2.7,14.7-3.6,22.1
		c-0.5,3.5-0.8,7.1-1,10.6c-0.6,12.3,0.1,24.6-0.8,36.8c-0.2,2.9-1.3,6.9-3.9,9.6c-0.4,0.1-1,0.1-0.6,0.7c0.1,0.1,0.7-0.2,1.2-0.3
		c0.8,0.3,1.7-3.3,2.6,0.2c0.7,2.5,1.2,5.1,1.9,7.6c0.8,3.3-1.8,6.2-2.6,9.5c-0.6,2.5-3.9,3.2-7.1,4c-5.7,1.5-8.7-0.2-11.9-3.9
		c1.5-0.1,2.7-0.4,2.9-2.2c0.2-2.1,2.2-1.9,3.4-2.6c2.4-1.5,4.1-3.4,4-6.9c-3,3-7.8,3.6-8.4,8.4c-0.9,0.8-1.7,1.6-2.6,2.4
		c-4,1-4,1-3.7-4.8c2,0.8,3.6-0.4,4.4-1.5c2.8-3.8,7.3-6,9.5-10.3c0.3-0.6,2.4-0.3,0.8-1.8c-0.8-0.8-1.7-0.6-2.2,0.1
		c-3.5,5.1-10.4,7.2-12.5,13.6c-1,0.6-1.9,1.3-2.9,2c-0.4-1.6-1.8-2.9-1.3-4.8c5.8-2.3,8.2-8.1,12.4-12.1c-5.4,1.7-9.1,5.4-12.4,9.7
		c-0.2-2.8-0.1-5.1,2.7-7c1.6-1.1,3.3-3.3,3.4-6.6c-2.1,1.9-3.8,3.4-5.9,5.4c-0.5-2.3-1.1-4.8,0.2-5.9c1.5-1.3,3-2,1.9-6
		c-1.4,2.5-2.3,4.2-3.4,6.3c-3.4-6.7,3-8.7,4.5-14c-2.3,2.2-3.6,3.5-5.2,5c-0.8-3.4-0.6-6.1,1.8-8.4c1-0.1,2.2,0.1,2-1.6
		c-0.1-0.4-0.3-0.8-0.4-1.3c-0.7,0.6-1.5,1.3-2.2,2c-2-1.4-2.1-3.8-0.4-6c1.3-1.7,3.5-2.7,4.2-6.1c-2,1.9-3.4,3.1-4.7,4.4
		c1.9-5.3-3.2-11.2,1.5-16.1c0.5-0.5,0.7-1.2-0.3-1.4c-0.4-0.1-1.3,0.7-1.3,0.7c-1-1.4-0.9-3.1-0.3-4.4c0.7-1.6,2-3.1,3-4.6
		c1-0.6,2.6-1.5,1.7-2.5c-0.8-0.9-1.6,1-2.4,1.6c-0.8-0.1-2,3.5-2.5-0.2c-0.3-2.2,0.8-3.9,1.8-5.6c2.1-0.8,3.4-2.2,3.2-5.2
		c-1.6,1.8-2.8,3.1-4,4.5c-2.9-3.2,0-5.7,1.5-7.7c0.8-1.1,1.8-2.2,2.6-3.3c0.2-0.1,0.3-0.3,0.4-0.4c0.6-0.6,1.2-1.3,1.9-1.9
		c1.1-0.7,2.5-1.3,1.5-3.5c-0.9,1.1-1.6,1.9-2.4,2.8c-0.5,0.5-0.9,1.1-1.4,1.5c-0.4,0.4-0.7,0.7-1.1,1.1c-1.8,0.2-2.9,3.5-4.3,2.2
		c-2.6-2.3,0.7-3.7,1.8-5.4c0.4-0.5,0.4-1.3,0.5-1.9c2.2-0.2,3.4-1.1,2.8-3.5c-1.9,0-2.4,1.6-3.4,2.6c-3,2.1-3-0.6-2.4-2
		c1-2.3,2.2-3.9,0-6.5c-1.7-2.1,2-3.9,2-6.3c0.4-0.3,0.7-0.7,1.1-1c2.3-0.2,2.4-1.5,2.2-3.9c-1.4,1.5-2.3,2.5-3.2,3.5
		c-0.2,0.1-0.3,0.2-0.4,0.4c-3.2,1-3.2-1-2.4-3c0.5-1.4,1.6-2.5,2.5-3.7c1.7-1.6,4.3-2.4,4.4-6.4c-2.1,2.3-3.7,4-5.2,5.7
		c-5.4-3.4,1.3-5.2,1-7.9c0.2-0.1,0.3-0.3,0.4-0.4c2.3-1.1,4.1-2.5,3.8-5.4c1.5,0.8,2.2-0.2,3-1.2c0.4-0.5,0.9-1,1.3-1.5
		c0.8-0.5,2-1.1,1.1-2.1c-0.6-0.7-1.2,0.6-1.7,1.1c-0.5,0.6-1.1,1.2-1.6,1.8c-0.9,0.4-1.6,1-2,2.1c-1.7,1.1-3.2,2.5-4.3,4.2
		c-0.4,0.4-0.7,0.7-1.1,1.1c-3.5-0.1-2-2.5-1.6-3.9c0.4-1.4,1.6-2.5,2.4-3.8c0.5-0.6,1.8-1.1,1.2-1.7c-1-1-1.5,0.3-2.1,1.1
		c-0.6-0.2-1.6,2.1-2-0.2c-0.4-2.5,0.7-4.6,2-6.7c0.2-0.1,0.4-0.3,0.4-0.5c0.7-0.6,2.2-1.1,1.4-2.2c-0.5-0.6-1.4,0.3-1.7,1.2
		c-0.4,0.4-0.7,0.7-1.1,1.1c-4.3-1.3-1.7-3.2-0.5-5.1c1.1-1.7,1.1-1.7-0.8-3.4c-0.4-0.4-0.8-1.4-0.6-1.7c2-3.2-0.8-6.4,0.1-9.3
		c1.3-3.9-0.5-5.7-3.2-7.5c3.8-1.4,5.2-4.9,6.5-8.5c-2.4,2.5-4.8,5-7.2,7.6c-1.6-1-2.3-2.4-1.7-3.6c0.7-1.3,1.6-2.5,2.4-3.8
		c1-0.1,2.2,0,2-1.6c-0.1-0.3-0.2-0.8-0.3-0.8c-1.3-0.4-1.6,0.9-2.3,1.5c-0.8-0.1-2.2,3.6-2.5-0.3c-0.5-5.5,4.5-7.2,7.3-10.5
		c0.8-1,2.3-1.5,1.6-3.8c-2.7,2.5-5.3,4.9-8,7.3c-1-3.7-1-4.7,1.5-7.3c1.6-1.8,3.6-3.3,4.9-5.4c-1.6-1-2,1-3,1.1
		c-0.3-0.2-0.6-0.5-0.8-0.7c0.8-4,2.4-7.6,5.8-10.3c0.6-0.6,2-1.4,1-2.2c-0.7-0.6-1.4,0.7-1.8,1.5c-0.8,0.6-1.6,1.2-3.1,2.3
		c0.4-5.3,0.2-10.4,1.3-15c0.8-3.3,0.3-3.1-2.3-2.4c-3.5,1-3.6,0.9-3.4-2.5c-2.3,2.5-4.7,4.4-7.8,1.9c-7.5-6.1-7.9-7.1-4.4-14.6
		c-1.9,1.6-3.2,2.9-4.5,4.1c-3.1-5.3-2.5-10.8,1.6-15.1c1.7-1.7,3.3-3.5,4.9-5.2c4.4-0.4,4.3-6.9,9.2-6.8c0.4,1.7-1.5,2.1-2.1,3.2
		c-0.4,0.8-2.5,1-1.2,2.6c1.2,1.4,2.4-0.1,3.1-0.3c3.5-1.5,5.9-4.5,8.2-7.3c0.7-0.8,2.2-2.5,1.3-3.5c-1.6-1.6-2.4,0.3-3.5,1.4
		c-0.7,0.7-2.3,0.5-4.5,1c3.6-4.3,7.7-7,9.8-13.1c-7.5,7.2-13.9,13.4-20.3,19.6c-3.3-0.6-1,4-3.8,3.8c-2.4-3.9,3.9-6.6,2.5-8.6
		c-2.1-3.1-3.2-4.8,0.1-7.2c0.2-0.1,1.1-2.1-0.8-1.9c-1.1,0.2-1.2-0.4-1.1-1.1c1.5-5.8-2.3-13.1,4.8-17.4c1.1-0.6,1.7-1.7,1.5-3.1
		c1.4,0.5,2.2-0.5,3.1-1.4c5.7-5.4,11.4-10.7,17.1-16.1c1.3-1.2,2.2-3.2,4.7-1.8c-6.7,7.6-13.3,15.1-20,22.6
		c10.9-6.2,17.8-16.8,28.1-23.5c-8.3,11.3-18.1,21.1-27,31.9c11.5-9.7,21.4-21.1,33-30.6c0.4,0.4,0.7,0.7,1.1,1.1
		c-5.3,6.1-10.5,12.2-15.8,18.3c-1.1,1.3-4,2.5-2.5,3.8c1.9,1.7,1.7-2.2,3.2-2.6c0.1-0.1,0.1-0.3,0.2-0.5c2.3-0.9,4-2.5,5.7-4.2
		c8.6-8.6,17.1-17.2,25.8-25.8c1.3-1.3,2.5-3.4,5.8-1.5c-14.2,11.3-24.5,25.8-37.5,38.4c3.2,1,4.2-1.1,5.4-2.3
		c3.5-3.6,6.7-7.6,10.5-10.9c8.3-7.3,15.7-15.6,23.7-23.3c0.6-0.6,1.9-2.2,0.6-2.4c-4.2-0.8-2.1-4.1-2.7-6.3
		c-8.7,4.2-13.2,13.7-22.1,17.3c5.8-7.3,13.3-13.2,19.8-21.8c-9.7,3.4-13.4,11.8-21,15.2c2.5-4.7,6.9-7.5,9.8-11.7
		c1-1.4,4.4-2.6,2.6-4.2c-2-1.7-3.5,1.9-5.5,2.6c-0.3,0.1-0.4,0.5-0.6,0.7c-3.6,3.4-7.3,6.8-11,10.2c4.1-8.6,13-13.1,16.7-21.8
		c-2.7,1.9-4.7,4.9-8.5,4.5c-1-4.1,4.7-4.9,4.5-10c-3.8,5.6-9.7,6.6-12.5,11.3l0,0c-1,0.4-1.7,1.1-2.2,2.1c-0.4,0.4-0.9,0.8-1.3,1.3
		l0,0c-1.4,0.7-2.3,2.9-4.6,1.5c6.2-6.4,12.7-12.7,18.2-20c-3.2-0.6-3.6,2.5-5.4,3.5c-0.8-1.2-0.7-2.2,0.3-3.2
		c4.9-5.2,3-10.6,0.1-15.8c-1.7-3.1-2.9-5.1,0.4-8.5c1.2-1.2,4.3-6.6,0.2-10c-0.7-0.6-1.9-1.3-0.6-2.4c0.4-0.5,0.9-1.1,1.3-1.6
		c1.1-0.3,1.1-1.1,0.7-1.9c-0.5,0.4-1,0.7-1.4,1.1c-0.5,0.6-1.1,1.2-1.5,1.7c-3.3-0.3-4.1-1.5-1.6-4.1
		C351.6,84.1,354.9,80.7,358.3,77.2z M334.5,366.9c0.4-0.4,0.8-0.7,1.2-1.1c0.6-0.6,1.2-1.2,1.7-1.9c0.8-0.5,2.1-1.1,1.1-2
		c-0.6-0.6-1.2,0.7-1.7,1.2c-0.5,0.6-1.1,1.2-1.5,1.7c-0.4,0.4-0.7,0.7-1.1,1.1c-0.3,0.4-0.7,0.7-1,1.1c-0.8,0.3-1.7,1.3-1.1,1.7
		c1.1,0.8,1.6-0.6,2.2-1.4C334.3,367.2,334.4,367,334.5,366.9z M356.9,126.2c-0.5,0.5-1.6,0.8-0.9,1.7c0.5,0.6,1-0.1,1.3-0.6
		c0.6-0.2,1.2-0.5,0.7-1.3C357.9,125.8,357.2,126.1,356.9,126.2z M339.4,344c-0.9,0.2-1.4,0.8-1.4,1.7c0,0.1,0.2,0.4,0.3,0.4
		c1.1,0.1,1.2-1,1.7-1.6c0.1-0.4,0.3-1.2,0.2-1.2C339.6,343,339.5,343.5,339.4,344z M328.4,321.3c-0.5,0.6-1.1,1.2-1.5,1.7
		c-0.6,0.2-1.2,0.5-0.7,1.3c0.1,0.1,0.7-0.2,1.2-0.3c0.6-0.6,1.2-1.3,1.8-1.9c0.8-0.5,2.1-1.1,1.1-2
		C329.5,319.5,328.9,320.8,328.4,321.3z M328.4,331.3c0.6-0.6,2.2-1,1.3-2.2c-0.5-0.6-1.4,0.4-1.7,1.2c-0.6,0.2-1.2,0.5-0.7,1.3
		C327.3,331.8,328,331.4,328.4,331.3z M410.4,249.2c0.8-0.3,1.8-1.3,1.3-1.7c-1.2-1.2-1.4,0.6-2.1,1c-0.4,0.5-0.7,1-1.1,1.4
		C409.5,250.3,410.1,250.2,410.4,249.2z M402.1,174.1c0.5-0.4,1-0.9,1.5-1.3c3.4-2.2,6.9-4.2,7-9.1c-2.5,2.7-5.1,5.4-7.7,8.2
		c-0.6,0.5-1.2,1-1.7,1.5c-0.3,0.5-0.7,1-1,1.4C401.1,175.2,401.7,175.1,402.1,174.1z M342.9,283.4c0.7-0.6,2.2-1.1,1.4-2.2
		c-0.5-0.6-1.4,0.3-1.7,1.2c-0.4,0.4-0.7,0.7-1.1,1.1c-1.6,1.5-3.1,3-4.7,4.5c-2.9,2.9-5.8,5.8-8.7,8.7c-0.2,0.1-0.4,0.3-0.5,0.5
		c-1.4,1.3-2.7,2.6-5.1,4.8c3.5-0.8,4.4-2.4,5.5-3.8c0.4-0.4,0.7-0.7,1.1-1.1c3.5-2,6.3-4.8,8.4-8.4c2.9-0.4,3.1-3.6,5-5
		C342.6,283.8,342.8,283.6,342.9,283.4z M375.4,266c-0.6,0.6-1.2,1.3-1.7,1.9c-2.2,2.1-4.4,4.2-6.6,6.4
		c-6.1,6.2-12.7,11.8-18.1,18.7c-3.2,1.9-5.4,4.9-8,7.5c-4.2,4.4-8.4,8.7-12.5,13.1c0.1,0.1,0.1,0.1,0.2,0.2
		c4.3-4.1,8.7-8.2,13.1-12.4c2.6-2.6,6.3-4.3,7.1-8.5c1.4,0.5,2.2-0.5,3.1-1.3c5.7-5,11-10.4,15.9-16.2c1.8-2.6,6.3-3.1,5.8-7.5
		c1,0,2,0.5,2.5-0.9c0.5-0.4,1-0.9,1.5-1.3c0.5-0.6,1.1-1.2,1.6-1.8c0.8-0.5,2-1.1,1.1-2c-0.6-0.6-1.2,0.6-1.7,1.1
		c-0.5,0.6-1.1,1.2-1.6,1.8C376.4,265.1,375.9,265.6,375.4,266z M347.8,277.3c-0.9,0.2-1.4,0.8-1.5,1.7c0,0.1,0.6,0.4,0.7,0.4
		c0.5-0.5,0.8-1,1.3-1.5c0.1-0.4,0.4-1.2,0.3-1.2C347.9,276.2,347.9,276.8,347.8,277.3z M419.8,264.8c0.5-0.5,1-0.9,1.5-1.4
		c5.3-2.3,7-7.9,11.3-11c-0.4-0.4-0.9-0.8-1.3-1.2c-3.5,3.8-7.1,7.6-10.7,11.4c-0.6,0.5-1.2,1.1-1.7,1.5c-0.3,0.5-0.6,1-1,1.4
		C418.8,265.9,419.5,265.8,419.8,264.8z M336.8,371.3c-0.5,0.6-1.1,1.2-1.5,1.7c-0.4,0.3-0.7,0.7-1.1,1c-0.7,0.6-1.5,1.3-2.2,2
		c-1.3,1.5-3.3,2.5-4.1,5c3.2-0.7,5.2-1.8,4-5.1c1.6,0.8,2.6-0.1,3.3-1.4c0.2-0.1,0.3-0.3,0.4-0.4c0.6-0.6,1.2-1.3,1.9-1.9
		c0.8-0.5,2.1-1.1,1.1-2C337.9,369.5,337.3,370.9,336.8,371.3z M360.9,123.7c0.5-0.6,1.1-1.2,1.5-1.7c1.3-1.1,3.2-1.7,2.9-4.3
		c-1.4,1.4-2.6,2.5-3.7,3.6c-0.5,0.5-0.9,1.1-1.4,1.6c-0.8,0.5-2.1,1.1-1.1,2C359.8,125.5,360.3,124.2,360.9,123.7z M382.3,260.7
		c1-0.5,2-1.1,1.8-3.6c-1.3,1.5-2.1,2.3-2.8,3.1c-0.1,0.4-0.4,1.1-0.3,1.2C381.7,261.9,382,261.3,382.3,260.7z M334.7,281.7
		c-0.7,0.7-1.4,1.4-2.1,2.1c-1.4,1.4-3.3,2.5-4,4.8c3.6,0.5,3.3-2.5,4.7-4c0.7-0.7,1.4-1.4,2.1-2.1c0.8-0.5,2.1-1.1,1.1-2
		C335.8,279.9,335.2,281.2,334.7,281.7z M330.4,346c0.9-0.6,2.4-1.4,1.4-2.5c-0.6-0.7-1.4,0.7-1.9,1.5c-0.6,0.2-1.2,0.5-0.7,1.3
		C329.3,346.3,330,346.1,330.4,346z M384.8,264.9c-0.7,0.7-1.4,1.4-2.1,2.1c-2,2-3.9,4-5.8,6c-0.8,0.8-1.7,1.6-2.5,2.4
		c-2.8,2.8-6.1,5.2-7.7,9.2c2.5-3.1,6.8-4.2,8.4-8.2c2,0.4,1.9-1.4,2.6-2.4c2.1-1.8,4.7-3.1,5.8-5.9c1.5,0.2,2.2-0.6,2.1-2.1
		c1-0.3,1.3-1.2,0.7-1.8C385.6,263.6,385.2,264.6,384.8,264.9z M359.7,306.7c-0.7,0.7-1.4,1.4-2.1,2.1c-2.4,2.6-4.9,5.2-7.3,7.8
		c3.4-1.6,5.9-4,8-7c1.5,0.2,2.2-0.5,2.1-2.1c0.5-0.4,1-0.9,1.5-1.3c2-0.6,3-2.1,3.6-4c4.3-2.4,8-5.9,10.7-9.6
		c2.7-3.8,8.3-4.9,9.3-10.1c1-0.3,1.3-1.2,0.7-1.8c-0.5-0.5-1,0.4-1.3,0.8c-6.8,6.9-13.6,13.7-20.4,20.6c-1,1.1-2.1,2.1-3.1,3.1
		C360.7,305.8,360.2,306.3,359.7,306.7z M321.8,237.7c1.3-0.7,2.4-1.8,3.1-3.1c4.1-2.1,7.8-4.8,9.4-9.4c0.5-0.5,1-0.9,1.5-1.4
		c5.4-5.1,10.7-10.2,16.1-15.3c10.5-10.4,21.8-20,30.1-32.4c-4.4,5.1-10.8,8.2-15.1,13.4c-4.8,5.8-11.8,9.5-15.1,16.7
		c-5.9,5.3-11.5,10.8-16.7,16.7c-0.5,0.4-1,0.9-1.5,1.3c-2.2,2.5-5,3.8-8.8,4c0.8-1.9,3.1-2.9,1.5-5.2c-5.1,5.1-10.3,10.2-15.4,15.3
		c4.3-0.4,6.4-3.5,8.9-5.9c2.6-2.5,3.9-2.5,4.1,1.4c-1,1.1-2,2.1-3.1,3.1c-0.3,0.5-0.7,1-1,1.4C320.8,238.8,321.5,238.7,321.8,237.7
		z M328,281.5c1.5-0.8,3.2-1.5,3.7-3.5c1.8-1.8,3.5-3.5,5.3-5.3c0.8-1.1,2.9-1.5,1.9-3.9c-1,1.2-1.9,2.2-2.7,3.2
		c-2.1,1.4-3.8,3.2-5.2,5.2c-1.3,1.2-2.5,2.4-3.8,3.6c-0.5,0.6-1.9,1.1-1.2,1.7C327,283.5,327.6,282.3,328,281.5z M348.6,284.5
		c-1.3,1.4-2.6,2.7-4,4.1c-1.9,2.1-3.8,4.1-5.7,6.2c0.4,0.4,0.7,0.7,1.1,1.1c1.8-2.2,3.6-4.3,5.4-6.6c1.2-1.5,3.8-2.2,2.9-4.9
		c0.8,0.1,1.7,0.4,2.3-0.4c0.1-0.2-0.2-0.8-0.2-0.8C349.6,283.2,349,283.7,348.6,284.5z M353,306.5c2-1.1,3.8-2.3,4.3-6.1
		c-2.3,2.4-3.7,3.9-5.1,5.3c-1.5,1.6-3,3.2-4.5,4.7c-2.1,1.9-4.1,3.8-6.1,5.8c3.2-0.7,5.3-2.6,7-5.1
		C350.1,309.7,351.6,308.1,353,306.5z M361.5,106.3c2.6-0.1,3.5-2.3,4.9-3.9c0,0-0.8-1.1-1-1c-2.2,0.6-3.9,2-4.8,4.1
		c-0.9,0.6-1.9,1.2-2.7,1.7C360.1,108.5,360.8,107.6,361.5,106.3z M362.8,270.2c-3.2,3.1-6.3,6.2-9.5,9.3c0.4,0.4,0.8,0.8,1.3,1.2
		c3.5-2.7,6-6.3,8.9-9.6c1.4-1.2,3.3-2,3.5-5.7C365,267.7,363.9,268.9,362.8,270.2z M373.7,217.9c-5.4,5.3-10.9,10.7-16.3,16.1
		c-0.7,0.8-2.5,1.5-1.6,2.4c1.1,1,1.9-0.7,2.5-1.7c0.4-0.1,0.8,0.1,1-0.1c4.1-4.7,8.1-9.5,13.4-13c1.3-0.8,1.4-2.3,0.8-3.8
		c3.1,0.7,3.9-2.9,6.4-3.5c1.3-0.3,2-2.2,0.8-3.3c-1.2-1.1-2.6-0.3-3.4,1C376,213.8,374.8,215.9,373.7,217.9z M350.4,217.7
		c4.5-3.1,7.7-8,13-10.3c-3.2,7.8-8.7,13.5-15.9,17.8c-1.7,1.1-4.1,2.2-3,5.1c-1.5,1.1-3,2.2-3.7,4c0.4,0.4,0.8,0.8,1.3,1.3
		c1.1-1.4,2.1-2.9,3.1-4.3c4.9-2.5,7.9-7,11.8-10.7c4-3.8,7.8-7.7,11.7-11.5c-4.4,9.6-11.9,16.5-18.3,24.4
		c11.1-9.4,22.3-18.6,30.6-30.8c-0.8-0.1-1.2,0.3-1.6,0.6c-1.8,1.7-3.9,4.9-6.2,2.5c-1.5-1.5,2.5-3.1,3.4-5c1.3-3,6-3.4,5.6-8.3
		c-4,3.6-7.9,6.6-11.7,9.5c-1.6,1.3-2.4,3.7-5.1,3.4c-0.6-0.2-1.1-0.4-0.9-1.2c4.2-4.1,8.4-8.1,12.6-12.3c0.6-0.6,1.4-1.4,0.4-2.1
		c-0.9-0.7-2-0.3-2.7,0.5c-4.9,4.9-10.8,8.8-14.5,14.9c-4.1,3.3-6.9,7.6-10.5,11.4c-1.9,1.9-3.8,3.7-5.8,5.5c-1.6,1.3-3,3-4.7,3.9
		c-4.7,2.3-5.7,3.5-6.6,9.2c4.2-4.3,10.2-6,12-12.2C347.5,222.2,348.4,219.4,350.4,217.7z M365.6,310.7c7.9-6.2,15-13.2,20.5-21.7
		c-7.1,7-14.3,14-21.5,21c-2.4,2.5-4.9,5-7.3,7.4C360.1,315.2,364.5,314.8,365.6,310.7z M377.4,109.6c0.2,0.3,0.4,0.6,0.6,0.8
		c-0.6,1.3-2.2,2.7-0.4,4c1.3,0.9,2.5-0.4,3.5-1.4c2.7-2.7,5.4-5.4,8-8.1c0.5-0.5,1.5-0.9,0.7-2c-0.8-1.1-1.4-0.3-2.1,0.1
		c-2.2,1.1-4.2,2.5-5.7-1.1c-0.6-1.5-1.3,0.1-1.7,0.4c-1.7,1-3.9,1.7-5.1,3.2c-1.6,2-6,3.5-4.2,6.2
		C373.1,114.7,375,109.7,377.4,109.6z M341.7,209.6c0.5-0.1,1.2,0,1.5-0.3c10.7-10.6,21.4-21.3,32-31.9c1.4-1.4,2.9-2.9,3.6-4.9
		c3.2-0.6,3.5-3.2,4-5.9c-3.6,0.1-2.8,4-4.9,5.2c-3,2.4-6,4.8-8.9,7.3c-10.3,9.1-18.3,20.4-28.4,29.7c-1.5,1.3-3.1,2.6-5.3,4.4
		C340,214.2,339.9,210.8,341.7,209.6z M381.9,159.9c-17.1,12.8-30.4,29.7-45.9,45.5C341.8,203.5,381.8,163.8,381.9,159.9z
		 M387.5,297.7c-6.2,6.2-13.5,13.5-20.7,20.7C373.7,310.9,382.4,305.2,387.5,297.7z M385.2,275.2c-4.7,4.7-11.2,11.1-17.7,17.6
		C373.7,286,381.5,280.8,385.2,275.2z M329.9,194.7c-6.1,6.2-12.2,12.5-18.2,18.8C318.5,207.9,326.1,203.2,329.9,194.7z M350.3,300
		c6-4.2,11.7-8.8,16.7-16.2C360.7,289.9,355.5,294.9,350.3,300z M382.3,114.2c4.7,2.6,10.1-1.3,12.2-9.1
		C390.5,108.7,387.1,112.4,382.3,114.2z M390,303c-3.8,3.4-8.4,7.7-13,11.9C383.2,312.2,387,307.3,390,303z M367.8,109.3
		c2.6-1.2,4.3-4.3,6.8-6.6c0.1-0.1-0.4-0.8-0.7-1.1c-0.3-0.4-0.6-0.5-1.2-0.1c-2.1,1.6-4.4,3-6.4,4.7c-0.5,0.4-0.7,1.5-0.7,2.3
		C365.6,109.4,366.5,109.5,367.8,109.3z M426.5,212.6c-2,3.5-4,6.3-6.7,8.7c-0.4,0.3-1.4,0.6-0.7,1.5c0.3,0.4,0.7,1,1.1,1
		C422.7,223.9,427.5,215.6,426.5,212.6z M385.7,456.8c-4.3,2.6-7.4,6.2-10.4,10.1C379.6,464.2,383.7,461.6,385.7,456.8z
		 M383.5,466.8c4.4-2.5,8.5-5.1,11.3-10.7C390.4,460.2,387,463.5,383.5,466.8z M392.9,432.9c-3.2,3.5-6.3,7.1-8,8.9
		C387,440.4,390.3,436.9,392.9,432.9z M374.1,226.2c2.2-1.3,4.1-2.3,5.8-3.5c0.4-0.2,1.4-0.6,0.8-1.5c-0.3-0.4-0.7-0.6-1.1-1
		C378.4,222.6,373,221,374.1,226.2z M403.4,179.8c3.9-1.1,7-3.1,8.1-8.4C408.4,174.6,405.9,177.2,403.4,179.8z M390.8,444.1
		c-6.7,4.1-6.7,4.1-7.4,7.8C385.9,449.3,388.4,446.7,390.8,444.1z M341.4,309.3c-2.4,2.5-4.9,5.1-7.4,7.7
		C336.4,314.4,340.6,313.5,341.4,309.3z M364.1,110.8c-2.8,2.7-6.3,4.7-7.7,8.6C359,116.5,363.3,115.2,364.1,110.8z M421.2,228.1
		c-1.6,2.4-4.4,3.4-5.2,6.3c-0.1,0.2,1,1,1.1,1c2.1-1.7,4-3.5,4.5-6.3C421.7,228.9,421.6,228.7,421.2,228.1z M389.6,311.3
		c-2.3,2.1-4.7,4.2-7.6,6.9C386.9,317.5,387.4,313.6,389.6,311.3z M366.6,292.2c-2,2.4-3.5,4.4-4.5,5.7
		C364,297.5,365.6,295.6,366.6,292.2z M416.4,241.8c-1.9,1.8-3.7,2.7-4.8,6C414.8,246.4,416.7,245.6,416.4,241.8z M328.3,430.6
		c2.5-0.5,3.1-2,4.2-4.5C330.3,427.5,329.2,428.5,328.3,430.6z M310.4,197.5c-1.9,1.9-3.4,2.6-4.1,5.8
		C308.4,201.2,310,200.5,310.4,197.5z M339.4,278.5c-0.1-0.1-0.3-0.5-0.5-1c-0.7,0.6-1.8,1.1-1.8,2.2c0,0.2,0.6,0.6,1,0.6
		C339.2,280.4,339.5,279.7,339.4,278.5z M417.7,239.8c-1.1,0.2-1.2,1-1.1,1.6c0.1,0.3,0.1,1.1,1,0.7c0.7-0.3,1.2-0.7,1-1.5
		C418.5,240.2,418,240,417.7,239.8z M377.4,315.2c-2,0.5-2.7,1.3-3.3,2.5C376,318.2,376.5,317,377.4,315.2z M331.1,326.8
		c-0.3,0.4-0.7,0.9-1.1,1.4c0.4,0.1,0.9,0.4,1.2,0.2c0.4-0.2,0.7-0.7,0.8-1.1C332.1,327.2,332.1,326.3,331.1,326.8z M355,94.3
		c-0.3,0.4-0.7,0.9-1.1,1.4c0.4,0.1,0.9,0.4,1.2,0.2c0.4-0.2,0.7-0.7,0.8-1.1C356.1,94.7,356.1,93.8,355,94.3z M336.3,381.5
		c-0.3-0.4-0.5-0.6-0.7-0.8c-0.3,0.4-0.5,0.8-0.7,1.3c-0.1,0.1,0.4,0.4,0.6,0.6C335.8,382.2,336.1,381.9,336.3,381.5z M340.5,369
		c-0.3-0.4-0.5-0.6-0.7-0.8c-0.3,0.4-0.5,0.8-0.7,1.3c-0.1,0.1,0.4,0.4,0.6,0.6C340,369.7,340.3,369.4,340.5,369z M340.4,360.9
		c-0.1-0.3-0.2-0.6-0.3-0.8c-0.3,0.3-0.7,0.4-0.9,0.7c-0.1,0.2,0.1,0.6,0.3,0.7C340,361.8,340.3,361.4,340.4,360.9z M332.2,419.2
		c-0.3-0.4-0.5-0.6-0.7-0.8c-0.3,0.3-0.6,0.6-0.7,1.1c-0.1,0.1,0.3,0.4,0.5,0.6C331.6,419.8,331.9,419.5,332.2,419.2z M325.5,266.2
		c0.3,0.3,0.5,0.5,0.7,0.7c0.2-0.4,0.6-0.7,0.7-1.2c0.1-0.2-0.4-0.5-0.6-0.7C326,265.4,325.7,265.8,325.5,266.2z M368.7,390.9
		c-0.3-0.4-0.5-0.6-0.7-0.8c-0.3,0.4-0.5,0.8-0.7,1.3c-0.1,0.1,0.4,0.4,0.6,0.6C368.2,391.6,368.4,391.3,368.7,390.9z M373.9,260.8
		c-0.3-0.4-0.5-0.6-0.6-0.8c-0.3,0.3-0.6,0.6-0.7,1.1c-0.1,0.1,0.3,0.4,0.5,0.6C373.3,261.3,373.6,261,373.9,260.8z M428.1,239.8
		c0.4-0.3,0.7-0.5,1.1-0.8c-0.2-0.2-0.5-0.6-0.6-0.6c-0.5,0.2-0.9,0.5-1.3,0.7C427.5,239.2,427.7,239.5,428.1,239.8z M310.3,241.2
		c-0.3-0.3-0.5-0.8-0.6-0.7c-0.5,0.2-0.8,0.4-1.3,0.6c0.2,0.2,0.5,0.6,0.7,0.6C309.5,241.7,309.9,241.4,310.3,241.2z M400.8,83.2
		c0.8,0.3,1-0.3,1.1-0.7c0-0.2-0.5-0.5-0.6-0.4c-0.4,0.2-0.7,0.5-1.1,0.8C400.5,82.9,400.7,83.1,400.8,83.2z M386.4,256.4
		c-0.3-0.4-0.5-0.6-0.7-0.8c-0.3,0.4-0.5,0.8-0.7,1.3c-0.1,0.1,0.4,0.4,0.6,0.6C385.9,257.1,386.1,256.7,386.4,256.4z M329.6,337.1
		c0.3,0.3,0.5,0.5,0.7,0.7c0.2-0.4,0.6-0.7,0.7-1.2c0.1-0.2-0.4-0.5-0.6-0.7C330.2,336.3,329.9,336.7,329.6,337.1z M332.2,319
		c-0.3-0.4-0.5-0.6-0.7-0.8c-0.3,0.4-0.5,0.8-0.7,1.3c-0.1,0.1,0.4,0.4,0.6,0.6C331.6,319.7,331.9,319.3,332.2,319z"/>
	<path id="XMLID_15_" class="st4" d="M334.3,161.4c1,2.3-1.4,2.7-2.4,3.8c-6.8,7.9-13.7,15.6-20.6,23.5c-1.6,1.2-3.1,2.5-4.9,3.9
		c-1.1-2.9,0.1-5.2,1.5-7.5c1.4-1.5,3.6-2.4,3.4-5c4-1,6.1-4,8.1-7.2c-3.4,1.7-6.1,4.1-8,7.3c-2,0.8-3.2,2.4-4.4,4.1
		c-2.6-3.6,0.1-6.1,2-8.7c0.8-1.1,2.9-1.5,1.9-3.9c-1,1.1-1.9,2.2-2.7,3.2c-3.6-5.6,2.5-7.3,4.2-10.8c0.8-1.8,4-2,3.3-4.9l-0.2,0.2
		c2.8,1.4,3.8-1.3,5.2-2.6c5.4-5,10.2-10.7,16.3-15c0.2,0.3,0.5,0.6,0.7,0.9c-1.5,1.7-2.9,3.4-4.4,5.1c-6.8,5.6-12,12.6-17.3,19.4
		c0.3,0.3,0.6,0.7,0.9,1c6.2-5.4,12.4-10.9,18.7-16.4c0.6,3.5-3.5,3.8-4.3,6.3c-4.2,4-8.1,8.1-11.2,14.2c3.6-0.8,5-3.2,6.9-4.9
		C329.1,165.4,331,162.5,334.3,161.4z"/>
	<path id="XMLID_14_" class="st4" d="M324.6,147.6c-3.1,4-6.2,8-9.3,12l0.2-0.2c-2.6,2.4-5.3,4.8-8,7.2c2-9.5,9-14.6,16.2-19.7
		C324,147.1,324.3,147.3,324.6,147.6z"/>
	<path id="XMLID_13_" class="st4" d="M336.8,141.9c3.3-3.4,4.8-8.9,12-9.9c-4.4,4.2-7.9,7.5-11.3,10.8
		C337.2,142.6,337,142.2,336.8,141.9z"/>
	<path id="XMLID_12_" class="st4" d="M334.2,161.5c0.1-0.4,0.1-0.7,0.1-1.1c0.4-0.3,0.7-0.6,1.1-1c1.2-0.9,2.4-1.7,2.9-3.3
		c0.4-0.4,0.8-0.8,1.3-1.2c1.3,0.3,1.5-2.1,3.4-0.8C339.9,156.8,338.4,160.6,334.2,161.5z"/>
	<path id="XMLID_11_" class="st4" d="M315.5,147c-0.2,2.5-1.4,4.2-4,4.8c-1-3.1,1.9-4,3.3-5.7C315.1,146.4,315.3,146.7,315.5,147z"
		/>
	<path id="XMLID_10_" class="st4" d="M323.7,146.8c-0.4-2,1.4-2,2.4-2.6c0.8-0.5,0.7,0.4,0.8,0.7c0.6,2.1-1.5,1.8-2.3,2.6
		C324.3,147.3,324,147.1,323.7,146.8z"/>
	<path id="XMLID_9_" class="st4" d="M314.8,146.2c0.8-1.3,2.6-2,3.1-1c0.6,1.3-1.2,1.7-2.4,1.8C315.3,146.7,315.1,146.4,314.8,146.2
		z"/>
	<path id="XMLID_8_" class="st4" d="M321.8,285.7c-0.4,0.8-1.1,2.1-1.9,1.5c-1.1-0.8,0.3-1.6,1-2.2
		C321.2,285.2,321.5,285.4,321.8,285.7z"/>
	<path id="XMLID_7_" class="st4" d="M343.7,151.2c0.3-0.1,0.7-0.2,1-0.2c1.1,1,0.1,1.5-0.5,1.9c-0.7,0.5-1.2,0.1-1.2-0.8
		C343.3,151.8,343.5,151.5,343.7,151.2z"/>
	<path id="XMLID_6_" class="st4" d="M346.5,148c1.1-1.1,2.2-2.2,3.4-3.4c0.8-0.5,1.7-0.9,2.6-1.4c-1.9,2-1.5,6.3-5.8,5.8
		C346.6,148.7,346.5,148.3,346.5,148z"/>
	<path id="XMLID_5_" class="st4" d="M350,163.4c-1.5,2.4-3,3.9-6.1,5.8C345.2,165.3,346.4,163.6,350,163.4z"/>
	<path id="XMLID_4_" class="st4" d="M344.6,151.1c0.4-1.1,0.9-2.1,2.2-2.2C347.1,150.8,346.4,151.5,344.6,151.1z"/>
	<path id="XMLID_3_" class="st4" d="M377.4,109.6c0.8-2.1,2-3.8,4.8-3.9c-0.4,2.5-2.4,3.5-4.1,4.8
		C377.8,110.2,377.6,109.9,377.4,109.6z"/>
</g>
<path id="XMLID_2_" class="st5" d="M276.1,436.1c4.9,4.9,9.8,9.7,14.6,14.4c-0.1,0.1-0.1,0.1-0.1,0.2c-0.2,0-0.4,0-0.6,0
	c-6.4,0-13,0-19.4,0c-0.5,0-0.8-0.1-1.1-0.5c-7-7.1-14.1-14.2-21.1-21.3c-0.3-0.3-0.4-0.5,0-0.8c7.1-7.1,14.1-14.2,21.2-21.3
	c0.3-0.3,0.5-0.4,0.9-0.4c6.6,0,13.1,0,19.7,0c0.2,0,0.3-0.1,0.5,0.2c-4.9,4.8-9.7,9.6-14.6,14.4c0.4,0.2,0.6,0.2,0.8,0.2
	c9.3,0,18.6,0,27.9,0c0.6,0,0.7,0.2,0.7,0.7c-0.1,4.4-0.1,8.8,0,13.2c0,0.6-0.1,0.8-0.7,0.8c-9.3,0-18.6,0-27.9,0
	C276.7,435.9,276.4,435.9,276.1,436.1z"/>
<path id="XMLID_1_" class="st5" d="M157.2,441.7c3-2.9,5.8-5.7,8.7-8.6c-0.3-0.2-0.5-0.1-0.7-0.1c-5.3,0-10.6,0-15.9,0
	c-0.6,0-0.7-0.2-0.7-0.7c0.1-2.5,0.1-4.9,0-7.4c0-0.5,0.2-0.6,0.6-0.6c5.3,0,10.6,0,15.9,0c0.2,0,0.5,0,0.7,0
	c-2.9-2.9-5.7-5.7-8.5-8.5c0.3-0.3,0.4-0.2,0.6-0.2c3.7,0,7.4,0,11.1,0c0.4,0,0.7,0.1,1,0.4c4.1,4.1,8.1,8.2,12.3,12.3
	c0.4,0.4,0.3,0.5,0,0.8c-4.1,4.1-8.2,8.2-12.3,12.3c-0.2,0.2-0.4,0.4-0.7,0.4C165.3,441.7,161.4,441.7,157.2,441.7z"/>
</svg>
