<?xml version="1.0" encoding="utf-8"?>
<!-- Generator: Adobe Illustrator 17.0.0, SVG Export Plug-In . SVG Version: 6.00 Build 0)  -->
<!DOCTYPE svg PUBLIC "-//W3C//DTD SVG 1.1//EN" "http://www.w3.org/Graphics/SVG/1.1/DTD/svg11.dtd">
<svg version="1.1" id="Ebene_1" xmlns="http://www.w3.org/2000/svg" xmlns:xlink="http://www.w3.org/1999/xlink" x="0px" y="0px"
	 width="1683.78px" height="2383.94px" viewBox="0 0 1683.78 2383.94" enable-background="new 0 0 1683.78 2383.94"
	 xml:space="preserve">
<g>
	<path display="none" fill="#121211" d="M1007.44,839.037c0.354,0,0.708,0,1.062,0c6.229,2.719,12.08,5.803,13.086,13.562
		c-0.094,1.937-0.269,3.874-0.27,5.811c-0.012,190.663-0.012,381.326,0,571.989c0,1.937,0.177,3.874,0.271,5.81
		c-1.005,7.762-6.855,10.851-13.088,13.57c-0.354,0-0.708,0-1.062,0c-1.332-1.808-3.266-0.952-4.897-0.953
		c-128.11-0.046-256.221-0.047-384.331,0.008c-1.597,0.001-3.549-0.972-4.834,0.944c-0.354,0-0.708,0-1.062,0
		c-6.252-2.697-12.068-5.814-13.086-13.562c0.094-1.937,0.269-3.874,0.27-5.811c0.012-190.663,0.012-381.326,0-571.989
		c0-1.937-0.177-3.874-0.271-5.81c1.017-7.75,6.832-10.873,13.088-13.57c0.354,0,0.708,0,1.062,0
		c1.285,1.916,3.237,0.944,4.834,0.944c128.11,0.055,256.221,0.054,384.331,0.008
		C1004.175,839.989,1006.108,840.845,1007.44,839.037z M606.551,1144.559c0,95.042-0.001,190.083,0.001,285.125
		c0,9.998,2.067,12.049,12.2,12.049c127.784,0.003,255.568,0.004,383.352,0c10.106,0,12.162-2.054,12.162-12.087
		c0.001-190.083,0.001-380.167,0-570.25c0-10.367-1.966-12.315-12.466-12.315c-127.607-0.002-255.214-0.002-382.821,0
		c-10.47,0-12.428,1.953-12.428,12.353C606.551,954.476,606.551,1049.518,606.551,1144.559z"/>
	<path fill="#E30664" d="M809.974,964.587c-60.241,1.108-113.418,21.993-158.189,63.791c-7.138,6.664-15.214,8.521-22.766,5.022
		c-7.771-3.601-12.809-11.72-12.458-19.969c0.233-5.485,2.859-9.791,6.695-13.406c41.323-38.94,89.91-63.518,146.115-71.758
		c80.306-11.773,151.989,8.801,215.008,59.787c4.806,3.888,9.297,8.176,13.811,12.41c8.005,7.507,8.24,19.379,0.655,27.563
		c-7.973,8.602-19.607,9.455-27.852,1.642c-31.532-29.877-68.397-49.713-110.743-59.412
		C843.977,966.53,827.466,965.015,809.974,964.587z"/>
	<path fill="#E30664" d="M810.654,989.95c52.646,1.3,98.41,19.212,136.715,55.465c8.821,8.349,9.009,19.975,0.649,28.725
		c-7.984,8.358-19.611,8.418-28.31,0.252c-33.701-31.636-73.672-46.883-119.814-43.907c-38.028,2.453-70.978,17.494-98.568,43.942
		c-7.123,6.828-16.173,8.164-24.232,3.444c-7.897-4.624-11.828-13.969-9.633-22.751c0.843-3.373,2.642-6.113,5.101-8.505
		c31.43-30.583,68.951-48.637,112.33-54.689C793.484,990.728,802.128,990.371,810.654,989.95z"/>
	<path fill="#E30664" d="M903.568,1105.491c-0.111,8.433-5.188,16.229-12.624,18.987c-7.988,2.962-15.212,1.562-21.489-4.478
		c-34.482-33.18-83.431-33.091-118.068,0.168c-8.302,7.971-20.268,7.99-28.003,0.045c-8.19-8.414-8.276-20.16-0.208-28.363
		c47.552-48.341,127.121-48.414,174.551-0.219C901.681,1095.649,903.91,1100.161,903.568,1105.491z"/>
</g>
<path fill="#DA0567" d="M810.265,1248.674c-9.099-0.034-17.535-1.763-25.598-5.274c-5.716-2.489-10.955-5.749-15.702-9.791
	c-0.301-0.256-0.42-0.193-0.654,0.067c-5.034,5.599-11.116,9.608-18.267,11.981c-4.569,1.517-9.268,2.225-14.076,2.121
	c-6.817-0.147-13.27-1.775-19.262-5.048c-9.741-5.32-16.437-13.249-20.051-23.747c-1.695-4.924-2.454-10.018-2.125-15.209
	c0.898-14.185,7.246-25.326,19.021-33.301c5.118-3.467,10.813-5.561,16.923-6.465c6.232-0.922,12.387-0.506,18.428,1.327
	c0.381,0.116,0.546,0.117,0.693-0.33c2.562-7.781,6.497-14.802,11.789-21.054c6.962-8.226,15.453-14.337,25.482-18.292
	c4.714-1.859,9.589-3.11,14.615-3.783c4.602-0.616,9.216-0.755,13.836-0.353c12.354,1.075,23.503,5.342,33.327,12.912
	c11.148,8.591,18.693,19.681,22.606,33.214c1.269,4.389,2.018,8.872,2.276,13.436c0.776,13.753-2.49,26.468-9.864,38.102
	c-4.305,6.792-9.745,12.54-16.246,17.281c-5.624,4.101-11.755,7.2-18.391,9.29c-4.403,1.387-8.909,2.271-13.511,2.667
	C813.664,1248.587,811.811,1248.636,810.265,1248.674z"/>
<path fill="#FFFFFF" d="M736.515,1165.625c4.152-0.024,7.986,0.542,11.749,1.63c0.436,0.126,0.556,0.27,0.424,0.736
	c-1.73,6.135-2.468,12.396-2.288,18.765c0.295,10.455,3,20.251,8.111,29.376c3.264,5.827,7.363,11.004,12.266,15.539
	c0.279,0.258,0.219,0.383,0.01,0.616c-2.527,2.818-5.383,5.245-8.59,7.258c-4.57,2.869-9.521,4.75-14.838,5.639
	c-4.196,0.701-8.403,0.728-12.619,0.084c-5.951-0.91-11.435-3.01-16.423-6.375c-7.124-4.807-12.209-11.243-15.244-19.283
	c-1.944-5.151-2.8-10.497-2.459-15.986c0.7-11.294,5.294-20.733,13.812-28.202c5.463-4.79,11.827-7.781,18.958-9.133
	C731.814,1165.829,734.271,1165.592,736.515,1165.625z"/>
<path fill="#FFFFFF" d="M773.635,1221.578c-2.102-2.061-3.968-4.231-5.649-6.558c-4.794-6.637-7.837-14.006-9.12-22.086
	c-1.048-6.603-0.796-13.168,0.731-19.683c0.108-0.462,0.221-0.426,0.543-0.193c1.695,1.225,3.294,2.562,4.792,4.021
	c0.173,0.168,0.271,0.312,0.225,0.594c-1.568,9.814-0.076,19.15,4.442,27.997c1.634,3.199,3.655,6.142,6.017,8.849
	c0.131,0.15,0.277,0.282,0.218,0.518C775.285,1217.255,774.577,1219.419,773.635,1221.578z"/>
<path fill="#FFFFFF" d="M808.535,1228.029c-11.025-0.253-21.516-4.635-30.097-13.471c-0.218-0.224-0.286-0.42-0.223-0.737
	c0.573-2.885,0.857-5.802,0.79-8.742c-0.221-9.773-3.39-18.475-9.552-26.075c-0.542-0.669-1.106-1.324-1.703-1.943
	c-0.271-0.281-0.305-0.543-0.231-0.888c0.705-3.28,1.723-6.459,3.187-9.478c5.331-10.989,13.785-18.493,25.31-22.514
	c4.285-1.495,8.724-2.254,13.258-2.26c11.11-0.015,20.939,3.527,29.279,10.919c7.185,6.369,11.83,14.294,13.616,23.73
	c2.493,13.171-0.482,25.099-8.884,35.559c-5.831,7.26-13.375,11.997-22.357,14.437
	C817.282,1227.557,813.558,1228.003,808.535,1228.029z"/>
<path fill="#FFFFFF" d="M765.662,1174.944c-1.382-1.277-2.78-2.44-4.266-3.493c-0.013-0.01-0.027-0.019-0.039-0.03
	c-0.324-0.298-0.926-0.396-0.994-0.819c-0.063-0.397,0.201-0.852,0.338-1.276c2.552-7.915,6.758-14.829,12.66-20.681
	c7.178-7.117,15.736-11.745,25.618-13.88c5.65-1.22,11.358-1.485,17.095-0.747c13.362,1.719,24.432,7.717,33.172,17.954
	c5.614,6.576,9.243,14.155,11.001,22.617c1.007,4.847,1.287,9.746,0.857,14.682c-0.881,10.116-4.443,19.188-10.658,27.206
	c-4.573,5.9-10.206,10.552-16.824,14.006c-5.09,2.656-10.479,4.409-16.153,5.268c-4.129,0.625-8.278,0.727-12.44,0.347
	c-5.467-0.499-10.718-1.84-15.755-4.013c-5.057-2.182-9.642-5.111-13.769-8.758c-0.154-0.136-0.274-0.232-0.157-0.488
	c0.897-1.959,1.607-3.986,2.186-6.06c0.007-0.026,0.034-0.046,0.062-0.081c8.677,8.453,19.044,13.032,31.171,13.358
	c9.686,0.26,18.601-2.363,26.607-7.839c16.743-11.453,23.533-32.001,17.635-50.738c-5.995-19.045-23.607-31.781-43.66-31.613
	C788.534,1140.04,770.324,1154.508,765.662,1174.944z"/>
<path fill="#FFFFFF" d="M776.39,1212.13c-3.271-3.901-5.723-8.259-7.381-13.052c-2.218-6.41-2.898-12.983-2-19.862
	C775.108,1188.861,778.201,1199.789,776.39,1212.13z"/>
<g id="Ausrufer">
	<path fill="#030303" d="M876.555,919.24c0.669,0,1.338,0,2.746,0c-2.44,2.42-4.504,4.431-6.517,6.491
		c-0.413,0.423-1.24,0.789-0.795,1.616c0.599,1.113,1.357,0.227,2.055,0.09c3.474-0.681,4.518-4.489,7.473-5.854
		c1.819,0.505-0.597,3.159,1.739,3.355c1.672,0.14,2.158-1.449,3.198-2.213c3.447-2.534,6.764-5.209,9.082-8.925
		c0.469-0.751,1.507-0.359,2.305-0.31c-0.546,0.757-1.093,1.513-1.639,2.27c-2.923,2.546-5.731,5.175-6.795,9.115
		c2.625-2.522,5.987-3.946,8.535-6.419c0.121-0.056,0.239-0.121,0.365-0.165c1.546-0.549,1.382-4.192,3.27-2.805
		c1.329,0.976-1.413,2.262-2.293,3.407c-0.663,0.862-0.478,1.751-0.677,2.626c-0.447,0.416-0.894,0.833-1.341,1.249
		c-0.258,0.373-0.515,0.746-0.773,1.118c0.683,0.322,1.206,0.232,1.454-0.565c0.4-0.35,0.801-0.701,1.201-1.051
		c1.467-0.709,2.709-1.685,3.873-2.842c0.612-0.608,1.013-2.202,2.349-1.33c1.344,0.877,0.796,2.078-0.002,3.57
		c3.665-3.118,5.833,0.376,8.411,1.604c1.435,0.683,2.966,2.423,2.031,3.977c-0.783,1.302-2.113,3.069-4.462,2.472
		c-1.153-0.293-1.365,0.035-0.63,1.06c1.634,2.281-1.154,4.42,0.047,6.792c1.254,2.476,0.407,4.758-1.856,6.435
		c-0.086,0.064-0.102,0.221-0.148,0.328c1.083,0.934,1.654-0.455,2.507-0.625c1.038-0.207,1.648-2.2,3.127-0.324
		c1.384,1.755-0.855,1.944-1.195,2.432c-1.328,1.901-2.867,3.562-5.761,3.952c-2.526,0.341-2.603,3.685-2.406,5.667
		c0.296,2.98,0.671,5.598-2.104,7.604c-0.474,0.343-1.02,0.763-0.483,1.639c1.969,3.21-0.343,5.368-2.02,7.662
		c-0.136,0.079-0.242,0.187-0.319,0.322c-0.484,0.332-1.393,0.69-1.052,1.244c0.447,0.726,1.058,0.237,1.359-0.439
		c0.273-0.273,0.546-0.546,0.819-0.818c2.755-0.423,3.712-3.647,6.429-4.13c-1.21,3.746-3.614,6.719-6.196,9.725
		c4.248-2.313,7.158-6.977,12.512-7.279c-4.159-0.277-1.694,4.724-4.297,5.5c2.543-0.72,4.334-2.508,6.294-4.036
		c2.632,0.225,1.427,1.726,0.988,2.972c-0.242,0.374-0.484,0.748-0.726,1.122c0.681,0.304,1.202,0.211,1.443-0.58
		c0.998,0.37,2.388-1.648,2.971,0.177c0.692,2.167,3.396,3.896,2.097,6.389c-0.678,1.301-0.529,1.318,0.465,2.16
		c2.799,2.374-0.155,3.911-1.357,5.677c4.022,0.712,4.192,1.251,1.708,4.784c-0.252,0.372-0.504,0.744-0.757,1.115
		c0.682,0.315,1.201,0.219,1.447-0.571c0.733,5.746,5.447,3.376,8.57,4.096c1.547,0.357,3.244,0.062,4.873,0.062
		c-0.179,4.521-2.553,8.579-2.111,13.235c0.215,2.27-2.593,3.555-3.521,5.585c-0.496,1.085-2.73,2.585,1.06,2.991
		c3.033,0.325,5.582,3.212,7.226,5.769c1.591,2.474-0.612,5.197-2.527,6.529c-2.635,1.832-4.449,4.336-7.094,6.487
		c4.262,0.05,3.514,2.418,2.593,4.76c1.345,1.054,2.325-1.855,3.54-0.256c1.382,1.818-0.958,2.121-1.471,3.18
		c-0.347,0.716-0.755,1.402-1.136,2.102c-1.283,2.043-4.336,2.399-5.339,5.637c3.086-1.083,5.391-2.07,6.026-5.09
		c1.174-0.871,2.781-1.05,3.338-2.173c5.342,7.324-0.339,11.424-5.217,15.766c1.883,0.762,2.135-1.061,3.477-1.103
		c-1.476,5.14-3.375,9.723-8.949,11.717c-1.248,0.446-2.424,0.504-3.576,0.313c-3.201-0.531-4.259,0.728-3.187,4.007
		c0.042,0.127,0.1,0.297,0.051,0.399c-1.686,3.527,1.252,7.312-0.606,10.825c-0.252,0.371-0.505,0.743-0.757,1.114
		c0.678,0.31,1.203,0.225,1.452-0.566c0.155,4.579,2.89,9.476-1.674,13.474c-0.553,0.484-0.41,0.925-0.218,1.672
		c0.849,3.291,0.048,6.158-3.312,8.238c3.987-0.138,2.798,2.014,2.177,3.762c-1.404,3.954-1.825,8.098-1.874,12.204
		c-0.036,3.014-1.293,5.114-2.965,6.747c2.495,2.151,1.406,4.266,0.164,6.249c-0.609,0.972-2.25,1.842,0.453,1.939
		c0.18,0.006,0.421,0.291,0.513,0.5c1.087,2.47-1.912,5.552-1.695,5.643c3.722,1.554,1.822,3.558,0.508,5.271
		c-0.903,1.177-0.867,0.978,0.462,1.87c2.011,1.349,0.811,3.477-0.616,5.052c-0.263,0.371-0.525,0.742-0.788,1.113
		c0.686,0.331,1.201,0.222,1.454-0.564c0.825,0.766,1.71,1.433,0.916,2.814c-2.188,3.806-2.163,8.308-3.873,12.387
		c-1.242,2.962-2.106,6.74-2.012,10.312c0.069,2.613,0.118,5.132-2.314,6.862c-0.427,0.33-0.855,0.66-1.282,0.99
		c-0.354,0.51-0.964,0.932-0.672,1.671c0.04,0.101,0.583,0.161,0.648,0.069c0.411-0.585,0.351-1.207-0.026-1.794
		c0.795,0.395,1.565,0.64,2.182-0.277c3.63,2.486,0.408,4.045-0.795,5.876c-0.269,0.372-0.539,0.744-0.808,1.116
		c0.688,0.339,1.209,0.243,1.459-0.559c1.581,2.213,1.069,4.192-0.676,6.033c-0.256,0.371-0.512,0.743-0.768,1.114
		c0.681,0.319,1.199,0.222,1.444-0.568c1.378,0.45,0.748,1.613,0.722,2.415c-0.075,2.327-1.606,4.194-0.222,7.101
		c1.321,2.775-3.316,4.04-4.554,6.749c2.716,0.037,3.987-2.036,5.576-3.534c0.816-0.769,1.294-1.499,2.442-0.209
		c1.282,1.44,0.327,1.81-0.716,2.204c-1.777,0.669-1.895,2.28-2.75,4.025c2.485-0.701,3.958-1.827,4.586-3.98
		c3.244,3.826-0.063,5.105-2.279,6.486c-1.037,0.646-1.591,1.265-0.954,2.108c0.652,0.863,1.911,0.628,2.4-0.284
		c0.862-1.608,2.316-2.307,3.771-3.306c0.323,8.7-4.621,11.128-15.279,7.739c0.28-1.364,3.166-1.017,1.984-3.484
		c-0.989,0.668-2.019,1.301-2.959,2.046c-0.221,0.175-0.249,0.513-0.653,0.716c-2.917,1.472-0.023-4.104-3.648-2.808
		c-2.05,0.733-2.696-1.943-1.07-4.878c-1.606,1.403-2.379,2.078-3.037,2.653c-0.51,0.204-0.654,0.075-0.633-0.33
		c0.216-4.089-3.641-4.658-5.834-6.636c-0.589-0.532-1.844-1.146-1.518-1.635c2.491-3.736-1.066-6.818-0.929-10.265
		c0.146-3.669,0.243-7.344,0.234-11.016c-0.012-5.167-0.513-10.366-0.077-15.489c0.248-2.917,0.002-5.842,0.52-8.799
		c0.67-3.82,0.873-7.81,0.182-11.742c-0.137-0.781-0.219-1.826,0.177-2.406c2.999-4.397-0.066-8.806,0.229-13.207
		c-0.089,5.747-1.458,11.316-2.146,16.965c-0.712,5.856-2.118,11.627-2.884,17.479c-0.363,2.777-0.613,5.631-0.744,8.399
		c-0.457,9.679,0.023,19.411-0.67,29.065c-0.164,2.286-1.008,5.436-3.027,7.539c-0.349,0.054-0.79,0.067-0.51,0.588
		c0.034,0.062,0.603-0.163,0.924-0.255c0.669,0.243,1.384-2.574,2.103,0.126c0.527,1.978,0.943,4.003,1.458,5.975
		c0.671,2.569-1.43,4.929-2.088,7.454c-0.518,1.989-3.026,2.518-5.568,3.17c-4.475,1.148-6.871-0.187-9.425-3.028
		c1.159-0.039,2.112-0.352,2.274-1.714c0.169-1.62,1.744-1.483,2.692-2.094c1.893-1.22,3.241-2.666,3.164-5.419
		c-2.394,2.394-6.115,2.889-6.573,6.629c-0.695,0.636-1.39,1.273-2.086,1.909c-3.115,0.731-3.115,0.731-2.922-3.755
		c1.537,0.681,2.862-0.332,3.499-1.204c2.202-3.013,5.739-4.752,7.516-8.123c0.243-0.462,1.932-0.188,0.68-1.412
		c-0.648-0.634-1.336-0.489-1.736,0.092c-2.79,4.05-8.18,5.71-9.867,10.758c-0.753,0.519-1.506,1.037-2.258,1.556
		c-0.323-1.255-1.431-2.305-0.982-3.761c4.595-1.836,6.457-6.39,9.789-9.501c-4.245,1.383-7.182,4.312-9.786,7.65
		c-0.185-2.198-0.065-4.027,2.16-5.564c1.287-0.889,2.595-2.612,2.68-5.158c-1.638,1.506-2.961,2.723-4.646,4.274
		c-0.356-1.778-0.824-3.776,0.14-4.632c1.166-1.035,2.358-1.586,1.5-4.722c-1.075,2.011-1.79,3.349-2.66,4.977
		c-2.706-5.255,2.356-6.818,3.544-11.021c-1.814,1.723-2.885,2.741-4.119,3.913c-0.628-2.698-0.471-4.836,1.418-6.566
		c0.796-0.074,1.754,0.034,1.573-1.245c-0.049-0.344-0.231-0.668-0.352-1.002c-0.584,0.516-1.167,1.032-1.751,1.548
		c-1.523-1.077-1.65-3.018-0.318-4.739c1.033-1.336,2.787-2.118,3.345-4.842c-1.584,1.471-2.651,2.462-3.718,3.453
		c1.51-4.207-2.558-8.846,1.201-12.677c0.37-0.377,0.595-0.975-0.234-1.075c-0.318-0.038-0.981,0.577-0.995,0.556
		c-0.755-1.099-0.701-2.405-0.246-3.478c0.552-1.302,1.545-2.416,2.347-3.612c0.754-0.516,2.082-1.209,1.332-2.014
		c-0.664-0.713-1.271,0.768-1.886,1.304c-0.665-0.088-1.575,2.813-2.008-0.175c-0.249-1.721,0.677-3.037,1.41-4.43
		c1.635-0.643,2.666-1.69,2.536-4.124c-1.268,1.417-2.219,2.48-3.17,3.543c-2.303-2.528-0.019-4.442,1.211-6.096
		c0.628-0.844,1.405-1.724,2.054-2.64c0.142-0.079,0.252-0.189,0.329-0.331c0.485-0.5,0.97-1.001,1.455-1.501
		c0.845-0.565,1.951-0.99,1.157-2.737c-0.698,0.828-1.28,1.518-1.863,2.208c-0.354,0.41-0.709,0.819-1.063,1.229
		c-0.272,0.273-0.544,0.547-0.816,0.82c-1.398,0.171-2.249,2.752-3.388,1.735c-2.072-1.849,0.556-2.9,1.427-4.233
		c0.271-0.415,0.298-0.99,0.436-1.491c1.702-0.132,2.682-0.832,2.193-2.76c-1.461,0.021-1.891,1.303-2.723,2.056
		c-2.353,1.605-2.357-0.474-1.896-1.537c0.788-1.816,1.738-3.063,0.018-5.136c-1.371-1.652,1.56-3.091,1.588-4.959
		c0.275-0.271,0.55-0.541,0.826-0.812c1.822-0.116,1.897-1.213,1.689-3.096c-1.069,1.188-1.79,1.989-2.51,2.79
		c-0.122,0.079-0.222,0.18-0.299,0.302c-2.549,0.731-2.545-0.756-1.904-2.394c0.418-1.068,1.277-1.964,1.939-2.938
		c1.337-1.249,3.421-1.929,3.455-5.049c-1.673,1.818-2.906,3.158-4.139,4.497c-4.285-2.662,1.028-4.1,0.797-6.245
		c0.153-0.083,0.269-0.2,0.349-0.352c1.842-0.828,3.192-1.996,2.964-4.258c1.187,0.643,1.771-0.186,2.374-0.967
		c0.353-0.398,0.707-0.796,1.06-1.194c0.618-0.387,1.596-0.843,0.868-1.617c-0.509-0.542-0.964,0.459-1.391,0.853
		c-0.428,0.476-0.856,0.953-1.283,1.429c-0.707,0.348-1.308,0.798-1.531,1.607c-1.392,0.851-2.499,1.99-3.389,3.349
		c-0.272,0.274-0.544,0.548-0.815,0.822c-2.793-0.043-1.603-1.95-1.245-3.092c0.338-1.078,1.266-1.971,1.935-2.945
		c0.373-0.45,1.423-0.884,0.918-1.385c-0.779-0.772-1.229,0.213-1.611,0.838c-0.52-0.132-1.268,1.687-1.58-0.175
		c-0.334-1.993,0.579-3.631,1.547-5.247c0.158-0.08,0.276-0.199,0.354-0.357c0.546-0.48,1.747-0.816,1.066-1.702
		c-0.382-0.497-1.12,0.255-1.389,0.911c-0.273,0.273-0.545,0.546-0.818,0.819c-3.388-0.981-1.385-2.518-0.431-3.984
		c0.888-1.364,0.829-1.354-0.643-2.653c-0.332-0.293-0.643-1.119-0.472-1.39c1.57-2.493-0.653-5.083,0.075-7.32
		c0.996-3.057-0.355-4.513-2.524-5.911c2.951-1.125,4.101-3.816,5.135-6.665c-1.888,1.988-3.776,3.977-5.665,5.965
		c-1.27-0.787-1.841-1.932-1.324-2.889c0.556-1.029,1.233-1.993,1.858-2.985c0.794-0.072,1.713,0.001,1.582-1.235
		c-0.025-0.24-0.124-0.634-0.268-0.675c-1.036-0.292-1.29,0.702-1.85,1.201c-0.663-0.071-1.689,2.859-1.973-0.189
		c-0.403-4.325,3.58-5.724,5.782-8.289c0.673-0.784,1.852-1.168,1.234-2.994c-2.173,2.002-4.184,3.855-6.288,5.794
		c-0.772-2.905-0.734-3.66,1.17-5.744c1.286-1.408,2.843-2.566,3.822-4.311c-1.268-0.807-1.551,0.755-2.388,0.823
		c-0.227-0.186-0.455-0.372-0.682-0.559c0.654-3.172,1.924-5.998,4.536-8.069c0.515-0.495,1.56-1.068,0.74-1.734
		c-0.578-0.469-1.093,0.573-1.428,1.187c-0.632,0.478-1.263,0.955-2.402,1.817c0.307-4.203,0.13-8.156,1.025-11.849
		c0.628-2.592,0.266-2.479-1.811-1.897c-2.796,0.784-2.821,0.697-2.715-2.02c-1.851,2.019-3.651,3.448-6.107,1.46
		c-5.939-4.807-6.237-5.617-3.481-11.534c-1.45,1.304-2.51,2.259-3.575,3.216c-2.451-4.188-1.964-8.545,1.297-11.907
		c1.316-1.357,2.596-2.75,3.892-4.126c3.488-0.344,3.438-5.415,7.234-5.388c0.276,1.392-1.206,1.645-1.646,2.547
		c-0.334,0.683-1.972,0.793-0.944,2.089c0.905,1.14,1.88-0.022,2.436-0.255c2.758-1.158,4.614-3.541,6.466-5.778
		c0.561-0.677,1.75-1.999,1.015-2.758c-1.24-1.281-1.876,0.229-2.746,1.067c-0.566,0.545-1.789,0.409-3.564,0.732
		c2.892-3.404,6.091-5.56,7.692-10.349c-5.897,5.682-10.956,10.557-16.015,15.433c-2.581-0.472-0.779,3.16-2.971,3.005
		c-1.919-3.074,3.082-5.16,1.963-6.803c-1.652-2.425-2.494-3.745,0.101-5.694c0.122-0.092,0.872-1.677-0.676-1.477
		c-0.832,0.108-0.957-0.307-0.827-0.828c1.147-4.589-1.825-10.301,3.739-13.701c0.842-0.514,1.349-1.348,1.183-2.431
		c1.136,0.363,1.72-0.429,2.42-1.091c4.478-4.235,8.971-8.455,13.481-12.657c0.991-0.924,1.762-2.536,3.694-1.404
		c-5.279,5.96-10.514,11.87-15.748,17.781c8.572-4.861,14.039-13.275,22.18-18.493c-6.54,8.9-14.257,16.666-21.307,25.13
		c9.057-7.629,16.877-16.637,26.002-24.149c0.278,0.275,0.557,0.551,0.835,0.826c-4.149,4.82-8.298,9.639-12.446,14.459
		c-0.818,0.982-3.119,2.005-2.02,2.985c1.504,1.341,1.322-1.709,2.543-2.062c0.078-0.023,0.101-0.237,0.149-0.362
		c1.779-0.729,3.142-1.991,4.478-3.337c6.75-6.803,13.525-13.582,20.322-20.337c1.059-1.052,2.015-2.688,4.553-1.152
		c-11.224,8.879-19.315,20.378-29.576,30.272c2.498,0.745,3.287-0.813,4.277-1.82c2.783-2.832,5.298-5.955,8.26-8.577
		c6.553-5.801,12.369-12.333,18.672-18.377c0.503-0.483,1.478-1.717,0.453-1.911c-3.355-0.635-1.637-3.272-2.136-5.011
		c-6.885,3.337-10.36,10.804-17.437,13.635c4.594-5.787,10.492-10.404,15.607-17.181c-7.647,2.716-10.578,9.325-16.587,12.016
		c1.938-3.677,5.472-5.932,7.766-9.201c0.763-1.088,3.473-2.047,2.027-3.351c-1.537-1.385-2.766,1.472-4.347,2.037
		c-0.197,0.07-0.279,0.415-0.46,0.583c-2.889,2.688-5.785,5.369-8.68,8.051c3.228-6.774,10.228-10.342,13.112-17.205
		c-2.179,1.454-3.705,3.879-6.693,3.561c-0.804-3.19,3.695-3.822,3.533-7.89c-2.953,4.407-7.653,5.157-9.88,8.88
		c0,0,0.011-0.009,0.011-0.009c-0.809,0.306-1.355,0.881-1.697,1.663c-0.353,0.332-0.705,0.665-1.058,0.997l0.013-0.005
		c-1.117,0.549-1.79,2.299-3.607,1.208c4.917-5.088,9.998-9.998,14.376-15.802c-2.539-0.48-2.837,2.002-4.284,2.8
		c-0.653-0.911-0.534-1.71,0.209-2.496c3.888-4.118,2.376-8.356,0.088-12.463c-1.341-2.406-2.303-4.06,0.352-6.688
		c0.923-0.914,3.392-5.182,0.119-7.858c-0.54-0.441-1.465-0.99-0.515-1.925c0.353-0.411,0.706-0.822,1.059-1.233
		c0.838-0.259,0.866-0.828,0.583-1.517c-0.375,0.287-0.75,0.574-1.124,0.861c-0.407,0.454-0.815,0.908-1.222,1.362
		c-2.604-0.218-3.22-1.173-1.233-3.193C871.296,924.696,873.918,921.961,876.555,919.24z M857.847,1147.647
		c0.31-0.292,0.62-0.583,0.93-0.875c0.449-0.487,0.899-0.974,1.348-1.461c0.63-0.376,1.616-0.823,0.836-1.603
		c-0.496-0.496-0.934,0.549-1.376,0.935c-0.409,0.46-0.817,0.921-1.226,1.381c-0.277,0.271-0.554,0.543-0.831,0.814
		c-0.27,0.276-0.541,0.551-0.811,0.826c-0.655,0.27-1.394,1.016-0.893,1.389c0.867,0.646,1.235-0.509,1.699-1.081
		C857.661,1147.892,857.769,1147.784,857.847,1147.647z M875.437,957.852c-0.422,0.36-1.303,0.624-0.695,1.334
		c0.407,0.475,0.8-0.066,1.007-0.518c0.501-0.163,0.919-0.413,0.573-1.001C876.273,957.583,875.744,957.783,875.437,957.852z
		 M861.682,1129.607c-0.725,0.182-1.129,0.638-1.137,1.393c-0.001,0.097,0.169,0.273,0.271,0.281c0.876,0.07,0.969-0.738,1.34-1.235
		c0.055-0.332,0.242-0.9,0.142-0.956C861.814,1128.82,861.759,1129.266,861.682,1129.607z M853.007,1111.753
		c-0.409,0.461-0.817,0.922-1.226,1.383c-0.505,0.175-0.96,0.414-0.556,1.022c0.054,0.082,0.587-0.155,0.899-0.244
		c0.474-0.497,0.949-0.995,1.423-1.492c0.631-0.376,1.616-0.823,0.836-1.604C853.886,1110.322,853.449,1111.367,853.007,1111.753z
		 M852.971,1119.646c0.489-0.509,1.768-0.782,1.015-1.7c-0.381-0.465-1.127,0.279-1.38,0.948c-0.512,0.178-0.963,0.425-0.532,1.03
		C852.13,1120.003,852.66,1119.746,852.971,1119.646z M917.671,1054.867c0.673-0.239,1.403-0.986,1.039-1.366
		c-0.932-0.974-1.102,0.494-1.666,0.806c-0.277,0.372-0.555,0.745-0.832,1.117C916.905,1055.779,917.424,1055.679,917.671,1054.867z
		 M911.099,995.672c0.403-0.348,0.805-0.695,1.208-1.043c2.693-1.693,5.458-3.328,5.552-7.165c-2.02,2.148-4.041,4.296-6.061,6.444
		c-0.454,0.403-0.908,0.807-1.362,1.21c-0.265,0.372-0.53,0.744-0.795,1.116C910.327,996.566,910.848,996.471,911.099,995.672z
		 M864.439,1081.856c0.55-0.478,1.751-0.813,1.066-1.702c-0.383-0.497-1.122,0.256-1.391,0.913
		c-0.273,0.273-0.546,0.546-0.819,0.818c-1.239,1.192-2.478,2.383-3.717,3.575c-2.272,2.299-4.544,4.598-6.816,6.897
		c-0.167,0.081-0.289,0.204-0.367,0.37c-1.073,1.014-2.147,2.029-4.003,3.783c2.769-0.619,3.502-1.866,4.334-2.997
		c0.273-0.272,0.547-0.545,0.82-0.817c2.801-1.586,5.017-3.756,6.573-6.585c2.282-0.326,2.414-2.84,3.971-3.903
		C864.244,1082.128,864.361,1082.01,864.439,1081.856z M890.039,1068.134c-0.45,0.504-0.9,1.008-1.35,1.513
		c-1.737,1.675-3.475,3.35-5.212,5.026c-4.808,4.868-10.048,9.317-14.312,14.714c-2.54,1.485-4.262,3.843-6.278,5.887
		c-3.296,3.442-6.591,6.884-9.887,10.325c0.042,0.046,0.084,0.092,0.126,0.137c3.435-3.247,6.87-6.494,10.305-9.741
		c2.041-2.098,5.014-3.414,5.624-6.71c1.113,0.359,1.698-0.407,2.421-1.039c4.508-3.94,8.731-8.153,12.546-12.772
		c1.415-2.057,5.011-2.442,4.561-5.932c0.743,0.014,1.603,0.361,1.968-0.696c0.405-0.354,0.809-0.707,1.214-1.061
		c0.419-0.468,0.838-0.935,1.256-1.403c0.624-0.377,1.6-0.826,0.852-1.6c-0.498-0.514-0.941,0.512-1.38,0.892
		c-0.415,0.472-0.83,0.944-1.245,1.416C890.844,1067.438,890.441,1067.786,890.039,1068.134z M868.282,1077.007
		c-0.726,0.148-1.114,0.615-1.15,1.332c-0.004,0.089,0.501,0.327,0.552,0.276c0.361-0.359,0.666-0.776,0.985-1.176
		c0.078-0.33,0.291-0.908,0.212-0.951C868.368,1076.21,868.345,1076.661,868.282,1077.007z M925.08,1067.209
		c0.405-0.355,0.81-0.709,1.214-1.064c4.216-1.83,5.505-6.213,8.934-8.729c-0.347-0.311-0.694-0.622-1.042-0.934
		c-2.804,2.986-5.609,5.971-8.413,8.957c-0.462,0.408-0.924,0.817-1.386,1.225c-0.252,0.372-0.504,0.744-0.756,1.116
		C924.315,1068.098,924.833,1067.998,925.08,1067.209z M859.585,1151.22c-0.409,0.46-0.817,0.921-1.226,1.381
		c-0.276,0.27-0.552,0.54-0.828,0.809c-0.586,0.514-1.171,1.028-1.757,1.541c-1.038,1.192-2.571,2.009-3.203,3.963
		c2.51-0.594,4.09-1.411,3.123-4.042c1.305,0.61,2.052-0.08,2.643-1.133c0.154-0.08,0.27-0.197,0.348-0.351
		c0.48-0.501,0.961-1.001,1.441-1.502c0.63-0.376,1.615-0.823,0.836-1.603C860.465,1149.79,860.026,1150.834,859.585,1151.22z
		 M878.629,955.945c0.409-0.461,0.817-0.923,1.226-1.384c1.02-0.838,2.496-1.371,2.262-3.43c-1.121,1.103-2.028,1.994-2.934,2.885
		c-0.365,0.417-0.729,0.833-1.093,1.25c-0.635,0.373-1.626,0.813-0.847,1.602C877.741,957.372,878.186,956.332,878.629,955.945z
		 M895.475,1063.915c0.805-0.41,1.527-0.873,1.434-2.84c-1.036,1.167-1.618,1.823-2.199,2.479c-0.095,0.311-0.343,0.841-0.261,0.899
		C895.052,1064.872,895.298,1064.423,895.475,1063.915z M857.948,1080.489c-0.554,0.559-1.109,1.117-1.663,1.676
		c-1.096,1.13-2.623,1.943-3.125,3.769c2.818,0.411,2.64-1.996,3.671-3.115c0.551-0.546,1.102-1.092,1.654-1.637
		c0.627-0.378,1.61-0.825,0.844-1.604C858.833,1079.072,858.387,1080.102,857.948,1080.489z M854.569,1131.202
		c0.706-0.501,1.872-1.078,1.146-1.962c-0.44-0.535-1.111,0.542-1.469,1.16c-0.504,0.167-0.926,0.417-0.563,1.008
		C853.733,1131.49,854.261,1131.278,854.569,1131.202z M897.451,1067.28c-0.551,0.55-1.101,1.1-1.652,1.649
		c-1.524,1.573-3.049,3.146-4.573,4.719c-0.667,0.619-1.333,1.237-2,1.855c-2.214,2.229-4.812,4.118-6.069,7.244
		c1.969-2.417,5.347-3.302,6.585-6.479c1.584,0.342,1.516-1.098,2.044-1.896c1.662-1.414,3.707-2.458,4.534-4.681
		c1.207,0.106,1.743-0.457,1.649-1.651c0.777-0.248,1.022-0.922,0.54-1.404C898.081,1066.21,897.776,1066.982,897.451,1067.28z
		 M877.684,1100.242c-0.555,0.553-1.111,1.106-1.666,1.66c-1.912,2.054-3.823,4.107-5.735,6.161c2.658-1.234,4.67-3.147,6.28-5.508
		c1.218,0.122,1.763-0.431,1.652-1.645c0.401-0.345,0.803-0.69,1.204-1.035c1.544-0.491,2.336-1.671,2.846-3.109
		c3.357-1.925,6.289-4.677,8.421-7.596c2.186-2.994,6.545-3.857,7.284-7.973c0.778-0.248,1.02-0.923,0.537-1.403
		c-0.426-0.424-0.734,0.347-1.059,0.645c-5.367,5.424-10.735,10.849-16.102,16.273c-0.812,0.814-1.624,1.629-2.435,2.443
		C878.501,1099.517,878.092,1099.88,877.684,1100.242z M847.784,1045.825c1.06-0.584,1.877-1.412,2.47-2.464
		c3.271-1.666,6.14-3.734,7.407-7.404c0.406-0.356,0.812-0.713,1.219-1.069c4.241-4.018,8.483-8.037,12.724-12.055
		c8.304-8.162,17.225-15.767,23.747-25.539c-3.508,4.045-8.502,6.473-11.879,10.591c-3.758,4.582-9.318,7.523-11.938,13.133
		c-4.634,4.152-9.027,8.546-13.176,13.183c-0.402,0.346-0.803,0.693-1.205,1.039c-1.751,1.977-3.945,2.968-6.936,3.163
		c0.644-1.441,2.45-2.298,1.152-4.11c-4.06,4.048-8.087,8.063-12.114,12.078c3.43-0.297,5.059-2.754,7.064-4.65
		c2.089-1.976,3.062-1.992,3.215,1.094c-0.8,0.818-1.599,1.637-2.399,2.455c-0.263,0.371-0.526,0.741-0.789,1.112
		C847.023,1046.707,847.544,1046.629,847.784,1045.825z M852.718,1080.36c1.201-0.67,2.538-1.195,2.91-2.744
		c1.404-1.406,2.809-2.811,4.213-4.217c0.678-0.85,2.291-1.181,1.509-3.058c-0.787,0.91-1.475,1.706-2.164,2.501
		c-1.612,1.131-2.984,2.505-4.118,4.115c-1,0.948-1.999,1.896-2.999,2.844c-0.385,0.45-1.444,0.885-0.963,1.379
		C851.892,1081.984,852.34,1080.994,852.718,1080.36z M868.891,1082.731c-1.05,1.081-2.1,2.162-3.15,3.243
		c-1.48,1.622-2.961,3.244-4.441,4.865c0.295,0.277,0.59,0.554,0.885,0.831c1.435-1.717,2.87-3.433,4.305-5.15
		c0.917-1.206,2.996-1.734,2.294-3.887c0.645,0.095,1.333,0.336,1.829-0.294c0.09-0.115-0.104-0.655-0.16-0.654
		C869.727,1081.701,869.228,1082.106,868.891,1082.731z M872.452,1100.093c1.593-0.84,3.003-1.81,3.381-4.775
		c-1.814,1.897-2.923,3.056-4.032,4.215c-1.191,1.243-2.383,2.485-3.574,3.728c-1.612,1.509-3.223,3.019-4.835,4.528
		c2.52-0.525,4.154-2.088,5.522-3.982C870.093,1102.569,871.273,1101.331,872.452,1100.093z M879.047,942.242
		c2.032-0.048,2.742-1.83,3.888-3.026c0.011-0.011-0.605-0.834-0.783-0.782c-1.726,0.504-3.053,1.538-3.785,3.236
		c-0.726,0.453-1.453,0.907-2.179,1.36C877.972,943.905,878.58,943.192,879.047,942.242z M880.157,1071.431
		c-2.493,2.451-4.986,4.902-7.479,7.354c0.329,0.305,0.658,0.61,0.987,0.915c2.733-2.12,4.734-4.987,7.02-7.562
		c1.108-0.922,2.594-1.582,2.754-4.441C881.907,1069.44,881.032,1070.436,880.157,1071.431z M888.688,1030.179
		c-4.285,4.221-8.57,8.442-12.855,12.663c-0.536,0.605-1.987,1.22-1.245,1.892c0.814,0.736,1.491-0.59,1.997-1.351
		c0.271-0.027,0.665,0.054,0.797-0.096c3.259-3.696,6.387-7.509,10.572-10.269c1.006-0.663,1.076-1.824,0.629-2.943
		c2.45,0.544,3.051-2.27,5.024-2.776c1.049-0.269,1.565-1.749,0.62-2.623c-0.93-0.86-2.053-0.203-2.692,0.774
		C890.527,1026.988,889.631,1028.598,888.688,1030.179z M870.364,1030.012c3.603-2.47,6.091-6.352,10.266-8.096
		c-2.511,6.156-6.88,10.619-12.511,14.023c-1.362,0.823-3.205,1.71-2.386,3.994c-1.179,0.872-2.394,1.713-2.903,3.148
		c0.327,0.339,0.654,0.678,0.981,1.017c0.816-1.134,1.632-2.268,2.448-3.401c3.835-2.004,6.274-5.554,9.308-8.441
		c3.119-2.968,6.151-6.028,9.221-9.047c-3.486,7.587-9.382,13.033-14.407,19.242c8.735-7.416,17.593-14.694,24.151-24.247
		c-0.616-0.042-0.952,0.194-1.247,0.472c-1.433,1.348-3.097,3.872-4.901,2.003c-1.17-1.211,2.014-2.402,2.679-3.921
		c1.016-2.32,4.771-2.691,4.381-6.536c-3.173,2.829-6.193,5.162-9.195,7.502c-1.294,1.009-1.856,2.932-4.002,2.692
		c-0.444-0.151-0.827-0.35-0.711-0.929c3.312-3.22,6.626-6.437,9.932-9.663c0.485-0.473,1.069-1.094,0.308-1.654
		c-0.726-0.534-1.546-0.193-2.171,0.423c-3.896,3.834-8.528,6.947-11.482,11.704c-3.207,2.572-5.463,6.017-8.243,8.982
		c-1.511,1.449-3.022,2.899-4.533,4.348c-1.231,1.028-2.327,2.324-3.721,3.032c-3.651,1.853-4.503,2.798-5.195,7.234
		c3.306-3.373,8.061-4.749,9.451-9.578C868.047,1033.578,868.788,1031.359,870.364,1030.012z M882.346,1103.404
		c6.221-4.923,11.812-10.437,16.149-17.129c-5.636,5.53-11.273,11.061-16.909,16.591c-1.929,1.95-3.858,3.901-5.787,5.851
		C877.972,1106.912,881.422,1106.642,882.346,1103.404z M891.651,944.819c0.172,0.223,0.345,0.445,0.517,0.668
		c-0.481,1.026-1.743,2.166-0.342,3.142c1.028,0.716,1.994-0.286,2.779-1.08c2.112-2.138,4.258-4.242,6.341-6.408
		c0.366-0.38,1.207-0.702,0.544-1.578c-0.642-0.849-1.126-0.234-1.666,0.041c-1.69,0.859-3.349,2.003-4.453-0.824
		c-0.48-1.228-0.984,0.052-1.392,0.282c-1.383,0.78-3.027,1.383-3.999,2.536c-1.306,1.548-4.767,2.812-3.339,4.881
		C888.27,948.839,889.727,944.892,891.651,944.819z M863.473,1023.692c0.4-0.065,0.944,0.016,1.178-0.216
		c8.431-8.38,16.828-16.795,25.247-25.188c1.146-1.142,2.302-2.253,2.865-3.822c2.557-0.5,2.79-2.496,3.153-4.645
		c-2.892,0.084-2.192,3.159-3.859,4.067c-2.333,1.929-4.732,3.785-6.988,5.801c-8.073,7.217-14.464,16.047-22.383,23.415
		c-1.21,1.013-2.42,2.025-4.179,3.497C862.198,1027.261,862.086,1024.55,863.473,1023.692z M895.186,984.511
		c-13.451,10.146-23.999,23.376-36.202,35.834C863.592,1018.832,895.079,987.517,895.186,984.511z M899.577,1093.137
		c-4.928,4.928-10.636,10.637-16.344,16.345C888.73,1103.572,895.619,1099.06,899.577,1093.137z M897.77,1075.371
		c-3.682,3.658-8.827,8.769-13.973,13.88C888.754,1083.923,894.913,1079.784,897.77,1075.371z M854.163,1011.879
		c-4.784,4.935-9.569,9.869-14.353,14.804C845.175,1022.349,851.168,1018.651,854.163,1011.879z M870.267,1094.921
		c4.747-3.331,9.193-6.959,13.154-12.781C878.455,1086.965,874.361,1090.943,870.267,1094.921z M895.471,948.431
		c3.708,2.097,7.992-1.004,9.606-7.159C901.993,944.051,899.281,946.998,895.471,948.431z M901.596,1097.327
		c-2.943,2.697-6.587,6.035-10.231,9.373C896.178,1104.581,899.251,1100.719,901.596,1097.327z M884.118,944.572
		c2.036-0.958,3.371-3.412,5.327-5.159c0.047-0.042-0.301-0.613-0.541-0.864c-0.262-0.274-0.513-0.368-0.947-0.038
		c-1.666,1.265-3.452,2.376-5.079,3.687c-0.415,0.334-0.571,1.195-0.553,1.805C882.345,944.642,883.006,944.689,884.118,944.572z
		 M930.37,1026.043c-1.529,2.75-3.128,5.01-5.24,6.895c-0.284,0.253-1.124,0.489-0.578,1.198c0.244,0.316,0.593,0.789,0.891,0.786
		C927.398,1034.902,931.19,1028.365,930.37,1026.043z M898.192,1218.562c-3.395,2.039-5.848,4.932-8.163,7.97
		C893.345,1224.465,896.621,1222.364,898.192,1218.562z M896.473,1226.458c3.449-1.955,6.707-3.99,8.865-8.429
		C901.907,1221.292,899.19,1223.875,896.473,1226.458z M903.878,1199.75c-2.493,2.793-4.986,5.586-6.297,7.056
		C899.202,1205.634,901.794,1202.941,903.878,1199.75z M889.041,1036.735c1.732-1.031,3.207-1.843,4.591-2.788
		c0.274-0.187,1.12-0.47,0.608-1.172c-0.224-0.308-0.591-0.511-0.893-0.762C892.414,1033.962,888.17,1032.616,889.041,1036.735z
		 M912.167,1000.13c3.059-0.862,5.51-2.473,6.374-6.639C916.072,996.063,914.119,998.097,912.167,1000.13z M902.251,1208.597
		c-5.245,3.214-5.245,3.214-5.827,6.115C898.366,1212.674,900.309,1210.635,902.251,1208.597z M863.209,1102.305
		c-1.873,1.942-3.852,3.994-5.832,6.046C859.341,1106.3,862.591,1105.572,863.209,1102.305z M881.188,945.778
		c-2.228,2.111-4.955,3.721-6.09,6.741C877.108,950.22,880.51,949.232,881.188,945.778z M926.221,1038.284
		c-1.266,1.873-3.484,2.691-4.082,4.963c-0.045,0.169,0.783,0.776,0.836,0.732c1.631-1.345,3.142-2.799,3.601-4.991
		C926.598,1038.886,926.463,1038.752,926.221,1038.284z M901.225,1103.896c-1.827,1.658-3.653,3.317-5.996,5.444
		C899.108,1108.711,899.486,1105.632,901.225,1103.896z M883.158,1088.793c-1.529,1.93-2.749,3.47-3.539,4.467
		C881.074,1092.952,882.361,1091.526,883.158,1088.793z M922.423,1049.034c-1.517,1.397-2.937,2.138-3.775,4.705
		C921.126,1052.66,922.651,1052.014,922.423,1049.034z M852.92,1197.899c1.953-0.361,2.467-1.58,3.355-3.535
		C854.519,1195.488,853.582,1196.301,852.92,1197.899z M838.811,1014.101c-1.473,1.441-2.651,2.034-3.227,4.581
		C837.215,1017.043,838.458,1016.506,838.811,1014.101z M861.652,1077.945c-0.048-0.097-0.209-0.423-0.371-0.749
		c-0.557,0.518-1.422,0.82-1.398,1.745c0.005,0.177,0.499,0.46,0.787,0.488C861.53,1079.511,861.785,1078.982,861.652,1077.945z
		 M923.43,1047.435c-0.87,0.168-0.903,0.747-0.853,1.24c0.027,0.263,0.078,0.87,0.731,0.575c0.523-0.236,0.977-0.542,0.801-1.154
		C924.025,1047.806,923.618,1047.609,923.43,1047.435z M891.63,1106.901c-1.592,0.384-2.182,0.985-2.596,1.959
		C890.517,1109.276,890.915,1108.37,891.63,1106.901z M855.084,1116.123c-0.216,0.288-0.53,0.707-0.845,1.126
		c0.326,0.072,0.726,0.293,0.959,0.178c0.297-0.147,0.548-0.541,0.644-0.879C855.893,1116.368,855.907,1115.683,855.084,1116.123z
		 M873.999,932.755c-0.214,0.289-0.528,0.713-0.842,1.137c0.327,0.072,0.728,0.294,0.963,0.178c0.298-0.147,0.55-0.543,0.644-0.881
		C874.815,933.007,874.832,932.318,873.999,932.755z M859.285,1159.235c-0.246-0.286-0.411-0.477-0.575-0.668
		c-0.196,0.339-0.437,0.664-0.557,1.028c-0.031,0.095,0.316,0.314,0.489,0.476C858.86,1159.787,859.077,1159.504,859.285,1159.235z
		 M862.565,1149.38c-0.246-0.286-0.409-0.477-0.572-0.667c-0.195,0.337-0.434,0.659-0.553,1.021
		c-0.031,0.094,0.314,0.312,0.487,0.473C862.143,1149.926,862.359,1149.646,862.565,1149.38z M862.466,1142.984
		c-0.09-0.227-0.179-0.453-0.269-0.68c-0.238,0.193-0.528,0.351-0.689,0.595c-0.072,0.109,0.056,0.501,0.193,0.571
		C862.16,1143.705,862.347,1143.367,862.466,1142.984z M856.01,1188.969c-0.236-0.31-0.379-0.498-0.522-0.685
		c-0.204,0.269-0.453,0.517-0.585,0.818c-0.041,0.092,0.238,0.325,0.37,0.493C855.516,1189.388,855.759,1189.182,856.01,1188.969z
		 M850.665,1068.295c0.213,0.198,0.389,0.36,0.564,0.523c0.187-0.31,0.444-0.602,0.527-0.938c0.036-0.145-0.286-0.379-0.446-0.573
		C851.096,1067.636,850.881,1067.965,850.665,1068.295z M884.768,1166.647c-0.246-0.287-0.41-0.478-0.573-0.669
		c-0.195,0.337-0.434,0.66-0.554,1.021c-0.031,0.094,0.315,0.312,0.488,0.473C884.345,1167.192,884.562,1166.913,884.768,1166.647z
		 M888.896,1063.99c-0.235-0.309-0.378-0.497-0.521-0.685c-0.203,0.268-0.452,0.517-0.583,0.817
		c-0.041,0.092,0.237,0.324,0.37,0.492C888.404,1064.408,888.646,1064.202,888.896,1063.99z M931.606,1047.447
		c0.274-0.21,0.559-0.428,0.844-0.646c-0.168-0.172-0.394-0.518-0.494-0.485c-0.367,0.121-0.692,0.369-1.033,0.569
		C931.118,1047.045,931.313,1047.206,931.606,1047.447z M838.77,1048.574c-0.229-0.271-0.431-0.623-0.521-0.597
		c-0.36,0.107-0.686,0.332-1.024,0.513c0.178,0.171,0.37,0.497,0.53,0.482C838.09,1048.94,838.407,1048.728,838.77,1048.574z
		 M910.133,923.956c0.68,0.198,0.786-0.217,0.826-0.584c0.011-0.105-0.392-0.392-0.493-0.347c-0.304,0.137-0.552,0.397-0.822,0.608
		C909.847,923.767,910.05,923.901,910.133,923.956z M898.749,1060.57c-0.246-0.286-0.41-0.476-0.574-0.667
		c-0.195,0.338-0.436,0.662-0.555,1.025c-0.031,0.094,0.315,0.313,0.488,0.474C898.325,1061.12,898.542,1060.838,898.749,1060.57z
		 M853.956,1124.206c0.213,0.197,0.388,0.36,0.563,0.522c0.186-0.309,0.443-0.601,0.527-0.935c0.036-0.145-0.286-0.378-0.445-0.572
		C854.386,1123.549,854.171,1123.876,853.956,1124.206z M855.988,1109.908c-0.246-0.288-0.41-0.48-0.573-0.671
		c-0.195,0.339-0.435,0.663-0.553,1.027c-0.031,0.095,0.315,0.314,0.488,0.476C855.566,1110.457,855.782,1110.175,855.988,1109.908z
		"/>
	<path fill="#030303" d="M857.677,985.674c0.739,1.833-1.143,2.136-1.882,2.996c-5.352,6.223-10.813,12.351-16.24,18.509
		c-1.237,0.97-2.474,1.941-3.864,3.031c-0.854-2.276,0.032-4.104,1.153-5.891c1.107-1.163,2.853-1.883,2.715-3.911
		c3.154-0.8,4.84-3.179,6.423-5.665c-2.649,1.354-4.781,3.254-6.32,5.772c-1.553,0.672-2.562,1.926-3.503,3.254
		c-2.1-2.869,0.087-4.779,1.534-6.854c0.639-0.862,2.29-1.186,1.443-3.034c-0.773,0.893-1.463,1.691-2.153,2.489
		c-2.892-4.369,1.97-5.745,3.279-8.493c0.668-1.403,3.152-1.591,2.567-3.835c0,0-0.145,0.15-0.145,0.15
		c2.223,1.08,2.973-1.03,4.077-2.041c4.297-3.931,8.036-8.465,12.837-11.855c0.178,0.236,0.356,0.472,0.534,0.708
		c-1.155,1.34-2.31,2.68-3.465,4.02c-5.372,4.396-9.45,9.912-13.663,15.31c0.24,0.267,0.479,0.534,0.719,0.801
		c4.9-4.31,9.801-8.62,14.701-12.93c0.516,2.764-2.744,2.962-3.365,4.953c-3.324,3.121-6.437,6.403-8.836,11.195
		c2.892-0.682,3.961-2.544,5.41-3.835C853.565,988.796,855.042,986.519,857.677,985.674z"/>
	<path fill="#030303" d="M849.986,974.745c-2.434,3.149-4.869,6.298-7.304,9.447c0,0,0.145-0.15,0.145-0.15
		c-2.098,1.89-4.195,3.78-6.293,5.669c1.551-7.462,7.137-11.524,12.775-15.544C849.535,974.36,849.76,974.553,849.986,974.745z"/>
	<path fill="#030303" d="M859.597,970.297c2.57-2.728,3.745-7.059,9.451-7.818c-3.479,3.327-6.198,5.927-8.917,8.526
		C859.953,970.769,859.775,970.533,859.597,970.297z"/>
	<path fill="#030303" d="M857.553,985.768c0.024-0.279,0.047-0.558,0.071-0.837c0.277-0.247,0.553-0.494,0.83-0.742
		c0.938-0.693,1.864-1.395,2.231-2.581c0.338-0.312,0.676-0.623,1.014-0.935c0.982,0.263,1.148-1.627,2.668-0.68
		C862.065,982.009,860.866,985.032,857.553,985.768z"/>
	<path fill="#030303" d="M842.858,974.295c-0.184,1.96-1.131,3.288-3.164,3.794c-0.753-2.477,1.499-3.152,2.621-4.48
		C842.496,973.837,842.677,974.066,842.858,974.295z"/>
	<path fill="#030303" d="M849.309,974.168c-0.324-1.567,1.103-1.55,1.908-2.053c0.652-0.407,0.527,0.307,0.607,0.577
		c0.486,1.648-1.167,1.417-1.837,2.054C849.76,974.553,849.535,974.36,849.309,974.168z"/>
	<path fill="#030303" d="M842.315,973.609c0.64-1.014,2.042-1.596,2.467-0.735c0.507,1.027-0.91,1.376-1.924,1.421
		C842.677,974.066,842.496,973.837,842.315,973.609z"/>
	<path fill="#030303" d="M847.794,1083.658c-0.352,0.609-0.876,1.675-1.453,1.197c-0.82-0.68,0.24-1.258,0.771-1.755
		C847.339,1083.285,847.567,1083.472,847.794,1083.658z"/>
	<path fill="#030303" d="M865.039,977.623c0.264-0.075,0.532-0.13,0.805-0.166c0.895,0.754,0.048,1.206-0.387,1.509
		c-0.582,0.404-0.928,0.033-0.913-0.645C864.709,978.087,864.874,977.855,865.039,977.623z"/>
	<path fill="#030303" d="M867.257,975.032c0.884-0.883,1.768-1.766,2.652-2.649c0.682-0.359,1.364-0.718,2.046-1.077
		c-1.519,1.555-1.164,4.979-4.534,4.592C867.366,975.609,867.312,975.321,867.257,975.032z"/>
	<path fill="#030303" d="M870.071,987.215c-1.209,1.883-2.324,3.075-4.851,4.544C866.28,988.765,867.195,987.366,870.071,987.215z"
		/>
	<path fill="#030303" d="M865.75,977.545c0.281-0.877,0.706-1.609,1.74-1.727C867.787,977.278,867.219,977.865,865.75,977.545z"/>
	<path fill="#030303" d="M891.651,944.819c0.62-1.674,1.585-2.952,3.775-3.097c-0.35,1.978-1.928,2.772-3.259,3.765
		C891.995,945.264,891.823,945.042,891.651,944.819z"/>
</g>
<path fill="#F9B216" d="M811.738,1202.241c3.864,3.818,7.698,7.608,11.533,11.397c-0.027,0.049-0.054,0.099-0.081,0.148
	c-0.155,0-0.31,0-0.466,0c-5.104,0-10.209-0.003-15.313,0.007c-0.359,0.001-0.61-0.097-0.866-0.355
	c-5.555-5.601-11.117-11.195-16.687-16.78c-0.257-0.258-0.272-0.38-0.005-0.647c5.578-5.578,11.145-11.167,16.71-16.758
	c0.208-0.209,0.408-0.337,0.727-0.337c5.171,0.011,10.341,0.007,15.512,0.01c0.107,0,0.231-0.05,0.409,0.143
	c-3.828,3.768-7.657,7.536-11.527,11.345c0.31,0.164,0.492,0.115,0.665,0.115c7.325,0.003,14.65,0.008,21.975-0.009
	c0.478-0.001,0.602,0.111,0.599,0.595c-0.023,3.48-0.022,6.96-0.001,10.441c0.003,0.469-0.098,0.607-0.59,0.606
	c-7.325-0.017-14.65-0.013-21.975-0.01C812.183,1202.152,812.001,1202.104,811.738,1202.241z"/>
<path fill="#F9B216" d="M718.041,1206.633c2.325-2.307,4.557-4.522,6.818-6.766c-0.232-0.144-0.416-0.09-0.585-0.09
	c-4.177-0.004-8.353-0.012-12.53,0.009c-0.475,0.002-0.56-0.146-0.555-0.579c0.022-1.939,0.023-3.878-0.001-5.817
	c-0.005-0.407,0.124-0.484,0.5-0.483c4.177,0.013,8.353,0.008,12.53,0.008c0.179,0,0.358,0,0.563,0
	c-2.257-2.248-4.487-4.47-6.718-6.692c0.195-0.222,0.335-0.159,0.454-0.159c2.917-0.004,5.834,0.001,8.751-0.01
	c0.305-0.001,0.525,0.08,0.743,0.299c3.216,3.229,6.437,6.454,9.671,9.666c0.273,0.271,0.243,0.398-0.011,0.651
	c-3.228,3.218-6.444,6.448-9.662,9.675c-0.151,0.152-0.284,0.294-0.54,0.294C724.373,1206.63,721.275,1206.633,718.041,1206.633z"/>
</svg>
