<?xml version="1.0" encoding="utf-8"?>
<!-- Generator: Adobe Illustrator 19.0.0, SVG Export Plug-In . SVG Version: 6.00 Build 0)  -->
<svg version="1.1" id="Ebene_1" xmlns="http://www.w3.org/2000/svg" xmlns:xlink="http://www.w3.org/1999/xlink" x="0px" y="0px"
	 viewBox="0 0 960 960" style="enable-background:new 0 0 960 960;" xml:space="preserve">
<style type="text/css">
	.st0{display:none;fill:#121211;}
	.st1{fill:#E30664;}
	.st2{fill:#DA0567;}
	.st3{fill:#FFFFFF;}
	.st4{fill:#030303;}
	.st5{fill:#F9B216;}
</style>
<g id="XMLID_192_">
	<path id="XMLID_196_" class="st0" d="M954.7-114.5c0.8,0,1.7,0,2.5,0c14.9,6.5,29,13.9,31.4,32.5c-0.2,4.6-0.6,9.3-0.6,13.9
		c0,457.4,0,914.8,0,1372.1c0,4.6,0.4,9.3,0.7,13.9c-2.4,18.6-16.4,26-31.4,32.6c-0.8,0-1.7,0-2.5,0c-3.2-4.3-7.8-2.3-11.7-2.3
		c-307.3-0.1-614.6-0.1-922,0c-3.8,0-8.5-2.3-11.6,2.3c-0.8,0-1.7,0-2.5,0c-15-6.5-29-13.9-31.4-32.5c0.2-4.6,0.6-9.3,0.6-13.9
		c0-457.4,0-914.8,0-1372.1c0-4.6-0.4-9.3-0.7-13.9c2.4-18.6,16.4-26.1,31.4-32.6c0.8,0,1.7,0,2.5,0c3.1,4.6,7.8,2.3,11.6,2.3
		c307.3,0.1,614.6,0.1,922,0C946.8-112.2,951.5-110.1,954.7-114.5z M-7,618.5c0,228,0,456,0,684c0,24,5,28.9,29.3,28.9
		c306.5,0,613.1,0,919.6,0c24.2,0,29.2-4.9,29.2-29c0-456,0-912,0-1368c0-24.9-4.7-29.5-29.9-29.5c-306.1,0-612.2,0-918.4,0
		C-2.3-95.2-7-90.5-7-65.5C-7,162.5-7,390.5-7,618.5z"/>
	<path id="XMLID_95_" class="st1" d="M481,186.7c-144.5,2.7-272.1,52.8-379.5,153c-17.1,16-36.5,20.4-54.6,12
		c-18.6-8.6-30.7-28.1-29.9-47.9c0.6-13.2,6.9-23.5,16.1-32.2c99.1-93.4,215.7-152.4,350.5-172.1C576.2,71.4,748.2,120.7,899.3,243
		c11.5,9.3,22.3,19.6,33.1,29.8c19.2,18,19.8,46.5,1.6,66.1c-19.1,20.6-47,22.7-66.8,3.9c-75.6-71.7-164.1-119.3-265.7-142.5
		C562.5,191.4,522.9,187.8,481,186.7z"/>
	<path id="XMLID_94_" class="st1" d="M482.6,247.6c126.3,3.1,236.1,46.1,328,133.1c21.2,20,21.6,47.9,1.6,68.9
		c-19.2,20-47,20.2-67.9,0.6c-80.8-75.9-176.7-112.5-287.4-105.3c-91.2,5.9-170.3,42-236.5,105.4c-17.1,16.4-38.8,19.6-58.1,8.3
		c-18.9-11.1-28.4-33.5-23.1-54.6c2-8.1,6.3-14.7,12.2-20.4c75.4-73.4,165.4-116.7,269.5-131.2C441.4,249.4,462.1,248.6,482.6,247.6
		z"/>
	<path id="XMLID_93_" class="st1" d="M705.5,524.7c-0.3,20.2-12.4,38.9-30.3,45.5c-19.2,7.1-36.5,3.7-51.6-10.7
		c-82.7-79.6-200.1-79.4-283.2,0.4c-19.9,19.1-48.6,19.2-67.2,0.1c-19.6-20.2-19.9-48.4-0.5-68c114.1-116,305-116.1,418.7-0.5
		C701,501.1,706.3,512,705.5,524.7z"/>
</g>
<path id="XMLID_92_" class="st2" d="M481.7,868.2c-21.8-0.1-42.1-4.2-61.4-12.7c-13.7-6-26.3-13.8-37.7-23.5c-0.7-0.6-1-0.5-1.6,0.2
	c-12.1,13.4-26.7,23-43.8,28.7c-11,3.6-22.2,5.3-33.8,5.1c-16.4-0.4-31.8-4.3-46.2-12.1c-23.4-12.8-39.4-31.8-48.1-57
	c-4.1-11.8-5.9-24-5.1-36.5c2.2-34,17.4-60.8,45.6-79.9c12.3-8.3,25.9-13.3,40.6-15.5c15-2.2,29.7-1.2,44.2,3.2
	c0.9,0.3,1.3,0.3,1.7-0.8c6.1-18.7,15.6-35.5,28.3-50.5c16.7-19.7,37.1-34.4,61.1-43.9c11.3-4.5,23-7.5,35.1-9.1
	c11-1.5,22.1-1.8,33.2-0.8c29.6,2.6,56.4,12.8,79.9,31c26.7,20.6,44.8,47.2,54.2,79.7c3,10.5,4.8,21.3,5.5,32.2
	c1.9,33-6,63.5-23.7,91.4c-10.3,16.3-23.4,30.1-39,41.5c-13.5,9.8-28.2,17.3-44.1,22.3c-10.6,3.3-21.4,5.4-32.4,6.4
	C489.8,868,485.4,868.1,481.7,868.2z"/>
<path id="XMLID_91_" class="st3" d="M304.7,669c10-0.1,19.2,1.3,28.2,3.9c1,0.3,1.3,0.6,1,1.8c-4.1,14.7-5.9,29.7-5.5,45
	c0.7,25.1,7.2,48.6,19.5,70.5c7.8,14,17.7,26.4,29.4,37.3c0.7,0.6,0.5,0.9,0,1.5c-6.1,6.8-12.9,12.6-20.6,17.4
	c-11,6.9-22.8,11.4-35.6,13.5c-10.1,1.7-20.2,1.7-30.3,0.2c-14.3-2.2-27.4-7.2-39.4-15.3c-17.1-11.5-29.3-27-36.6-46.3
	c-4.7-12.4-6.7-25.2-5.9-38.3c1.7-27.1,12.7-49.7,33.1-67.7c13.1-11.5,28.4-18.7,45.5-21.9C293.5,669.5,299.4,668.9,304.7,669z"/>
<path id="XMLID_90_" class="st3" d="M393.8,803.2c-5-4.9-9.5-10.1-13.6-15.7c-11.5-15.9-18.8-33.6-21.9-53
	c-2.5-15.8-1.9-31.6,1.8-47.2c0.3-1.1,0.5-1,1.3-0.5c4.1,2.9,7.9,6.1,11.5,9.6c0.4,0.4,0.6,0.7,0.5,1.4
	c-3.8,23.5-0.2,45.9,10.7,67.2c3.9,7.7,8.8,14.7,14.4,21.2c0.3,0.4,0.7,0.7,0.5,1.2C397.7,792.9,396,798,393.8,803.2z"/>
<path id="XMLID_89_" class="st3" d="M477.5,818.7c-26.4-0.6-51.6-11.1-72.2-32.3c-0.5-0.5-0.7-1-0.5-1.8c1.4-6.9,2.1-13.9,1.9-21
	c-0.5-23.4-8.1-44.3-22.9-62.6c-1.3-1.6-2.7-3.2-4.1-4.7c-0.7-0.7-0.7-1.3-0.6-2.1c1.7-7.9,4.1-15.5,7.6-22.7
	c12.8-26.4,33.1-44.4,60.7-54c10.3-3.6,20.9-5.4,31.8-5.4c26.7,0,50.2,8.5,70.2,26.2c17.2,15.3,28.4,34.3,32.7,56.9
	c6,31.6-1.2,60.2-21.3,85.3c-14,17.4-32.1,28.8-53.6,34.6C498.5,817.6,489.6,818.6,477.5,818.7z"/>
<path id="XMLID_88_" class="st3" d="M374.7,691.4c-3.3-3.1-6.7-5.9-10.2-8.4c0,0-0.1,0-0.1-0.1c-0.8-0.7-2.2-0.9-2.4-2
	c-0.2-1,0.5-2,0.8-3.1c6.1-19,16.2-35.6,30.4-49.6c17.2-17.1,37.7-28.2,61.5-33.3c13.6-2.9,27.2-3.6,41-1.8
	c32.1,4.1,58.6,18.5,79.6,43.1c13.5,15.8,22.2,34,26.4,54.3c2.4,11.6,3.1,23.4,2.1,35.2c-2.1,24.3-10.7,46-25.6,65.3
	c-11,14.2-24.5,25.3-40.4,33.6c-12.2,6.4-25.1,10.6-38.7,12.6c-9.9,1.5-19.9,1.7-29.8,0.8c-13.1-1.2-25.7-4.4-37.8-9.6
	c-12.1-5.2-23.1-12.3-33-21c-0.4-0.3-0.7-0.6-0.4-1.2c2.2-4.7,3.9-9.6,5.2-14.5c0-0.1,0.1-0.1,0.1-0.2c20.8,20.3,45.7,31.3,74.8,32
	c23.2,0.6,44.6-5.7,63.8-18.8C582,777.3,598.3,728,584.2,683c-14.4-45.7-56.6-76.2-104.7-75.8C429.5,607.6,385.8,642.3,374.7,691.4z
	"/>
<path id="XMLID_87_" class="st3" d="M400.4,780.6c-7.8-9.4-13.7-19.8-17.7-31.3c-5.3-15.4-7-31.1-4.8-47.6
	C397.3,724.7,404.7,750.9,400.4,780.6z"/>
<g id="Ausrufer">
	<path id="XMLID_114_" class="st4" d="M640.7,77.9c1.6,0,3.2,0,6.6,0c-5.9,5.8-10.8,10.6-15.6,15.6c-1,1-3,1.9-1.9,3.9
		c1.4,2.7,3.3,0.5,4.9,0.2c8.3-1.6,10.8-10.8,17.9-14c4.4,1.2-1.4,7.6,4.2,8c4,0.3,5.2-3.5,7.7-5.3c8.3-6.1,16.2-12.5,21.8-21.4
		c1.1-1.8,3.6-0.9,5.5-0.7c-1.3,1.8-2.6,3.6-3.9,5.4c-7,6.1-13.7,12.4-16.3,21.9c6.3-6.1,14.4-9.5,20.5-15.4
		c0.3-0.1,0.6-0.3,0.9-0.4c3.7-1.3,3.3-10.1,7.8-6.7c3.2,2.3-3.4,5.4-5.5,8.2c-1.6,2.1-1.1,4.2-1.6,6.3c-1.1,1-2.1,2-3.2,3
		c-0.6,0.9-1.2,1.8-1.9,2.7c1.6,0.8,2.9,0.6,3.5-1.4c1-0.8,1.9-1.7,2.9-2.5c3.5-1.7,6.5-4,9.3-6.8c1.5-1.5,2.4-5.3,5.6-3.2
		c3.2,2.1,1.9,5,0,8.6c8.8-7.5,14,0.9,20.2,3.8c3.4,1.6,7.1,5.8,4.9,9.5c-1.9,3.1-5.1,7.4-10.7,5.9c-2.8-0.7-3.3,0.1-1.5,2.5
		c3.9,5.5-2.8,10.6,0.1,16.3c3,5.9,1,11.4-4.5,15.4c-0.2,0.2-0.2,0.5-0.4,0.8c2.6,2.2,4-1.1,6-1.5c2.5-0.5,4-5.3,7.5-0.8
		c3.3,4.2-2.1,4.7-2.9,5.8c-3.2,4.6-6.9,8.5-13.8,9.5c-6.1,0.8-6.2,8.8-5.8,13.6c0.7,7.1,1.6,13.4-5,18.2c-1.1,0.8-2.4,1.8-1.2,3.9
		c4.7,7.7-0.8,12.9-4.8,18.4c-0.3,0.2-0.6,0.4-0.8,0.8c-1.2,0.8-3.3,1.7-2.5,3c1.1,1.7,2.5,0.6,3.3-1.1c0.7-0.7,1.3-1.3,2-2
		c6.6-1,8.9-8.7,15.4-9.9c-2.9,9-8.7,16.1-14.9,23.3c10.2-5.5,17.2-16.7,30-17.5c-10-0.7-4.1,11.3-10.3,13.2
		c6.1-1.7,10.4-6,15.1-9.7c6.3,0.5,3.4,4.1,2.4,7.1c-0.6,0.9-1.2,1.8-1.7,2.7c1.6,0.7,2.9,0.5,3.5-1.4c2.4,0.9,5.7-4,7.1,0.4
		c1.7,5.2,8.1,9.3,5,15.3c-1.6,3.1-1.3,3.2,1.1,5.2c6.7,5.7-0.4,9.4-3.3,13.6c9.6,1.7,10.1,3,4.1,11.5c-0.6,0.9-1.2,1.8-1.8,2.7
		c1.6,0.8,2.9,0.5,3.5-1.4c1.8,13.8,13.1,8.1,20.6,9.8c3.7,0.9,7.8,0.1,11.7,0.1c-0.4,10.8-6.1,20.6-5.1,31.7
		c0.5,5.4-6.2,8.5-8.4,13.4c-1.2,2.6-6.5,6.2,2.5,7.2c7.3,0.8,13.4,7.7,17.3,13.8c3.8,5.9-1.5,12.5-6.1,15.7
		c-6.3,4.4-10.7,10.4-17,15.6c10.2,0.1,8.4,5.8,6.2,11.4c3.2,2.5,5.6-4.5,8.5-0.6c3.3,4.4-2.3,5.1-3.5,7.6c-0.8,1.7-1.8,3.4-2.7,5
		c-3.1,4.9-10.4,5.8-12.8,13.5c7.4-2.6,12.9-5,14.5-12.2c2.8-2.1,6.7-2.5,8-5.2c12.8,17.6-0.8,27.4-12.5,37.8
		c4.5,1.8,5.1-2.5,8.3-2.6c-3.5,12.3-8.1,23.3-21.5,28.1c-3,1.1-5.8,1.2-8.6,0.8c-7.7-1.3-10.2,1.7-7.6,9.6c0.1,0.3,0.2,0.7,0.1,1
		c-4,8.5,3,17.5-1.5,26c-0.6,0.9-1.2,1.8-1.8,2.7c1.6,0.7,2.9,0.5,3.5-1.4c0.4,11,6.9,22.7-4,32.3c-1.3,1.2-1,2.2-0.5,4
		c2,7.9,0.1,14.8-7.9,19.8c9.6-0.3,6.7,4.8,5.2,9c-3.4,9.5-4.4,19.4-4.5,29.3c-0.1,7.2-3.1,12.3-7.1,16.2c6,5.2,3.4,10.2,0.4,15
		c-1.5,2.3-5.4,4.4,1.1,4.7c0.4,0,1,0.7,1.2,1.2c2.6,5.9-4.6,13.3-4.1,13.5c8.9,3.7,4.4,8.5,1.2,12.6c-2.2,2.8-2.1,2.3,1.1,4.5
		c4.8,3.2,1.9,8.3-1.5,12.1c-0.6,0.9-1.3,1.8-1.9,2.7c1.6,0.8,2.9,0.5,3.5-1.4c2,1.8,4.1,3.4,2.2,6.8c-5.2,9.1-5.2,19.9-9.3,29.7
		c-3,7.1-5.1,16.2-4.8,24.7c0.2,6.3,0.3,12.3-5.6,16.5c-1,0.8-2.1,1.6-3.1,2.4c-0.8,1.2-2.3,2.2-1.6,4c0.1,0.2,1.4,0.4,1.6,0.2
		c1-1.4,0.8-2.9-0.1-4.3c1.9,0.9,3.8,1.5,5.2-0.7c8.7,6,1,9.7-1.9,14.1c-0.6,0.9-1.3,1.8-1.9,2.7c1.6,0.8,2.9,0.6,3.5-1.3
		c3.8,5.3,2.6,10.1-1.6,14.5c-0.6,0.9-1.2,1.8-1.8,2.7c1.6,0.8,2.9,0.5,3.5-1.4c3.3,1.1,1.8,3.9,1.7,5.8c-0.2,5.6-3.9,10.1-0.5,17
		c3.2,6.7-8,9.7-10.9,16.2c6.5,0.1,9.6-4.9,13.4-8.5c2-1.8,3.1-3.6,5.9-0.5c3.1,3.5,0.8,4.3-1.7,5.3c-4.3,1.6-4.5,5.5-6.6,9.7
		c6-1.7,9.5-4.4,11-9.5c7.8,9.2-0.2,12.2-5.5,15.6c-2.5,1.5-3.8,3-2.3,5.1c1.6,2.1,4.6,1.5,5.8-0.7c2.1-3.9,5.6-5.5,9-7.9
		c0.8,20.9-11.1,26.7-36.7,18.6c0.7-3.3,7.6-2.4,4.8-8.4c-2.4,1.6-4.8,3.1-7.1,4.9c-0.5,0.4-0.6,1.2-1.6,1.7c-7,3.5-0.1-9.8-8.8-6.7
		c-4.9,1.8-6.5-4.7-2.6-11.7c-3.9,3.4-5.7,5-7.3,6.4c-1.2,0.5-1.6,0.2-1.5-0.8c0.5-9.8-8.7-11.2-14-15.9c-1.4-1.3-4.4-2.7-3.6-3.9
		c6-9-2.6-16.4-2.2-24.6c0.4-8.8,0.6-17.6,0.6-26.4c0-12.4-1.2-24.9-0.2-37.2c0.6-7,0-14,1.2-21.1c1.6-9.2,2.1-18.7,0.4-28.2
		c-0.3-1.9-0.5-4.4,0.4-5.8c7.2-10.5-0.2-21.1,0.5-31.7c-0.2,13.8-3.5,27.1-5.1,40.7c-1.7,14-5.1,27.9-6.9,41.9
		c-0.9,6.7-1.5,13.5-1.8,20.1c-1.1,23.2,0.1,46.6-1.6,69.7c-0.4,5.5-2.4,13-7.3,18.1c-0.8,0.1-1.9,0.2-1.2,1.4
		c0.1,0.1,1.4-0.4,2.2-0.6c1.6,0.6,3.3-6.2,5,0.3c1.3,4.7,2.3,9.6,3.5,14.3c1.6,6.2-3.4,11.8-5,17.9c-1.2,4.8-7.3,6-13.4,7.6
		c-10.7,2.8-16.5-0.4-22.6-7.3c2.8-0.1,5.1-0.8,5.5-4.1c0.4-3.9,4.2-3.6,6.5-5c4.5-2.9,7.8-6.4,7.6-13c-5.7,5.7-14.7,6.9-15.8,15.9
		c-1.7,1.5-3.3,3.1-5,4.6c-7.5,1.8-7.5,1.8-7-9c3.7,1.6,6.9-0.8,8.4-2.9c5.3-7.2,13.8-11.4,18-19.5c0.6-1.1,4.6-0.5,1.6-3.4
		c-1.6-1.5-3.2-1.2-4.2,0.2c-6.7,9.7-19.6,13.7-23.7,25.8c-1.8,1.2-3.6,2.5-5.4,3.7c-0.8-3-3.4-5.5-2.4-9
		c11-4.4,15.5-15.3,23.5-22.8c-10.2,3.3-17.2,10.3-23.5,18.4c-0.4-5.3-0.2-9.7,5.2-13.3c3.1-2.1,6.2-6.3,6.4-12.4
		c-3.9,3.6-7.1,6.5-11.1,10.3c-0.9-4.3-2-9.1,0.3-11.1c2.8-2.5,5.7-3.8,3.6-11.3c-2.6,4.8-4.3,8-6.4,11.9
		c-6.5-12.6,5.7-16.4,8.5-26.4c-4.4,4.1-6.9,6.6-9.9,9.4c-1.5-6.5-1.1-11.6,3.4-15.8c1.9-0.2,4.2,0.1,3.8-3
		c-0.1-0.8-0.6-1.6-0.8-2.4c-1.4,1.2-2.8,2.5-4.2,3.7c-3.7-2.6-4-7.2-0.8-11.4c2.5-3.2,6.7-5.1,8-11.6c-3.8,3.5-6.4,5.9-8.9,8.3
		c3.6-10.1-6.1-21.2,2.9-30.4c0.9-0.9,1.4-2.3-0.6-2.6c-0.8-0.1-2.4,1.4-2.4,1.3c-1.8-2.6-1.7-5.8-0.6-8.3c1.3-3.1,3.7-5.8,5.6-8.7
		c1.8-1.2,5-2.9,3.2-4.8c-1.6-1.7-3,1.8-4.5,3.1c-1.6-0.2-3.8,6.7-4.8-0.4c-0.6-4.1,1.6-7.3,3.4-10.6c3.9-1.5,6.4-4.1,6.1-9.9
		c-3,3.4-5.3,5.9-7.6,8.5c-5.5-6.1,0-10.7,2.9-14.6c1.5-2,3.4-4.1,4.9-6.3c0.3-0.2,0.6-0.5,0.8-0.8c1.2-1.2,2.3-2.4,3.5-3.6
		c2-1.4,4.7-2.4,2.8-6.6c-1.7,2-3.1,3.6-4.5,5.3c-0.9,1-1.7,2-2.6,2.9c-0.7,0.7-1.3,1.3-2,2c-3.4,0.4-5.4,6.6-8.1,4.2
		c-5-4.4,1.3-7,3.4-10.2c0.7-1,0.7-2.4,1-3.6c4.1-0.3,6.4-2,5.3-6.6c-3.5,0-4.5,3.1-6.5,4.9c-5.6,3.9-5.7-1.1-4.5-3.7
		c1.9-4.4,4.2-7.3,0-12.3c-3.3-4,3.7-7.4,3.8-11.9c0.7-0.6,1.3-1.3,2-1.9c4.4-0.3,4.6-2.9,4.1-7.4c-2.6,2.8-4.3,4.8-6,6.7
		c-0.3,0.2-0.5,0.4-0.7,0.7c-6.1,1.8-6.1-1.8-4.6-5.7c1-2.6,3.1-4.7,4.7-7c3.2-3,8.2-4.6,8.3-12.1c-4,4.4-7,7.6-9.9,10.8
		c-10.3-6.4,2.5-9.8,1.9-15c0.4-0.2,0.6-0.5,0.8-0.8c4.4-2,7.7-4.8,7.1-10.2c2.8,1.5,4.2-0.4,5.7-2.3c0.8-1,1.7-1.9,2.5-2.9
		c1.5-0.9,3.8-2,2.1-3.9c-1.2-1.3-2.3,1.1-3.3,2c-1,1.1-2.1,2.3-3.1,3.4c-1.7,0.8-3.1,1.9-3.7,3.9c-3.3,2-6,4.8-8.1,8
		c-0.7,0.7-1.3,1.3-2,2c-6.7-0.1-3.8-4.7-3-7.4c0.8-2.6,3-4.7,4.6-7.1c0.9-1.1,3.4-2.1,2.2-3.3c-1.9-1.9-2.9,0.5-3.9,2
		c-1.2-0.3-3,4-3.8-0.4c-0.8-4.8,1.4-8.7,3.7-12.6c0.4-0.2,0.7-0.5,0.8-0.9c1.3-1.2,4.2-2,2.6-4.1c-0.9-1.2-2.7,0.6-3.3,2.2
		c-0.7,0.7-1.3,1.3-2,2c-8.1-2.4-3.3-6-1-9.6c2.1-3.3,2-3.2-1.5-6.4c-0.8-0.7-1.5-2.7-1.1-3.3c3.8-6-1.6-12.2,0.2-17.6
		c2.4-7.3-0.9-10.8-6.1-14.2c7.1-2.7,9.8-9.2,12.3-16c-4.5,4.8-9.1,9.5-13.6,14.3c-3-1.9-4.4-4.6-3.2-6.9c1.3-2.5,3-4.8,4.5-7.2
		c1.9-0.2,4.1,0,3.8-3c-0.1-0.6-0.3-1.5-0.6-1.6c-2.5-0.7-3.1,1.7-4.4,2.9c-1.6-0.2-4.1,6.9-4.7-0.5c-1-10.4,8.6-13.7,13.9-19.9
		c1.6-1.9,4.4-2.8,3-7.2c-5.2,4.8-10,9.2-15.1,13.9c-1.9-7-1.8-8.8,2.8-13.8c3.1-3.4,6.8-6.2,9.2-10.3c-3-1.9-3.7,1.8-5.7,2
		c-0.5-0.4-1.1-0.9-1.6-1.3c1.6-7.6,4.6-14.4,10.9-19.4c1.2-1.2,3.7-2.6,1.8-4.2c-1.4-1.1-2.6,1.4-3.4,2.8c-1.5,1.1-3,2.3-5.8,4.4
		c0.7-10.1,0.3-19.6,2.5-28.4c1.5-6.2,0.6-5.9-4.3-4.6c-6.7,1.9-6.8,1.7-6.5-4.8c-4.4,4.8-8.8,8.3-14.7,3.5
		c-14.2-11.5-15-13.5-8.4-27.7c-3.5,3.1-6,5.4-8.6,7.7c-5.9-10-4.7-20.5,3.1-28.6c3.2-3.3,6.2-6.6,9.3-9.9c8.4-0.8,8.2-13,17.4-12.9
		c0.7,3.3-2.9,3.9-3.9,6.1c-0.8,1.6-4.7,1.9-2.3,5c2.2,2.7,4.5-0.1,5.8-0.6c6.6-2.8,11.1-8.5,15.5-13.9c1.3-1.6,4.2-4.8,2.4-6.6
		c-3-3.1-4.5,0.5-6.6,2.6c-1.4,1.3-4.3,1-8.5,1.8c6.9-8.2,14.6-13.3,18.5-24.8c-14.1,13.6-26.3,25.3-38.4,37
		c-6.2-1.1-1.9,7.6-7.1,7.2c-4.6-7.4,7.4-12.4,4.7-16.3c-4-5.8-6-9,0.2-13.7c0.3-0.2,2.1-4-1.6-3.5c-2,0.3-2.3-0.7-2-2
		c2.8-11-4.4-24.7,9-32.9c2-1.2,3.2-3.2,2.8-5.8c2.7,0.9,4.1-1,5.8-2.6c10.7-10.2,21.5-20.3,32.3-30.4c2.4-2.2,4.2-6.1,8.9-3.4
		c-12.7,14.3-25.2,28.5-37.8,42.7c20.6-11.7,33.7-31.8,53.2-44.4c-15.7,21.3-34.2,40-51.1,60.3c21.7-18.3,40.5-39.9,62.4-57.9
		c0.7,0.7,1.3,1.3,2,2c-10,11.6-19.9,23.1-29.9,34.7c-2,2.4-7.5,4.8-4.8,7.2c3.6,3.2,3.2-4.1,6.1-4.9c0.2-0.1,0.2-0.6,0.4-0.9
		c4.3-1.7,7.5-4.8,10.7-8c16.2-16.3,32.4-32.6,48.8-48.8c2.5-2.5,4.8-6.4,10.9-2.8c-26.9,21.3-46.3,48.9-70.9,72.6
		c6,1.8,7.9-2,10.3-4.4c6.7-6.8,12.7-14.3,19.8-20.6c15.7-13.9,29.7-29.6,44.8-44.1c1.2-1.2,3.5-4.1,1.1-4.6c-8-1.5-3.9-7.8-5.1-12
		c-16.5,8-24.9,25.9-41.8,32.7c11-13.9,25.2-25,37.4-41.2c-18.3,6.5-25.4,22.4-39.8,28.8c4.7-8.8,13.1-14.2,18.6-22.1
		c1.8-2.6,8.3-4.9,4.9-8c-3.7-3.3-6.6,3.5-10.4,4.9c-0.5,0.2-0.7,1-1.1,1.4c-6.9,6.4-13.9,12.9-20.8,19.3
		c7.7-16.3,24.5-24.8,31.5-41.3c-5.2,3.5-8.9,9.3-16.1,8.5c-1.9-7.7,8.9-9.2,8.5-18.9c-7.1,10.6-18.4,12.4-23.7,21.3l0,0
		c-1.9,0.7-3.2,2.1-4.1,4c-0.8,0.8-1.7,1.6-2.5,2.4l0,0c-2.7,1.3-4.3,5.5-8.7,2.9c11.8-12.2,24-24,34.5-37.9
		c-6.1-1.2-6.8,4.8-10.3,6.7c-1.6-2.2-1.3-4.1,0.5-6c9.3-9.9,5.7-20,0.2-29.9c-3.2-5.8-5.5-9.7,0.8-16c2.2-2.2,8.1-12.4,0.3-18.9
		c-1.3-1.1-3.5-2.4-1.2-4.6c0.8-1,1.7-2,2.5-3c2-0.6,2.1-2,1.4-3.6c-0.9,0.7-1.8,1.4-2.7,2.1c-1,1.1-2,2.2-2.9,3.3
		c-6.2-0.5-7.7-2.8-3-7.7C628.1,91,634.4,84.5,640.7,77.9z M595.8,625.9c0.7-0.7,1.5-1.4,2.2-2.1c1.1-1.2,2.2-2.3,3.2-3.5
		c1.5-0.9,3.9-2,2-3.8c-1.2-1.2-2.2,1.3-3.3,2.2c-1,1.1-2,2.2-2.9,3.3c-0.7,0.7-1.3,1.3-2,2c-0.6,0.7-1.3,1.3-1.9,2
		c-1.6,0.6-3.3,2.4-2.1,3.3c2.1,1.5,3-1.2,4.1-2.6C595.4,626.5,595.6,626.2,595.8,625.9z M638,170.6c-1,0.9-3.1,1.5-1.7,3.2
		c1,1.1,1.9-0.2,2.4-1.2c1.2-0.4,2.2-1,1.4-2.4C640,169.9,638.7,170.4,638,170.6z M605,582.6c-1.7,0.4-2.7,1.5-2.7,3.3
		c0,0.2,0.4,0.7,0.6,0.7c2.1,0.2,2.3-1.8,3.2-3c0.1-0.8,0.6-2.2,0.3-2.3C605.3,580.7,605.2,581.8,605,582.6z M584.2,539.8
		c-1,1.1-2,2.2-2.9,3.3c-1.2,0.4-2.3,1-1.3,2.5c0.1,0.2,1.4-0.4,2.2-0.6c1.1-1.2,2.3-2.4,3.4-3.6c1.5-0.9,3.9-2,2-3.8
		C586.3,536.3,585.2,538.8,584.2,539.8z M584.1,558.7c1.2-1.2,4.2-1.9,2.4-4.1c-0.9-1.1-2.7,0.7-3.3,2.3c-1.2,0.4-2.3,1-1.3,2.5
		C582.1,559.6,583.4,558.9,584.1,558.7z M739.3,403.3c1.6-0.6,3.4-2.4,2.5-3.3c-2.2-2.3-2.6,1.2-4,1.9c-0.7,0.9-1.3,1.8-2,2.7
		C737.5,405.5,738.7,405.2,739.3,403.3z M723.5,261.3c1-0.8,1.9-1.7,2.9-2.5c6.5-4.1,13.1-8,13.3-17.2c-4.8,5.2-9.7,10.3-14.5,15.5
		c-1.1,1-2.2,1.9-3.3,2.9c-0.6,0.9-1.3,1.8-1.9,2.7C721.7,263.4,722.9,263.2,723.5,261.3z M611.6,468c1.3-1.1,4.2-2,2.6-4.1
		c-0.9-1.2-2.7,0.6-3.3,2.2c-0.7,0.7-1.3,1.3-2,2c-3,2.9-5.9,5.7-8.9,8.6c-5.5,5.5-10.9,11-16.4,16.5c-0.4,0.2-0.7,0.5-0.9,0.9
		c-2.6,2.4-5.2,4.9-9.6,9.1c6.6-1.5,8.4-4.5,10.4-7.2c0.7-0.7,1.3-1.3,2-2c6.7-3.8,12-9,15.8-15.8c5.5-0.8,5.8-6.8,9.5-9.4
		C611.1,468.7,611.4,468.4,611.6,468z M673,435.1c-1.1,1.2-2.2,2.4-3.2,3.6c-4.2,4-8.3,8-12.5,12.1c-11.5,11.7-24.1,22.3-34.3,35.3
		c-6.1,3.6-10.2,9.2-15.1,14.1c-7.9,8.3-15.8,16.5-23.7,24.8c0.1,0.1,0.2,0.2,0.3,0.3c8.2-7.8,16.5-15.6,24.7-23.4
		c4.9-5,12-8.2,13.5-16.1c2.7,0.9,4.1-1,5.8-2.5c10.8-9.5,20.9-19.6,30.1-30.6c3.4-4.9,12-5.9,10.9-14.2c1.8,0,3.8,0.9,4.7-1.7
		c1-0.8,1.9-1.7,2.9-2.5c1-1.1,2-2.2,3-3.4c1.5-0.9,3.8-2,2-3.8c-1.2-1.2-2.3,1.2-3.3,2.1c-1,1.1-2,2.3-3,3.4
		C675,433.5,674,434.3,673,435.1z M620.8,456.4c-1.7,0.4-2.7,1.5-2.8,3.2c0,0.2,1.2,0.8,1.3,0.7c0.9-0.9,1.6-1.9,2.4-2.8
		c0.2-0.8,0.7-2.2,0.5-2.3C621,454.5,621,455.6,620.8,456.4z M757.1,432.9c1-0.9,1.9-1.7,2.9-2.6c10.1-4.4,13.2-14.9,21.4-20.9
		c-0.8-0.7-1.7-1.5-2.5-2.2c-6.7,7.2-13.5,14.3-20.2,21.5c-1.1,1-2.2,2-3.3,2.9c-0.6,0.9-1.2,1.8-1.8,2.7
		C755.2,435,756.5,434.8,757.1,432.9z M600,634.4c-1,1.1-2,2.2-2.9,3.3c-0.7,0.6-1.3,1.3-2,1.9c-1.4,1.2-2.8,2.5-4.2,3.7
		c-2.5,2.9-6.2,4.8-7.7,9.5c6-1.4,9.8-3.4,7.5-9.7c3.1,1.5,4.9-0.2,6.3-2.7c0.4-0.2,0.6-0.5,0.8-0.8c1.2-1.2,2.3-2.4,3.5-3.6
		c1.5-0.9,3.9-2,2-3.8C602.1,631,601,633.5,600,634.4z M645.7,166c1-1.1,2-2.2,2.9-3.3c2.4-2,6-3.3,5.4-8.2c-2.7,2.6-4.9,4.8-7,6.9
		c-0.9,1-1.7,2-2.6,3c-1.5,0.9-3.9,2-2,3.8C643.5,169.4,644.6,166.9,645.7,166z M686.1,425c1.9-1,3.7-2.1,3.4-6.8
		c-2.5,2.8-3.9,4.4-5.3,5.9c-0.2,0.7-0.8,2-0.6,2.2C685,427.3,685.6,426.2,686.1,425z M596,464.8c-1.3,1.3-2.7,2.7-4,4
		c-2.6,2.7-6.3,4.7-7.5,9c6.8,1,6.3-4.8,8.8-7.5c1.3-1.3,2.6-2.6,4-3.9c1.5-0.9,3.9-2,2-3.8C598.2,461.4,597.1,463.8,596,464.8z
		 M587.9,586.4c1.7-1.2,4.5-2.6,2.7-4.7c-1.1-1.3-2.7,1.3-3.5,2.8c-1.2,0.4-2.2,1-1.4,2.4C585.9,587.1,587.2,586.6,587.9,586.4z
		 M690.8,433.1c-1.3,1.3-2.6,2.6-4,4c-3.7,3.8-7.3,7.5-11,11.3c-1.6,1.5-3.2,3-4.8,4.5c-5.3,5.3-11.5,9.9-14.6,17.4
		c4.7-5.8,12.8-7.9,15.8-15.5c3.8,0.8,3.6-2.6,4.9-4.5c4-3.4,8.9-5.9,10.9-11.2c2.9,0.3,4.2-1.1,4-4c1.9-0.6,2.5-2.2,1.3-3.4
		C692.3,430.5,691.6,432.4,690.8,433.1z M643.4,512.1c-1.3,1.3-2.7,2.7-4,4c-4.6,4.9-9.2,9.9-13.8,14.8c6.4-3,11.2-7.5,15.1-13.2
		c2.9,0.3,4.2-1,4-3.9c1-0.8,1.9-1.7,2.9-2.5c3.7-1.2,5.6-4,6.8-7.5c8.1-4.6,15.1-11.2,20.2-18.2c5.2-7.2,15.7-9.3,17.5-19.1
		c1.9-0.6,2.4-2.2,1.3-3.4c-1-1-1.8,0.8-2.5,1.5c-12.9,13-25.8,26-38.6,39c-1.9,2-3.9,3.9-5.8,5.9
		C645.3,510.4,644.4,511.3,643.4,512.1z M571.7,381.6c2.5-1.4,4.5-3.4,5.9-5.9c7.8-4,14.7-9,17.8-17.8c1-0.9,1.9-1.7,2.9-2.6
		c10.2-9.6,20.3-19.3,30.5-28.9c19.9-19.6,41.3-37.8,57-61.3c-8.4,9.7-20.4,15.5-28.5,25.4c-9,11-22.4,18-28.6,31.5
		c-11.1,10-21.7,20.5-31.6,31.6c-1,0.8-1.9,1.7-2.9,2.5c-4.2,4.7-9.5,7.1-16.6,7.6c1.5-3.5,5.9-5.5,2.8-9.9
		c-9.7,9.7-19.4,19.3-29.1,29c8.2-0.7,12.1-6.6,16.9-11.2c5-4.7,7.3-4.8,7.7,2.6c-1.9,2-3.8,3.9-5.8,5.9c-0.6,0.9-1.3,1.8-1.9,2.7
		C569.8,383.7,571.1,383.5,571.7,381.6z M583.5,464.5c2.9-1.6,6.1-2.9,7-6.6c3.4-3.4,6.7-6.7,10.1-10.1c1.6-2,5.5-2.8,3.6-7.3
		c-1.9,2.2-3.5,4.1-5.2,6c-3.9,2.7-7.2,6-9.9,9.9c-2.4,2.3-4.8,4.5-7.2,6.8c-0.9,1.1-3.5,2.1-2.3,3.3
		C581.5,468.3,582.6,466,583.5,464.5z M622.3,470.1c-2.5,2.6-5,5.2-7.6,7.8c-3.6,3.9-7.1,7.8-10.7,11.7c0.7,0.7,1.4,1.3,2.1,2
		c3.4-4.1,6.9-8.2,10.3-12.4c2.2-2.9,7.2-4.2,5.5-9.3c1.5,0.2,3.2,0.8,4.4-0.7c0.2-0.3-0.3-1.6-0.4-1.6
		C624.3,467.7,623.1,468.6,622.3,470.1z M630.8,511.8c3.8-2,7.2-4.3,8.1-11.5c-4.4,4.6-7,7.3-9.7,10.1c-2.9,3-5.7,6-8.6,8.9
		c-3.9,3.6-7.7,7.2-11.6,10.9c6-1.3,10-5,13.2-9.6C625.2,517.7,628,514.8,630.8,511.8z M646.7,133.1c4.9-0.1,6.6-4.4,9.3-7.3
		c0,0-1.5-2-1.9-1.9c-4.1,1.2-7.3,3.7-9.1,7.8c-1.7,1.1-3.5,2.2-5.2,3.3C644.1,137.1,645.5,135.4,646.7,133.1z M649.3,443
		c-6,5.9-12,11.8-17.9,17.6c0.8,0.7,1.6,1.5,2.4,2.2c6.6-5.1,11.4-12,16.8-18.1c2.7-2.2,6.2-3.8,6.6-10.7
		C653.5,438.3,651.4,440.6,649.3,443z M669.8,344.1c-10.3,10.1-20.6,20.3-30.8,30.4c-1.3,1.5-4.8,2.9-3,4.5c2,1.8,3.6-1.4,4.8-3.2
		c0.7-0.1,1.6,0.1,1.9-0.2c7.8-8.9,15.3-18,25.4-24.6c2.4-1.6,2.6-4.4,1.5-7.1c5.9,1.3,7.3-5.4,12.1-6.7c2.5-0.6,3.8-4.2,1.5-6.3
		c-2.2-2.1-4.9-0.5-6.5,1.9C674.2,336.4,672,340.3,669.8,344.1z M625.8,343.7c8.6-5.9,14.6-15.2,24.6-19.4
		c-6,14.8-16.5,25.5-30,33.6c-3.3,2-7.7,4.1-5.7,9.6c-2.8,2.1-5.7,4.1-7,7.6c0.8,0.8,1.6,1.6,2.4,2.4c2-2.7,3.9-5.4,5.9-8.2
		c9.2-4.8,15-13.3,22.3-20.2c7.5-7.1,14.8-14.5,22.1-21.7c-8.4,18.2-22.5,31.3-34.6,46.2c21-17.8,42.2-35.2,57.9-58.2
		c-1.5-0.1-2.3,0.5-3,1.1c-3.4,3.2-7.4,9.3-11.8,4.8c-2.8-2.9,4.8-5.8,6.4-9.4c2.4-5.6,11.4-6.5,10.5-15.7
		c-7.6,6.8-14.9,12.4-22.1,18c-3.1,2.4-4.5,7-9.6,6.5c-1.1-0.4-2-0.8-1.7-2.2c7.9-7.7,15.9-15.4,23.8-23.2c1.2-1.1,2.6-2.6,0.7-4
		c-1.7-1.3-3.7-0.5-5.2,1c-9.3,9.2-20.5,16.7-27.5,28.1c-7.7,6.2-13.1,14.4-19.8,21.5c-3.6,3.5-7.2,7-10.9,10.4
		c-3,2.5-5.6,5.6-8.9,7.3c-8.8,4.4-10.8,6.7-12.5,17.4c7.9-8.1,19.3-11.4,22.7-23C620.3,352.2,622,346.9,625.8,343.7z M654.6,519.7
		c14.9-11.8,28.3-25,38.7-41.1c-13.5,13.3-27,26.5-40.6,39.8c-4.6,4.7-9.3,9.4-13.9,14C644.1,528.1,652.4,527.5,654.6,519.7z
		 M676.9,139.3c0.4,0.5,0.8,1.1,1.2,1.6c-1.2,2.5-4.2,5.2-0.8,7.5c2.5,1.7,4.8-0.7,6.7-2.6c5.1-5.1,10.2-10.2,15.2-15.4
		c0.9-0.9,2.9-1.7,1.3-3.8c-1.5-2-2.7-0.6-4,0.1c-4.1,2.1-8,4.8-10.7-2c-1.2-2.9-2.4,0.1-3.3,0.7c-3.3,1.9-7.3,3.3-9.6,6.1
		c-3.1,3.7-11.4,6.7-8,11.7C668.8,148.9,672.3,139.5,676.9,139.3z M609.3,328.5c1-0.2,2.3,0,2.8-0.5c20.2-20.1,40.4-40.3,60.6-60.4
		c2.7-2.7,5.5-5.4,6.9-9.2c6.1-1.2,6.7-6,7.6-11.1c-6.9,0.2-5.3,7.6-9.3,9.8c-5.6,4.6-11.4,9.1-16.8,13.9
		c-19.4,17.3-34.7,38.5-53.7,56.2c-2.9,2.4-5.8,4.9-10,8.4C606.2,337.1,606,330.6,609.3,328.5z M685.4,234.5
		c-32.3,24.3-57.6,56.1-86.8,86C609.6,316.9,685.1,241.7,685.4,234.5z M695.9,495.1c-11.8,11.8-25.5,25.5-39.2,39.2
		C669.9,520.1,686.4,509.3,695.9,495.1z M691.6,452.5c-8.8,8.8-21.2,21-33.5,33.3C669.9,473,684.7,463.1,691.6,452.5z M587,300.2
		c-11.5,11.8-23,23.7-34.4,35.5C565.4,325.3,579.8,316.4,587,300.2z M625.6,499.4c11.4-8,22.1-16.7,31.6-30.7
		C645.2,480.3,635.4,489.8,625.6,499.4z M686.1,148c8.9,5,19.2-2.4,23-17.2C701.7,137.5,695.2,144.5,686.1,148z M700.7,505.2
		c-7.1,6.5-15.8,14.5-24.5,22.5C687.8,522.6,695.1,513.3,700.7,505.2z M658.8,138.7c4.9-2.3,8.1-8.2,12.8-12.4
		c0.1-0.1-0.7-1.5-1.3-2.1c-0.6-0.7-1.2-0.9-2.3-0.1c-4,3-8.3,5.7-12.2,8.8c-1,0.8-1.4,2.9-1.3,4.3
		C654.6,138.9,656.2,139,658.8,138.7z M769.8,334.1c-3.7,6.6-7.5,12-12.6,16.5c-0.7,0.6-2.7,1.2-1.4,2.9c0.6,0.8,1.4,1.9,2.1,1.9
		C762.6,355.4,771.7,339.7,769.8,334.1z M692.6,796c-8.1,4.9-14,11.8-19.6,19.1C681,810.1,688.8,805.1,692.6,796z M688.5,814.9
		c8.3-4.7,16.1-9.6,21.3-20.2C701.5,802.5,695,808.7,688.5,814.9z M706.2,750.9c-6,6.7-12,13.4-15.1,16.9
		C695,765,701.2,758.5,706.2,750.9z M670.6,359.8c4.2-2.5,7.7-4.4,11-6.7c0.7-0.4,2.7-1.1,1.5-2.8c-0.5-0.7-1.4-1.2-2.1-1.8
		C678.7,353.1,668.5,349.9,670.6,359.8z M726.1,272c7.3-2.1,13.2-5.9,15.3-15.9C735.5,262.2,730.8,267.1,726.1,272z M702.3,772.1
		c-12.6,7.7-12.6,7.7-14,14.7C693,781.9,697.7,777,702.3,772.1z M608.7,517.1c-4.5,4.7-9.2,9.6-14,14.5
		C599.4,526.7,607.2,524.9,608.7,517.1z M651.8,141.6c-5.3,5.1-11.9,8.9-14.6,16.2C642,152.3,650.2,149.9,651.8,141.6z M759.8,363.5
		c-3,4.5-8.4,6.5-9.8,11.9c-0.1,0.4,1.9,1.9,2,1.8c3.9-3.2,7.5-6.7,8.6-12C760.7,365,760.4,364.6,759.8,363.5z M699.9,520.9
		c-4.4,4-8.8,8-14.4,13.1C694.8,532.5,695.7,525.1,699.9,520.9z M656.5,484.7c-3.7,4.6-6.6,8.3-8.5,10.7
		C651.5,494.7,654.6,491.2,656.5,484.7z M750.7,389.3c-3.6,3.4-7,5.1-9.1,11.3C747.6,398,751.3,396.5,750.7,389.3z M584,746.4
		c4.7-0.9,5.9-3.8,8-8.5C587.8,740.6,585.6,742.6,584,746.4z M550.1,305.5c-3.5,3.5-6.4,4.9-7.7,11
		C546.3,312.6,549.3,311.3,550.1,305.5z M604.9,458.7c-0.1-0.2-0.5-1-0.9-1.8c-1.3,1.2-3.4,2-3.4,4.2c0,0.4,1.2,1.1,1.9,1.2
		C604.6,462.4,605.2,461.1,604.9,458.7z M753.1,385.5c-2.1,0.4-2.2,1.8-2,3c0.1,0.6,0.2,2.1,1.8,1.4c1.3-0.6,2.3-1.3,1.9-2.8
		C754.6,386.4,753.6,385.9,753.1,385.5z M676.8,528.1c-3.8,0.9-5.2,2.4-6.2,4.7C674.2,533.8,675.1,531.6,676.8,528.1z M589.2,550.2
		c-0.5,0.7-1.3,1.7-2,2.7c0.8,0.2,1.7,0.7,2.3,0.4c0.7-0.4,1.3-1.3,1.5-2.1C591.1,550.8,591.1,549.2,589.2,550.2z M634.5,110.4
		c-0.5,0.7-1.3,1.7-2,2.7c0.8,0.2,1.7,0.7,2.3,0.4c0.7-0.4,1.3-1.3,1.5-2.1C636.5,111,636.5,109.3,634.5,110.4z M599.2,653.7
		c-0.6-0.7-1-1.1-1.4-1.6c-0.5,0.8-1,1.6-1.3,2.5c-0.1,0.2,0.8,0.8,1.2,1.1C598.2,655,598.7,654.3,599.2,653.7z M607.1,630
		c-0.6-0.7-1-1.1-1.4-1.6c-0.5,0.8-1,1.6-1.3,2.4c-0.1,0.2,0.8,0.7,1.2,1.1C606.1,631.3,606.6,630.7,607.1,630z M606.9,614.7
		c-0.2-0.5-0.4-1.1-0.6-1.6c-0.6,0.5-1.3,0.8-1.7,1.4c-0.2,0.3,0.1,1.2,0.5,1.4C606.1,616.4,606.6,615.6,606.9,614.7z M591.4,725
		c-0.6-0.7-0.9-1.2-1.3-1.6c-0.5,0.6-1.1,1.2-1.4,2c-0.1,0.2,0.6,0.8,0.9,1.2C590.2,726,590.8,725.5,591.4,725z M578.6,435.5
		c0.5,0.5,0.9,0.9,1.4,1.3c0.4-0.7,1.1-1.4,1.3-2.2c0.1-0.3-0.7-0.9-1.1-1.4C579.6,433.9,579.1,434.7,578.6,435.5z M660.4,671.4
		c-0.6-0.7-1-1.1-1.4-1.6c-0.5,0.8-1,1.6-1.3,2.5c-0.1,0.2,0.8,0.7,1.2,1.1C659.4,672.8,659.9,672.1,660.4,671.4z M670.3,425.2
		c-0.6-0.7-0.9-1.2-1.2-1.6c-0.5,0.6-1.1,1.2-1.4,2c-0.1,0.2,0.6,0.8,0.9,1.2C669.1,426.2,669.7,425.7,670.3,425.2z M772.7,385.5
		c0.7-0.5,1.3-1,2-1.6c-0.4-0.4-0.9-1.2-1.2-1.2c-0.9,0.3-1.7,0.9-2.5,1.4C771.6,384.5,772,384.9,772.7,385.5z M550,388.2
		c-0.5-0.6-1-1.5-1.2-1.4c-0.9,0.3-1.6,0.8-2.5,1.2c0.4,0.4,0.9,1.2,1.3,1.2C548.4,389.1,549.2,388.6,550,388.2z M721.2,89.3
		c1.6,0.5,1.9-0.5,2-1.4c0-0.3-0.9-0.9-1.2-0.8c-0.7,0.3-1.3,1-2,1.5C720.5,88.8,721,89.1,721.2,89.3z M693.9,417
		c-0.6-0.7-1-1.1-1.4-1.6c-0.5,0.8-1,1.6-1.3,2.5c-0.1,0.2,0.8,0.8,1.2,1.1C692.9,418.3,693.4,417.6,693.9,417z M586.5,569.6
		c0.5,0.5,0.9,0.9,1.4,1.3c0.4-0.7,1.1-1.4,1.3-2.2c0.1-0.3-0.7-0.9-1.1-1.4C587.5,568.1,587,568.8,586.5,569.6z M591.3,535.3
		c-0.6-0.7-1-1.2-1.4-1.6c-0.5,0.8-1,1.6-1.3,2.5c-0.1,0.2,0.8,0.8,1.2,1.1C590.3,536.7,590.8,536,591.3,535.3z"/>
	<path id="XMLID_15_" class="st4" d="M595.4,237.3c1.8,4.4-2.7,5.1-4.5,7.2c-12.8,14.9-25.9,29.6-39,44.4c-3,2.3-5.9,4.7-9.3,7.3
		c-2-5.5,0.1-9.8,2.8-14.1c2.7-2.8,6.8-4.5,6.5-9.4c7.6-1.9,11.6-7.6,15.4-13.6c-6.4,3.2-11.5,7.8-15.2,13.8
		c-3.7,1.6-6.1,4.6-8.4,7.8c-5-6.9,0.2-11.5,3.7-16.4c1.5-2.1,5.5-2.8,3.5-7.3c-1.9,2.1-3.5,4.1-5.2,6c-6.9-10.5,4.7-13.8,7.9-20.4
		c1.6-3.4,7.6-3.8,6.2-9.2l-0.3,0.4c5.3,2.6,7.1-2.5,9.8-4.9c10.3-9.4,19.3-20.3,30.8-28.4c0.4,0.6,0.9,1.1,1.3,1.7
		c-2.8,3.2-5.5,6.4-8.3,9.6c-12.9,10.5-22.7,23.8-32.8,36.7c0.6,0.6,1.1,1.3,1.7,1.9c11.8-10.3,23.5-20.7,35.3-31
		c1.2,6.6-6.6,7.1-8.1,11.9c-8,7.5-15.4,15.4-21.2,26.9c6.9-1.6,9.5-6.1,13-9.2C585.5,244.8,589.1,239.3,595.4,237.3z"/>
	<path id="XMLID_14_" class="st4" d="M576.9,211.1c-5.8,7.6-11.7,15.1-17.5,22.7l0.3-0.4c-5,4.5-10.1,9.1-15.1,13.6
		c3.7-17.9,17.1-27.6,30.6-37.3C575.9,210.2,576.4,210.6,576.9,211.1z"/>
	<path id="XMLID_13_" class="st4" d="M600,200.4c6.2-6.5,9-16.9,22.7-18.8c-8.3,8-14.9,14.2-21.4,20.5
		C600.9,201.6,600.4,201,600,200.4z"/>
	<path id="XMLID_12_" class="st4" d="M595.1,237.5c0.1-0.7,0.1-1.3,0.2-2c0.7-0.6,1.3-1.2,2-1.8c2.2-1.7,4.5-3.3,5.4-6.2
		c0.8-0.7,1.6-1.5,2.4-2.2c2.4,0.6,2.8-3.9,6.4-1.6C605.9,228.5,603,235.8,595.1,237.5z"/>
	<path id="XMLID_11_" class="st4" d="M559.8,210c-0.4,4.7-2.7,7.9-7.6,9.1c-1.8-5.9,3.6-7.6,6.3-10.7
		C559,208.9,559.4,209.5,559.8,210z"/>
	<path id="XMLID_10_" class="st4" d="M575.3,209.7c-0.8-3.8,2.6-3.7,4.6-4.9c1.6-1,1.3,0.7,1.5,1.4c1.2,4-2.8,3.4-4.4,4.9
		C576.4,210.6,575.9,210.2,575.3,209.7z"/>
	<path id="XMLID_9_" class="st4" d="M558.5,208.4c1.5-2.4,4.9-3.8,5.9-1.8c1.2,2.5-2.2,3.3-4.6,3.4
		C559.4,209.5,559,208.9,558.5,208.4z"/>
	<path id="XMLID_8_" class="st4" d="M571.7,472.4c-0.8,1.5-2.1,4-3.5,2.9c-2-1.6,0.6-3,1.8-4.2C570.6,471.5,571.1,471.9,571.7,472.4
		z"/>
	<path id="XMLID_7_" class="st4" d="M613.1,218c0.6-0.2,1.3-0.3,1.9-0.4c2.1,1.8,0.1,2.9-0.9,3.6c-1.4,1-2.2,0.1-2.2-1.5
		C612.3,219.1,612.7,218.6,613.1,218z"/>
	<path id="XMLID_6_" class="st4" d="M618.4,211.8c2.1-2.1,4.2-4.2,6.4-6.4c1.6-0.9,3.3-1.7,4.9-2.6c-3.6,3.7-2.8,11.9-10.9,11
		C618.6,213.2,618.5,212.5,618.4,211.8z"/>
	<path id="XMLID_5_" class="st4" d="M625.1,241c-2.9,4.5-5.6,7.4-11.6,10.9C616,244.7,618.2,241.4,625.1,241z"/>
	<path id="XMLID_4_" class="st4" d="M614.8,217.8c0.7-2.1,1.7-3.9,4.2-4.1C619.6,217.2,618.3,218.6,614.8,217.8z"/>
	<path id="XMLID_3_" class="st4" d="M676.9,139.3c1.5-4,3.8-7.1,9.1-7.4c-0.8,4.7-4.6,6.7-7.8,9
		C677.7,140.4,677.3,139.8,676.9,139.3z"/>
</g>
<path id="XMLID_2_" class="st5" d="M485.2,756.8c9.3,9.2,18.5,18.3,27.7,27.3c-0.1,0.1-0.1,0.2-0.2,0.4c-0.4,0-0.7,0-1.1,0
	c-12.2,0-24.5,0-36.7,0c-0.9,0-1.5-0.2-2.1-0.9c-13.3-13.4-26.7-26.9-40-40.3c-0.6-0.6-0.7-0.9,0-1.6c13.4-13.4,26.7-26.8,40.1-40.2
	c0.5-0.5,1-0.8,1.7-0.8c12.4,0,24.8,0,37.2,0c0.3,0,0.6-0.1,1,0.3c-9.2,9-18.4,18.1-27.7,27.2c0.7,0.4,1.2,0.3,1.6,0.3
	c17.6,0,35.1,0,52.7,0c1.1,0,1.4,0.3,1.4,1.4c-0.1,8.3-0.1,16.7,0,25c0,1.1-0.2,1.5-1.4,1.5c-17.6,0-35.1,0-52.7,0
	C486.3,756.6,485.8,756.5,485.2,756.8z"/>
<path id="XMLID_1_" class="st5" d="M260.4,767.4c5.6-5.5,10.9-10.8,16.4-16.2c-0.6-0.3-1-0.2-1.4-0.2c-10,0-20,0-30.1,0
	c-1.1,0-1.3-0.4-1.3-1.4c0.1-4.7,0.1-9.3,0-14c0-1,0.3-1.2,1.2-1.2c10,0,20,0,30.1,0c0.4,0,0.9,0,1.4,0
	c-5.4-5.4-10.8-10.7-16.1-16.1c0.5-0.5,0.8-0.4,1.1-0.4c7,0,14,0,21,0c0.7,0,1.3,0.2,1.8,0.7c7.7,7.7,15.4,15.5,23.2,23.2
	c0.7,0.7,0.6,1,0,1.6c-7.7,7.7-15.5,15.5-23.2,23.2c-0.4,0.4-0.7,0.7-1.3,0.7C275.6,767.4,268.2,767.4,260.4,767.4z"/>
</svg>
