<?xml version="1.0" encoding="utf-8"?>
<!-- Generator: Adobe Illustrator 17.0.0, SVG Export Plug-In . SVG Version: 6.00 Build 0)  -->
<!DOCTYPE svg PUBLIC "-//W3C//DTD SVG 1.1//EN" "http://www.w3.org/Graphics/SVG/1.1/DTD/svg11.dtd">
<svg version="1.1" id="Ebene_1" xmlns="http://www.w3.org/2000/svg" xmlns:xlink="http://www.w3.org/1999/xlink" x="0px" y="0px"
	 width="1683.78px" height="2383.94px" viewBox="0 0 1683.78 2383.94" enable-background="new 0 0 1683.78 2383.94"
	 xml:space="preserve">
<g>
	<path fill="#030303" d="M832.057,994.057c0.814,0,1.627,0,3.34,0c-2.968,2.943-5.477,5.389-7.926,7.895
		c-0.503,0.514-1.508,0.96-0.967,1.965c0.728,1.353,1.651,0.276,2.5,0.11c4.225-0.828,5.495-5.46,9.089-7.12
		c2.213,0.615-0.727,3.842,2.115,4.08c2.033,0.171,2.625-1.762,3.889-2.691c4.192-3.082,8.226-6.335,11.046-10.855
		c0.57-0.914,1.833-0.437,2.803-0.378c-0.665,0.92-1.329,1.841-1.994,2.761c-3.555,3.096-6.97,6.294-8.264,11.086
		c3.193-3.067,7.282-4.799,10.38-7.807c0.148-0.068,0.291-0.147,0.443-0.201c1.88-0.667,1.681-5.099,3.977-3.411
		c1.616,1.187-1.718,2.751-2.789,4.144c-0.806,1.049-0.582,2.129-0.823,3.193c-0.544,0.506-1.087,1.013-1.631,1.519
		c-0.313,0.453-0.627,0.907-0.94,1.36c0.831,0.391,1.467,0.282,1.768-0.688c0.487-0.426,0.974-0.852,1.461-1.278
		c1.784-0.862,3.295-2.05,4.71-3.457c0.744-0.74,1.232-2.678,2.857-1.618c1.635,1.067,0.969,2.527-0.003,4.341
		c4.458-3.792,7.094,0.457,10.229,1.95c1.746,0.831,3.608,2.947,2.471,4.837c-0.953,1.584-2.57,3.733-5.427,3.007
		c-1.402-0.356-1.66,0.043-0.767,1.289c1.987,2.775-1.404,5.376,0.058,8.261c1.525,3.011,0.496,5.787-2.257,7.826
		c-0.104,0.078-0.124,0.269-0.18,0.398c1.317,1.136,2.012-0.553,3.049-0.76c1.263-0.252,2.004-2.675,3.803-0.394
		c1.683,2.134-1.04,2.365-1.454,2.957c-1.615,2.312-3.487,4.332-7.006,4.807c-3.072,0.415-3.165,4.482-2.926,6.892
		c0.359,3.625,0.816,6.808-2.558,9.248c-0.577,0.417-1.241,0.927-0.587,1.993c2.395,3.904-0.417,6.528-2.456,9.318
		c-0.165,0.096-0.294,0.227-0.388,0.391c-0.589,0.403-1.695,0.84-1.28,1.513c0.544,0.883,1.286,0.289,1.653-0.534
		c0.332-0.332,0.664-0.663,0.996-0.995c3.351-0.515,4.514-4.436,7.818-5.023c-1.471,4.555-4.395,8.172-7.535,11.828
		c5.167-2.814,8.705-8.485,15.217-8.853c-5.059-0.337-2.06,5.745-5.226,6.689c3.093-0.876,5.271-3.05,7.655-4.909
		c3.201,0.274,1.736,2.099,1.201,3.614c-0.294,0.455-0.589,0.91-0.883,1.364c0.828,0.37,1.462,0.256,1.755-0.705
		c1.214,0.449,2.905-2.004,3.614,0.215c0.842,2.635,4.13,4.739,2.55,7.77c-0.825,1.583-0.643,1.602,0.566,2.628
		c3.404,2.887-0.189,4.756-1.65,6.904c4.891,0.866,5.098,1.521,2.078,5.818c-0.307,0.452-0.613,0.904-0.92,1.356
		c0.829,0.383,1.461,0.267,1.76-0.694c0.891,6.988,6.625,4.106,10.422,4.982c1.882,0.434,3.946,0.075,5.926,0.075
		c-0.217,5.498-3.105,10.434-2.567,16.097c0.262,2.761-3.154,4.324-4.282,6.792c-0.603,1.32-3.321,3.144,1.289,3.638
		c3.689,0.395,6.789,3.906,8.788,7.016c1.935,3.009-0.745,6.321-3.073,7.94c-3.204,2.228-5.411,5.274-8.627,7.889
		c5.183,0.06,4.273,2.94,3.154,5.789c1.636,1.281,2.827-2.256,4.306-0.312c1.681,2.211-1.165,2.58-1.789,3.867
		c-0.422,0.871-0.918,1.705-1.382,2.556c-1.56,2.485-5.274,2.918-6.493,6.856c3.754-1.317,6.557-2.518,7.328-6.191
		c1.428-1.059,3.383-1.277,4.06-2.643c6.497,8.907-0.412,13.894-6.345,19.174c2.29,0.926,2.596-1.29,4.228-1.342
		c-1.794,6.251-4.104,11.825-10.883,14.25c-1.518,0.543-2.948,0.614-4.349,0.381c-3.893-0.646-5.18,0.885-3.876,4.874
		c0.051,0.155,0.121,0.361,0.062,0.485c-2.05,4.29,1.523,8.892-0.737,13.165c-0.307,0.452-0.614,0.903-0.921,1.355
		c0.825,0.377,1.463,0.273,1.766-0.689c0.189,5.569,3.515,11.525-2.036,16.387c-0.672,0.589-0.499,1.125-0.265,2.033
		c1.033,4.003,0.058,7.49-4.028,10.019c4.849-0.168,3.404,2.449,2.648,4.576c-1.708,4.809-2.219,9.849-2.28,14.842
		c-0.044,3.665-1.573,6.219-3.606,8.205c3.034,2.616,1.71,5.188,0.2,7.6c-0.74,1.183-2.737,2.24,0.551,2.358
		c0.219,0.008,0.512,0.354,0.624,0.608c1.322,3.004-2.326,6.753-2.061,6.864c4.526,1.89,2.215,4.327,0.617,6.411
		c-1.099,1.432-1.054,1.19,0.562,2.274c2.445,1.64,0.987,4.229-0.749,6.144c-0.319,0.451-0.639,0.903-0.958,1.354
		c0.834,0.402,1.461,0.27,1.769-0.686c1.003,0.932,2.079,1.744,1.114,3.423c-2.661,4.628-2.631,10.104-4.711,15.065
		c-1.51,3.603-2.561,8.197-2.447,12.541c0.084,3.177,0.143,6.241-2.814,8.346c-0.52,0.401-1.04,0.803-1.559,1.204
		c-0.431,0.62-1.173,1.134-0.817,2.032c0.049,0.123,0.709,0.197,0.788,0.084c0.5-0.712,0.427-1.468-0.031-2.181
		c0.967,0.48,1.903,0.778,2.654-0.337c4.415,3.023,0.497,4.919-0.967,7.147c-0.328,0.452-0.655,0.904-0.983,1.357
		c0.836,0.412,1.47,0.296,1.775-0.68c1.923,2.692,1.3,5.098-0.822,7.337c-0.311,0.452-0.622,0.903-0.933,1.355
		c0.829,0.388,1.458,0.27,1.756-0.691c1.676,0.548,0.91,1.962,0.878,2.937c-0.091,2.83-1.953,5.1-0.27,8.636
		c1.607,3.375-4.033,4.914-5.538,8.208c3.304,0.045,4.849-2.477,6.782-4.298c0.992-0.935,1.574-1.823,2.97-0.255
		c1.559,1.751,0.398,2.202-0.871,2.68c-2.161,0.814-2.305,2.773-3.344,4.895c3.023-0.853,4.814-2.222,5.577-4.841
		c3.945,4.653-0.076,6.209-2.772,7.888c-1.261,0.785-1.935,1.538-1.16,2.563c0.793,1.049,2.325,0.764,2.919-0.346
		c1.048-1.956,2.816-2.805,4.586-4.021c0.393,10.581-5.62,13.534-18.583,9.412c0.34-1.659,3.851-1.236,2.413-4.238
		c-1.202,0.812-2.455,1.582-3.599,2.488c-0.268,0.213-0.302,0.624-0.794,0.871c-3.548,1.79-0.028-4.991-4.437-3.415
		c-2.493,0.891-3.279-2.363-1.302-5.933c-1.953,1.706-2.893,2.528-3.693,3.226c-0.62,0.249-0.795,0.091-0.769-0.401
		c0.263-4.974-4.429-5.665-7.096-8.071c-0.716-0.646-2.243-1.394-1.846-1.989c3.03-4.543-1.297-8.291-1.13-12.484
		c0.178-4.463,0.295-8.931,0.285-13.397c-0.015-6.284-0.623-12.607-0.094-18.838c0.301-3.548,0.002-7.106,0.633-10.701
		c0.815-4.646,1.062-9.498,0.221-14.28c-0.167-0.95-0.266-2.22,0.215-2.926c3.647-5.347-0.08-10.709,0.278-16.063
		c-0.108,6.99-1.774,13.763-2.609,20.632c-0.866,7.122-2.576,14.141-3.507,21.258c-0.442,3.377-0.746,6.848-0.905,10.215
		c-0.556,11.772,0.028,23.608-0.815,35.349c-0.2,2.78-1.225,6.611-3.682,9.169c-0.424,0.065-0.961,0.081-0.62,0.716
		c0.041,0.076,0.733-0.198,1.124-0.31c0.813,0.296,1.683-3.13,2.558,0.153c0.641,2.405,1.147,4.869,1.773,7.267
		c0.816,3.125-1.74,5.995-2.539,9.066c-0.63,2.419-3.681,3.062-6.772,3.855c-5.442,1.396-8.357-0.227-11.463-3.683
		c1.41-0.048,2.569-0.428,2.766-2.084c0.206-1.971,2.121-1.804,3.274-2.547c2.302-1.484,3.942-3.243,3.848-6.591
		c-2.911,2.912-7.437,3.514-7.993,8.062c-0.845,0.774-1.691,1.548-2.536,2.322c-3.789,0.889-3.789,0.889-3.554-4.566
		c1.869,0.829,3.48-0.404,4.256-1.465c2.678-3.664,6.98-5.78,9.141-9.879c0.296-0.562,2.35-0.229,0.827-1.717
		c-0.788-0.771-1.624-0.595-2.111,0.111c-3.394,4.925-9.948,6.945-12,13.084c-0.916,0.631-1.831,1.261-2.747,1.892
		c-0.392-1.526-1.74-2.803-1.194-4.574c5.589-2.233,7.853-7.771,11.905-11.555c-5.163,1.682-8.734,5.244-11.902,9.304
		c-0.225-2.674-0.079-4.898,2.627-6.767c1.565-1.081,3.157-3.177,3.259-6.274c-1.992,1.832-3.601,3.312-5.651,5.198
		c-0.433-2.162-1.002-4.593,0.171-5.633c1.418-1.258,2.868-1.929,1.825-5.743c-1.307,2.445-2.177,4.073-3.235,6.053
		c-3.291-6.392,2.865-8.292,4.31-13.404c-2.206,2.095-3.509,3.333-5.009,4.759c-0.764-3.281-0.573-5.881,1.724-7.985
		c0.968-0.09,2.133,0.041,1.913-1.514c-0.059-0.418-0.281-0.813-0.428-1.218c-0.71,0.628-1.42,1.255-2.129,1.883
		c-1.852-1.31-2.007-3.67-0.387-5.764c1.256-1.624,3.39-2.576,4.068-5.889c-1.926,1.789-3.224,2.995-4.522,4.2
		c1.837-5.116-3.111-10.758,1.461-15.418c0.45-0.459,0.724-1.187-0.285-1.307c-0.386-0.046-1.193,0.702-1.21,0.677
		c-0.918-1.336-0.852-2.925-0.299-4.229c0.672-1.583,1.879-2.939,2.855-4.393c0.917-0.628,2.532-1.47,1.62-2.449
		c-0.808-0.867-1.546,0.934-2.294,1.586c-0.808-0.107-1.915,3.421-2.442-0.213c-0.303-2.093,0.823-3.694,1.714-5.387
		c1.989-0.783,3.243-2.056,3.084-5.015c-1.542,1.723-2.699,3.016-3.856,4.309c-2.801-3.074-0.024-5.402,1.472-7.413
		c0.763-1.027,1.708-2.097,2.498-3.21c0.173-0.096,0.307-0.23,0.4-0.402c0.59-0.609,1.18-1.217,1.77-1.826
		c1.028-0.687,2.373-1.204,1.408-3.329c-0.849,1.006-1.557,1.846-2.265,2.685c-0.431,0.498-0.862,0.996-1.293,1.495
		c-0.331,0.333-0.662,0.665-0.992,0.998c-1.7,0.208-2.735,3.347-4.12,2.11c-2.519-2.249,0.676-3.526,1.735-5.148
		c0.33-0.505,0.362-1.203,0.53-1.813c2.071-0.161,3.262-1.012,2.667-3.357c-1.776,0.025-2.3,1.585-3.312,2.5
		c-2.862,1.952-2.867-0.577-2.306-1.869c0.958-2.209,2.113-3.726,0.021-6.247c-1.667-2.009,1.897-3.759,1.931-6.032
		c0.335-0.329,0.669-0.658,1.004-0.987c2.216-0.141,2.308-1.476,2.054-3.766c-1.3,1.445-2.177,2.419-3.053,3.393
		c-0.149,0.096-0.27,0.219-0.364,0.368c-3.1,0.889-3.095-0.92-2.315-2.911c0.509-1.3,1.553-2.389,2.358-3.573
		c1.626-1.519,4.161-2.346,4.201-6.14c-2.035,2.211-3.535,3.841-5.034,5.47c-5.212-3.238,1.25-4.986,0.969-7.595
		c0.186-0.1,0.327-0.243,0.425-0.428c2.24-1.006,3.882-2.428,3.605-5.179c1.444,0.782,2.154-0.227,2.888-1.176
		c0.43-0.484,0.86-0.968,1.289-1.453c0.752-0.471,1.941-1.025,1.056-1.967c-0.62-0.659-1.172,0.558-1.692,1.037
		c-0.52,0.579-1.041,1.159-1.561,1.738c-0.86,0.424-1.59,0.97-1.863,1.954c-1.693,1.035-3.04,2.42-4.122,4.073
		c-0.331,0.333-0.661,0.667-0.992,1c-3.397-0.052-1.95-2.371-1.515-3.76c0.411-1.311,1.54-2.397,2.353-3.582
		c0.454-0.548,1.731-1.075,1.117-1.684c-0.947-0.94-1.495,0.259-1.96,1.02c-0.632-0.161-1.542,2.052-1.921-0.213
		c-0.406-2.424,0.704-4.416,1.882-6.381c0.193-0.097,0.336-0.242,0.43-0.434c0.664-0.584,2.125-0.992,1.297-2.07
		c-0.465-0.604-1.363,0.311-1.69,1.109c-0.332,0.332-0.663,0.664-0.995,0.996c-4.12-1.193-1.684-3.063-0.524-4.845
		c1.08-1.659,1.008-1.646-0.782-3.227c-0.403-0.356-0.782-1.361-0.575-1.691c1.91-3.032-0.795-6.182,0.091-8.903
		c1.211-3.718-0.432-5.489-3.069-7.189c3.589-1.368,4.988-4.641,6.245-8.106c-2.297,2.418-4.593,4.836-6.889,7.255
		c-1.544-0.958-2.239-2.349-1.61-3.513c0.677-1.251,1.5-2.423,2.259-3.63c0.966-0.088,2.083,0.001,1.924-1.502
		c-0.031-0.292-0.151-0.771-0.326-0.82c-1.26-0.355-1.569,0.854-2.25,1.461c-0.807-0.087-2.054,3.477-2.4-0.23
		c-0.49-5.26,4.354-6.961,7.032-10.081c0.819-0.954,2.253-1.42,1.501-3.641c-2.642,2.435-5.089,4.689-7.648,7.046
		c-0.939-3.532-0.893-4.451,1.423-6.986c1.565-1.712,3.458-3.12,4.648-5.243c-1.542-0.981-1.886,0.918-2.905,1.001
		c-0.277-0.227-0.553-0.453-0.83-0.679c0.795-3.858,2.34-7.295,5.517-9.814c0.626-0.602,1.898-1.299,0.9-2.109
		c-0.703-0.57-1.33,0.697-1.736,1.443c-0.768,0.581-1.536,1.162-2.922,2.209c0.374-5.112,0.158-9.92,1.246-14.411
		c0.763-3.152,0.324-3.016-2.202-2.307c-3.401,0.954-3.431,0.848-3.302-2.457c-2.251,2.455-4.441,4.194-7.427,1.776
		c-7.223-5.847-7.586-6.832-4.233-14.028c-1.763,1.586-3.053,2.747-4.347,3.911c-2.982-5.093-2.389-10.393,1.577-14.482
		c1.601-1.651,3.157-3.344,4.734-5.018c4.242-0.418,4.181-6.586,8.798-6.553c0.335,1.693-1.466,2-2.002,3.097
		c-0.406,0.831-2.398,0.965-1.148,2.54c1.1,1.387,2.286-0.026,2.962-0.31c3.354-1.409,5.612-4.307,7.865-7.027
		c0.682-0.823,2.129-2.431,1.235-3.354c-1.508-1.558-2.281,0.278-3.339,1.297c-0.688,0.663-2.176,0.497-4.335,0.89
		c3.517-4.14,7.408-6.762,9.354-12.587c-7.172,6.911-13.325,12.84-19.478,18.769c-3.139-0.574-0.947,3.843-3.614,3.654
		c-2.333-3.738,3.748-6.276,2.387-8.274c-2.009-2.949-3.034-4.555,0.122-6.926c0.148-0.111,1.061-2.04-0.822-1.796
		c-1.012,0.131-1.164-0.373-1.006-1.007c1.395-5.581-2.22-12.528,4.548-16.663c1.024-0.625,1.64-1.64,1.439-2.956
		c1.382,0.442,2.092-0.522,2.943-1.327c5.446-5.151,10.911-10.283,16.395-15.393c1.206-1.124,2.142-3.084,4.493-1.707
		c-6.42,7.249-12.787,14.437-19.153,21.625c10.426-5.912,17.075-16.145,26.975-22.491c-7.954,10.824-17.339,20.269-25.914,30.563
		c11.015-9.278,20.525-20.234,31.624-29.37c0.339,0.335,0.677,0.67,1.016,1.005c-5.046,5.862-10.091,11.724-15.137,17.585
		c-0.995,1.194-3.794,2.438-2.457,3.63c1.829,1.631,1.607-2.078,3.093-2.508c0.095-0.027,0.123-0.288,0.182-0.441
		c2.164-0.886,3.821-2.421,5.446-4.058c8.21-8.273,16.449-16.518,24.716-24.734c1.288-1.28,2.451-3.269,5.538-1.401
		c-13.65,10.799-23.491,24.784-35.97,36.817c3.038,0.906,3.997-0.989,5.202-2.214c3.385-3.444,6.443-7.242,10.046-10.432
		c7.969-7.056,15.044-15,22.709-22.35c0.612-0.587,1.797-2.088,0.551-2.324c-4.08-0.772-1.99-3.979-2.597-6.094
		c-8.373,4.059-12.6,13.14-21.207,16.583c5.587-7.038,12.76-12.654,18.981-20.895c-9.301,3.304-12.865,11.342-20.173,14.613
		c2.357-4.472,6.655-7.214,9.445-11.19c0.928-1.323,4.224-2.49,2.465-4.076c-1.869-1.685-3.364,1.79-5.287,2.477
		c-0.239,0.085-0.339,0.505-0.56,0.709c-3.513,3.27-7.036,6.529-10.556,9.792c3.926-8.239,12.44-12.578,15.947-20.925
		c-2.65,1.768-4.506,4.717-8.14,4.331c-0.978-3.879,4.494-4.649,4.297-9.596c-3.592,5.36-9.307,6.272-12.016,10.8
		c0,0,0.013-0.011,0.013-0.011c-0.984,0.372-1.647,1.071-2.063,2.022c-0.429,0.404-0.858,0.809-1.287,1.213l0.015-0.006
		c-1.358,0.667-2.178,2.796-4.386,1.469c5.98-6.188,12.16-12.159,17.484-19.219c-3.087-0.584-3.45,2.435-5.211,3.405
		c-0.794-1.107-0.649-2.079,0.254-3.036c4.728-5.008,2.89-10.162,0.107-15.158c-1.631-2.927-2.801-4.938,0.428-8.134
		c1.122-1.111,4.126-6.302,0.145-9.557c-0.657-0.537-1.781-1.205-0.626-2.341c0.429-0.5,0.859-1,1.288-1.5
		c1.019-0.315,1.053-1.007,0.708-1.845c-0.456,0.349-0.912,0.698-1.368,1.047c-0.495,0.552-0.991,1.105-1.486,1.657
		c-3.167-0.265-3.916-1.427-1.499-3.883C825.66,1000.694,828.85,997.366,832.057,994.057z M809.304,1271.847
		c0.377-0.355,0.754-0.709,1.13-1.064c0.547-0.592,1.093-1.185,1.64-1.777c0.767-0.458,1.965-1.001,1.017-1.95
		c-0.603-0.603-1.136,0.667-1.673,1.137c-0.497,0.56-0.994,1.12-1.491,1.68c-0.337,0.33-0.673,0.66-1.01,0.99
		c-0.329,0.335-0.658,0.67-0.986,1.005c-0.797,0.329-1.695,1.235-1.086,1.689c1.054,0.786,1.503-0.619,2.066-1.315
		C809.078,1272.145,809.209,1272.013,809.304,1271.847z M830.697,1041.017c-0.514,0.438-1.584,0.759-0.846,1.622
		c0.494,0.578,0.973-0.08,1.225-0.63c0.61-0.198,1.118-0.502,0.697-1.218C831.713,1040.691,831.07,1040.933,830.697,1041.017z
		 M813.968,1249.906c-0.881,0.222-1.373,0.776-1.383,1.694c-0.001,0.118,0.206,0.332,0.329,0.342
		c1.065,0.085,1.178-0.898,1.629-1.501c0.067-0.404,0.294-1.094,0.173-1.162C814.129,1248.949,814.062,1249.491,813.968,1249.906z
		 M803.418,1228.192c-0.497,0.561-0.994,1.121-1.491,1.682c-0.614,0.212-1.168,0.503-0.676,1.243
		c0.066,0.099,0.714-0.188,1.093-0.297c0.577-0.605,1.154-1.209,1.731-1.814c0.767-0.458,1.965-1.001,1.017-1.95
		C804.487,1226.452,803.955,1227.722,803.418,1228.192z M803.374,1237.791c0.595-0.619,2.15-0.951,1.234-2.068
		c-0.463-0.565-1.37,0.339-1.678,1.153c-0.623,0.216-1.171,0.517-0.647,1.252C802.351,1238.226,802.996,1237.914,803.374,1237.791z
		 M882.062,1159.007c0.819-0.29,1.706-1.199,1.264-1.661c-1.134-1.185-1.34,0.6-2.026,0.98c-0.337,0.453-0.675,0.906-1.012,1.359
		C881.13,1160.117,881.762,1159.995,882.062,1159.007z M874.069,1087.014c0.49-0.423,0.979-0.846,1.469-1.269
		c3.276-2.059,6.638-4.047,6.753-8.714c-2.457,2.612-4.914,5.225-7.372,7.837c-0.552,0.49-1.104,0.981-1.656,1.472
		c-0.322,0.452-0.645,0.905-0.967,1.357C873.13,1088.101,873.765,1087.986,874.069,1087.014z M817.321,1191.831
		c0.668-0.581,2.13-0.989,1.296-2.07c-0.466-0.605-1.365,0.311-1.692,1.11c-0.332,0.332-0.664,0.663-0.996,0.995
		c-1.507,1.449-3.014,2.899-4.521,4.348c-2.763,2.796-5.527,5.592-8.29,8.388c-0.203,0.098-0.351,0.248-0.446,0.451
		c-1.305,1.234-2.611,2.467-4.868,4.601c3.367-0.752,4.26-2.269,5.271-3.645c0.332-0.331,0.665-0.662,0.997-0.994
		c3.407-1.929,6.102-4.568,7.994-8.009c2.776-0.396,2.935-3.454,4.83-4.747C817.085,1192.162,817.227,1192.019,817.321,1191.831z
		 M848.456,1175.142c-0.547,0.613-1.095,1.226-1.642,1.84c-2.113,2.037-4.226,4.075-6.339,6.112
		c-5.848,5.921-12.22,11.331-17.406,17.895c-3.089,1.807-5.183,4.674-7.636,7.159c-4.008,4.186-8.016,8.372-12.024,12.558
		c0.051,0.056,0.102,0.112,0.154,0.167c4.178-3.949,8.355-7.898,12.533-11.847c2.482-2.551,6.098-4.152,6.84-8.161
		c1.354,0.437,2.065-0.495,2.944-1.263c5.483-4.791,10.619-9.916,15.258-15.533c1.721-2.501,6.094-2.97,5.546-7.215
		c0.903,0.017,1.95,0.439,2.393-0.846c0.492-0.43,0.984-0.86,1.476-1.29c0.509-0.569,1.019-1.137,1.528-1.706
		c0.758-0.459,1.946-1.005,1.036-1.946c-0.605-0.626-1.145,0.622-1.679,1.085c-0.505,0.574-1.01,1.148-1.515,1.722
		C849.435,1174.297,848.945,1174.72,848.456,1175.142z M821.995,1185.935c-0.883,0.18-1.355,0.747-1.399,1.62
		c-0.005,0.109,0.609,0.398,0.671,0.336c0.44-0.437,0.81-0.943,1.198-1.43c0.095-0.402,0.354-1.104,0.258-1.156
		C822.1,1184.965,822.072,1185.513,821.995,1185.935z M891.073,1174.018c0.492-0.431,0.985-0.862,1.477-1.293
		c5.127-2.226,6.695-7.556,10.865-10.616c-0.422-0.378-0.844-0.757-1.267-1.135c-3.411,3.631-6.821,7.262-10.232,10.893
		c-0.562,0.497-1.124,0.993-1.685,1.49c-0.306,0.452-0.613,0.905-0.919,1.357C890.143,1175.099,890.773,1174.977,891.073,1174.018z
		 M811.418,1276.192c-0.497,0.56-0.994,1.12-1.491,1.68c-0.336,0.328-0.671,0.656-1.007,0.984c-0.712,0.625-1.425,1.25-2.137,1.875
		c-1.262,1.449-3.127,2.443-3.896,4.82c3.052-0.723,4.974-1.716,3.798-4.916c1.587,0.742,2.495-0.097,3.214-1.378
		c0.187-0.098,0.328-0.24,0.423-0.426c0.584-0.609,1.169-1.218,1.753-1.827c0.766-0.458,1.965-1.001,1.016-1.949
		C812.488,1274.453,811.955,1275.723,811.418,1276.192z M834.579,1038.698c0.497-0.561,0.994-1.122,1.491-1.683
		c1.24-1.02,3.036-1.667,2.751-4.172c-1.364,1.341-2.466,2.425-3.568,3.509c-0.443,0.507-0.887,1.014-1.33,1.52
		c-0.772,0.454-1.978,0.989-1.03,1.948C833.5,1040.434,834.041,1039.169,834.579,1038.698z M855.068,1170.011
		c0.979-0.498,1.858-1.062,1.744-3.454c-1.26,1.42-1.967,2.217-2.675,3.014c-0.116,0.379-0.417,1.023-0.317,1.093
		C854.553,1171.176,854.852,1170.629,855.068,1170.011z M809.427,1190.169c-0.674,0.679-1.348,1.359-2.023,2.038
		c-1.333,1.374-3.191,2.363-3.8,4.583c3.427,0.5,3.21-2.428,4.465-3.788c0.67-0.664,1.341-1.328,2.011-1.991
		c0.762-0.46,1.958-1.004,1.026-1.951C810.503,1188.446,809.96,1189.698,809.427,1190.169z M805.317,1251.846
		c0.858-0.61,2.277-1.311,1.393-2.386c-0.535-0.651-1.351,0.66-1.787,1.411c-0.613,0.203-1.126,0.507-0.685,1.226
		C804.3,1252.197,804.944,1251.939,805.317,1251.846z M857.471,1174.104c-0.669,0.669-1.339,1.337-2.009,2.006
		c-1.854,1.913-3.708,3.827-5.562,5.74c-0.811,0.752-1.622,1.504-2.432,2.256c-2.693,2.71-5.852,5.009-7.381,8.81
		c2.395-2.94,6.503-4.016,8.009-7.879c1.927,0.416,1.844-1.336,2.486-2.305c2.022-1.72,4.509-2.989,5.514-5.693
		c1.468,0.129,2.12-0.556,2.006-2.008c0.944-0.302,1.243-1.122,0.656-1.707C858.237,1172.803,857.866,1173.741,857.471,1174.104z
		 M833.43,1214.193c-0.676,0.673-1.351,1.346-2.027,2.018c-2.325,2.498-4.65,4.995-6.975,7.493c3.233-1.501,5.679-3.828,7.637-6.699
		c1.481,0.148,2.145-0.525,2.009-2c0.488-0.42,0.976-0.839,1.464-1.259c1.878-0.598,2.841-2.032,3.462-3.781
		c4.083-2.341,7.649-5.688,10.241-9.239c2.659-3.641,7.961-4.691,8.859-9.697c0.946-0.302,1.24-1.123,0.653-1.706
		c-0.518-0.515-0.892,0.422-1.288,0.785c-6.528,6.597-13.056,13.194-19.583,19.791c-0.987,0.99-1.975,1.981-2.962,2.971
		C834.424,1213.311,833.927,1213.752,833.43,1214.193z M797.065,1148.01c1.29-0.71,2.282-1.717,3.004-2.996
		c3.978-2.026,7.467-4.542,9.009-9.005c0.494-0.433,0.988-0.867,1.482-1.3c5.159-4.887,10.317-9.774,15.476-14.661
		c10.099-9.927,20.949-19.176,28.881-31.061c-4.266,4.919-10.34,7.873-14.448,12.881c-4.57,5.573-11.332,9.149-14.52,15.973
		c-5.636,5.05-10.979,10.394-16.025,16.034c-0.488,0.421-0.977,0.842-1.465,1.264c-2.13,2.404-4.798,3.61-8.435,3.847
		c0.784-1.752,2.98-2.794,1.402-4.998c-4.937,4.923-9.835,9.806-14.734,14.69c4.171-0.361,6.152-3.349,8.591-5.656
		c2.541-2.404,3.725-2.423,3.91,1.331c-0.973,0.995-1.945,1.99-2.918,2.986c-0.32,0.451-0.64,0.902-0.96,1.353
		C796.14,1149.083,796.774,1148.988,797.065,1148.01z M803.066,1190.011c1.46-0.815,3.086-1.454,3.539-3.337
		c1.708-1.71,3.416-3.419,5.124-5.129c0.825-1.033,2.787-1.436,1.835-3.719c-0.958,1.107-1.794,2.075-2.631,3.042
		c-1.961,1.376-3.629,3.046-5.008,5.004c-1.216,1.153-2.431,2.306-3.647,3.458c-0.468,0.547-1.756,1.076-1.171,1.677
		C802.061,1191.987,802.606,1190.783,803.066,1190.011z M822.736,1192.896c-1.277,1.315-2.554,2.629-3.831,3.944
		c-1.8,1.973-3.601,3.945-5.401,5.917c0.359,0.337,0.718,0.674,1.076,1.011c1.745-2.088,3.491-4.176,5.236-6.263
		c1.116-1.467,3.643-2.109,2.79-4.728c0.785,0.116,1.621,0.408,2.225-0.358c0.11-0.139-0.127-0.796-0.195-0.795
		C823.752,1191.643,823.146,1192.136,822.736,1192.896z M827.067,1214.011c1.937-1.022,3.652-2.202,4.112-5.808
		c-2.207,2.307-3.555,3.717-4.904,5.126c-1.449,1.511-2.898,3.023-4.347,4.534c-1.96,1.836-3.92,3.671-5.88,5.507
		c3.065-0.638,5.052-2.539,6.716-4.842C824.198,1217.023,825.633,1215.517,827.067,1214.011z M835.087,1022.032
		c2.471-0.058,3.335-2.225,4.729-3.68c0.013-0.014-0.736-1.015-0.953-0.952c-2.1,0.613-3.713,1.871-4.603,3.935
		c-0.883,0.552-1.767,1.103-2.65,1.655C833.78,1024.055,834.519,1023.188,835.087,1022.032z M836.438,1179.153
		c-3.032,2.981-6.064,5.963-9.097,8.944c0.4,0.371,0.8,0.742,1.2,1.113c3.323-2.578,5.757-6.065,8.538-9.198
		c1.347-1.121,3.155-1.924,3.349-5.401C838.566,1176.731,837.502,1177.942,836.438,1179.153z M846.813,1128.981
		c-5.211,5.134-10.423,10.267-15.634,15.401c-0.652,0.736-2.416,1.484-1.514,2.301c0.99,0.896,1.814-0.718,2.428-1.643
		c0.33-0.032,0.808,0.065,0.969-0.117c3.963-4.495,7.768-9.132,12.857-12.489c1.223-0.807,1.309-2.218,0.765-3.58
		c2.979,0.661,3.71-2.761,6.11-3.376c1.276-0.327,1.904-2.127,0.754-3.19c-1.131-1.046-2.497-0.248-3.275,0.941
		C849.05,1125.1,847.96,1127.059,846.813,1128.981z M824.528,1128.778c4.381-3.004,7.408-7.726,12.486-9.846
		c-3.054,7.487-8.367,12.914-15.216,17.055c-1.656,1.001-3.898,2.079-2.902,4.858c-1.433,1.06-2.911,2.084-3.531,3.828
		c0.398,0.412,0.796,0.825,1.194,1.237c0.992-1.379,1.985-2.758,2.977-4.137c4.664-2.437,7.63-6.755,11.32-10.266
		c3.794-3.609,7.481-7.331,11.215-11.003c-4.24,9.227-11.411,15.851-17.522,23.402c10.623-9.019,21.396-17.871,29.373-29.489
		c-0.749-0.051-1.157,0.235-1.517,0.574c-1.743,1.639-3.766,4.709-5.961,2.437c-1.422-1.473,2.449-2.921,3.258-4.768
		c1.236-2.822,5.802-3.273,5.329-7.95c-3.859,3.44-7.532,6.278-11.183,9.124c-1.574,1.227-2.258,3.566-4.867,3.274
		c-0.54-0.184-1.005-0.425-0.865-1.13c4.028-3.916,8.059-7.829,12.08-11.752c0.59-0.575,1.3-1.331,0.375-2.012
		c-0.883-0.649-1.88-0.234-2.641,0.515c-4.738,4.663-10.371,8.449-13.965,14.234c-3.901,3.128-6.644,7.318-10.025,10.924
		c-1.838,1.763-3.675,3.525-5.513,5.288c-1.498,1.25-2.83,2.827-4.525,3.688c-4.44,2.254-5.477,3.403-6.318,8.798
		c4.021-4.103,9.803-5.776,11.495-11.649C821.71,1133.115,822.611,1130.417,824.528,1128.778z M839.1,1218.038
		c7.566-5.988,14.366-12.694,19.64-20.832c-6.855,6.726-13.71,13.452-20.565,20.178c-2.346,2.372-4.692,4.744-7.038,7.116
		C833.781,1222.304,837.977,1221.976,839.1,1218.038z M850.416,1025.167c0.21,0.271,0.419,0.541,0.629,0.812
		c-0.585,1.248-2.12,2.634-0.416,3.821c1.25,0.87,2.426-0.348,3.379-1.314c2.568-2.601,5.179-5.159,7.712-7.794
		c0.445-0.463,1.468-0.853,0.662-1.919c-0.781-1.033-1.369-0.285-2.027,0.05c-2.056,1.045-4.074,2.436-5.416-1.002
		c-0.583-1.494-1.197,0.063-1.693,0.343c-1.682,0.948-3.681,1.682-4.864,3.084c-1.588,1.882-5.798,3.42-4.061,5.936
		C846.305,1030.056,848.077,1025.256,850.416,1025.167z M816.146,1121.093c0.486-0.079,1.149,0.019,1.433-0.263
		c10.254-10.192,20.466-20.427,30.706-30.634c1.393-1.389,2.8-2.741,3.484-4.648c3.11-0.608,3.393-3.036,3.835-5.649
		c-3.517,0.103-2.666,3.842-4.694,4.947c-2.838,2.346-5.755,4.603-8.499,7.056c-9.818,8.777-17.591,19.516-27.222,28.477
		c-1.472,1.232-2.943,2.463-5.083,4.253C814.596,1125.433,814.46,1122.135,816.146,1121.093z M854.716,1073.44
		c-16.36,12.34-29.188,28.43-44.029,43.581C816.291,1115.182,854.586,1077.096,854.716,1073.44z M860.056,1205.552
		c-5.993,5.994-12.935,12.937-19.877,19.88C846.864,1218.242,855.243,1212.755,860.056,1205.552z M857.859,1183.945
		c-4.478,4.448-10.736,10.665-16.994,16.881C846.893,1194.345,854.384,1189.312,857.859,1183.945z M804.824,1106.725
		c-5.819,6.001-11.637,12.003-17.456,18.005C793.893,1119.459,801.181,1114.962,804.824,1106.725z M824.409,1207.722
		c5.773-4.051,11.181-8.464,15.997-15.544C834.368,1198.045,829.389,1202.883,824.409,1207.722z M855.063,1029.56
		c4.51,2.551,9.72-1.221,11.682-8.706C862.995,1024.233,859.696,1027.817,855.063,1029.56z M862.512,1210.647
		c-3.58,3.28-8.012,7.34-12.443,11.4C855.923,1219.47,859.66,1214.773,862.512,1210.647z M841.256,1024.867
		c2.476-1.165,4.1-4.15,6.479-6.274c0.057-0.051-0.366-0.746-0.658-1.051c-0.319-0.334-0.624-0.448-1.152-0.047
		c-2.026,1.539-4.198,2.89-6.177,4.484c-0.505,0.406-0.695,1.454-0.672,2.195C839.099,1024.952,839.903,1025.009,841.256,1024.867z
		 M897.507,1123.951c-1.859,3.344-3.804,6.093-6.373,8.386c-0.345,0.308-1.367,0.594-0.702,1.456
		c0.296,0.384,0.721,0.959,1.083,0.956C893.892,1134.726,898.505,1126.775,897.507,1123.951z M858.371,1358.093
		c-4.129,2.479-7.113,5.998-9.928,9.693C852.477,1365.273,856.461,1362.717,858.371,1358.093z M856.281,1367.697
		c4.195-2.378,8.157-4.852,10.782-10.251C862.89,1361.414,859.586,1364.556,856.281,1367.697z M865.287,1335.214
		c-3.032,3.397-6.064,6.794-7.659,8.581C859.6,1342.37,862.752,1339.095,865.287,1335.214z M847.242,1136.955
		c2.107-1.254,3.9-2.242,5.584-3.391c0.333-0.227,1.362-0.572,0.74-1.426c-0.273-0.374-0.719-0.622-1.086-0.927
		C851.344,1133.583,846.183,1131.945,847.242,1136.955z M875.369,1092.436c3.72-1.049,6.702-3.008,7.752-8.074
		C880.117,1087.49,877.743,1089.963,875.369,1092.436z M863.309,1345.974c-6.379,3.908-6.379,3.908-7.087,7.437
		C858.584,1350.932,860.946,1348.453,863.309,1345.974z M815.826,1216.702c-2.278,2.362-4.685,4.858-7.092,7.354
		C811.122,1221.56,815.074,1220.674,815.826,1216.702z M837.692,1026.333c-2.71,2.568-6.026,4.526-7.407,8.198
		C832.729,1031.735,836.867,1030.534,837.692,1026.333z M892.461,1138.839c-1.54,2.277-4.237,3.273-4.964,6.036
		c-0.054,0.206,0.952,0.944,1.017,0.891c1.984-1.635,3.822-3.405,4.379-6.071C892.919,1139.572,892.755,1139.408,892.461,1138.839z
		 M862.061,1218.636c-2.222,2.017-4.443,4.034-7.293,6.621C859.486,1224.493,859.945,1220.748,862.061,1218.636z M840.087,1200.269
		c-1.859,2.347-3.344,4.221-4.304,5.433C837.553,1205.326,839.118,1203.592,840.087,1200.269z M887.842,1151.914
		c-1.844,1.699-3.572,2.6-4.591,5.722C886.264,1156.323,888.118,1155.537,887.842,1151.914z M803.312,1332.964
		c2.375-0.439,3.001-1.922,4.081-4.299C805.257,1330.031,804.117,1331.02,803.312,1332.964z M786.152,1109.428
		c-1.792,1.753-3.225,2.473-3.925,5.572C784.211,1113.005,785.724,1112.353,786.152,1109.428z M813.931,1187.075
		c-0.058-0.118-0.254-0.514-0.451-0.911c-0.677,0.63-1.73,0.997-1.7,2.123c0.006,0.215,0.606,0.56,0.957,0.593
		C813.783,1188.98,814.094,1188.336,813.931,1187.075z M889.066,1149.969c-1.058,0.205-1.099,0.909-1.038,1.509
		c0.032,0.32,0.095,1.058,0.89,0.699c0.637-0.287,1.188-0.659,0.974-1.403C889.791,1150.42,889.295,1150.18,889.066,1149.969z
		 M850.392,1222.291c-1.937,0.466-2.654,1.198-3.157,2.383C849.038,1225.18,849.522,1224.078,850.392,1222.291z M805.943,1233.506
		c-0.263,0.35-0.645,0.86-1.028,1.37c0.396,0.087,0.883,0.357,1.167,0.216c0.361-0.179,0.667-0.658,0.783-1.069
		C806.928,1233.806,806.945,1232.972,805.943,1233.506z M828.949,1010.494c-0.26,0.351-0.642,0.867-1.024,1.382
		c0.398,0.087,0.886,0.357,1.171,0.216c0.362-0.179,0.669-0.66,0.784-1.072C829.941,1010.8,829.961,1009.963,828.949,1010.494z
		 M811.053,1285.94c-0.299-0.348-0.499-0.58-0.699-0.812c-0.238,0.413-0.531,0.807-0.677,1.25c-0.038,0.115,0.384,0.381,0.595,0.578
		C810.536,1286.612,810.8,1286.267,811.053,1285.94z M815.043,1273.954c-0.299-0.348-0.497-0.58-0.696-0.811
		c-0.237,0.41-0.528,0.801-0.673,1.241c-0.038,0.115,0.382,0.38,0.592,0.576C814.529,1274.619,814.792,1274.278,815.043,1273.954z
		 M814.922,1266.175c-0.109-0.276-0.218-0.552-0.327-0.827c-0.289,0.235-0.642,0.427-0.838,0.724
		c-0.088,0.133,0.068,0.61,0.235,0.695C814.55,1267.052,814.777,1266.641,814.922,1266.175z M807.07,1322.102
		c-0.287-0.377-0.46-0.605-0.634-0.834c-0.248,0.327-0.551,0.629-0.712,0.995c-0.049,0.112,0.289,0.395,0.451,0.6
		C806.47,1322.612,806.765,1322.361,807.07,1322.102z M800.57,1175.338c0.259,0.24,0.473,0.438,0.686,0.637
		c0.227-0.377,0.54-0.732,0.641-1.14c0.044-0.176-0.348-0.461-0.543-0.696C801.094,1174.537,800.833,1174.937,800.57,1175.338z
		 M842.045,1294.954c-0.299-0.349-0.498-0.581-0.697-0.813c-0.237,0.41-0.528,0.802-0.673,1.242
		c-0.038,0.114,0.383,0.379,0.593,0.575C841.532,1295.618,841.795,1295.277,842.045,1294.954z M847.067,1170.102
		c-0.286-0.376-0.46-0.604-0.633-0.833c-0.247,0.326-0.549,0.629-0.71,0.993c-0.049,0.112,0.289,0.394,0.45,0.599
		C846.468,1170.611,846.763,1170.36,847.067,1170.102z M899.01,1149.983c0.333-0.255,0.68-0.521,1.026-0.786
		c-0.204-0.209-0.479-0.63-0.601-0.59c-0.446,0.148-0.841,0.449-1.256,0.693C898.417,1149.494,898.654,1149.69,899.01,1149.983z
		 M786.103,1151.354c-0.278-0.329-0.525-0.758-0.634-0.725c-0.438,0.13-0.834,0.404-1.246,0.624
		c0.216,0.208,0.451,0.605,0.645,0.586C785.276,1151.799,785.661,1151.542,786.103,1151.354z M872.895,999.793
		c0.827,0.241,0.956-0.264,1.005-0.711c0.014-0.128-0.477-0.477-0.599-0.422c-0.369,0.167-0.671,0.482-0.999,0.74
		C872.547,999.563,872.794,999.726,872.895,999.793z M859.049,1165.943c-0.299-0.347-0.498-0.579-0.698-0.811
		c-0.238,0.411-0.53,0.805-0.675,1.246c-0.038,0.115,0.383,0.38,0.593,0.577C858.534,1166.612,858.798,1166.269,859.049,1165.943z
		 M804.571,1243.337c0.259,0.24,0.472,0.437,0.685,0.635c0.227-0.376,0.539-0.73,0.641-1.137c0.044-0.176-0.348-0.46-0.542-0.695
		C805.095,1242.538,804.834,1242.937,804.571,1243.337z M807.043,1225.948c-0.299-0.35-0.498-0.583-0.697-0.817
		c-0.237,0.412-0.529,0.807-0.673,1.249c-0.038,0.116,0.383,0.382,0.594,0.578C806.53,1226.616,806.793,1226.273,807.043,1225.948z"
		/>
	<path fill="#030303" d="M809.097,1074.855c0.899,2.229-1.39,2.598-2.289,3.644c-6.509,7.568-13.151,15.021-19.751,22.511
		c-1.504,1.18-3.009,2.36-4.699,3.686c-1.039-2.768,0.039-4.991,1.402-7.165c1.347-1.415,3.47-2.291,3.302-4.757
		c3.835-0.973,5.886-3.866,7.812-6.89c-3.222,1.646-5.815,3.957-7.687,7.02c-1.889,0.817-3.116,2.343-4.26,3.958
		c-2.554-3.489,0.106-5.812,1.865-8.336c0.778-1.048,2.785-1.443,1.755-3.69c-0.94,1.086-1.779,2.057-2.619,3.027
		c-3.517-5.314,2.396-6.988,3.987-10.329c0.813-1.707,3.834-1.936,3.122-4.664c0,0-0.176,0.183-0.176,0.183
		c2.704,1.314,3.616-1.253,4.959-2.482c5.226-4.781,9.774-10.295,15.613-14.418c0.217,0.287,0.433,0.574,0.65,0.861
		c-1.405,1.63-2.81,3.259-4.215,4.889c-6.534,5.347-11.493,12.055-16.617,18.62c0.291,0.325,0.583,0.649,0.874,0.974
		c5.96-5.242,11.919-10.484,17.879-15.725c0.628,3.361-3.337,3.602-4.092,6.024c-4.043,3.796-7.829,7.787-10.746,13.616
		c3.518-0.83,4.818-3.094,6.58-4.665C804.097,1078.652,805.893,1075.883,809.097,1074.855z"/>
	<path fill="#030303" d="M799.744,1061.563c-2.961,3.83-5.922,7.66-8.883,11.49c0,0,0.176-0.183,0.176-0.183
		c-2.551,2.298-5.102,4.597-7.654,6.895c1.886-9.075,8.68-14.016,15.537-18.904C799.195,1061.095,799.469,1061.329,799.744,1061.563
		z"/>
	<path fill="#030303" d="M811.432,1056.153c3.125-3.318,4.555-8.585,11.495-9.509c-4.231,4.046-7.538,7.208-10.845,10.37
		C811.866,1056.727,811.649,1056.44,811.432,1056.153z"/>
	<path fill="#030303" d="M808.947,1074.969c0.029-0.339,0.058-0.679,0.086-1.018c0.336-0.301,0.673-0.601,1.009-0.902
		c1.14-0.843,2.267-1.697,2.714-3.139c0.411-0.379,0.823-0.758,1.234-1.137c1.194,0.32,1.396-1.978,3.245-0.827
		C814.435,1070.397,812.976,1074.074,808.947,1074.969z"/>
	<path fill="#030303" d="M791.074,1061.015c-0.224,2.384-1.376,3.999-3.848,4.614c-0.915-3.013,1.823-3.833,3.188-5.448
		C790.634,1060.459,790.854,1060.737,791.074,1061.015z"/>
	<path fill="#030303" d="M798.92,1060.86c-0.394-1.906,1.341-1.885,2.32-2.497c0.793-0.496,0.641,0.373,0.738,0.702
		c0.591,2.004-1.419,1.723-2.234,2.498C799.469,1061.329,799.195,1061.095,798.92,1060.86z"/>
	<path fill="#030303" d="M790.414,1060.181c0.778-1.233,2.484-1.941,3.001-0.894c0.617,1.248-1.106,1.673-2.34,1.728
		C790.854,1060.737,790.634,1060.459,790.414,1060.181z"/>
	<path fill="#030303" d="M797.078,1194.023c-0.428,0.741-1.065,2.037-1.767,1.455c-0.997-0.826,0.292-1.53,0.937-2.135
		C796.525,1193.57,796.801,1193.796,797.078,1194.023z"/>
	<path fill="#030303" d="M818.051,1065.062c0.321-0.091,0.648-0.159,0.978-0.202c1.088,0.917,0.059,1.467-0.471,1.835
		c-0.707,0.491-1.129,0.04-1.11-0.784C817.65,1065.628,817.85,1065.345,818.051,1065.062z"/>
	<path fill="#030303" d="M820.748,1061.912c1.075-1.074,2.15-2.148,3.225-3.222c0.829-0.437,1.659-0.873,2.488-1.31
		c-1.847,1.892-1.415,6.056-5.514,5.585C820.882,1062.614,820.815,1062.263,820.748,1061.912z"/>
	<path fill="#030303" d="M824.171,1076.729c-1.47,2.291-2.827,3.74-5.9,5.526C819.56,1078.614,820.674,1076.913,824.171,1076.729z"
		/>
	<path fill="#030303" d="M818.915,1064.968c0.341-1.067,0.859-1.957,2.116-2.1C821.393,1064.643,820.702,1065.358,818.915,1064.968z
		"/>
	<path fill="#030303" d="M850.416,1025.167c0.754-2.036,1.928-3.591,4.592-3.767c-0.426,2.406-2.344,3.372-3.963,4.579
		C850.835,1025.708,850.626,1025.438,850.416,1025.167z"/>
</g>
</svg>
