<?xml version="1.0" encoding="utf-8"?>
<!-- Generator: Adobe Illustrator 19.0.0, SVG Export Plug-In . SVG Version: 6.00 Build 0)  -->
<svg version="1.1" id="Ebene_4" xmlns="http://www.w3.org/2000/svg" xmlns:xlink="http://www.w3.org/1999/xlink" x="0px" y="0px"
	 viewBox="0 0 1000 1000" style="enable-background:new 0 0 1000 1000;" xml:space="preserve">
<style type="text/css">
	.st0{display:none;fill:#DC0067;}
	.st1{fill:#DC0067;}
	.st2{fill:#FFFFFF;}
	.st3{fill:#F9B216;}
	.st4{fill:#030303;}
</style>
<g id="XMLID_18_">
	<g id="XMLID_1_">
		<g id="XMLID_95_">
			<path id="XMLID_99_" class="st0" d="M990.5-85.9c0.8,0,1.8,0,2.7,0c15.3,6.7,29.8,14.3,32.3,33.5c-0.2,4.7-0.6,9.6-0.6,14.3
				c0,469.9,0,939.5,0,1409.4c0,4.7,0.4,9.6,0.6,14.3c-2.5,19.2-17,26.8-32.3,33.5c-0.8,0-1.8,0-2.7,0c-3.3-4.5-8-2.2-12.1-2.2
				c-315.6-0.2-631.3-0.2-947.1,0c-3.9,0-8.8-2.5-11.8,2.2c-0.8,0-1.8,0-2.7,0c-15.3-6.7-29.8-14.3-32.3-33.5
				c0.2-4.7,0.6-9.6,0.6-14.3c0-469.9,0-939.5,0-1409.4c0-4.7-0.4-9.6-0.6-14.3c2.5-19,16.8-26.8,32.3-33.5c0.8,0,1.8,0,2.7,0
				c3.1,4.7,8,2.2,11.8,2.2c315.6,0.2,631.3,0.2,947.1,0C982.5-83.6,987.2-81.6,990.5-85.9z M2.8,666.9c0,234.1,0,468.4,0,702.5
				c0,24.7,5.1,29.6,30,29.6c314.8,0,629.6,0,944.6,0c24.9,0,30-5.1,30-29.8c0-468.4,0-936.7,0-1405.1c0-25.5-4.9-30.4-30.6-30.4
				c-314.6,0.2-629,0.2-943.4,0.2c-25.7,0-30.6,4.9-30.6,30.4C2.8,198.5,2.8,432.6,2.8,666.9z"/>
			<path id="XMLID_98_" class="st1" d="M504.1,223.4c-148.5,2.7-279.5,54.1-389.8,157.1c-17.6,16.3-37.6,21-56.2,12.5
				c-19.2-8.8-31.5-28.8-30.6-49.2c0.6-13.5,6.9-24.1,16.5-33.1c101.7-96,221.4-156.5,360-176.7c198-29,374.5,21.7,529.7,147.3
				c11.8,9.6,22.9,20.2,34.1,30.6c19.8,18.6,20.2,47.8,1.6,67.8c-19.6,21.2-48.2,23.3-68.6,4.1c-77.6-73.5-168.5-122.6-272.9-146.5
				C587.8,228.1,547.2,224.4,504.1,223.4z"/>
			<path id="XMLID_97_" class="st1" d="M505.7,285.9c129.7,3.3,242.5,47.4,336.9,136.7c21.7,20.6,22.3,49.2,1.6,70.7
				c-19.6,20.6-48.4,20.8-69.7,0.6c-82.9-78-181.6-115.4-295.2-108.3c-93.8,6.1-174.9,43.1-242.9,108.3c-17.6,16.8-39.8,20-59.7,8.6
				c-19.4-11.4-29.2-34.3-23.7-56c2-8.4,6.5-15.1,12.7-21c77.4-75.4,170-119.9,276.8-134.8C463.4,287.8,484.7,286.9,505.7,285.9z"/>
			<path id="XMLID_96_" class="st1" d="M734.7,570.5c-0.2,20.8-12.9,40-31.1,46.8c-19.6,7.4-37.4,3.9-52.9-11
				c-85-81.7-205.5-81.5-290.9,0.4c-20.4,19.6-49.8,19.6-69,0.2c-20.2-20.6-20.4-49.6-0.6-69.9c117.3-119.1,313.2-119.3,430-0.6
				C730,546.4,735.5,557.4,734.7,570.5z"/>
		</g>
		<path id="XMLID_94_" class="st1" d="M504.7,923.3c-22.5,0-43.1-4.3-63.1-13.1c-14.1-6.1-27-14.1-38.6-24.1c-0.8-0.6-1-0.4-1.6,0.2
			c-12.5,13.9-27.4,23.7-44.9,29.6c-11.2,3.7-22.9,5.5-34.7,5.3c-16.8-0.4-32.7-4.3-47.4-12.5c-23.9-13.1-40.4-32.7-49.4-58.4
			c-4.1-12.1-6.1-24.7-5.3-37.4c2.2-34.9,17.8-62.3,46.8-82.1c12.7-8.6,26.6-13.7,41.7-15.9c15.3-2.2,30.4-1.2,45.4,3.3
			c1,0.2,1.4,0.2,1.6-0.8c6.3-19.2,15.9-36.6,29-51.9c17.2-20.2,38-35.3,62.7-45.1c11.6-4.5,23.7-7.8,36-9.4
			c11.4-1.4,22.7-1.8,34.1-0.8c30.4,2.7,57.8,13.1,82.1,31.9c27.4,21.2,46,48.4,55.8,81.9c3.1,10.8,4.9,21.9,5.5,33.1
			c1.8,33.9-6.1,65.2-24.3,94c-10.6,16.8-24.1,30.8-40,42.5c-13.9,10-29,17.8-45.4,22.9c-10.8,3.5-21.9,5.5-33.3,6.5
			C513.1,923.1,508.6,923.3,504.7,923.3z"/>
		<path id="XMLID_93_" class="st2" d="M323.1,718.8c10.2,0,19.6,1.4,29,4.1c1,0.4,1.4,0.6,1,1.8c-4.3,15.1-6.1,30.6-5.7,46.2
			c0.8,25.7,7.4,49.8,20,72.3c8,14.3,18.2,27.2,30.2,38.2c0.6,0.6,0.6,1,0,1.4c-6.1,6.9-13.3,12.9-21.2,18
			c-11.2,7.2-23.5,11.6-36.6,13.9c-10.4,1.6-20.6,1.8-31.1,0.2c-14.7-2.2-28.2-7.4-40.4-15.7c-17.6-11.8-30-27.8-37.6-47.6
			c-4.7-12.7-6.9-25.9-6.1-39.4c1.6-27.8,13.1-51.1,34.1-69.5c13.5-11.8,29.2-19.2,46.8-22.5C311.4,719.2,317.6,718.6,323.1,718.8z"
			/>
		<path id="XMLID_92_" class="st2" d="M414.4,856.7c-5.1-5.1-9.8-10.4-13.9-16.1c-11.8-16.3-19.4-34.5-22.5-54.3
			c-2.7-16.3-2-32.5,1.8-48.4c0.2-1.2,0.6-1,1.4-0.4c4.1,3.1,8.2,6.3,11.8,9.8c0.4,0.4,0.6,0.8,0.6,1.4c-3.9,24.1-0.2,47.2,11,69
			c4.1,8,9,15.1,14.9,21.9c0.4,0.4,0.6,0.6,0.6,1.2C418.5,845.9,416.9,851.4,414.4,856.7z"/>
		<path id="XMLID_91_" class="st2" d="M500.4,872.4c-27.2-0.6-53.1-11.4-74.2-33.1c-0.6-0.6-0.6-1-0.6-1.8c1.4-7.2,2-14.3,2-21.5
			c-0.6-24.1-8.4-45.6-23.5-64.1c-1.4-1.6-2.7-3.3-4.3-4.7c-0.6-0.6-0.8-1.4-0.6-2.2c1.8-8.2,4.3-15.9,7.8-23.3
			c13.1-27.2,33.9-45.6,62.3-55.6c10.6-3.7,21.5-5.5,32.7-5.5c27.4,0,51.7,8.8,72.1,27c17.8,15.7,29.2,35.1,33.5,58.4
			c6.1,32.5-1.2,61.9-21.9,87.6c-14.3,18-32.9,29.6-55.2,35.5C522.1,871.4,512.9,872.4,500.4,872.4z"/>
		<path id="XMLID_90_" class="st2" d="M394.8,741.7c-3.5-3.1-6.9-5.9-10.4-8.6l0,0c-0.8-0.8-2.2-1-2.5-2c-0.2-1,0.4-2,0.8-3.1
			c6.3-19.4,16.8-36.6,31.3-50.9c17.8-17.6,38.8-29,63.1-34.1c13.9-3.1,28-3.7,42.1-1.8c32.9,4.3,60.3,19,81.7,44.3
			c13.9,16.1,22.7,34.9,27.2,55.8c2.5,11.8,3.3,24.1,2,36.2c-2.2,24.9-11,47.2-26.4,67c-11.2,14.5-25.1,25.9-41.5,34.5
			c-12.5,6.5-25.7,10.8-39.8,13.1c-10.2,1.6-20.4,1.8-30.6,0.8c-13.5-1.2-26.4-4.5-38.8-9.8c-12.5-5.3-23.7-12.7-33.9-21.7
			c-0.4-0.4-0.6-0.6-0.4-1.2c2.2-4.9,3.9-9.8,5.3-14.9c0,0,0-0.2,0.2-0.2c21.5,20.8,47,32.1,76.8,32.9c23.9,0.6,45.8-5.9,65.6-19.4
			c41.3-28.2,58-78.9,43.5-125c-14.7-47-58.2-78.2-107.7-77.8C451.2,655.7,406.2,691.4,394.8,741.7z"/>
		<path id="XMLID_89_" class="st2" d="M421.3,833.4c-8-9.6-14.1-20.4-18.2-32.1c-5.5-15.7-7.2-32.1-4.9-49
			C418.1,776,425.6,803,421.3,833.4z"/>
		<path id="XMLID_3_" class="st3" d="M508.4,808.9c9.6,9.4,19,18.8,28.4,28c0,0.2-0.2,0.2-0.2,0.4c-0.4,0-0.8,0-1.2,0
			c-12.7,0-25.1,0-37.8,0c-0.8,0-1.4-0.2-2-0.8c-13.7-13.9-27.4-27.6-41.1-41.3c-0.6-0.6-0.6-1,0-1.6c13.7-13.7,27.4-27.6,41.3-41.3
			c0.6-0.6,1-0.8,1.8-0.8c12.7,0,25.5,0,38.2,0c0.2,0,0.6-0.2,1,0.4c-9.4,9.2-18.8,18.6-28.4,28c0.8,0.4,1.2,0.2,1.6,0.2
			c18,0,36.2,0,54.1,0c1.2,0,1.4,0.2,1.4,1.4c0,8.6,0,17.2,0,25.7c0,1.2-0.2,1.4-1.4,1.4c-18,0-36.2,0-54.1,0
			C509.4,808.7,509,808.7,508.4,808.9z"/>
		<path id="XMLID_2_" class="st3" d="M277.5,819.7c5.7-5.7,11.2-11.2,16.8-16.8c-0.6-0.4-1-0.2-1.4-0.2c-10.2,0-20.6,0-30.8,0
			c-1.2,0-1.4-0.4-1.4-1.4c0-4.7,0-9.6,0-14.3c0-1,0.2-1.2,1.2-1.2c10.2,0,20.6,0,30.8,0c0.4,0,0.8,0,1.4,0
			c-5.5-5.5-11-11-16.5-16.5c0.4-0.6,0.8-0.4,1-0.4c7.2,0,14.3,0,21.7,0c0.8,0,1.2,0.2,1.8,0.8c8,8,15.9,15.9,23.9,23.9
			c0.6,0.6,0.6,1,0,1.6c-8,8-15.9,15.9-23.9,23.9c-0.4,0.4-0.6,0.8-1.4,0.8C293.1,819.7,285.5,819.7,277.5,819.7z"/>
	</g>
	<path id="XMLID_189_" class="st2" d="M643.8,136.1c1,2.1,2.4,2.9,2.4,2.9c1.8,1.2,3.2,0.4,4,1.6c0.8,1.1-0.1,2.5,1,3.8
		c0.3,0.4,0.6,0.6,0.8,0.7c1.6,1,4,3.6,4.7,6.5c0.8,3-0.5,5.7-1.3,7.4c-0.7,1.6-1,1.3-3.8,5.4c-2.7,4-3.1,5.1-3.3,5.9
		c-0.4,2.1,0.1,3.9,0.4,5.1c0.6,2.2,1.3,2.8,3.3,6.7c0.8,1.5,1.8,3.4,2.8,5.9c1.3,3.1,2,4.9,2.3,7.4c0.2,1.7,0.2,4.6-0.9,7.8
		c-1.1,3.1-2.7,5-4,6.5c-3.6,4.2-8,6.7-10.1,7.8c-2,1.1-3.8,1.8-6.2,3.8c-1.2,0.9-1.4,1.3-3.2,3c-2.9,2.8-5.4,5.2-8.8,7.5
		c-2.5,1.7-4.6,2.6-5.7,3.1c-0.4,0.2-0.8,0.4-1.3,0.5c-0.7,0.3-10.9,2.4-11.8,2.4c-9.8,0.6-14.6,0.8-17.8,1.8
		c-6.8,2.1-10.3,7.9-12.7,11.4c-16.6,25-5.7,72.5-12.6,101.7c-0.1,1.1-0.2,2.7-0.3,4.7c-0.4,6.3-0.1,6.6-0.3,11.7
		c0,0-0.5,10.3,1.2,13.2c0,0,0.1,0.1,0.1,0.2c0.3,0.5,1,1.8,1.4,3.7c0.3,1.5,0.7,3.2,0,5c-0.8,1.8-1.9,1.6-3.3,4
		c-0.5,0.8-1.3,2.1-1.3,3.7c-0.1,2.5,1.6,3.2,2,5.5c0.3,1.6-0.2,3-3.2,8.2c-3.4,5.9-3.4,5.4-4.3,7.3c-0.7,1.4-3.3,7-2.5,13.7
		c0.4,3.4,1.6,5.7,3.8,10c3,5.7,5.2,9.9,9.7,14c1.9,1.7,8.6,7.9,18.5,9.2c8.2,1,12.5-2.2,14.8,0.5c1.9,2.1,0.1,5.1-1.2,13.8
		c-1.3,8.7,0.2,8.3-1,17c-1,7.8-2.9,14-4.5,19.2c-2.3,7.7-2.8,7.2-3.8,11.7c-1.2,5.2-0.5,6-1,19.3c-0.4,10.8-1.1,17.3,2.5,19.8
		c0.3,0.2,0.5,0.3,2.3,1.5c3.9,2.6,5.9,3.9,6.5,4.7c1.6,2.2,1.5,4.8,1.5,8.3c0,2.4-0.4,4.1-0.5,4.8c-0.8,4.4-0.5,7.3-0.3,16.2
		c0.3,16-0.7,14.2,0,20.4c0.8,6.8,1.9,8,2.3,14.9c0.3,5-0.3,5-0.4,12.3c-0.1,12.4,1.5,11.9,0.6,19.4c-0.6,5.7-1.8,7.9-0.8,12.3
		c0.6,2.3,1.4,3.6,1.8,7c0.3,2.7-0.1,3.4,0.1,7c0.2,4.3,0.7,4,0.9,7.5c0.2,5-0.9,5.5-0.4,9.8c0.4,3.5,1.2,3.2,1.3,6
		c0.1,3.3-0.9,4.5-1.3,8.5c-0.2,2.6,0,4.4,0.2,6c1.1,10,1.6,20,2,30c0.4,12.7-0.1,23.7-1.2,45.7c-0.7,14.8-1.8,31.7,0.7,43.2
		c2.7,12.6,3.3,14.3,3.3,14.3c1.1,3.2,2.4,5.7,2.5,9.7c0.1,3.2-0.6,3.7-1.2,8c-0.8,6-1.7,12.1,1.5,16.7c1.4,2,2.3,1.9,5.7,6
		c1.2,1.4,1.7,2.3,3,2.8c2.3,1,3.5-0.4,5.8,0.2c2.7,0.7,2.9,3.1,6,5.5c2.2,1.7,4.2,2.2,6.8,2.8c13.9,3.5,23.5-4,23.5-4
		c9.5-7.4,9.7-19.6,9.7-21.3c0-8.2-3.9-9.8-4.3-20.3c-0.2-5.6,0.8-7.9,2-15.3c0.5-3.2,1.2-8.3,1.5-26.3c0.5-28-0.9-26.9-0.2-42.8
		c0.4-8.2,1.1-22.7,4.3-39.5c0.9-4.6,2.2-10.5,3.7-20c0.9-5.8,1.1-8,2.5-17.8c1.9-13.6,2.7-17.2,2.7-17.2c-0.1,0-4.6,11.9-3,25.5
		c0.3,2.5,0.9,6.4,0.7,12c-0.2,4.6-0.9,7.8-1.3,10c-0.9,4.6-1.1,8-1.2,21.8c-0.1,13.8,0,22.8,0,33.2c0.1,19,0.1,28.4-0.2,30.5
		c-0.2,1.7-1,5.8-0.9,11.3c0.1,4.5,0.7,4.1,1.5,11.5c0.9,8.4,0.4,11.6,3,14c0.7,0.6,1.4,1.1,3.4,2.8c0.9,0.7,2,1.8,3.8,3.7
		c1.4,1.5,1.6,1.9,6,7c3.7,4.3,5.5,6.3,7.3,5.9c1.3-0.3,1.9-1.9,2.6-1.6c0.7,0.2,0.1,2,1.3,3.8c0.1,0.2,0.8,1.2,2,1.7
		c1.6,0.7,3.4,0.3,4.3,0.1c1.3-0.3,1.7-0.7,2.1-0.4c0.6,0.3,0.5,1.2,0.9,3.5c0.5,3.2,1,3.7,1.3,3.9c0.6,0.5,1.5,0.7,2.3,0.7
		c0.6,0,0.9-0.3,1.4-0.4c1.4-0.3,2.8,0.7,3.3,1c0.8,0.5,3.5,1.1,8.8,2.4c4.3,1,7.3,1.7,11.5,1.7c2.9,0,5.6,0,8.8-1.3
		c1.2-0.5,4.6-1.9,7.3-5.4c3.2-4,3.6-8.5,3.8-10c0.2-2.2,0-3.4,0.3-8.3c0.2-2.8,0.3-2.8,0.3-3.6c0-2.4-1-5.7-11.2-15.2
		c-5.1-4.7-6.7-5.7-7.4-8.5c-0.4-1.8-0.2-3.7,0.2-7.7c0.3-3.3,0.5-4.9,1.3-8.4c2.3-11.1,2-28.9,2-31.8c0-1.8-0.2-7.7-0.7-19.4
		c-0.2-6.1-0.3-7.3-0.1-9.6c0.5-6,2-10.6,4-17c2-6.2,2.4-6.1,3.8-11c1.5-5.5,1.3-6.4,2.7-11.5c2.6-10,4.2-9.4,5.1-15.3
		c0.7-4.4-0.3-4.2-0.8-16.3c-0.2-4.7,0-4.1-0.2-14.1c-0.1-8.8-0.3-9-0.3-14.8c-0.1-10-0.1-15.1,0.3-18.5c1-8.6,2.6-8.8,3.6-17.9
		c0.7-6.5-0.1-6,0.7-13.8c1-9.2,2.7-15.1,3.1-16.3c0.9-3,1.7-4.2,2.8-8.1c1.3-4.6,1.8-8.2,2-9.3c0.7-4.9,1-7.4,0.5-9.8
		c-0.7-3.5-2.2-5.1-1.3-7.6c0.4-1.2,0.6-1.5,2.4-3.3c0,0,1.1-1.2,3.3-5.6c1.8-3.7,1.5-8.4,1-13.8c-1.5-16.8-2.7-18.4-2.3-24.9
		c0.1-1,0.3-4.2,0.3-8.4c0-3.8,0-5.7-0.3-8.3c-0.6-4.4-1.6-5.1-1-6.3c1.3-2.8,6.9-0.8,13.8-2.3c8.4-1.8,16.9-8.6,19.9-16.3
		c2.4-6.1,3.9-11.4,3.9-11.4c0.5-1.6,1-3.6,2.4-5.9c1.5-2.4,2.8-3.5,4.1-4.9c3.6-4,4.4-9,4.7-10.9c0.2-1,1.4-9.4-2.9-15.8
		c-1.2-1.8-2.3-2.8-3.2-5.3c-0.8-2.4-0.5-3.9-2-6c-0.6-0.8-1.3-1.8-2.6-2.4c-1.8-0.8-3.1,0.2-4.1-0.8c-0.3-0.3-0.3-0.4-0.9-3.3
		c-0.5-2.4-0.6-2.6-0.8-2.9c-0.9-1.7-2.3-1.6-2.8-2.6c-0.5-1.2,0.6-3,2.9-5.4c3.2-3.4,5.7-5.3,9.9-8.8c3.9-3.3,4.7-4.3,5.3-5.3
		c0.8-1.3,2.6-4,2.5-7.4c-0.1-3.3-1.8-5.5-4.9-9.5c-1.8-2.4-4.1-5.3-7.9-7.8c-5.3-3.5-8.3-2.8-8.9-5.1c-0.8-2.9,3.3-7.5,5.4-9.8
		c1-1.1,2-2,2.6-3.8c0.8-2.1,0.4-3.9,0.3-5.5c-0.2-2,0.2-4.6,1-9.7c0.4-2.6,1.4-6.4,3.4-14.1c1.4-5.6,2-7.4,0.9-8.6
		c-1-1.1-2.3-0.8-7.1-0.8c-6.7,0-5.1-0.5-11.4-0.4c-5.6,0.1-7.4,0.5-10-0.9c-0.9-0.4-2.6-1.4-3.6-3.3c-1.3-2.4-1.2-5.6-0.1-7.9
		c0.8-1.8,1.7-2.1,1.8-3.7c0-0.1,0.1-2.3-1.4-3.7c-0.7-0.7-1.5-1-2.7-1.4c-1.6-0.6-2.5-0.5-2.6-1c-0.1-0.5,0.6-0.9,1.3-1.6
		c1.6-1.5,2.5-3.4,2.8-4.7c0.4-1.8,0.1-4-1-5.7c-1.4-2-3.4-2.3-3.4-3.8c0-0.7,0.3-0.8,0.8-2.3c0-0.1,0.5-1.5,0.5-3.1
		c0.1-2.1-0.6-3.8-1.1-4.9c-1.1-2.5-1.6-2-3-4.7c-1-2.1-1.1-3.2-2.6-5.1c-0.7-1-1.1-1.5-1.8-1.8c-2.2-0.8-4.8,1.9-5.4,1.3
		c-0.3-0.4,0.5-1.3,0.7-2.8c0.2-1.8-0.8-3.2-1.5-4.3c-2.6-3.9-11.7-7.1-13.3-7.6c-5.9-2-7.6-3-9.4-3.4c-5-1.3-9,3.4-10.6,1.8
		c-0.5-0.5-0.6-1.3-0.8-2.4c-0.2-1.2,0-1.7-0.1-2.6c-0.2-3-2.7-4-2.3-5.7c0.2-0.7,0.8-0.9,1.8-1.8c2.8-2.2,4-5.1,4.4-6.1
		c1.2-2.8,1.1-5.3,1.1-7.3c0-1.3-0.1-0.9-0.4-4.5c-0.2-2.9-0.3-4.6-0.2-6.3c0.1-2.1,0.3-3.2,0.7-4.2c0.7-1.8,1.5-2.4,1.8-2.7
		c0.7-0.5,1.4-0.8,1.7-0.8c0.9-0.3,1.6-0.3,1.8-0.3c2.1-0.1,5-1.8,5.8-2.2c0,0,2.5-1.5,5.4-4.7c0.7-0.8,1.1-1.2,1.5-1.8
		c0.6-0.9,0.7-1.2,1.2-1.6c0.7-0.6,1.1-0.4,2-0.9c0.1,0,1.7-1,2.1-2.7c0.3-1.3-0.3-2.5-0.7-3.2c-0.1-0.2-1.9-3.5-4.7-3.5
		c-0.7,0-1.3,0.3-2.7,1c-2.4,1.2-4,2.5-4.1,2.4c-0.1-0.1,0.6-0.6,1.3-1.4c0.9-1.2,1.3-2.3,1.6-3.1c0.3-1,1.3-3.8,0.4-6.8
		c-0.6-2.1-1.5-2.2-1.9-4.4c-0.2-1.4-0.1-2.6,0.1-3.6c0.3-2.2,0.8-2.4,1.4-4.8c0.5-2.1,0.8-3.6,0.2-5.2c-0.6-1.6-1.9-2.7-1.7-2.9
		c0.1-0.1,0.5,0.1,0.8,0.3c1.7,0.8,3.6,0.1,4.9-0.3c1.7-0.5,2.7-1.4,3.7-2.2c1.2-0.9,3.1-2.5,4-5.3c0.3-0.8,0.7-2,0.5-3.4
		c-0.2-2.4-1.7-3.9-2.6-4.9c-1.2-1.2-1.7-1.3-4.9-3.4c-3.5-2.3-3.7-2.7-6.4-4.3c-1.3-0.8-2.3-1.1-5.1-2.2c-1.5-0.6-2.7-1-3.7-1.4
		c-1.2-1.5-2.1-2.7-2.7-3.6c-1.1-1.6-2.1-2.7-2.3-2.9c-1.8-2.2-7.3-7.3-15.4-9.1c-3.5-0.8-6.3-0.7-8.4-0.5
		c-28.5,2.1-48.6,15.2-48.6,15.3C650.6,120.7,642.3,132.9,643.8,136.1z"/>
	<g id="Ausrufer_2_">
		<path id="XMLID_17_" class="st4" d="M668.1,111.7c1.6,0,3.3,0,6.7,0c-5.9,5.9-11,10.8-16.1,15.9c-1,1-3.1,2-2,3.9
			c1.4,2.7,3.3,0.6,5.1,0.2c8.6-1.6,11-11,18.4-14.5c4.5,1.2-1.4,7.8,4.3,8.2c4.1,0.4,5.3-3.5,8-5.5c8.6-6.3,16.8-12.9,22.5-22.1
			c1.2-1.8,3.7-0.8,5.7-0.8c-1.4,1.8-2.7,3.7-4.1,5.5c-7.2,6.3-14.1,12.7-16.8,22.5c6.5-6.1,14.7-9.8,21-15.7
			c0.2-0.2,0.6-0.2,0.8-0.4c3.9-1.4,3.5-10.4,8-6.9c3.3,2.5-3.5,5.5-5.7,8.4c-1.6,2-1.2,4.3-1.6,6.5c-1,1-2.2,2-3.3,3.1
			c-0.6,0.8-1.2,1.8-1.8,2.7c1.6,0.8,3.1,0.6,3.7-1.4c1-0.8,2-1.6,2.9-2.7c3.7-1.8,6.7-4.1,9.6-6.9c1.4-1.4,2.5-5.5,5.7-3.3
			c3.3,2.2,2,5.1,0,8.8c9-7.8,14.3,1,20.6,3.9c3.5,1.6,7.4,5.9,4.9,9.8c-1.8,3.3-5.1,7.6-11,6.1c-2.9-0.8-3.3,0-1.6,2.7
			c4.1,5.7-2.9,10.8,0.2,16.8c3.1,6.1,1,11.6-4.5,15.9c-0.2,0.2-0.2,0.6-0.4,0.8c2.7,2.2,4.1-1,6.1-1.6c2.7-0.4,4.1-5.5,7.8-0.8
			c3.5,4.3-2,4.7-2.9,5.9c-3.3,4.7-7.2,8.8-14.1,9.8c-6.1,0.8-6.3,9-5.9,13.9c0.8,7.4,1.6,13.9-5.1,18.8c-1.2,0.8-2.5,1.8-1.2,4.1
			c4.9,8-0.8,13.3-4.9,18.8c-0.4,0.2-0.6,0.4-0.8,0.8c-1.2,0.8-3.5,1.6-2.7,3.1c1,1.8,2.7,0.6,3.3-1c0.6-0.6,1.4-1.4,2-2
			c6.7-1,9.2-9,15.9-10.2c-3.1,9.2-9,16.5-15.3,23.9c10.4-5.7,17.6-17.2,30.8-18c-10.2-0.6-4.1,11.6-10.6,13.5
			c6.3-1.8,10.6-6.1,15.5-10c6.5,0.6,3.5,4.3,2.5,7.4c-0.6,1-1.2,1.8-1.8,2.9c1.6,0.8,2.9,0.6,3.5-1.4c2.5,0.8,5.9-4.1,7.4,0.4
			c1.6,5.3,8.4,9.6,5.1,15.7c-1.6,3.3-1.2,3.3,1.2,5.3c6.9,5.9-0.4,9.6-3.3,13.9c10,1.8,10.4,3.1,4.3,11.8c-0.6,0.8-1.2,1.8-1.8,2.7
			c1.6,0.8,2.9,0.6,3.5-1.4c1.8,14.1,13.5,8.4,21,10c3.9,0.8,8,0.2,12.1,0.2c-0.4,11.2-6.3,21-5.1,32.7c0.6,5.5-6.3,8.8-8.6,13.7
			c-1.2,2.7-6.7,6.3,2.7,7.4c7.6,0.8,13.7,8,17.8,14.3c3.9,6.1-1.4,12.9-6.1,16.1c-6.5,4.5-11,10.6-17.6,15.9
			c10.4,0.2,8.6,5.9,6.3,11.6c3.3,2.7,5.7-4.5,8.8-0.6c3.5,4.5-2.5,5.3-3.7,7.8c-0.8,1.8-1.8,3.5-2.9,5.1
			c-3.1,5.1-10.6,5.9-13.1,13.9c7.6-2.7,13.3-5.1,14.9-12.5c2.9-2.2,6.9-2.7,8.2-5.3c13.1,18-0.8,28.2-12.9,38.8
			c4.7,1.8,5.3-2.7,8.6-2.7c-3.7,12.7-8.4,23.9-22.1,28.8c-3.1,1-5.9,1.2-8.8,0.8c-8-1.2-10.4,1.8-7.8,9.8c0.2,0.4,0.2,0.8,0.2,1
			c-4.1,8.8,3.1,18-1.4,26.8c-0.6,0.8-1.2,1.8-1.8,2.7c1.6,0.8,3.1,0.6,3.7-1.4c0.4,11.2,7.2,23.3-4.1,33.3c-1.4,1.2-1,2.2-0.6,4.1
			c2,8.2,0.2,15.1-8.2,20.2c9.8-0.4,6.9,4.9,5.3,9.2c-3.5,9.8-4.5,20-4.7,30c0,7.4-3.3,12.7-7.4,16.5c6.1,5.3,3.5,10.4,0.4,15.3
			c-1.4,2.5-5.5,4.5,1,4.7c0.4,0,1,0.8,1.2,1.2c2.7,6.1-4.7,13.7-4.1,13.9c9.2,3.9,4.5,8.8,1.2,13.1c-2.2,2.9-2,2.5,1.2,4.7
			c4.9,3.3,2,8.6-1.4,12.5c-0.6,0.8-1.2,1.8-2,2.7c1.6,0.8,2.9,0.6,3.7-1.4c2,1.8,4.3,3.5,2.2,6.9c-5.3,9.4-5.3,20.4-9.6,30.4
			c-3.1,7.4-5.1,16.5-4.9,25.3c0.2,6.5,0.2,12.7-5.7,17c-1,0.8-2,1.6-3.1,2.5c-0.8,1.2-2.5,2.2-1.6,4.1c0,0.2,1.4,0.4,1.6,0.2
			c1-1.4,0.8-3.1,0-4.5c2,1,3.9,1.6,5.3-0.6c9,6.1,1,10-2,14.5c-0.6,0.8-1.4,1.8-2,2.7c1.6,0.8,3.1,0.6,3.7-1.4
			c3.9,5.5,2.7,10.4-1.6,14.9c-0.6,0.8-1.2,1.8-1.8,2.7c1.6,0.8,2.9,0.6,3.5-1.4c3.5,1,1.8,3.9,1.8,5.9c-0.2,5.7-3.9,10.4-0.6,17.6
			c3.3,6.7-8.2,10-11.2,16.5c6.7,0,9.8-5.1,13.7-8.8c2-1.8,3.3-3.7,5.9-0.6c3.1,3.5,0.8,4.5-1.8,5.5c-4.3,1.6-4.7,5.7-6.7,10
			c6.1-1.6,9.8-4.5,11.2-9.8c8,9.4-0.2,12.7-5.5,15.9c-2.7,1.6-3.9,3.1-2.5,5.1c1.6,2,4.7,1.6,5.9-0.6c2-3.9,5.7-5.7,9.2-8.2
			c0.8,21.5-11.4,27.4-37.6,19c0.6-3.3,7.8-2.5,4.9-8.6c-2.5,1.6-4.9,3.3-7.4,5.1c-0.6,0.4-0.6,1.2-1.6,1.8c-7.2,3.7,0-10-9-6.9
			c-5.1,1.8-6.7-4.7-2.7-12.1c-3.9,3.5-5.9,5.1-7.6,6.5c-1.2,0.4-1.6,0.2-1.6-0.8c0.6-10-9-11.4-14.3-16.3c-1.4-1.2-4.5-2.9-3.7-4.1
			c6.1-9.2-2.7-16.8-2.2-25.3c0.4-9,0.6-18.2,0.6-27.2c0-12.7-1.2-25.5-0.2-38.2c0.6-7.2,0-14.3,1.2-21.7c1.6-9.4,2.2-19.2,0.4-29
			c-0.4-1.8-0.6-4.5,0.4-5.9c7.4-10.8-0.2-21.7,0.6-32.5c-0.2,14.1-3.7,27.8-5.3,41.9c-1.8,14.5-5.3,28.6-7.2,43.1
			c-0.8,6.7-1.4,13.9-1.8,20.6c-1.2,23.9,0,47.8-1.6,71.7c-0.4,5.7-2.5,13.5-7.6,18.6c-0.8,0.2-2,0.2-1.2,1.4c0,0.2,1.4-0.4,2.2-0.6
			c1.6,0.6,3.5-6.3,5.1,0.4c1.2,4.9,2.2,9.8,3.7,14.7c1.6,6.3-3.5,12.1-5.1,18.4c-1.2,4.9-7.4,6.1-13.7,7.8c-11,2.9-17-0.4-23.3-7.6
			c2.9,0,5.1-0.8,5.5-4.3c0.4-4.1,4.3-3.7,6.5-5.1c4.7-3.1,8-6.5,7.8-13.3c-5.9,5.9-15.1,7.2-16.1,16.3c-1.6,1.6-3.5,3.1-5.1,4.7
			c-7.8,1.8-7.8,1.8-7.2-9.2c3.9,1.6,7.2-0.8,8.6-3.1c5.5-7.4,14.1-11.6,18.6-20c0.6-1.2,4.7-0.4,1.6-3.5c-1.6-1.6-3.3-1.2-4.3,0.2
			c-6.9,10-20.2,14.1-24.3,26.6c-1.8,1.2-3.7,2.7-5.5,3.9c-0.8-3.1-3.5-5.7-2.5-9.2c11.2-4.5,15.9-15.7,24.1-23.5
			c-10.4,3.5-17.8,10.6-24.1,18.8c-0.4-5.5-0.2-10,5.3-13.7c3.3-2.2,6.3-6.5,6.5-12.7c-4.1,3.7-7.4,6.7-11.4,10.6
			c-0.8-4.3-2-9.4,0.4-11.4c2.9-2.5,5.7-3.9,3.7-11.6c-2.7,4.9-4.5,8.2-6.5,12.3c-6.7-12.9,5.7-16.8,8.8-27.2
			c-4.5,4.3-7.2,6.7-10.2,9.6c-1.6-6.7-1.2-11.8,3.5-16.1c2-0.2,4.3,0,3.9-3.1c-0.2-0.8-0.6-1.6-0.8-2.5c-1.4,1.2-2.9,2.5-4.3,3.9
			c-3.7-2.7-4.1-7.4-0.8-11.6c2.5-3.3,6.9-5.3,8.2-11.8c-3.9,3.7-6.5,6.1-9.2,8.6c3.7-10.4-6.3-21.9,2.9-31.3c0.8-1,1.4-2.5-0.6-2.7
			c-0.8,0-2.5,1.4-2.5,1.4c-1.8-2.7-1.6-5.9-0.6-8.6c1.4-3.3,3.9-5.9,5.7-9c1.8-1.2,5.1-3.1,3.3-4.9c-1.6-1.8-3.1,1.8-4.7,3.3
			c-1.6-0.2-3.9,6.9-4.9-0.4c-0.6-4.3,1.6-7.6,3.5-10.8c4.1-1.6,6.5-4.1,6.3-10.2c-3.1,3.5-5.5,6.1-7.8,8.8c-5.7-6.1,0-11,3.1-15.1
			c1.6-2,3.5-4.3,5.1-6.5c0.4-0.2,0.6-0.4,0.8-0.8c1.2-1.2,2.5-2.5,3.7-3.7c2-1.4,4.9-2.5,2.9-6.7c-1.6,2-3.1,3.7-4.5,5.5
			c-0.8,1-1.8,2-2.7,3.1c-0.6,0.6-1.4,1.4-2,2c-3.5,0.4-5.5,6.7-8.4,4.3c-5.1-4.5,1.4-7.2,3.5-10.4c0.6-1,0.8-2.5,1-3.7
			c4.3-0.4,6.5-2,5.3-6.7c-3.7,0-4.7,3.3-6.7,5.1c-5.7,3.9-5.7-1.2-4.7-3.9c2-4.5,4.3-7.6,0-12.7c-3.5-4.1,3.9-7.6,3.9-12.3
			c0.6-0.6,1.4-1.4,2-2c4.5-0.2,4.7-3.1,4.1-7.6c-2.7,2.9-4.5,4.9-6.1,6.9c-0.2,0.2-0.6,0.4-0.8,0.8c-6.3,1.8-6.3-1.8-4.7-5.9
			c1-2.7,3.1-4.9,4.7-7.2c3.3-3.1,8.4-4.7,8.6-12.5c-4.1,4.5-7.2,7.8-10.2,11c-10.6-6.5,2.5-10,2-15.3c0.4-0.2,0.6-0.4,0.8-0.8
			c4.5-2,7.8-4.9,7.4-10.4c2.9,1.6,4.3-0.4,5.9-2.5c0.8-1,1.8-2,2.7-2.9c1.4-1,3.9-2,2-4.1c-1.2-1.4-2.5,1.2-3.5,2
			c-1,1.2-2,2.2-3.1,3.5c-1.8,0.8-3.3,2-3.7,3.9c-3.5,2-6.1,4.9-8.4,8.2c-0.6,0.6-1.4,1.4-2,2c-6.9-0.2-3.9-4.9-3.1-7.6
			c0.8-2.7,3.1-4.9,4.7-7.4c0.8-1,3.5-2.2,2.2-3.5c-1.8-1.8-3.1,0.6-3.9,2c-1.2-0.4-3.1,4.1-3.9-0.4c-0.8-4.9,1.4-9,3.9-12.9
			c0.4-0.2,0.6-0.4,0.8-0.8c1.4-1.2,4.3-2,2.7-4.3c-1-1.2-2.9,0.6-3.5,2.2c-0.6,0.6-1.4,1.4-2,2c-8.4-2.5-3.5-6.1-1-9.8
			c2.2-3.3,2-3.3-1.6-6.5c-0.8-0.8-1.6-2.7-1.2-3.5c3.9-6.1-1.6-12.5,0.2-18c2.5-7.6-0.8-11-6.1-14.5c7.4-2.9,10-9.4,12.7-16.3
			c-4.7,4.9-9.4,9.8-13.9,14.7c-3.1-1.8-4.5-4.7-3.3-7.2c1.4-2.5,3.1-4.9,4.5-7.4c2-0.2,4.3,0,3.9-3.1c0-0.6-0.2-1.6-0.6-1.6
			c-2.5-0.8-3.3,1.6-4.5,2.9c-1.6-0.2-4.1,6.9-4.9-0.4c-1-10.6,8.8-14.1,14.3-20.4c1.6-1.8,4.5-2.9,3.1-7.4
			c-5.3,4.9-10.2,9.4-15.5,14.3c-1.8-7.2-1.8-9,2.9-14.1c3.3-3.5,6.9-6.3,9.4-10.6c-3.1-2-3.9,1.8-5.9,2c-0.6-0.4-1-0.8-1.6-1.4
			c1.6-7.8,4.7-14.7,11.2-19.8c1.2-1.2,3.9-2.7,1.8-4.3c-1.4-1.2-2.7,1.4-3.5,2.9c-1.6,1.2-3.1,2.5-5.9,4.5
			c0.8-10.4,0.4-20,2.5-29.2c1.6-6.3,0.6-6.1-4.5-4.7c-6.9,1.8-6.9,1.6-6.7-4.9c-4.5,4.9-9,8.6-15.1,3.7
			c-14.7-11.8-15.3-13.9-8.6-28.4c-3.5,3.3-6.1,5.5-8.8,8c-6.1-10.4-4.9-21,3.3-29.4c3.3-3.3,6.3-6.7,9.6-10.2
			c8.6-0.8,8.4-13.3,17.8-13.3c0.6,3.5-3.1,4.1-4.1,6.3c-0.8,1.6-4.9,2-2.2,5.1c2.2,2.9,4.7,0,5.9-0.6c6.7-2.9,11.4-8.8,15.9-14.3
			c1.4-1.6,4.3-4.9,2.5-6.7c-3.1-3.1-4.7,0.6-6.7,2.7c-1.4,1.4-4.5,1-8.8,1.8c7.2-8.4,14.9-13.7,19-25.5c-14.5,14.1-27,25.9-39.4,38
			c-6.3-1.2-1.8,7.8-7.4,7.4c-4.7-7.6,7.6-12.7,4.9-16.8c-4.1-5.9-6.1-9.2,0.2-14.1c0.2-0.2,2.2-4.1-1.6-3.7c-2,0.2-2.5-0.8-2-2
			c2.9-11.2-4.5-25.3,9.2-33.7c2-1.2,3.3-3.3,2.9-5.9c2.9,0.8,4.3-1,5.9-2.7c11-10.4,22.1-20.8,33.3-31.3c2.5-2.2,4.3-6.3,9.2-3.5
			c-13.1,14.7-25.9,29.2-38.8,43.7c21-12.1,34.5-32.7,54.7-45.6c-16.1,21.9-35.1,41.1-52.5,61.9c22.3-18.8,41.7-41.1,64.1-59.4
			c0.6,0.6,1.4,1.4,2,2c-10.2,11.8-20.4,23.7-30.6,35.5c-2,2.5-7.8,4.9-4.9,7.4c3.7,3.3,3.3-4.3,6.3-5.1c0.2,0,0.2-0.6,0.4-0.8
			c4.3-1.8,7.8-4.9,11-8.2c16.5-16.8,33.3-33.5,50.1-50.1c2.7-2.7,4.9-6.5,11.2-2.9c-27.6,21.9-47.6,50.3-72.9,74.6
			c6.1,1.8,8.2-2,10.6-4.5c6.9-6.9,13.1-14.7,20.4-21c16.1-14.3,30.4-30.4,46-45.4c1.2-1.2,3.7-4.3,1-4.7c-8.2-1.6-4.1-8-5.3-12.3
			c-17,8.2-25.5,26.6-42.9,33.5c11.2-14.3,25.9-25.5,38.4-42.3c-18.8,6.7-26.1,22.9-40.9,29.6c4.7-9,13.5-14.7,19.2-22.7
			c1.8-2.7,8.6-5.1,4.9-8.2c-3.9-3.5-6.7,3.7-10.6,5.1c-0.4,0.2-0.6,1-1.2,1.4c-7.2,6.5-14.3,13.3-21.5,19.8
			c8-16.8,25.1-25.5,32.3-42.5c-5.3,3.7-9.2,9.6-16.5,8.8c-2-7.8,9.2-9.4,8.8-19.4c-7.4,10.8-18.8,12.7-24.3,21.9
			c-2,0.8-3.3,2.2-4.1,4.1c-0.8,0.8-1.8,1.6-2.7,2.5c-2.7,1.4-4.5,5.7-9,3.1c12.1-12.5,24.7-24.7,35.3-39c-6.3-1.2-6.9,4.9-10.6,6.9
			c-1.6-2.2-1.2-4.3,0.6-6.1c9.6-10.2,5.9-20.6,0.2-30.6c-3.3-5.9-5.7-10,0.8-16.5c2.2-2.2,8.4-12.9,0.2-19.4
			c-1.4-1-3.7-2.5-1.2-4.7c0.8-1,1.8-2,2.7-3.1c2-0.6,2-2,1.4-3.7c-1,0.6-1.8,1.4-2.9,2c-1,1-2,2.2-3.1,3.3c-6.3-0.6-8-2.9-3.1-8
			C655.1,125.1,661.6,118.4,668.1,111.7z M622,674.5c0.8-0.8,1.4-1.4,2.2-2.2c1-1.2,2.2-2.5,3.3-3.7c1.6-1,3.9-2,2-3.9
			c-1.2-1.2-2.2,1.4-3.5,2.2c-1,1.2-2,2.2-3.1,3.5c-0.6,0.6-1.4,1.4-2,2c-0.6,0.6-1.4,1.4-2,2c-1.6,0.6-3.5,2.5-2.2,3.5
			c2,1.6,3.1-1.2,4.1-2.7C621.6,675.1,621.8,674.9,622,674.5z M665.3,206.9c-1,0.8-3.3,1.6-1.6,3.3c1,1.2,2-0.2,2.5-1.2
			c1.2-0.4,2.2-1,1.4-2.5C667.3,206,666.1,206.7,665.3,206.9z M631.4,629.9c-1.8,0.4-2.9,1.6-2.9,3.5c0,0.2,0.4,0.6,0.6,0.6
			c2.2,0.2,2.5-1.8,3.3-3.1c0.2-0.8,0.6-2.2,0.4-2.5C631.8,628.1,631.6,629.1,631.4,629.9z M610.1,586c-1,1.2-2,2.2-3.1,3.5
			c-1.2,0.4-2.5,1-1.4,2.5c0.2,0.2,1.4-0.4,2.2-0.6c1.2-1.2,2.2-2.5,3.5-3.7c1.6-1,3.9-2,2-3.9C612.2,582.5,611.1,585,610.1,586z
			 M609.9,605.4c1.2-1.2,4.3-1.8,2.5-4.3c-1-1.2-2.9,0.6-3.5,2.2c-1.2,0.4-2.5,1-1.2,2.5C607.9,606.2,609.3,605.6,609.9,605.4z
			 M769.5,445.9c1.6-0.6,3.5-2.5,2.7-3.3c-2.2-2.5-2.7,1.2-4.1,2c-0.6,0.8-1.4,1.8-2,2.7C767.4,448.1,768.8,447.9,769.5,445.9z
			 M753.1,300c1-0.8,2-1.6,3.1-2.7c6.5-4.1,13.5-8.2,13.7-17.6c-4.9,5.3-10,10.6-14.9,15.9c-1,1-2.2,2-3.3,3.1
			c-0.6,0.8-1.2,1.8-2,2.7C751.3,302.3,752.5,302.1,753.1,300z M638.3,512.3c1.4-1.2,4.3-2,2.7-4.3c-1-1.2-2.9,0.6-3.5,2.2
			c-0.6,0.6-1.4,1.4-2,2c-3.1,2.9-6.1,5.9-9.2,8.8c-5.5,5.7-11.2,11.2-16.8,17c-0.4,0.2-0.6,0.4-0.8,0.8c-2.7,2.5-5.3,4.9-9.8,9.4
			c6.7-1.4,8.6-4.7,10.6-7.4c0.6-0.6,1.4-1.4,2-2c6.9-3.9,12.5-9.2,16.1-16.1c5.7-0.8,5.9-6.9,9.8-9.6
			C637.7,513.1,638.1,512.7,638.3,512.3z M701.2,478.6c-1,1.2-2.2,2.5-3.3,3.7c-4.3,4.1-8.6,8.2-12.9,12.5
			c-11.8,12.1-24.7,22.9-35.3,36.2c-6.3,3.7-10.4,9.4-15.5,14.5c-8.2,8.6-16.1,17-24.3,25.5c0.2,0.2,0.2,0.2,0.4,0.4
			c8.4-8,17-15.9,25.3-23.9c5.1-5.1,12.3-8.4,13.9-16.5c2.7,0.8,4.1-1,5.9-2.7c11-9.8,21.5-20,30.8-31.5c3.5-5.1,12.3-5.9,11.2-14.7
			c1.8,0,3.9,0.8,4.9-1.6c1-0.8,2-1.8,3.1-2.7c1-1.2,2-2.2,3.1-3.5c1.6-1,3.9-2,2-3.9c-1.2-1.2-2.2,1.2-3.5,2.2
			c-1,1.2-2,2.2-3.1,3.5C703.3,476.7,702.2,477.7,701.2,478.6z M647.7,500.4c-1.8,0.4-2.7,1.4-2.9,3.3c0,0.2,1.2,0.8,1.4,0.6
			c0.8-0.8,1.6-1.8,2.5-2.9c0.2-0.8,0.8-2.2,0.6-2.2C647.9,498.4,647.9,499.6,647.7,500.4z M787.6,476.3c1-0.8,2-1.8,3.1-2.7
			c10.4-4.5,13.5-15.3,22.1-21.5c-0.8-0.8-1.6-1.6-2.7-2.2c-6.9,7.4-13.9,14.7-20.6,22.1c-1.2,1-2.2,2-3.5,3.1
			c-0.6,0.8-1.2,1.8-1.8,2.7C785.8,478.4,787,478.2,787.6,476.3z M626.2,683.3c-1,1.2-2,2.2-3.1,3.5c-0.6,0.6-1.4,1.4-2,2
			c-1.4,1.2-2.9,2.5-4.3,3.9c-2.7,2.9-6.3,4.9-8,9.8c6.1-1.4,10-3.5,7.8-10c3.3,1.4,5.1-0.2,6.5-2.9c0.4-0.2,0.6-0.4,0.8-0.8
			c1.2-1.2,2.5-2.5,3.5-3.7c1.6-1,3.9-2,2-3.9C628.5,679.8,627.3,682.2,626.2,683.3z M673.2,202.2c1-1.2,2-2.2,3.1-3.5
			c2.5-2,6.1-3.5,5.5-8.4c-2.9,2.7-4.9,4.9-7.2,7.2c-0.8,1-1.8,2-2.7,3.1c-1.6,0.8-4.1,2-2,3.9C671,205.6,672,203,673.2,202.2z
			 M714.7,468.1c2-1,3.7-2.2,3.5-6.9c-2.5,2.9-4.1,4.5-5.5,6.1c-0.2,0.8-0.8,2-0.6,2.2C713.7,470.6,714.3,469.4,714.7,468.1z
			 M622.2,509c-1.4,1.4-2.7,2.7-4.1,4.1c-2.7,2.9-6.5,4.7-7.8,9.2c6.9,1,6.5-4.9,9-7.8c1.4-1.4,2.7-2.7,4.1-4.1c1.6-1,3.9-2,2-3.9
			C624.4,505.5,623.4,508,622.2,509z M614,634c1.8-1.2,4.7-2.7,2.9-4.9c-1-1.2-2.7,1.4-3.7,2.9c-1.2,0.4-2.2,1-1.4,2.5
			C611.7,634.6,613.2,634,614,634z M719.6,476.5c-1.4,1.4-2.7,2.7-4.1,4.1c-3.7,3.9-7.6,7.8-11.2,11.6c-1.6,1.4-3.3,3.1-4.9,4.5
			c-5.5,5.5-11.8,10.2-14.9,17.8c4.9-5.9,13.1-8.2,16.1-15.9c3.9,0.8,3.7-2.7,5.1-4.7c4.1-3.5,9.2-6.1,11.2-11.4
			c3.1,0.2,4.3-1.2,4.1-4.1c1.8-0.6,2.5-2.2,1.4-3.5C721,473.9,720.4,475.7,719.6,476.5z M670.8,557.6c-1.4,1.4-2.7,2.7-4.1,4.1
			c-4.7,5.1-9.4,10.2-14.1,15.1c6.5-3.1,11.4-7.8,15.5-13.5c3.1,0.2,4.3-1,4.1-4.1c1-0.8,2-1.6,3.1-2.5c3.9-1.2,5.7-4.1,6.9-7.6
			c8.2-4.7,15.5-11.4,20.8-18.8c5.3-7.4,16.1-9.6,18-19.6c1.8-0.6,2.5-2.2,1.2-3.5c-1-1-1.8,0.8-2.7,1.6
			c-13.3,13.3-26.4,26.8-39.6,40c-2,2-4.1,4.1-5.9,5.9C672.8,555.8,671.8,556.8,670.8,557.6z M597.2,423.6c2.7-1.4,4.7-3.5,6.1-6.1
			c8-4.1,15.1-9.2,18.2-18.2c1-0.8,2-1.8,3.1-2.7c10.4-9.8,20.8-19.8,31.3-29.6c20.4-20,42.5-38.8,58.4-62.9
			c-8.6,10-21,15.9-29.2,26.1c-9.2,11.2-22.9,18.6-29.4,32.3c-11.4,10.2-22.3,21-32.5,32.5c-1,0.8-2,1.6-3.1,2.7
			c-4.3,4.9-9.8,7.4-17.2,7.8c1.6-3.5,6.1-5.7,2.9-10.2c-10,10-20,19.8-29.8,29.8c8.4-0.8,12.5-6.7,17.4-11.4c5.1-4.9,7.6-4.9,8,2.7
			c-2,2-3.9,4.1-5.9,6.1c-0.6,0.8-1.2,1.8-2,2.7C595.4,425.6,596.6,425.4,597.2,423.6z M609.3,508.6c2.9-1.6,6.3-2.9,7.2-6.7
			c3.5-3.5,6.9-6.9,10.4-10.4c1.6-2,5.7-2.9,3.7-7.6c-1.8,2.2-3.7,4.3-5.3,6.1c-3.9,2.9-7.4,6.1-10.2,10.2c-2.5,2.2-4.9,4.7-7.4,6.9
			c-1,1-3.5,2.2-2.5,3.5C607.3,512.7,608.5,510.2,609.3,508.6z M649.1,514.5c-2.7,2.7-5.1,5.3-7.8,8c-3.7,4.1-7.4,8-11,12.1
			c0.8,0.6,1.4,1.4,2.2,2c3.5-4.3,7.2-8.4,10.6-12.7c2.2-3.1,7.4-4.3,5.7-9.6c1.6,0.2,3.3,0.8,4.5-0.8c0.2-0.2-0.2-1.6-0.4-1.6
			C651.2,511.9,649.9,512.9,649.1,514.5z M657.9,557.2c3.9-2,7.4-4.5,8.4-11.8c-4.5,4.7-7.2,7.6-10,10.4c-2.9,3.1-5.9,6.1-8.8,9.2
			c-3.9,3.7-8,7.4-11.8,11.2c6.1-1.2,10.2-5.1,13.7-9.8C652.2,563.3,655.1,560.3,657.9,557.2z M674.3,168.2c5.1-0.2,6.7-4.5,9.6-7.4
			c0,0-1.4-2-1.8-1.8c-4.3,1.2-7.6,3.9-9.4,8c-1.8,1-3.7,2.2-5.3,3.3C671.6,172.3,673,170.7,674.3,168.2z M676.9,486.7
			c-6.1,6.1-12.3,12.1-18.4,18.2c0.8,0.8,1.6,1.4,2.5,2.2c6.7-5.3,11.6-12.3,17.4-18.6c2.7-2.2,6.3-3.9,6.7-11
			C681.2,481.8,679.2,484.3,676.9,486.7z M698,385c-10.6,10.4-21,20.8-31.7,31.3c-1.2,1.4-4.9,3.1-3.1,4.7c2,1.8,3.7-1.4,4.9-3.3
			c0.6,0,1.6,0.2,2-0.2c8-9.2,15.7-18.6,26.1-25.3C698.8,390.5,699,387.7,698,385c6.1,1.4,7.6-5.5,12.5-6.7c2.7-0.6,3.9-4.3,1.4-6.5
			c-2.2-2-5.1-0.4-6.5,1.8C702.4,377.2,700.2,381.1,698,385z M652.8,384.6c8.8-6.1,14.9-15.7,25.3-20c-6.1,15.1-17,26.1-30.8,34.5
			c-3.3,2-8,4.3-5.9,9.8c-2.9,2.2-5.9,4.3-7.2,7.8c0.8,0.8,1.6,1.6,2.5,2.5c2-2.9,4.1-5.5,6.1-8.4c9.4-4.9,15.5-13.7,22.9-20.8
			c7.8-7.4,15.1-14.9,22.7-22.3c-8.6,18.8-23.1,32.1-35.5,47.4c21.5-18.2,43.3-36.2,59.4-59.7c-1.4-0.2-2.2,0.4-3.1,1.2
			c-3.5,3.3-7.6,9.6-12.1,4.9c-2.9-3.1,4.9-5.9,6.5-9.6c2.5-5.7,11.8-6.5,10.8-16.1c-7.8,6.9-15.3,12.7-22.7,18.4
			c-3.3,2.5-4.5,7.2-9.8,6.5c-1-0.4-2-0.8-1.8-2.2c8.2-8,16.3-15.9,24.5-23.9c1.2-1.2,2.7-2.7,0.8-4.1c-1.8-1.2-3.9-0.4-5.3,1
			c-9.6,9.4-21,17.2-28.2,28.8c-8,6.3-13.5,14.9-20.2,22.1c-3.7,3.5-7.4,7.2-11.2,10.6c-3.1,2.5-5.7,5.7-9.2,7.6
			c-9,4.5-11,6.9-12.9,17.8c8.2-8.4,19.8-11.6,23.3-23.7C647.1,393.4,648.9,387.9,652.8,384.6z M682.4,565.4
			c15.3-12.1,29-25.7,39.8-42.3c-13.9,13.7-27.8,27.2-41.7,40.9c-4.7,4.9-9.6,9.6-14.3,14.5C671.6,574.2,680,573.3,682.4,565.4z
			 M705.3,174.8c0.4,0.6,0.8,1,1.2,1.6c-1.2,2.5-4.3,5.3-0.8,7.8c2.5,1.8,4.9-0.6,6.9-2.7c5.1-5.3,10.4-10.4,15.5-15.7
			c0.8-1,3.1-1.6,1.4-3.9c-1.6-2-2.9-0.6-4.1,0c-4.1,2-8.2,4.9-11-2c-1.2-3.1-2.5,0.2-3.5,0.6c-3.5,1.8-7.6,3.5-9.8,6.3
			c-3.3,3.9-11.6,6.9-8.2,12.1C696.9,184.6,700.6,174.8,705.3,174.8z M635.9,369.1c1-0.2,2.2,0,2.9-0.6
			c20.8-20.6,41.5-41.5,62.3-62.1c2.9-2.9,5.7-5.5,7.2-9.4c6.3-1.2,6.9-6.1,7.8-11.4c-7.2,0.2-5.3,7.8-9.6,10
			c-5.7,4.7-11.6,9.4-17.2,14.3c-19.8,17.8-35.5,39.6-55.2,57.6c-3.1,2.5-5.9,4.9-10.2,8.6C632.8,377.8,632.4,371.1,635.9,369.1z
			 M713.9,272.4c-33.1,24.9-59,57.6-89.3,88.3C636.1,357,713.7,280,713.9,272.4z M724.7,540.1c-12.1,12.1-26.1,26.1-40.2,40.2
			C698.2,565.8,715.1,554.8,724.7,540.1z M720.4,496.3c-9,9-21.7,21.7-34.5,34.1C698.2,517.4,713.3,507.2,720.4,496.3z M613,339.8
			c-11.8,12.3-23.5,24.3-35.3,36.6C590.7,365.8,605.6,356.6,613,339.8z M652.6,544.5c11.6-8.2,22.7-17.2,32.5-31.5
			C672.8,524.9,662.6,534.7,652.6,544.5z M714.7,183.6c9.2,5.1,19.6-2.5,23.7-17.6C730.8,172.7,724.1,180.1,714.7,183.6z
			 M729.8,550.5c-7.2,6.7-16.1,14.9-25.1,23.1C716.3,568.2,723.9,558.8,729.8,550.5z M686.7,174.2c5.1-2.5,8.4-8.4,13.1-12.7
			c0.2-0.2-0.8-1.4-1.4-2c-0.6-0.6-1.2-0.8-2.2,0c-4.1,3.1-8.6,5.9-12.5,9c-1,0.8-1.4,2.9-1.4,4.5
			C682.4,174.2,684.1,174.4,686.7,174.2z M800.7,374.8c-3.7,6.7-7.8,12.3-12.9,17c-0.6,0.6-2.9,1.2-1.4,2.9c0.6,0.8,1.4,2,2.2,1.8
			C793.4,396.6,802.8,380.5,800.7,374.8z M721.4,849.1c-8.4,5.1-14.5,12.1-20,19.6C709.4,863.6,717.6,858.5,721.4,849.1z
			 M717.2,868.5c8.6-4.9,16.5-9.8,21.9-20.8C730.4,855.9,723.9,862.2,717.2,868.5z M735.3,802.8c-6.1,6.9-12.3,13.7-15.5,17.4
			C723.9,817.3,730.2,810.7,735.3,802.8z M698.8,401.1c4.3-2.5,8-4.5,11.2-6.9c0.6-0.4,2.9-1.2,1.4-2.9c-0.6-0.8-1.4-1.2-2.2-1.8
			C707.1,394.4,696.7,390.9,698.8,401.1z M755.8,311c7.6-2,13.5-6.1,15.7-16.3C765.4,301,760.7,305.9,755.8,311z M731.5,824.6
			c-12.9,8-12.9,8-14.3,15.1C721.9,834.6,726.6,829.7,731.5,824.6z M635.2,562.7c-4.7,4.7-9.4,9.8-14.3,14.9
			C625.6,572.5,633.6,570.7,635.2,562.7z M679.6,177c-5.5,5.1-12.3,9.2-14.9,16.5C669.4,188.1,677.7,185.6,679.6,177z M790.5,405
			c-3.1,4.7-8.6,6.5-10,12.3c-0.2,0.4,1.8,1.8,2,1.8c4.1-3.3,7.8-6.9,8.8-12.3C791.3,406.4,791.1,406,790.5,405z M728.8,566.6
			c-4.5,4.1-9,8.2-14.7,13.5C723.7,578.5,724.5,570.9,728.8,566.6z M684.3,529.4c-3.7,4.7-6.7,8.6-8.8,11
			C679.2,539.6,682.4,536.2,684.3,529.4z M781.1,431.4c-3.7,3.5-7.2,5.3-9.4,11.6C777.8,440.4,781.7,438.7,781.1,431.4z
			 M609.9,798.3c4.9-0.8,6.1-3.9,8.2-8.8C613.8,792.3,611.5,794.4,609.9,798.3z M575,345.4c-3.7,3.5-6.5,5.1-8,11.2
			C571.1,352.7,574.2,351.3,575,345.4z M631.4,502.7c-0.2-0.2-0.6-1-0.8-1.8c-1.4,1.2-3.5,2-3.5,4.3c0,0.4,1.2,1.2,1.8,1.2
			C630.9,506.5,631.8,505.3,631.4,502.7z M783.6,427.5c-2,0.4-2.2,1.8-2,3.1c0,0.6,0.2,2,1.8,1.4c1.2-0.6,2.5-1.4,2-2.9
			C785,428.5,784,427.9,783.6,427.5z M705.3,574c-3.9,1-5.3,2.5-6.3,4.9C702.4,579.9,703.5,577.6,705.3,574z M615.2,596.8
			c-0.6,0.6-1.2,1.8-2,2.9c0.8,0.2,1.8,0.8,2.5,0.4c0.8-0.4,1.4-1.4,1.6-2.2C617.3,597.5,617.3,595.6,615.2,596.8z M661.8,145
			c-0.6,0.6-1.2,1.8-2,2.9c0.8,0.2,1.8,0.8,2.5,0.4c0.8-0.4,1.4-1.4,1.6-2.2C663.8,145.6,663.8,143.9,661.8,145z M625.4,703.1
			c-0.6-0.6-1-1.2-1.4-1.6c-0.4,0.8-1,1.6-1.4,2.5c0,0.2,0.8,0.8,1.2,1.2C624.4,704.3,625,703.7,625.4,703.1z M633.6,678.8
			c-0.6-0.6-1-1.2-1.4-1.6c-0.4,0.8-1,1.6-1.4,2.5c0,0.2,0.8,0.8,1.2,1.2C632.6,680,633,679.4,633.6,678.8z M633.4,663
			c-0.2-0.6-0.4-1-0.6-1.6c-0.6,0.4-1.2,0.8-1.6,1.4c-0.2,0.2,0.2,1.2,0.4,1.4C632.6,664.7,633,663.8,633.4,663z M617.5,776.2
			c-0.6-0.8-1-1.2-1.2-1.6c-0.4,0.6-1,1.2-1.4,2c0,0.2,0.6,0.8,0.8,1.2C616.2,777.2,616.9,776.8,617.5,776.2z M604.2,479
			c0.6,0.4,1,0.8,1.4,1.2c0.4-0.8,1-1.4,1.2-2.2c0-0.4-0.6-1-1-1.4C605.4,477.3,604.8,478.2,604.2,479z M688.4,721.3
			c-0.6-0.6-1-1.2-1.4-1.6c-0.4,0.8-1,1.6-1.4,2.5c0,0.2,0.8,0.8,1.2,1.2C687.3,722.7,687.7,721.9,688.4,721.3z M698.6,468.3
			c-0.6-0.8-1-1.2-1.2-1.6c-0.4,0.6-1,1.2-1.4,2c0,0.2,0.6,0.8,0.8,1.2C697.3,469.4,698,468.8,698.6,468.3z M803.8,427.5
			c0.6-0.6,1.4-1,2-1.6c-0.4-0.4-1-1.2-1.2-1.2c-0.8,0.2-1.6,0.8-2.5,1.4C802.6,426.5,803,426.9,803.8,427.5z M575,430.3
			c-0.6-0.6-1-1.6-1.2-1.4c-0.8,0.2-1.6,0.8-2.5,1.2c0.4,0.4,0.8,1.2,1.2,1.2C573.3,431.2,574.2,430.8,575,430.3z M750.9,123.3
			c1.6,0.4,1.8-0.6,2-1.4c0-0.2-1-1-1.2-0.8c-0.8,0.4-1.4,1-2,1.4C750,122.9,750.7,123.1,750.9,123.3z M722.7,460
			c-0.6-0.6-1-1.2-1.4-1.6c-0.4,0.8-1,1.6-1.4,2.5c0,0.2,0.8,0.8,1.2,1.2C721.7,461.2,722.3,460.6,722.7,460z M612.4,616.7
			c0.6,0.4,1,0.8,1.4,1.2c0.4-0.8,1-1.4,1.2-2.2c0-0.4-0.6-1-1-1.4C613.4,615,613,615.8,612.4,616.7z M617.5,581.5
			c-0.6-0.6-1-1.2-1.4-1.6c-0.4,0.8-1,1.6-1.4,2.5c0,0.2,0.8,0.8,1.2,1.2C616.4,582.7,616.9,582.1,617.5,581.5z"/>
		<path id="XMLID_16_" class="st4" d="M621.6,275.3c1.8,4.5-2.9,5.3-4.7,7.4c-13.3,15.3-26.6,30.4-40,45.6c-3.1,2.5-6.1,4.7-9.6,7.6
			c-2-5.5,0-10,2.9-14.5c2.7-2.9,6.9-4.7,6.7-9.6c7.8-2,11.8-7.8,15.7-13.9c-6.5,3.3-11.8,8-15.5,14.3c-3.9,1.6-6.3,4.7-8.6,8
			c-5.1-7.2,0.2-11.8,3.9-17c1.6-2,5.7-2.9,3.5-7.6c-1.8,2.2-3.7,4.1-5.3,6.1c-7.2-10.8,4.9-14.1,8.2-20.8c1.6-3.5,7.8-3.9,6.3-9.4
			l-0.4,0.4c5.5,2.7,7.4-2.5,10-5.1c10.6-9.6,19.8-20.8,31.7-29.2c0.4,0.6,0.8,1.2,1.2,1.8c-2.9,3.3-5.7,6.5-8.6,9.8
			c-13.3,10.8-23.3,24.5-33.7,37.8c0.6,0.6,1.2,1.2,1.8,2c12.1-10.6,24.1-21.2,36.2-31.9c1.2,6.7-6.7,7.4-8.4,12.3
			c-8.2,7.8-15.9,15.7-21.9,27.6c7.2-1.6,9.8-6.3,13.3-9.4C611.3,283.1,615,277.3,621.6,275.3z"/>
		<path id="XMLID_15_" class="st4" d="M602.6,248.3c-5.9,7.8-12.1,15.5-18,23.3l0.4-0.4c-5.1,4.7-10.4,9.4-15.5,13.9
			c3.9-18.4,17.6-28.4,31.5-38.2C601.5,247.5,602.1,247.9,602.6,248.3z"/>
		<path id="XMLID_14_" class="st4" d="M626.2,237.5c6.3-6.7,9.2-17.4,23.3-19.2c-8.6,8.2-15.3,14.5-22.1,21
			C627.1,238.7,626.7,238.1,626.2,237.5z"/>
		<path id="XMLID_13_" class="st4" d="M621.3,275.5c0-0.6,0.2-1.4,0.2-2c0.6-0.6,1.4-1.2,2-1.8c2.2-1.6,4.5-3.5,5.5-6.3
			c0.8-0.8,1.6-1.6,2.5-2.2c2.5,0.6,2.9-4.1,6.5-1.6C632.4,266.3,629.3,273.9,621.3,275.5z"/>
		<path id="XMLID_12_" class="st4" d="M585,247.3c-0.4,4.9-2.9,8.2-7.8,9.4c-1.8-6.1,3.7-7.8,6.5-11
			C584.2,246.3,584.6,246.7,585,247.3z"/>
		<path id="XMLID_11_" class="st4" d="M600.9,247.1c-0.8-3.9,2.7-3.9,4.7-5.1c1.6-1,1.2,0.8,1.4,1.4c1.2,4.1-2.9,3.5-4.5,5.1
			C602.1,247.9,601.5,247.5,600.9,247.1z"/>
		<path id="XMLID_10_" class="st4" d="M583.8,245.7c1.6-2.5,5.1-3.9,6.1-1.8c1.2,2.5-2.2,3.5-4.7,3.5
			C584.6,246.7,584.2,246.3,583.8,245.7z"/>
		<path id="XMLID_9_" class="st4" d="M597.2,516.8c-0.8,1.4-2.2,4.1-3.7,2.9c-2-1.6,0.6-3.1,1.8-4.3
			C596,515.9,596.6,516.4,597.2,516.8z"/>
		<path id="XMLID_8_" class="st4" d="M639.7,255.5c0.6-0.2,1.2-0.4,2-0.4c2.2,1.8,0.2,3.1-1,3.7c-1.4,1-2.2,0-2.2-1.6
			C638.9,256.7,639.3,256.1,639.7,255.5z"/>
		<path id="XMLID_7_" class="st4" d="M645.2,249.1c2.2-2.2,4.3-4.3,6.5-6.5c1.6-0.8,3.3-1.8,5.1-2.7c-3.7,3.9-2.9,12.3-11.2,11.2
			C645.5,250.6,645.2,249.8,645.2,249.1z"/>
		<path id="XMLID_6_" class="st4" d="M652.2,279.2c-3.1,4.7-5.7,7.6-12.1,11.2C642.8,283.1,645,279.6,652.2,279.2z"/>
		<path id="XMLID_31_" class="st4" d="M641.4,255.3c0.6-2.2,1.8-3.9,4.3-4.3C646.5,254.7,645,256.1,641.4,255.3z"/>
		<path id="XMLID_32_" class="st4" d="M705.3,174.8c1.4-4.1,3.9-7.4,9.4-7.6c-0.8,4.9-4.7,6.7-8,9.2
			C706.1,175.8,705.7,175.2,705.3,174.8z"/>
	</g>
</g>
</svg>
