<?xml version="1.0" encoding="utf-8"?>
<!-- Generator: Adobe Illustrator 19.0.0, SVG Export Plug-In . SVG Version: 6.00 Build 0)  -->
<svg version="1.1" id="Ebene_1" xmlns="http://www.w3.org/2000/svg" xmlns:xlink="http://www.w3.org/1999/xlink" x="0px" y="0px"
	 viewBox="331 -155.9 419.5 595.3" style="enable-background:new 331 -155.9 419.5 595.3;" xml:space="preserve">
<style type="text/css">
	.st0{font-family:'Impact';}
	.st1{font-size:53.914px;}
	.st2{font-size:107.426px;}
	.st3{display:none;fill:none;}
	.st4{display:none;fill:#E60064;}
	.st5{fill:none;stroke:#000000;stroke-width:7;stroke-miterlimit:10;}
	.st6{display:none;}
	.st7{display:inline;fill:#E60064;}
	.st8{display:inline;fill:#FFCC00;}
	.st9{display:none;fill:#121212;}
	.st10{fill:#E40B65;}
	.st11{fill:#DA0A68;}
	.st12{fill:#FFFFFF;}
	.st13{fill:#030405;}
	.st14{fill:#FAB31A;}
	.st15{font-size:34px;}
</style>
<text transform="matrix(1 0 0 1 359.209 -82.3374)" class="st0 st1">Hier freies WLAN</text>
<text transform="matrix(1 0 0 1 360.3384 364.7466)" class="st0 st2">Freifunk</text>
<rect x="346" y="-47.8" class="st3" width="389.6" height="307"/>
<rect x="346" y="-47.8" class="st3" width="389.6" height="307"/>
<rect x="346" y="-47.8" class="st3" width="389.6" height="307"/>
<path class="st4" d="M523.6-64.2c71.2-5.1,144.1,21.5,194.9,71.7c6.7,6.9,5.8,18.9-1.2,25.1c-6.5,7.6-19.4,7.7-26,0.3
	C647.8-8.8,586.4-31.5,526.1-27C476-23.8,427.5-2.2,391.2,32.4c-3.2,3.3-7.4,6-12.1,6.2c-11.9,1.4-22.9-11.1-20.3-22.7
	c0.7-4.2,3.4-7.7,6.5-10.4C407.7-35.3,464.9-60.3,523.6-64.2"/>
<rect x="346" y="-47.8" class="st3" width="389.6" height="307"/>
<path class="st4" d="M521.8-2.3c54.6-5.9,111.2,14.2,149.8,53.2c6,6.9,5.3,18.2-1.4,24.4c-6.1,7.5-18.4,8.3-25.4,1.5
	c-24.7-24.4-58.2-39.8-92.8-42.4C510,30.9,467,46.9,437,76.5c-6.9,7.3-19.8,6.5-26-1.3c-6.7-6.3-7.3-17.9-0.8-24.6
	C439.9,20.9,480.1,2,521.8-2.3"/>
<rect x="346" y="-47.8" class="st3" width="389.6" height="307"/>
<path class="st4" d="M530,58.6c34.4-3.4,70,9.8,94,34.7c6.6,6.8,5.8,18.6-1.1,24.9c-6.3,7.6-18.9,8.1-25.7,1
	c-13.5-13.9-32.2-22.6-51.6-23.7c-22-1.6-44.2,7.1-59.8,22.6c-3.8,4.3-9.5,7-15.4,6.3c-13.6-1-23-19-13.6-29.9
	C475.6,74,502.4,61.4,530,58.6"/>
<rect x="346" y="-47.8" class="st3" width="389.6" height="307"/>
<rect x="346" y="-47.8" class="st3" width="389.6" height="307"/>
<path class="st5" d="M736.3,413.9c0,6.3-5.1,11.3-11.3,11.3H356.5c-6.3,0-11.3-5.1-11.3-11.3v-544.3c0-6.3,5.1-11.3,11.3-11.3H725
	c6.3,0,11.3,5.1,11.3,11.3V413.9z"/>
<g class="st6">
	<path class="st7" d="M473.1,191.1c0-37.8,30.7-68.5,68.5-68.5c37.8,0,68.5,30.7,68.5,68.5c0,37.8-30.7,68.5-68.5,68.5
		C503.8,259.6,473.1,229,473.1,191.1 M486,191.1c0.1,30.7,24.9,55.6,55.7,55.7c30.7,0,55.6-24.9,55.7-55.7
		c-0.1-30.7-24.9-55.6-55.7-55.7C510.9,135.5,486,160.4,486,191.1"/>
	<path class="st7" d="M492.9,191.1c0-26.9,21.8-48.7,48.7-48.7c26.9,0,48.7,21.8,48.7,48.7c0,26.9-21.8,48.7-48.7,48.7
		C514.7,239.9,492.9,218.1,492.9,191.1 M495.5,191.1c0,25.5,20.7,46.1,46.2,46.1c25.5,0,46.1-20.7,46.2-46.1
		c-0.1-25.5-20.7-46.1-46.2-46.2C516.1,145,495.5,165.7,495.5,191.1"/>
	<path class="st7" d="M417,213.9c0-25.4,20.6-45.9,45.9-45.9c25.4,0,45.9,20.6,45.9,45.9c0,25.4-20.5,45.9-45.9,45.9
		C437.5,259.8,417,239.2,417,213.9 M419.5,213.9c0,23.9,19.4,43.3,43.3,43.4c23.9,0,43.3-19.4,43.3-43.4c0-23.9-19.4-43.3-43.3-43.3
		C438.9,170.6,419.6,189.9,419.5,213.9"/>
	<polygon class="st8" points="520.1,204.1 537.2,184.5 555.3,184.5 542.8,197.7 568.1,197.7 568.1,210.5 544,210.5 556.1,222.2 
		537.6,222.2 	"/>
	<polygon class="st8" points="453.1,214.6 442.1,214.6 449.3,207.6 434.9,207.6 434.9,199.9 450,199.9 442.6,192.1 453.4,192.1 
		463.6,203.8 	"/>
</g>
<g>
	<path class="st9" d="M731.5-145.4c0.3,0,0.7,0,1,0c6,2.6,11.7,5.6,12.6,13.1c-0.1,1.9-0.3,3.7-0.3,5.6c0,184.3,0,368.5,0,552.8
		c0,1.9,0.2,3.7,0.3,5.6c-1,7.5-6.6,10.5-12.6,13.1c-0.3,0-0.7,0-1,0c-1.3-1.7-3.2-0.9-4.7-0.9c-123.8,0-247.6,0-371.4,0
		c-1.5,0-3.4-0.9-4.7,0.9c-0.3,0-0.7,0-1,0c-6-2.6-11.7-5.6-12.6-13.1c0.1-1.9,0.3-3.7,0.3-5.6c0-184.3,0-368.5,0-552.8
		c0-1.9-0.2-3.7-0.3-5.6c1-7.5,6.6-10.5,12.6-13.1c0.3,0,0.7,0,1,0c1.2,1.9,3.1,0.9,4.7,0.9c123.8,0.1,247.6,0.1,371.4,0
		C728.3-144.5,730.2-143.7,731.5-145.4z M344,149.9c0,91.9,0,183.7,0,275.6c0,9.7,2,11.6,11.8,11.6c123.5,0,247,0,370.5,0
		c9.8,0,11.8-2,11.8-11.7c0-183.7,0-367.4,0-551.1c0-10-1.9-11.9-12-11.9c-123.3,0-246.7,0-370,0c-10.1,0-12,1.9-12,11.9
		C344-33.8,344,58,344,149.9z"/>
	<path class="st10" d="M540.6-24.1C482.4-23,431-2.8,387.8,37.6c-6.9,6.4-14.7,8.2-22,4.9c-7.5-3.5-12.4-11.3-12-19.3
		c0.2-5.3,2.8-9.5,6.5-13c39.9-37.6,86.9-61.4,141.2-69.3C579-70.6,648.3-50.7,709.2-1.4c4.6,3.8,9,7.9,13.3,12
		c7.7,7.3,8,18.7,0.6,26.6c-7.7,8.3-18.9,9.1-26.9,1.6c-30.5-28.9-66.1-48-107-57.4C573.5-22.2,557.5-23.7,540.6-24.1z"/>
	<path class="st10" d="M541.3,0.4C592.2,1.7,636.4,19,673.4,54c8.5,8.1,8.7,19.3,0.6,27.8c-7.7,8.1-19,8.1-27.4,0.2
		c-32.6-30.6-71.2-45.3-115.8-42.4c-36.8,2.4-68.6,16.9-95.3,42.5c-6.9,6.6-15.6,7.9-23.4,3.3c-7.6-4.5-11.4-13.5-9.3-22
		c0.8-3.3,2.6-5.9,4.9-8.2c30.4-29.6,66.6-47,108.6-52.9C524.7,1.2,533.1,0.8,541.3,0.4z"/>
	<path class="st10" d="M631.1,112.1c-0.1,8.2-5,15.7-12.2,18.3c-7.7,2.9-14.7,1.5-20.8-4.3c-33.3-32.1-80.6-32-114.1,0.2
		c-8,7.7-19.6,7.7-27.1,0c-7.9-8.1-8-19.5-0.2-27.4c46-46.7,122.9-46.8,168.7-0.2C629.3,102.6,631.4,107,631.1,112.1z"/>
</g>
<path class="st11" d="M540.9,250.5c-8.8,0-16.9-1.7-24.7-5.1c-5.5-2.4-10.6-5.6-15.2-9.5c-0.3-0.2-0.4-0.2-0.6,0.1
	c-4.9,5.4-10.7,9.3-17.7,11.6c-4.4,1.5-9,2.2-13.6,2.1c-6.6-0.1-12.8-1.7-18.6-4.9c-9.4-5.1-15.9-12.8-19.4-23
	c-1.6-4.8-2.4-9.7-2.1-14.7c0.9-13.7,7-24.5,18.4-32.2c4.9-3.4,10.5-5.4,16.4-6.2c6-0.9,12-0.5,17.8,1.3c0.4,0.1,0.5,0.1,0.7-0.3
	c2.5-7.5,6.3-14.3,11.4-20.3c6.7-8,14.9-13.9,24.6-17.7c4.6-1.8,9.3-3,14.1-3.7c4.4-0.6,8.9-0.7,13.4-0.3c11.9,1,22.7,5.2,32.2,12.5
	c10.8,8.3,18.1,19,21.8,32.1c1.2,4.2,2,8.6,2.2,13c0.8,13.3-2.4,25.6-9.5,36.8c-4.2,6.6-9.4,12.1-15.7,16.7c-5.4,4-11.4,7-17.8,9
	c-4.3,1.3-8.6,2.2-13.1,2.6C544.2,250.4,542.4,250.4,540.9,250.5z"/>
<path class="st12" d="M469.6,170.2c4,0,7.7,0.5,11.4,1.6c0.4,0.1,0.5,0.3,0.4,0.7c-1.7,5.9-2.4,12-2.2,18.1
	c0.3,10.1,2.9,19.6,7.8,28.4c3.2,5.6,7.1,10.6,11.9,15c0.3,0.2,0.2,0.4,0,0.6c-2.4,2.7-5.2,5.1-8.3,7c-4.4,2.8-9.2,4.6-14.3,5.4
	c-4.1,0.7-8.1,0.7-12.2,0.1c-5.8-0.9-11.1-2.9-15.9-6.2c-6.9-4.6-11.8-10.9-14.7-18.6c-1.9-5-2.7-10.1-2.4-15.4
	c0.7-10.9,5.1-20,13.3-27.3c5.3-4.6,11.4-7.5,18.3-8.8C465.1,170.4,467.5,170.2,469.6,170.2z"/>
<path class="st12" d="M505.5,224.3c-2-2-3.8-4.1-5.5-6.3c-4.6-6.4-7.6-13.5-8.8-21.3c-1-6.4-0.8-12.7,0.7-19
	c0.1-0.4,0.2-0.4,0.5-0.2c1.6,1.2,3.2,2.5,4.6,3.9c0.2,0.2,0.3,0.3,0.2,0.6c-1.5,9.5-0.1,18.5,4.3,27.1c1.6,3.1,3.5,5.9,5.8,8.6
	c0.1,0.1,0.3,0.3,0.2,0.5C507.1,220.1,506.4,222.2,505.5,224.3z"/>
<path class="st12" d="M539.3,230.5c-10.7-0.2-20.8-4.5-29.1-13c-0.2-0.2-0.3-0.4-0.2-0.7c0.6-2.8,0.8-5.6,0.8-8.4
	c-0.2-9.4-3.3-17.9-9.2-25.2c-0.5-0.6-1.1-1.3-1.6-1.9c-0.3-0.3-0.3-0.5-0.2-0.9c0.7-3.2,1.7-6.2,3.1-9.2
	c5.2-10.6,13.3-17.9,24.5-21.8c4.1-1.4,8.4-2.2,12.8-2.2c10.7,0,20.2,3.4,28.3,10.6c6.9,6.2,11.4,13.8,13.2,22.9
	c2.4,12.7-0.5,24.3-8.6,34.4c-5.6,7-12.9,11.6-21.6,14C547.7,230.1,544.1,230.5,539.3,230.5z"/>
<path class="st12" d="M497.8,179.2c-1.3-1.2-2.7-2.4-4.1-3.4c0,0,0,0,0,0c-0.3-0.3-0.9-0.4-1-0.8c-0.1-0.4,0.2-0.8,0.3-1.2
	c2.5-7.6,6.5-14.3,12.2-20c6.9-6.9,15.2-11.4,24.8-13.4c5.5-1.2,11-1.4,16.5-0.7c12.9,1.7,23.6,7.5,32.1,17.4
	c5.4,6.4,8.9,13.7,10.6,21.9c1,4.7,1.2,9.4,0.8,14.2c-0.9,9.8-4.3,18.5-10.3,26.3c-4.4,5.7-9.9,10.2-16.3,13.5
	c-4.9,2.6-10.1,4.3-15.6,5.1c-4,0.6-8,0.7-12,0.3c-5.3-0.5-10.4-1.8-15.2-3.9c-4.9-2.1-9.3-4.9-13.3-8.5c-0.1-0.1-0.3-0.2-0.2-0.5
	c0.9-1.9,1.6-3.9,2.1-5.9c0,0,0,0,0.1-0.1c8.4,8.2,18.4,12.6,30.1,12.9c9.4,0.3,18-2.3,25.7-7.6c16.2-11.1,22.7-30.9,17-49
	c-5.8-18.4-22.8-30.7-42.2-30.6C519.9,145.5,502.3,159.5,497.8,179.2z"/>
<path class="st12" d="M508.2,215.2c-3.2-3.8-5.5-8-7.1-12.6c-2.1-6.2-2.8-12.5-1.9-19.2C506.9,192.7,509.9,203.2,508.2,215.2z"/>
<g id="Ausrufer">
	<path class="st13" d="M605-67.9c0.6,0,1.3,0,2.7,0c-2.4,2.3-4.4,4.3-6.3,6.3c-0.4,0.4-1.2,0.8-0.8,1.6c0.6,1.1,1.3,0.2,2,0.1
		c3.4-0.7,4.4-4.3,7.2-5.7c1.8,0.5-0.6,3.1,1.7,3.2c1.6,0.1,2.1-1.4,3.1-2.1c3.3-2.4,6.5-5,8.8-8.6c0.5-0.7,1.5-0.3,2.2-0.3
		c-0.5,0.7-1.1,1.5-1.6,2.2c-2.8,2.5-5.5,5-6.6,8.8c2.5-2.4,5.8-3.8,8.2-6.2c0.1-0.1,0.2-0.1,0.4-0.2c1.5-0.5,1.3-4.1,3.2-2.7
		c1.3,0.9-1.4,2.2-2.2,3.3c-0.6,0.8-0.5,1.7-0.7,2.5c-0.4,0.4-0.9,0.8-1.3,1.2c-0.2,0.4-0.5,0.7-0.7,1.1c0.7,0.3,1.2,0.2,1.4-0.5
		c0.4-0.3,0.8-0.7,1.2-1c1.4-0.7,2.6-1.6,3.7-2.7c0.6-0.6,1-2.1,2.3-1.3c1.3,0.8,0.8,2,0,3.4c3.5-3,5.6,0.4,8.1,1.5
		c1.4,0.7,2.9,2.3,2,3.8c-0.8,1.3-2,3-4.3,2.4c-1.1-0.3-1.3,0-0.6,1c1.6,2.2-1.1,4.3,0,6.6c1.2,2.4,0.4,4.6-1.8,6.2
		c-0.1,0.1-0.1,0.2-0.1,0.3c1,0.9,1.6-0.4,2.4-0.6c1-0.2,1.6-2.1,3-0.3c1.3,1.7-0.8,1.9-1.2,2.3c-1.3,1.8-2.8,3.4-5.6,3.8
		c-2.4,0.3-2.5,3.6-2.3,5.5c0.3,2.9,0.6,5.4-2,7.3c-0.5,0.3-1,0.7-0.5,1.6c1.9,3.1-0.3,5.2-2,7.4c-0.1,0.1-0.2,0.2-0.3,0.3
		c-0.5,0.3-1.3,0.7-1,1.2c0.4,0.7,1,0.2,1.3-0.4c0.3-0.3,0.5-0.5,0.8-0.8c2.7-0.4,3.6-3.5,6.2-4c-1.2,3.6-3.5,6.5-6,9.4
		c4.1-2.2,6.9-6.7,12.1-7c-4-0.3-1.6,4.6-4.2,5.3c2.5-0.7,4.2-2.4,6.1-3.9c2.5,0.2,1.4,1.7,1,2.9c-0.2,0.4-0.5,0.7-0.7,1.1
		c0.7,0.3,1.2,0.2,1.4-0.6c1,0.4,2.3-1.6,2.9,0.2c0.7,2.1,3.3,3.8,2,6.2c-0.7,1.3-0.5,1.3,0.4,2.1c2.7,2.3-0.1,3.8-1.3,5.5
		c3.9,0.7,4.1,1.2,1.7,4.6c-0.2,0.4-0.5,0.7-0.7,1.1c0.7,0.3,1.2,0.2,1.4-0.6c0.7,5.6,5.3,3.3,8.3,4c1.5,0.3,3.1,0.1,4.7,0.1
		c-0.2,4.4-2.5,8.3-2,12.8c0.2,2.2-2.5,3.4-3.4,5.4c-0.5,1-2.6,2.5,1,2.9c2.9,0.3,5.4,3.1,7,5.6c1.5,2.4-0.6,5-2.4,6.3
		c-2.5,1.8-4.3,4.2-6.9,6.3c4.1,0,3.4,2.3,2.5,4.6c1.3,1,2.2-1.8,3.4-0.2c1.3,1.8-0.9,2.1-1.4,3.1c-0.3,0.7-0.7,1.4-1.1,2
		c-1.2,2-4.2,2.3-5.2,5.4c3-1,5.2-2,5.8-4.9c1.1-0.8,2.7-1,3.2-2.1c5.2,7.1-0.3,11-5,15.2c1.8,0.7,2.1-1,3.4-1.1
		c-1.4,5-3.3,9.4-8.6,11.3c-1.2,0.4-2.3,0.5-3.5,0.3c-3.1-0.5-4.1,0.7-3.1,3.9c0,0.1,0.1,0.3,0,0.4c-1.6,3.4,1.2,7.1-0.6,10.5
		c-0.2,0.4-0.5,0.7-0.7,1.1c0.7,0.3,1.2,0.2,1.4-0.5c0.1,4.4,2.8,9.2-1.6,13c-0.5,0.5-0.4,0.9-0.2,1.6c0.8,3.2,0,6-3.2,8
		c3.9-0.1,2.7,1.9,2.1,3.6c-1.4,3.8-1.8,7.8-1.8,11.8c0,2.9-1.3,4.9-2.9,6.5c2.4,2.1,1.4,4.1,0.2,6c-0.6,0.9-2.2,1.8,0.4,1.9
		c0.2,0,0.4,0.3,0.5,0.5c1.1,2.4-1.8,5.4-1.6,5.5c3.6,1.5,1.8,3.4,0.5,5.1c-0.9,1.1-0.8,0.9,0.4,1.8c1.9,1.3,0.8,3.4-0.6,4.9
		c-0.3,0.4-0.5,0.7-0.8,1.1c0.7,0.3,1.2,0.2,1.4-0.5c0.8,0.7,1.7,1.4,0.9,2.7c-2.1,3.7-2.1,8-3.7,12c-1.2,2.9-2,6.5-1.9,10
		c0.1,2.5,0.1,5-2.2,6.6c-0.4,0.3-0.8,0.6-1.2,1c-0.3,0.5-0.9,0.9-0.6,1.6c0,0.1,0.6,0.2,0.6,0.1c0.4-0.6,0.3-1.2,0-1.7
		c0.8,0.4,1.5,0.6,2.1-0.3c3.5,2.4,0.4,3.9-0.8,5.7c-0.3,0.4-0.5,0.7-0.8,1.1c0.7,0.3,1.2,0.2,1.4-0.5c1.5,2.1,1,4.1-0.7,5.8
		c-0.2,0.4-0.5,0.7-0.7,1.1c0.7,0.3,1.2,0.2,1.4-0.5c1.3,0.4,0.7,1.6,0.7,2.3c-0.1,2.2-1.6,4.1-0.2,6.9c1.3,2.7-3.2,3.9-4.4,6.5
		c2.6,0,3.9-2,5.4-3.4c0.8-0.7,1.3-1.4,2.4-0.2c1.2,1.4,0.3,1.7-0.7,2.1c-1.7,0.6-1.8,2.2-2.7,3.9c2.4-0.7,3.8-1.8,4.4-3.8
		c3.1,3.7-0.1,4.9-2.2,6.3c-1,0.6-1.5,1.2-0.9,2c0.6,0.8,1.8,0.6,2.3-0.3c0.8-1.6,2.2-2.2,3.6-3.2c0.3,8.4-4.5,10.8-14.8,7.5
		c0.3-1.3,3.1-1,1.9-3.4c-1,0.6-2,1.3-2.9,2c-0.2,0.2-0.2,0.5-0.6,0.7c-2.8,1.4,0-4-3.5-2.7c-2,0.7-2.6-1.9-1-4.7
		c-1.6,1.4-2.3,2-2.9,2.6c-0.5,0.2-0.6,0.1-0.6-0.3c0.2-4-3.5-4.5-5.6-6.4c-0.6-0.5-1.8-1.1-1.5-1.6c2.4-3.6-1-6.6-0.9-9.9
		c0.1-3.5,0.2-7.1,0.2-10.6c0-5-0.5-10-0.1-15c0.2-2.8,0-5.6,0.5-8.5c0.6-3.7,0.8-7.5,0.2-11.3c-0.1-0.8-0.2-1.8,0.2-2.3
		c2.9-4.2-0.1-8.5,0.2-12.8c-0.1,5.6-1.4,10.9-2.1,16.4c-0.7,5.7-2,11.2-2.8,16.9c-0.4,2.7-0.6,5.4-0.7,8.1
		c-0.4,9.4,0,18.8-0.6,28.1c-0.2,2.2-1,5.3-2.9,7.3c-0.3,0.1-0.8,0.1-0.5,0.6c0,0.1,0.6-0.2,0.9-0.2c0.6,0.2,1.3-2.5,2,0.1
		c0.5,1.9,0.9,3.9,1.4,5.8c0.6,2.5-1.4,4.8-2,7.2c-0.5,1.9-2.9,2.4-5.4,3.1c-4.3,1.1-6.6-0.2-9.1-2.9c1.1,0,2-0.3,2.2-1.7
		c0.2-1.6,1.7-1.4,2.6-2c1.8-1.2,3.1-2.6,3.1-5.2c-2.3,2.3-5.9,2.8-6.4,6.4c-0.7,0.6-1.3,1.2-2,1.8c-3,0.7-3,0.7-2.8-3.6
		c1.5,0.7,2.8-0.3,3.4-1.2c2.1-2.9,5.5-4.6,7.3-7.9c0.2-0.4,1.9-0.2,0.7-1.4c-0.6-0.6-1.3-0.5-1.7,0.1c-2.7,3.9-7.9,5.5-9.5,10.4
		c-0.7,0.5-1.5,1-2.2,1.5c-0.3-1.2-1.4-2.2-0.9-3.6c4.4-1.8,6.2-6.2,9.5-9.2c-4.1,1.3-6.9,4.2-9.5,7.4c-0.2-2.1-0.1-3.9,2.1-5.4
		c1.2-0.9,2.5-2.5,2.6-5c-1.6,1.5-2.9,2.6-4.5,4.1c-0.3-1.7-0.8-3.6,0.1-4.5c1.1-1,2.3-1.5,1.4-4.6c-1,1.9-1.7,3.2-2.6,4.8
		c-2.6-5.1,2.3-6.6,3.4-10.7c-1.8,1.7-2.8,2.6-4,3.8c-0.6-2.6-0.5-4.7,1.4-6.3c0.8-0.1,1.7,0,1.5-1.2c0-0.3-0.2-0.6-0.3-1
		c-0.6,0.5-1.1,1-1.7,1.5c-1.5-1-1.6-2.9-0.3-4.6c1-1.3,2.7-2,3.2-4.7c-1.5,1.4-2.6,2.4-3.6,3.3c1.5-4.1-2.5-8.5,1.2-12.3
		c0.4-0.4,0.6-0.9-0.2-1c-0.3,0-0.9,0.6-1,0.5c-0.7-1.1-0.7-2.3-0.2-3.4c0.5-1.3,1.5-2.3,2.3-3.5c0.7-0.5,2-1.2,1.3-1.9
		c-0.6-0.7-1.2,0.7-1.8,1.3c-0.6-0.1-1.5,2.7-1.9-0.2c-0.2-1.7,0.7-2.9,1.4-4.3c1.6-0.6,2.6-1.6,2.5-4c-1.2,1.4-2.1,2.4-3.1,3.4
		c-2.2-2.4,0-4.3,1.2-5.9c0.6-0.8,1.4-1.7,2-2.6c0.1-0.1,0.2-0.2,0.3-0.3c0.5-0.5,0.9-1,1.4-1.5c0.8-0.5,1.9-1,1.1-2.6
		c-0.7,0.8-1.2,1.5-1.8,2.1c-0.3,0.4-0.7,0.8-1,1.2c-0.3,0.3-0.5,0.5-0.8,0.8c-1.4,0.2-2.2,2.7-3.3,1.7c-2-1.8,0.5-2.8,1.4-4.1
		c0.3-0.4,0.3-1,0.4-1.4c1.6-0.1,2.6-0.8,2.1-2.7c-1.4,0-1.8,1.3-2.6,2c-2.3,1.6-2.3-0.5-1.8-1.5c0.8-1.8,1.7-3,0-5
		c-1.3-1.6,1.5-3,1.5-4.8c0.3-0.3,0.5-0.5,0.8-0.8c1.8-0.1,1.8-1.2,1.6-3c-1,1.1-1.7,1.9-2.4,2.7c-0.1,0.1-0.2,0.2-0.3,0.3
		c-2.5,0.7-2.5-0.7-1.8-2.3c0.4-1,1.2-1.9,1.9-2.8c1.3-1.2,3.3-1.9,3.3-4.9c-1.6,1.8-2.8,3.1-4,4.3c-4.1-2.6,1-4,0.8-6
		c0.1-0.1,0.3-0.2,0.3-0.3c1.8-0.8,3.1-1.9,2.9-4.1c1.1,0.6,1.7-0.2,2.3-0.9c0.3-0.4,0.7-0.8,1-1.2c0.6-0.4,1.5-0.8,0.8-1.6
		c-0.5-0.5-0.9,0.4-1.3,0.8c-0.4,0.5-0.8,0.9-1.2,1.4c-0.7,0.3-1.3,0.8-1.5,1.6c-1.3,0.8-2.4,1.9-3.3,3.2c-0.3,0.3-0.5,0.5-0.8,0.8
		c-2.7,0-1.5-1.9-1.2-3c0.3-1,1.2-1.9,1.9-2.8c0.4-0.4,1.4-0.9,0.9-1.3c-0.8-0.7-1.2,0.2-1.6,0.8c-0.5-0.1-1.2,1.6-1.5-0.2
		c-0.3-1.9,0.6-3.5,1.5-5.1c0.2-0.1,0.3-0.2,0.3-0.3c0.5-0.5,1.7-0.8,1-1.6c-0.4-0.5-1.1,0.2-1.3,0.9c-0.3,0.3-0.5,0.5-0.8,0.8
		c-3.3-0.9-1.3-2.4-0.4-3.9c0.9-1.3,0.8-1.3-0.6-2.6c-0.3-0.3-0.6-1.1-0.5-1.3c1.5-2.4-0.6-4.9,0.1-7.1c1-3-0.3-4.4-2.4-5.7
		c2.9-1.1,4-3.7,5-6.4c-1.8,1.9-3.6,3.8-5.5,5.8c-1.2-0.8-1.8-1.9-1.3-2.8c0.5-1,1.2-1.9,1.8-2.9c0.8-0.1,1.7,0,1.5-1.2
		c0-0.2-0.1-0.6-0.3-0.7c-1-0.3-1.2,0.7-1.8,1.2c-0.6-0.1-1.6,2.8-1.9-0.2c-0.4-4.2,3.5-5.5,5.6-8c0.7-0.8,1.8-1.1,1.2-2.9
		c-2.1,1.9-4,3.7-6.1,5.6c-0.7-2.8-0.7-3.5,1.1-5.6c1.2-1.4,2.7-2.5,3.7-4.2c-1.2-0.8-1.5,0.7-2.3,0.8c-0.2-0.2-0.4-0.4-0.7-0.5
		c0.6-3.1,1.9-5.8,4.4-7.8c0.5-0.5,1.5-1,0.7-1.7c-0.6-0.5-1.1,0.6-1.4,1.1c-0.6,0.5-1.2,0.9-2.3,1.8c0.3-4.1,0.1-7.9,1-11.5
		c0.6-2.5,0.3-2.4-1.8-1.8c-2.7,0.8-2.7,0.7-2.6-2c-1.8,2-3.5,3.3-5.9,1.4c-5.7-4.6-6-5.4-3.4-11.1c-1.4,1.3-2.4,2.2-3.5,3.1
		c-2.4-4-1.9-8.3,1.3-11.5c1.3-1.3,2.5-2.7,3.8-4c3.4-0.3,3.3-5.2,7-5.2c0.3,1.3-1.2,1.6-1.6,2.5c-0.3,0.7-1.9,0.8-0.9,2
		c0.9,1.1,1.8,0,2.4-0.2c2.7-1.1,4.5-3.4,6.2-5.6c0.5-0.7,1.7-1.9,1-2.7c-1.2-1.2-1.8,0.2-2.7,1c-0.5,0.5-1.7,0.4-3.4,0.7
		c2.8-3.3,5.9-5.4,7.4-10c-5.7,5.5-10.6,10.2-15.5,14.9c-2.5-0.5-0.8,3.1-2.9,2.9c-1.9-3,3-5,1.9-6.6c-1.6-2.3-2.4-3.6,0.1-5.5
		c0.1-0.1,0.8-1.6-0.7-1.4c-0.8,0.1-0.9-0.3-0.8-0.8c1.1-4.4-1.8-10,3.6-13.2c0.8-0.5,1.3-1.3,1.1-2.3c1.1,0.4,1.7-0.4,2.3-1.1
		c4.3-4.1,8.7-8.2,13-12.2c1-0.9,1.7-2.5,3.6-1.4C583,8.1,578,13.8,572.9,19.5c8.3-4.7,13.6-12.8,21.4-17.9
		c-6.3,8.6-13.8,16.1-20.6,24.3c8.8-7.4,16.3-16.1,25.1-23.3c0.3,0.3,0.5,0.5,0.8,0.8c-4,4.7-8,9.3-12,14c-0.8,0.9-3,1.9-2,2.9
		c1.5,1.3,1.3-1.7,2.5-2c0.1,0,0.1-0.2,0.1-0.4c1.7-0.7,3-1.9,4.3-3.2c6.5-6.6,13.1-13.1,19.6-19.7c1-1,1.9-2.6,4.4-1.1
		c-10.8,8.6-18.7,19.7-28.6,29.3c2.4,0.7,3.2-0.8,4.1-1.8c2.7-2.7,5.1-5.8,8-8.3c6.3-5.6,12-11.9,18-17.8c0.5-0.5,1.4-1.7,0.4-1.8
		c-3.2-0.6-1.6-3.2-2.1-4.8c-6.7,3.2-10,10.4-16.9,13.2c4.4-5.6,10.1-10.1,15.1-16.6c-7.4,2.6-10.2,9-16,11.6
		c1.9-3.6,5.3-5.7,7.5-8.9c0.7-1.1,3.4-2,2-3.2c-1.5-1.3-2.7,1.4-4.2,2c-0.2,0.1-0.3,0.4-0.4,0.6c-2.8,2.6-5.6,5.2-8.4,7.8
		c3.1-6.5,9.9-10,12.7-16.6c-2.1,1.4-3.6,3.7-6.5,3.4c-0.8-3.1,3.6-3.7,3.4-7.6c-2.9,4.3-7.4,5-9.5,8.6l0,0
		c-0.8,0.3-1.3,0.9-1.6,1.6c-0.3,0.3-0.7,0.6-1,1l0,0c-1.1,0.5-1.7,2.2-3.5,1.2c4.8-4.9,9.7-9.7,13.9-15.3c-2.5-0.5-2.7,1.9-4.1,2.7
		c-0.6-0.9-0.5-1.7,0.2-2.4c3.8-4,2.3-8.1,0.1-12c-1.3-2.3-2.2-3.9,0.3-6.5c0.9-0.9,3.3-5,0.1-7.6c-0.5-0.4-1.4-1-0.5-1.9
		c0.3-0.4,0.7-0.8,1-1.2c0.8-0.2,0.8-0.8,0.6-1.5c-0.4,0.3-0.7,0.6-1.1,0.8c-0.4,0.4-0.8,0.9-1.2,1.3c-2.5-0.2-3.1-1.1-1.2-3.1
		C599.9-62.6,602.4-65.3,605-67.9z M586.9,152.8c0.3-0.3,0.6-0.6,0.9-0.8c0.4-0.5,0.9-0.9,1.3-1.4c0.6-0.4,1.6-0.8,0.8-1.5
		c-0.5-0.5-0.9,0.5-1.3,0.9c-0.4,0.4-0.8,0.9-1.2,1.3c-0.3,0.3-0.5,0.5-0.8,0.8c-0.3,0.3-0.5,0.5-0.8,0.8c-0.6,0.3-1.3,1-0.9,1.3
		c0.8,0.6,1.2-0.5,1.6-1C586.7,153.1,586.8,153,586.9,152.8z M603.9-30.6c-0.4,0.3-1.3,0.6-0.7,1.3c0.4,0.5,0.8-0.1,1-0.5
		c0.5-0.2,0.9-0.4,0.6-1C604.7-30.8,604.2-30.7,603.9-30.6z M590.6,135.4c-0.7,0.2-1.1,0.6-1.1,1.3c0,0.1,0.2,0.3,0.3,0.3
		c0.8,0.1,0.9-0.7,1.3-1.2c0.1-0.3,0.2-0.9,0.1-0.9C590.7,134.6,590.7,135.1,590.6,135.4z M582.2,118.2c-0.4,0.4-0.8,0.9-1.2,1.3
		c-0.5,0.2-0.9,0.4-0.5,1c0.1,0.1,0.6-0.1,0.9-0.2c0.5-0.5,0.9-1,1.4-1.4c0.6-0.4,1.6-0.8,0.8-1.5
		C583.1,116.8,582.7,117.8,582.2,118.2z M582.2,125.8c0.5-0.5,1.7-0.8,1-1.6c-0.4-0.4-1.1,0.3-1.3,0.9c-0.5,0.2-0.9,0.4-0.5,1
		C581.4,126.1,581.9,125.9,582.2,125.8z M644.7,63.2c0.7-0.2,1.4-1,1-1.3c-0.9-0.9-1.1,0.5-1.6,0.8c-0.3,0.4-0.5,0.7-0.8,1.1
		C644,64.1,644.5,64,644.7,63.2z M638.4,6c0.4-0.3,0.8-0.7,1.2-1c2.6-1.6,5.3-3.2,5.4-6.9c-2,2.1-3.9,4.2-5.9,6.2
		c-0.4,0.4-0.9,0.8-1.3,1.2c-0.3,0.4-0.5,0.7-0.8,1.1C637.6,6.8,638.1,6.7,638.4,6z M593.3,89.3c0.5-0.5,1.7-0.8,1-1.6
		c-0.4-0.5-1.1,0.2-1.3,0.9c-0.3,0.3-0.5,0.5-0.8,0.8c-1.2,1.2-2.4,2.3-3.6,3.5c-2.2,2.2-4.4,4.4-6.6,6.7c-0.2,0.1-0.3,0.2-0.4,0.4
		c-1,1-2.1,2-3.9,3.7c2.7-0.6,3.4-1.8,4.2-2.9c0.3-0.3,0.5-0.5,0.8-0.8c2.7-1.5,4.8-3.6,6.4-6.4c2.2-0.3,2.3-2.7,3.8-3.8
		C593.1,89.5,593.2,89.4,593.3,89.3z M618,76c-0.4,0.5-0.9,1-1.3,1.5c-1.7,1.6-3.4,3.2-5,4.9c-4.6,4.7-9.7,9-13.8,14.2
		c-2.5,1.4-4.1,3.7-6.1,5.7c-3.2,3.3-6.4,6.7-9.6,10c0,0,0.1,0.1,0.1,0.1c3.3-3.1,6.6-6.3,10-9.4c2-2,4.8-3.3,5.4-6.5
		c1.1,0.3,1.6-0.4,2.3-1c4.4-3.8,8.4-7.9,12.1-12.3c1.4-2,4.8-2.4,4.4-5.7c0.7,0,1.5,0.3,1.9-0.7c0.4-0.3,0.8-0.7,1.2-1
		c0.4-0.5,0.8-0.9,1.2-1.4c0.6-0.4,1.5-0.8,0.8-1.5c-0.5-0.5-0.9,0.5-1.3,0.9c-0.4,0.5-0.8,0.9-1.2,1.4
		C618.8,75.3,618.4,75.7,618,76z M597,84.6c-0.7,0.1-1.1,0.6-1.1,1.3c0,0.1,0.5,0.3,0.5,0.3c0.3-0.3,0.6-0.7,1-1.1
		c0.1-0.3,0.3-0.9,0.2-0.9C597.1,83.8,597.1,84.2,597,84.6z M651.9,75.1c0.4-0.3,0.8-0.7,1.2-1c4.1-1.8,5.3-6,8.6-8.4
		c-0.3-0.3-0.7-0.6-1-0.9c-2.7,2.9-5.4,5.8-8.1,8.7c-0.4,0.4-0.9,0.8-1.3,1.2c-0.2,0.4-0.5,0.7-0.7,1.1
		C651.1,76,651.6,75.9,651.9,75.1z M588.6,156.3c-0.4,0.4-0.8,0.9-1.2,1.3c-0.3,0.3-0.5,0.5-0.8,0.8c-0.6,0.5-1.1,1-1.7,1.5
		c-1,1.2-2.5,1.9-3.1,3.8c2.4-0.6,4-1.4,3-3.9c1.3,0.6,2-0.1,2.6-1.1c0.1-0.1,0.3-0.2,0.3-0.3c0.5-0.5,0.9-1,1.4-1.5
		c0.6-0.4,1.6-0.8,0.8-1.5C589.4,154.9,589,155.9,588.6,156.3z M607-32.4c0.4-0.4,0.8-0.9,1.2-1.3c1-0.8,2.4-1.3,2.2-3.3
		c-1.1,1.1-2,1.9-2.8,2.8c-0.4,0.4-0.7,0.8-1.1,1.2c-0.6,0.4-1.6,0.8-0.8,1.5C606.1-31,606.6-32.1,607-32.4z M623.3,71.9
		c0.8-0.4,1.5-0.8,1.4-2.7c-1,1.1-1.6,1.8-2.1,2.4c-0.1,0.3-0.3,0.8-0.3,0.9C622.9,72.8,623.1,72.4,623.3,71.9z M587,87.9
		c-0.5,0.5-1.1,1.1-1.6,1.6c-1.1,1.1-2.5,1.9-3,3.6c2.7,0.4,2.6-1.9,3.5-3c0.5-0.5,1.1-1.1,1.6-1.6c0.6-0.4,1.6-0.8,0.8-1.6
		C587.9,86.6,587.4,87.6,587,87.9z M583.7,137c0.7-0.5,1.8-1,1.1-1.9c-0.4-0.5-1.1,0.5-1.4,1.1c-0.5,0.2-0.9,0.4-0.5,1
		C582.9,137.2,583.4,137,583.7,137z M625.2,75.2c-0.5,0.5-1.1,1.1-1.6,1.6c-1.5,1.5-2.9,3-4.4,4.6c-0.6,0.6-1.3,1.2-1.9,1.8
		c-2.1,2.2-4.7,4-5.9,7c1.9-2.3,5.2-3.2,6.4-6.3c1.5,0.3,1.5-1.1,2-1.8c1.6-1.4,3.6-2.4,4.4-4.5c1.2,0.1,1.7-0.4,1.6-1.6
		c0.8-0.2,1-0.9,0.5-1.4C625.8,74.1,625.5,74.9,625.2,75.2z M606.1,107c-0.5,0.5-1.1,1.1-1.6,1.6c-1.8,2-3.7,4-5.5,6
		c2.6-1.2,4.5-3,6.1-5.3c1.2,0.1,1.7-0.4,1.6-1.6c0.4-0.3,0.8-0.7,1.2-1c1.5-0.5,2.3-1.6,2.8-3c3.2-1.9,6.1-4.5,8.1-7.3
		c2.1-2.9,6.3-3.7,7-7.7c0.8-0.2,1-0.9,0.5-1.4c-0.4-0.4-0.7,0.3-1,0.6c-5.2,5.2-10.4,10.5-15.6,15.7c-0.8,0.8-1.6,1.6-2.4,2.4
		C606.9,106.3,606.5,106.7,606.1,107z M577.2,54.4c1-0.6,1.8-1.4,2.4-2.4c3.2-1.6,5.9-3.6,7.2-7.2c0.4-0.3,0.8-0.7,1.2-1
		c4.1-3.9,8.2-7.8,12.3-11.7c8-7.9,16.6-15.2,23-24.7c-3.4,3.9-8.2,6.3-11.5,10.2c-3.6,4.4-9,7.3-11.5,12.7
		c-4.5,4-8.7,8.3-12.7,12.7c-0.4,0.3-0.8,0.7-1.2,1c-1.7,1.9-3.8,2.9-6.7,3.1c0.6-1.4,2.4-2.2,1.1-4c-3.9,3.9-7.8,7.8-11.7,11.7
		c3.3-0.3,4.9-2.7,6.8-4.5c2-1.9,3-1.9,3.1,1.1c-0.8,0.8-1.5,1.6-2.3,2.4c-0.3,0.4-0.5,0.7-0.8,1.1C576.4,55.3,577,55.2,577.2,54.4z
		 M582,87.8c1.2-0.6,2.5-1.2,2.8-2.7c1.4-1.4,2.7-2.7,4.1-4.1c0.7-0.8,2.2-1.1,1.5-3c-0.8,0.9-1.4,1.6-2.1,2.4c-1.6,1.1-2.9,2.4-4,4
		c-1,0.9-1.9,1.8-2.9,2.7c-0.4,0.4-1.4,0.9-0.9,1.3C581.2,89.4,581.6,88.4,582,87.8z M597.6,90.1c-1,1-2,2.1-3,3.1
		c-1.4,1.6-2.9,3.1-4.3,4.7c0.3,0.3,0.6,0.5,0.9,0.8c1.4-1.7,2.8-3.3,4.2-5c0.9-1.2,2.9-1.7,2.2-3.8c0.6,0.1,1.3,0.3,1.8-0.3
		c0.1-0.1-0.1-0.6-0.2-0.6C598.4,89.1,597.9,89.5,597.6,90.1z M601,106.9c1.5-0.8,2.9-1.7,3.3-4.6c-1.8,1.8-2.8,3-3.9,4.1
		c-1.2,1.2-2.3,2.4-3.5,3.6c-1.6,1.5-3.1,2.9-4.7,4.4c2.4-0.5,4-2,5.3-3.8C598.7,109.3,599.9,108.1,601,106.9z M607.4-45.7
		c2,0,2.7-1.8,3.8-2.9c0,0-0.6-0.8-0.8-0.8c-1.7,0.5-3,1.5-3.7,3.1c-0.7,0.4-1.4,0.9-2.1,1.3C606.4-44.1,606.9-44.8,607.4-45.7z
		 M608.5,79.2c-2.4,2.4-4.8,4.7-7.2,7.1c0.3,0.3,0.6,0.6,1,0.9c2.6-2,4.6-4.8,6.8-7.3c1.1-0.9,2.5-1.5,2.7-4.3
		C610.2,77.3,609.3,78.2,608.5,79.2z M616.7,39.3c-4.1,4.1-8.3,8.2-12.4,12.2c-0.5,0.6-1.9,1.2-1.2,1.8c0.8,0.7,1.4-0.6,1.9-1.3
		c0.3,0,0.6,0.1,0.8-0.1c3.1-3.6,6.2-7.3,10.2-9.9c1-0.6,1-1.8,0.6-2.8c2.4,0.5,2.9-2.2,4.9-2.7c1-0.3,1.5-1.7,0.6-2.5
		c-0.9-0.8-2-0.2-2.6,0.7C618.5,36.2,617.6,37.8,616.7,39.3z M599,39.2c3.5-2.4,5.9-6.1,9.9-7.8c-2.4,5.9-6.6,10.3-12.1,13.6
		c-1.3,0.8-3.1,1.7-2.3,3.9c-1.1,0.8-2.3,1.7-2.8,3c0.3,0.3,0.6,0.7,0.9,1c0.8-1.1,1.6-2.2,2.4-3.3c3.7-1.9,6.1-5.4,9-8.2
		c3-2.9,5.9-5.8,8.9-8.7c-3.4,7.3-9.1,12.6-13.9,18.6c8.4-7.2,17-14.2,23.3-23.4c-0.6,0-0.9,0.2-1.2,0.5c-1.4,1.3-3,3.7-4.7,1.9
		c-1.1-1.2,1.9-2.3,2.6-3.8c1-2.2,4.6-2.6,4.2-6.3c-3.1,2.7-6,5-8.9,7.3c-1.3,1-1.8,2.8-3.9,2.6c-0.4-0.1-0.8-0.3-0.7-0.9
		c3.2-3.1,6.4-6.2,9.6-9.3c0.5-0.5,1-1.1,0.3-1.6c-0.7-0.5-1.5-0.2-2.1,0.4c-3.8,3.7-8.2,6.7-11.1,11.3c-3.1,2.5-5.3,5.8-8,8.7
		c-1.5,1.4-2.9,2.8-4.4,4.2c-1.2,1-2.2,2.2-3.6,2.9c-3.5,1.8-4.4,2.7-5,7c3.2-3.3,7.8-4.6,9.1-9.3C596.8,42.6,597.5,40.5,599,39.2z
		 M610.6,110.1c6-4.8,11.4-10.1,15.6-16.6c-5.4,5.3-10.9,10.7-16.3,16c-1.9,1.9-3.7,3.8-5.6,5.7
		C606.4,113.5,609.7,113.2,610.6,110.1z M619.6-43.2c0.2,0.2,0.3,0.4,0.5,0.6c-0.5,1-1.7,2.1-0.3,3c1,0.7,1.9-0.3,2.7-1
		c2-2.1,4.1-4.1,6.1-6.2c0.4-0.4,1.2-0.7,0.5-1.5c-0.6-0.8-1.1-0.2-1.6,0c-1.6,0.8-3.2,1.9-4.3-0.8c-0.5-1.2-1,0.1-1.3,0.3
		c-1.3,0.8-2.9,1.3-3.9,2.5c-1.3,1.5-4.6,2.7-3.2,4.7C616.3-39.3,617.7-43.1,619.6-43.2z M592.3,33c0.4-0.1,0.9,0,1.1-0.2
		c8.1-8.1,16.3-16.2,24.4-24.3c1.1-1.1,2.2-2.2,2.8-3.7c2.5-0.5,2.7-2.4,3-4.5c-2.8,0.1-2.1,3.1-3.7,3.9c-2.3,1.9-4.6,3.7-6.8,5.6
		c-7.8,7-14,15.5-21.6,22.6c-1.2,1-2.3,2-4,3.4C591.1,36.5,591,33.9,592.3,33z M623-4.8c-13,9.8-23.2,22.6-35,34.6
		C592.5,28.4,622.9-1.9,623-4.8z M627.2,100.2c-4.8,4.8-10.3,10.3-15.8,15.8C616.8,110.2,623.4,105.9,627.2,100.2z M625.5,83
		c-3.6,3.5-8.5,8.5-13.5,13.4C616.8,91.3,622.7,87.3,625.5,83z M583.3,21.6c-4.6,4.8-9.2,9.5-13.9,14.3
		C574.7,31.7,580.5,28.2,583.3,21.6z M598.9,101.9c4.6-3.2,8.9-6.7,12.7-12.4C606.8,94.2,602.9,98,598.9,101.9z M623.3-39.7
		c3.6,2,7.7-1,9.3-6.9C629.6-43.9,627-41.1,623.3-39.7z M629.2,104.2c-2.8,2.6-6.4,5.8-9.9,9.1C624,111.2,626.9,107.5,629.2,104.2z
		 M612.3-43.4c2-0.9,3.3-3.3,5.1-5c0,0-0.3-0.6-0.5-0.8c-0.3-0.3-0.5-0.4-0.9,0c-1.6,1.2-3.3,2.3-4.9,3.6c-0.4,0.3-0.6,1.2-0.5,1.7
		C610.6-43.3,611.2-43.3,612.3-43.4z M657,35.3c-1.5,2.7-3,4.8-5.1,6.7c-0.3,0.2-1.1,0.5-0.6,1.2c0.2,0.3,0.6,0.8,0.9,0.8
		C654.1,43.9,657.8,37.6,657,35.3z M625.9,221.4c-3.3,2-5.7,4.8-7.9,7.7C621.2,227.1,624.4,225.1,625.9,221.4z M624.2,229
		c3.3-1.9,6.5-3.9,8.6-8.1C629.5,224,626.9,226.5,624.2,229z M631.4,203.2c-2.4,2.7-4.8,5.4-6.1,6.8
		C626.9,208.9,629.4,206.3,631.4,203.2z M617.1,45.7c1.7-1,3.1-1.8,4.4-2.7c0.3-0.2,1.1-0.5,0.6-1.1c-0.2-0.3-0.6-0.5-0.9-0.7
		C620.3,43,616.2,41.7,617.1,45.7z M639.4,10.3c3-0.8,5.3-2.4,6.2-6.4C643.2,6.3,641.3,8.3,639.4,10.3z M629.8,211.7
		c-5.1,3.1-5.1,3.1-5.6,5.9C626.1,215.7,627.9,213.7,629.8,211.7z M592.1,109c-1.8,1.9-3.7,3.9-5.6,5.8
		C588.4,112.9,591.5,112.2,592.1,109z M609.5-42.3c-2.2,2-4.8,3.6-5.9,6.5C605.5-38,608.8-38.9,609.5-42.3z M653,47.2
		c-1.2,1.8-3.4,2.6-3.9,4.8c0,0.2,0.8,0.8,0.8,0.7c1.6-1.3,3-2.7,3.5-4.8C653.4,47.7,653.2,47.6,653,47.2z M628.8,110.6
		c-1.8,1.6-3.5,3.2-5.8,5.3C626.8,115.2,627.2,112.2,628.8,110.6z M611.4,96c-1.5,1.9-2.7,3.4-3.4,4.3
		C609.4,100,610.6,98.6,611.4,96z M649.3,57.5c-1.5,1.4-2.8,2.1-3.6,4.5C648.1,61,649.5,60.4,649.3,57.5z M582.1,201.4
		c1.9-0.3,2.4-1.5,3.2-3.4C583.7,199.1,582.8,199.9,582.1,201.4z M568.5,23.8c-1.4,1.4-2.6,2-3.1,4.4
		C567,26.6,568.2,26.1,568.5,23.8z M590.6,85.5c0-0.1-0.2-0.4-0.4-0.7c-0.5,0.5-1.4,0.8-1.4,1.7c0,0.2,0.5,0.4,0.8,0.5
		C590.5,87,590.7,86.5,590.6,85.5z M650.3,56c-0.8,0.2-0.9,0.7-0.8,1.2c0,0.3,0.1,0.8,0.7,0.6c0.5-0.2,0.9-0.5,0.8-1.1
		C650.9,56.4,650.5,56.2,650.3,56z M619.6,113.5c-1.5,0.4-2.1,1-2.5,1.9C618.5,115.8,618.9,114.9,619.6,113.5z M584.2,122.4
		c-0.2,0.3-0.5,0.7-0.8,1.1c0.3,0.1,0.7,0.3,0.9,0.2c0.3-0.1,0.5-0.5,0.6-0.8C585,122.6,585,122,584.2,122.4z M602.5-54.8
		c-0.2,0.3-0.5,0.7-0.8,1.1c0.3,0.1,0.7,0.3,0.9,0.2c0.3-0.1,0.5-0.5,0.6-0.9C603.3-54.6,603.3-55.3,602.5-54.8z M588.3,164
		c-0.2-0.3-0.4-0.5-0.6-0.6c-0.2,0.3-0.4,0.6-0.5,1c0,0.1,0.3,0.3,0.5,0.5C587.9,164.6,588.1,164.3,588.3,164z M591.5,154.5
		c-0.2-0.3-0.4-0.5-0.6-0.6c-0.2,0.3-0.4,0.6-0.5,1c0,0.1,0.3,0.3,0.5,0.5C591.1,155,591.3,154.8,591.5,154.5z M591.4,148.3
		c-0.1-0.2-0.2-0.4-0.3-0.7c-0.2,0.2-0.5,0.3-0.7,0.6c-0.1,0.1,0.1,0.5,0.2,0.6C591.1,149,591.3,148.7,591.4,148.3z M585.1,192.8
		c-0.2-0.3-0.4-0.5-0.5-0.7c-0.2,0.3-0.4,0.5-0.6,0.8c0,0.1,0.2,0.3,0.4,0.5C584.7,193.2,584.9,193,585.1,192.8z M580,76.2
		c0.2,0.2,0.4,0.3,0.5,0.5c0.2-0.3,0.4-0.6,0.5-0.9c0-0.1-0.3-0.4-0.4-0.6C580.4,75.5,580.2,75.8,580,76.2z M612.9,171.2
		c-0.2-0.3-0.4-0.5-0.6-0.6c-0.2,0.3-0.4,0.6-0.5,1c0,0.1,0.3,0.3,0.5,0.5C612.5,171.7,612.7,171.5,612.9,171.2z M616.9,72
		c-0.2-0.3-0.4-0.5-0.5-0.7c-0.2,0.3-0.4,0.5-0.6,0.8c0,0.1,0.2,0.3,0.4,0.5C616.4,72.4,616.7,72.2,616.9,72z M658.2,56
		c0.3-0.2,0.5-0.4,0.8-0.6c-0.2-0.2-0.4-0.5-0.5-0.5c-0.4,0.1-0.7,0.4-1,0.6C657.7,55.6,657.9,55.8,658.2,56z M568.5,57.1
		c-0.2-0.3-0.4-0.6-0.5-0.6c-0.3,0.1-0.7,0.3-1,0.5c0.2,0.2,0.4,0.5,0.5,0.5C567.8,57.4,568.1,57.2,568.5,57.1z M637.4-63.3
		c0.7,0.2,0.8-0.2,0.8-0.6c0-0.1-0.4-0.4-0.5-0.3c-0.3,0.1-0.5,0.4-0.8,0.6C637.2-63.5,637.4-63.4,637.4-63.3z M626.4,68.7
		c-0.2-0.3-0.4-0.5-0.6-0.6c-0.2,0.3-0.4,0.6-0.5,1c0,0.1,0.3,0.3,0.5,0.5C626,69.2,626.2,68.9,626.4,68.7z M583.1,130.2
		c0.2,0.2,0.4,0.3,0.5,0.5c0.2-0.3,0.4-0.6,0.5-0.9c0-0.1-0.3-0.4-0.4-0.6C583.6,129.6,583.4,129.9,583.1,130.2z M585.1,116.4
		c-0.2-0.3-0.4-0.5-0.6-0.6c-0.2,0.3-0.4,0.6-0.5,1c0,0.1,0.3,0.3,0.5,0.5C584.7,116.9,584.9,116.6,585.1,116.4z"/>
	<path class="st13" d="M586.7-3.7c0.7,1.8-1.1,2.1-1.8,2.9c-5.2,6-10.5,11.9-15.7,17.9c-1.2,0.9-2.4,1.9-3.7,2.9
		c-0.8-2.2,0-4,1.1-5.7c1.1-1.1,2.8-1.8,2.6-3.8c3-0.8,4.7-3.1,6.2-5.5c-2.6,1.3-4.6,3.1-6.1,5.6c-1.5,0.6-2.5,1.9-3.4,3.1
		c-2-2.8,0.1-4.6,1.5-6.6c0.6-0.8,2.2-1.1,1.4-2.9c-0.7,0.9-1.4,1.6-2.1,2.4c-2.8-4.2,1.9-5.6,3.2-8.2c0.6-1.4,3-1.5,2.5-3.7
		l-0.1,0.1c2.1,1,2.9-1,3.9-2c4.2-3.8,7.8-8.2,12.4-11.5c0.2,0.2,0.3,0.5,0.5,0.7c-1.1,1.3-2.2,2.6-3.3,3.9
		c-5.2,4.2-9.1,9.6-13.2,14.8c0.2,0.3,0.5,0.5,0.7,0.8c4.7-4.2,9.5-8.3,14.2-12.5c0.5,2.7-2.7,2.9-3.3,4.8c-3.2,3-6.2,6.2-8.5,10.8
		c2.8-0.7,3.8-2.5,5.2-3.7C582.8-0.7,584.2-2.9,586.7-3.7z"/>
	<path class="st13" d="M579.3-14.3c-2.4,3-4.7,6.1-7.1,9.1l0.1-0.1c-2,1.8-4.1,3.7-6.1,5.5c1.5-7.2,6.9-11.1,12.3-15
		C578.9-14.6,579.1-14.4,579.3-14.3z"/>
	<path class="st13" d="M588.6-18.6c2.5-2.6,3.6-6.8,9.1-7.6c-3.4,3.2-6,5.7-8.6,8.2C588.9-18.1,588.8-18.3,588.6-18.6z"/>
	<path class="st13" d="M586.6-3.6c0-0.3,0-0.5,0.1-0.8c0.3-0.2,0.5-0.5,0.8-0.7c0.9-0.7,1.8-1.3,2.2-2.5c0.3-0.3,0.7-0.6,1-0.9
		c0.9,0.3,1.1-1.6,2.6-0.7C591-7.2,589.8-4.3,586.6-3.6z"/>
	<path class="st13" d="M572.4-14.7c-0.2,1.9-1.1,3.2-3.1,3.7c-0.7-2.4,1.4-3,2.5-4.3C572.1-15.1,572.2-14.9,572.4-14.7z"/>
	<path class="st13" d="M578.7-14.8c-0.3-1.5,1.1-1.5,1.8-2c0.6-0.4,0.5,0.3,0.6,0.6c0.5,1.6-1.1,1.4-1.8,2
		C579.1-14.4,578.9-14.6,578.7-14.8z"/>
	<path class="st13" d="M571.9-15.4c0.6-1,2-1.5,2.4-0.7c0.5,1-0.9,1.3-1.9,1.4C572.2-14.9,572.1-15.1,571.9-15.4z"/>
	<path class="st13" d="M577.2,91c-0.3,0.6-0.8,1.6-1.4,1.2c-0.8-0.7,0.2-1.2,0.7-1.7C576.8,90.6,577,90.8,577.2,91z"/>
	<path class="st13" d="M593.9-11.5c0.3-0.1,0.5-0.1,0.8-0.2c0.9,0.7,0,1.2-0.4,1.5c-0.6,0.4-0.9,0-0.9-0.6
		C593.5-11,593.7-11.3,593.9-11.5z"/>
	<path class="st13" d="M596-14c0.9-0.9,1.7-1.7,2.6-2.6c0.7-0.3,1.3-0.7,2-1c-1.5,1.5-1.1,4.8-4.4,4.4C596.1-13.4,596.1-13.7,596-14
		z"/>
	<path class="st13" d="M598.7-2.2c-1.2,1.8-2.2,3-4.7,4.4C595.1-0.7,595.9-2.1,598.7-2.2z"/>
	<path class="st13" d="M594.5-11.6c0.3-0.8,0.7-1.6,1.7-1.7C596.5-11.8,596-11.2,594.5-11.6z"/>
	<path class="st13" d="M619.6-43.2c0.6-1.6,1.5-2.9,3.6-3c-0.3,1.9-1.9,2.7-3.1,3.6C619.9-42.7,619.7-43,619.6-43.2z"/>
</g>
<path class="st14" d="M542.3,205.6c3.7,3.7,7.4,7.4,11.1,11c0,0-0.1,0.1-0.1,0.1c-0.1,0-0.3,0-0.4,0c-4.9,0-9.9,0-14.8,0
	c-0.3,0-0.6-0.1-0.8-0.3c-5.4-5.4-10.7-10.8-16.1-16.2c-0.2-0.2-0.3-0.4,0-0.6c5.4-5.4,10.8-10.8,16.1-16.2c0.2-0.2,0.4-0.3,0.7-0.3
	c5,0,10,0,15,0c0.1,0,0.2,0,0.4,0.1c-3.7,3.6-7.4,7.3-11.1,11c0.3,0.2,0.5,0.1,0.6,0.1c7.1,0,14.2,0,21.2,0c0.5,0,0.6,0.1,0.6,0.6
	c0,3.4,0,6.7,0,10.1c0,0.5-0.1,0.6-0.6,0.6c-7.1,0-14.2,0-21.2,0C542.8,205.5,542.6,205.5,542.3,205.6z"/>
<path class="st14" d="M451.8,209.8c2.2-2.2,4.4-4.4,6.6-6.5c-0.2-0.1-0.4-0.1-0.6-0.1c-4,0-8.1,0-12.1,0c-0.5,0-0.5-0.1-0.5-0.6
	c0-1.9,0-3.7,0-5.6c0-0.4,0.1-0.5,0.5-0.5c4,0,8.1,0,12.1,0c0.2,0,0.3,0,0.5,0c-2.2-2.2-4.3-4.3-6.5-6.5c0.2-0.2,0.3-0.2,0.4-0.2
	c2.8,0,5.6,0,8.5,0c0.3,0,0.5,0.1,0.7,0.3c3.1,3.1,6.2,6.2,9.3,9.3c0.3,0.3,0.2,0.4,0,0.6c-3.1,3.1-6.2,6.2-9.3,9.4
	c-0.1,0.1-0.3,0.3-0.5,0.3C457.9,209.8,454.9,209.8,451.8,209.8z"/>
<text transform="matrix(1 0 0 1 420.8432 407.6626)" class="st0 st15">freifunk-telgte.de</text>
</svg>
