<?xml version="1.0" encoding="utf-8"?>
<!-- Generator: Adobe Illustrator 19.0.0, SVG Export Plug-In . SVG Version: 6.00 Build 0)  -->
<svg version="1.1" id="Ebene_1" xmlns="http://www.w3.org/2000/svg" xmlns:xlink="http://www.w3.org/1999/xlink" x="0px" y="0px"
	 viewBox="0 0 500 500" style="enable-background:new 0 0 500 500;" xml:space="preserve">
<style type="text/css">
	.st0{display:none;fill:#121211;}
	.st1{fill:#E30664;}
	.st2{fill:#DA0567;}
	.st3{fill:#FFFFFF;}
	.st4{fill:#030303;}
	.st5{fill:#F9B216;}
</style>
<g id="XMLID_95_">
	<path id="XMLID_99_" class="st0" d="M486.6-52.7c0.4,0,0.9,0,1.3,0c7.5,3.3,14.6,7,15.8,16.4c-0.1,2.3-0.3,4.7-0.3,7
		c0,230,0,459.9,0,689.9c0,2.3,0.2,4.7,0.3,7c-1.2,9.4-8.3,13.1-15.8,16.4c-0.4,0-0.9,0-1.3,0c-1.6-2.2-3.9-1.1-5.9-1.1
		c-154.5-0.1-309-0.1-463.6,0c-1.9,0-4.3-1.2-5.8,1.1c-0.4,0-0.9,0-1.3,0c-7.5-3.3-14.6-7-15.8-16.4c0.1-2.3,0.3-4.7,0.3-7
		c0-230,0-459.9,0-689.9c0-2.3-0.2-4.7-0.3-7c1.2-9.3,8.2-13.1,15.8-16.4c0.4,0,0.9,0,1.3,0c1.5,2.3,3.9,1.1,5.8,1.1
		c154.5,0.1,309,0.1,463.6,0C482.7-51.6,485-50.6,486.6-52.7z M3.1,315.8c0,114.6,0,229.3,0,343.9c0,12.1,2.5,14.5,14.7,14.5
		c154.1,0,308.2,0,462.4,0c12.2,0,14.7-2.5,14.7-14.6c0-229.3,0-458.5,0-687.8c0-12.5-2.4-14.9-15-14.9C325.9-43,172-43,18.1-43
		c-12.6,0-15,2.4-15,14.9C3.1,86.5,3.1,201.1,3.1,315.8z"/>
	<path id="XMLID_98_" class="st1" d="M248.5,98.7c-72.7,1.3-136.8,26.5-190.8,76.9c-8.6,8-18.4,10.3-27.5,6.1
		c-9.4-4.3-15.4-14.1-15-24.1c0.3-6.6,3.4-11.8,8.1-16.2c49.8-47,108.4-76.6,176.2-86.5c96.9-14.2,183.3,10.6,259.3,72.1
		c5.8,4.7,11.2,9.9,16.7,15c9.7,9.1,9.9,23.4,0.8,33.2c-9.6,10.4-23.6,11.4-33.6,2c-38-36-82.5-60-133.6-71.7
		C289.5,101,269.6,99.2,248.5,98.7z"/>
	<path id="XMLID_97_" class="st1" d="M249.3,129.3c63.5,1.6,118.7,23.2,164.9,66.9c10.6,10.1,10.9,24.1,0.8,34.6
		c-9.6,10.1-23.7,10.2-34.1,0.3c-40.6-38.2-88.9-56.5-144.5-53c-45.9,3-85.6,21.1-118.9,53c-8.6,8.2-19.5,9.8-29.2,4.2
		c-9.5-5.6-14.3-16.8-11.6-27.4c1-4.1,3.2-7.4,6.2-10.3c37.9-36.9,83.2-58.7,135.5-66C228.6,130.2,239,129.8,249.3,129.3z"/>
	<path id="XMLID_96_" class="st1" d="M361.4,268.6c-0.1,10.2-6.3,19.6-15.2,22.9c-9.6,3.6-18.3,1.9-25.9-5.4
		c-41.6-40-100.6-39.9-142.4,0.2c-10,9.6-24.4,9.6-33.8,0.1c-9.9-10.1-10-24.3-0.3-34.2c57.4-58.3,153.3-58.4,210.5-0.3
		C359.1,256.8,361.8,262.2,361.4,268.6z"/>
</g>
<path id="XMLID_94_" class="st2" d="M248.8,441.3c-11,0-21.1-2.1-30.9-6.4c-6.9-3-13.2-6.9-18.9-11.8c-0.4-0.3-0.5-0.2-0.8,0.1
	c-6.1,6.8-13.4,11.6-22,14.5c-5.5,1.8-11.2,2.7-17,2.6c-8.2-0.2-16-2.1-23.2-6.1c-11.7-6.4-19.8-16-24.2-28.6
	c-2-5.9-3-12.1-2.6-18.3c1.1-17.1,8.7-30.5,22.9-40.2c6.2-4.2,13-6.7,20.4-7.8c7.5-1.1,14.9-0.6,22.2,1.6c0.5,0.1,0.7,0.1,0.8-0.4
	c3.1-9.4,7.8-17.9,14.2-25.4c8.4-9.9,18.6-17.3,30.7-22.1c5.7-2.2,11.6-3.8,17.6-4.6c5.6-0.7,11.1-0.9,16.7-0.4
	c14.9,1.3,28.3,6.4,40.2,15.6c13.4,10.4,22.5,23.7,27.3,40.1c1.5,5.3,2.4,10.7,2.7,16.2c0.9,16.6-3,31.9-11.9,46
	c-5.2,8.2-11.8,15.1-19.6,20.8c-6.8,4.9-14.2,8.7-22.2,11.2c-5.3,1.7-10.7,2.7-16.3,3.2C252.9,441.2,250.7,441.3,248.8,441.3z"/>
<path id="XMLID_93_" class="st3" d="M159.9,341.2c5,0,9.6,0.7,14.2,2c0.5,0.2,0.7,0.3,0.5,0.9c-2.1,7.4-3,15-2.8,22.6
	c0.4,12.6,3.6,24.4,9.8,35.4c3.9,7,8.9,13.3,14.8,18.7c0.3,0.3,0.3,0.5,0,0.7c-3,3.4-6.5,6.3-10.4,8.8c-5.5,3.5-11.5,5.7-17.9,6.8
	c-5.1,0.8-10.1,0.9-15.2,0.1c-7.2-1.1-13.8-3.6-19.8-7.7c-8.6-5.8-14.7-13.6-18.4-23.3c-2.3-6.2-3.4-12.7-3-19.3
	c0.8-13.6,6.4-25,16.7-34c6.6-5.8,14.3-9.4,22.9-11C154.2,341.4,157.2,341.1,159.9,341.2z"/>
<path id="XMLID_92_" class="st3" d="M204.6,408.7c-2.5-2.5-4.8-5.1-6.8-7.9c-5.8-8-9.5-16.9-11-26.6c-1.3-8-1-15.9,0.9-23.7
	c0.1-0.6,0.3-0.5,0.7-0.2c2,1.5,4,3.1,5.8,4.8c0.2,0.2,0.3,0.4,0.3,0.7c-1.9,11.8-0.1,23.1,5.4,33.8c2,3.9,4.4,7.4,7.3,10.7
	c0.2,0.2,0.3,0.3,0.3,0.6C206.6,403.4,205.8,406.1,204.6,408.7z"/>
<path id="XMLID_91_" class="st3" d="M246.7,416.4c-13.3-0.3-26-5.6-36.3-16.2c-0.3-0.3-0.3-0.5-0.3-0.9c0.7-3.5,1-7,1-10.5
	c-0.3-11.8-4.1-22.3-11.5-31.4c-0.7-0.8-1.3-1.6-2.1-2.3c-0.3-0.3-0.4-0.7-0.3-1.1c0.9-4,2.1-7.8,3.8-11.4
	c6.4-13.3,16.6-22.3,30.5-27.2c5.2-1.8,10.5-2.7,16-2.7c13.4,0,25.3,4.3,35.3,13.2c8.7,7.7,14.3,17.2,16.4,28.6
	c3,15.9-0.6,30.3-10.7,42.9c-7,8.8-16.1,14.5-27,17.4C257.3,415.9,252.8,416.4,246.7,416.4z"/>
<path id="XMLID_90_" class="st3" d="M195,352.4c-1.7-1.5-3.4-2.9-5.1-4.2c0,0,0,0,0,0c-0.4-0.4-1.1-0.5-1.2-1
	c-0.1-0.5,0.2-1,0.4-1.5c3.1-9.5,8.2-17.9,15.3-24.9c8.7-8.6,19-14.2,30.9-16.7c6.8-1.5,13.7-1.8,20.6-0.9
	c16.1,2.1,29.5,9.3,40,21.7c6.8,7.9,11.1,17.1,13.3,27.3c1.2,5.8,1.6,11.8,1,17.7c-1.1,12.2-5.4,23.1-12.9,32.8
	c-5.5,7.1-12.3,12.7-20.3,16.9c-6.1,3.2-12.6,5.3-19.5,6.4c-5,0.8-10,0.9-15,0.4c-6.6-0.6-12.9-2.2-19-4.8
	c-6.1-2.6-11.6-6.2-16.6-10.6c-0.2-0.2-0.3-0.3-0.2-0.6c1.1-2.4,1.9-4.8,2.6-7.3c0,0,0-0.1,0.1-0.1c10.5,10.2,23,15.7,37.6,16.1
	c11.7,0.3,22.4-2.9,32.1-9.5c20.2-13.8,28.4-38.6,21.3-61.2c-7.2-23-28.5-38.3-52.7-38.1C222.6,310.3,200.6,327.8,195,352.4z"/>
<path id="XMLID_89_" class="st3" d="M208,397.3c-3.9-4.7-6.9-10-8.9-15.7c-2.7-7.7-3.5-15.7-2.4-24
	C206.4,369.2,210.1,382.4,208,397.3z"/>
<g id="Ausrufer">
	<path id="XMLID_17_" class="st4" d="M328.8,44c0.8,0,1.6,0,3.3,0c-2.9,2.9-5.4,5.3-7.9,7.8c-0.5,0.5-1.5,1-1,1.9
		c0.7,1.3,1.6,0.3,2.5,0.1c4.2-0.8,5.4-5.4,9-7.1c2.2,0.6-0.7,3.8,2.1,4c2,0.2,2.6-1.7,3.9-2.7c4.2-3.1,8.2-6.3,11-10.8
		c0.6-0.9,1.8-0.4,2.8-0.4c-0.7,0.9-1.3,1.8-2,2.7c-3.5,3.1-6.9,6.2-8.2,11c3.2-3,7.2-4.8,10.3-7.7c0.1-0.1,0.3-0.1,0.4-0.2
		c1.9-0.7,1.7-5.1,3.9-3.4c1.6,1.2-1.7,2.7-2.8,4.1c-0.8,1-0.6,2.1-0.8,3.2c-0.5,0.5-1.1,1-1.6,1.5c-0.3,0.4-0.6,0.9-0.9,1.3
		c0.8,0.4,1.5,0.3,1.8-0.7c0.5-0.4,1-0.8,1.4-1.3c1.8-0.9,3.3-2,4.7-3.4c0.7-0.7,1.2-2.7,2.8-1.6c1.6,1.1,1,2.5,0,4.3
		c4.4-3.8,7,0.5,10.1,1.9c1.7,0.8,3.6,2.9,2.4,4.8c-0.9,1.6-2.5,3.7-5.4,3c-1.4-0.4-1.6,0-0.8,1.3c2,2.8-1.4,5.3,0.1,8.2
		c1.5,3,0.5,5.7-2.2,7.8c-0.1,0.1-0.1,0.3-0.2,0.4c1.3,1.1,2-0.5,3-0.8c1.3-0.2,2-2.7,3.8-0.4c1.7,2.1-1,2.3-1.4,2.9
		c-1.6,2.3-3.5,4.3-6.9,4.8c-3,0.4-3.1,4.4-2.9,6.8c0.4,3.6,0.8,6.8-2.5,9.2c-0.6,0.4-1.2,0.9-0.6,2c2.4,3.9-0.4,6.5-2.4,9.2
		c-0.2,0.1-0.3,0.2-0.4,0.4c-0.6,0.4-1.7,0.8-1.3,1.5c0.5,0.9,1.3,0.3,1.6-0.5c0.3-0.3,0.7-0.7,1-1c3.3-0.5,4.5-4.4,7.8-5
		c-1.5,4.5-4.4,8.1-7.5,11.7c5.1-2.8,8.6-8.4,15.1-8.8c-5-0.3-2,5.7-5.2,6.6c3.1-0.9,5.2-3,7.6-4.9c3.2,0.3,1.7,2.1,1.2,3.6
		c-0.3,0.5-0.6,0.9-0.9,1.4c0.8,0.4,1.4,0.3,1.7-0.7c1.2,0.4,2.9-2,3.6,0.2c0.8,2.6,4.1,4.7,2.5,7.7c-0.8,1.6-0.6,1.6,0.6,2.6
		c3.4,2.9-0.2,4.7-1.6,6.8c4.9,0.9,5.1,1.5,2.1,5.8c-0.3,0.4-0.6,0.9-0.9,1.3c0.8,0.4,1.4,0.3,1.7-0.7c0.9,6.9,6.6,4.1,10.3,4.9
		c1.9,0.4,3.9,0.1,5.9,0.1c-0.2,5.5-3.1,10.3-2.5,16c0.3,2.7-3.1,4.3-4.2,6.7c-0.6,1.3-3.3,3.1,1.3,3.6c3.7,0.4,6.7,3.9,8.7,7
		c1.9,3-0.7,6.3-3,7.9c-3.2,2.2-5.4,5.2-8.6,7.8c5.1,0.1,4.2,2.9,3.1,5.7c1.6,1.3,2.8-2.2,4.3-0.3c1.7,2.2-1.2,2.6-1.8,3.8
		c-0.4,0.9-0.9,1.7-1.4,2.5c-1.5,2.5-5.2,2.9-6.4,6.8c3.7-1.3,6.5-2.5,7.3-6.1c1.4-1.1,3.4-1.3,4-2.6c6.4,8.8-0.4,13.8-6.3,19
		c2.3,0.9,2.6-1.3,4.2-1.3c-1.8,6.2-4.1,11.7-10.8,14.1c-1.5,0.5-2.9,0.6-4.3,0.4c-3.9-0.6-5.1,0.9-3.8,4.8c0.1,0.2,0.1,0.4,0.1,0.5
		c-2,4.3,1.5,8.8-0.7,13.1c-0.3,0.4-0.6,0.9-0.9,1.3c0.8,0.4,1.5,0.3,1.8-0.7c0.2,5.5,3.5,11.4-2,16.3c-0.7,0.6-0.5,1.1-0.3,2
		c1,4,0.1,7.4-4,9.9c4.8-0.2,3.4,2.4,2.6,4.5c-1.7,4.8-2.2,9.8-2.3,14.7c0,3.6-1.6,6.2-3.6,8.1c3,2.6,1.7,5.1,0.2,7.5
		c-0.7,1.2-2.7,2.2,0.5,2.3c0.2,0,0.5,0.4,0.6,0.6c1.3,3-2.3,6.7-2,6.8c4.5,1.9,2.2,4.3,0.6,6.4c-1.1,1.4-1,1.2,0.6,2.3
		c2.4,1.6,1,4.2-0.7,6.1c-0.3,0.4-0.6,0.9-1,1.3c0.8,0.4,1.4,0.3,1.8-0.7c1,0.9,2.1,1.7,1.1,3.4c-2.6,4.6-2.6,10-4.7,14.9
		c-1.5,3.6-2.5,8.1-2.4,12.4c0.1,3.2,0.1,6.2-2.8,8.3c-0.5,0.4-1,0.8-1.5,1.2c-0.4,0.6-1.2,1.1-0.8,2c0,0.1,0.7,0.2,0.8,0.1
		c0.5-0.7,0.4-1.5,0-2.2c1,0.5,1.9,0.8,2.6-0.3c4.4,3,0.5,4.9-1,7.1c-0.3,0.4-0.7,0.9-1,1.3c0.8,0.4,1.5,0.3,1.8-0.7
		c1.9,2.7,1.3,5.1-0.8,7.3c-0.3,0.4-0.6,0.9-0.9,1.3c0.8,0.4,1.4,0.3,1.7-0.7c1.7,0.5,0.9,1.9,0.9,2.9c-0.1,2.8-1.9,5.1-0.3,8.6
		c1.6,3.3-4,4.9-5.5,8.1c3.3,0,4.8-2.5,6.7-4.3c1-0.9,1.6-1.8,2.9-0.3c1.5,1.7,0.4,2.2-0.9,2.7c-2.1,0.8-2.3,2.8-3.3,4.9
		c3-0.8,4.8-2.2,5.5-4.8c3.9,4.6-0.1,6.2-2.7,7.8c-1.3,0.8-1.9,1.5-1.2,2.5c0.8,1,2.3,0.8,2.9-0.3c1-1.9,2.8-2.8,4.5-4
		c0.4,10.5-5.6,13.4-18.4,9.3c0.3-1.6,3.8-1.2,2.4-4.2c-1.2,0.8-2.4,1.6-3.6,2.5c-0.3,0.2-0.3,0.6-0.8,0.9c-3.5,1.8,0-4.9-4.4-3.4
		c-2.5,0.9-3.3-2.3-1.3-5.9c-1.9,1.7-2.9,2.5-3.7,3.2c-0.6,0.2-0.8,0.1-0.8-0.4c0.3-4.9-4.4-5.6-7-8c-0.7-0.6-2.2-1.4-1.8-2
		c3-4.5-1.3-8.2-1.1-12.4c0.2-4.4,0.3-8.9,0.3-13.3c0-6.2-0.6-12.5-0.1-18.7c0.3-3.5,0-7,0.6-10.6c0.8-4.6,1.1-9.4,0.2-14.2
		c-0.2-0.9-0.3-2.2,0.2-2.9c3.6-5.3-0.1-10.6,0.3-15.9c-0.1,6.9-1.8,13.6-2.6,20.5c-0.9,7.1-2.6,14-3.5,21.1
		c-0.4,3.3-0.7,6.8-0.9,10.1c-0.6,11.7,0,23.4-0.8,35.1c-0.2,2.8-1.2,6.6-3.7,9.1c-0.4,0.1-1,0.1-0.6,0.7c0,0.1,0.7-0.2,1.1-0.3
		c0.8,0.3,1.7-3.1,2.5,0.2c0.6,2.4,1.1,4.8,1.8,7.2c0.8,3.1-1.7,5.9-2.5,9c-0.6,2.4-3.6,3-6.7,3.8c-5.4,1.4-8.3-0.2-11.4-3.7
		c1.4,0,2.5-0.4,2.7-2.1c0.2-2,2.1-1.8,3.2-2.5c2.3-1.5,3.9-3.2,3.8-6.5c-2.9,2.9-7.4,3.5-7.9,8c-0.8,0.8-1.7,1.5-2.5,2.3
		c-3.8,0.9-3.8,0.9-3.5-4.5c1.9,0.8,3.5-0.4,4.2-1.5c2.7-3.6,6.9-5.7,9.1-9.8c0.3-0.6,2.3-0.2,0.8-1.7c-0.8-0.8-1.6-0.6-2.1,0.1
		c-3.4,4.9-9.9,6.9-11.9,13c-0.9,0.6-1.8,1.3-2.7,1.9c-0.4-1.5-1.7-2.8-1.2-4.5c5.5-2.2,7.8-7.7,11.8-11.5
		c-5.1,1.7-8.7,5.2-11.8,9.2c-0.2-2.7-0.1-4.9,2.6-6.7c1.6-1.1,3.1-3.2,3.2-6.2c-2,1.8-3.6,3.3-5.6,5.2c-0.4-2.1-1-4.6,0.2-5.6
		c1.4-1.2,2.8-1.9,1.8-5.7c-1.3,2.4-2.2,4-3.2,6c-3.3-6.3,2.8-8.2,4.3-13.3c-2.2,2.1-3.5,3.3-5,4.7c-0.8-3.3-0.6-5.8,1.7-7.9
		c1-0.1,2.1,0,1.9-1.5c-0.1-0.4-0.3-0.8-0.4-1.2c-0.7,0.6-1.4,1.2-2.1,1.9c-1.8-1.3-2-3.6-0.4-5.7c1.2-1.6,3.4-2.6,4-5.8
		c-1.9,1.8-3.2,3-4.5,4.2c1.8-5.1-3.1-10.7,1.4-15.3c0.4-0.5,0.7-1.2-0.3-1.3c-0.4,0-1.2,0.7-1.2,0.7c-0.9-1.3-0.8-2.9-0.3-4.2
		c0.7-1.6,1.9-2.9,2.8-4.4c0.9-0.6,2.5-1.5,1.6-2.4c-0.8-0.9-1.5,0.9-2.3,1.6c-0.8-0.1-1.9,3.4-2.4-0.2c-0.3-2.1,0.8-3.7,1.7-5.3
		c2-0.8,3.2-2,3.1-5c-1.5,1.7-2.7,3-3.8,4.3c-2.8-3,0-5.4,1.5-7.4c0.8-1,1.7-2.1,2.5-3.2c0.2-0.1,0.3-0.2,0.4-0.4
		c0.6-0.6,1.2-1.2,1.8-1.8c1-0.7,2.4-1.2,1.4-3.3c-0.8,1-1.5,1.8-2.2,2.7c-0.4,0.5-0.9,1-1.3,1.5c-0.3,0.3-0.7,0.7-1,1
		c-1.7,0.2-2.7,3.3-4.1,2.1c-2.5-2.2,0.7-3.5,1.7-5.1c0.3-0.5,0.4-1.2,0.5-1.8c2.1-0.2,3.2-1,2.6-3.3c-1.8,0-2.3,1.6-3.3,2.5
		c-2.8,1.9-2.8-0.6-2.3-1.9c1-2.2,2.1-3.7,0-6.2c-1.7-2,1.9-3.7,1.9-6c0.3-0.3,0.7-0.7,1-1c2.2-0.1,2.3-1.5,2-3.7
		c-1.3,1.4-2.2,2.4-3,3.4c-0.1,0.1-0.3,0.2-0.4,0.4c-3.1,0.9-3.1-0.9-2.3-2.9c0.5-1.3,1.5-2.4,2.3-3.5c1.6-1.5,4.1-2.3,4.2-6.1
		c-2,2.2-3.5,3.8-5,5.4c-5.2-3.2,1.2-4.9,1-7.5c0.2-0.1,0.3-0.2,0.4-0.4c2.2-1,3.8-2.4,3.6-5.1c1.4,0.8,2.1-0.2,2.9-1.2
		c0.4-0.5,0.9-1,1.3-1.4c0.7-0.5,1.9-1,1-2c-0.6-0.7-1.2,0.6-1.7,1c-0.5,0.6-1,1.1-1.5,1.7c-0.9,0.4-1.6,1-1.8,1.9
		c-1.7,1-3,2.4-4.1,4c-0.3,0.3-0.7,0.7-1,1c-3.4-0.1-1.9-2.4-1.5-3.7c0.4-1.3,1.5-2.4,2.3-3.6c0.4-0.5,1.7-1.1,1.1-1.7
		c-0.9-0.9-1.5,0.3-1.9,1c-0.6-0.2-1.5,2-1.9-0.2c-0.4-2.4,0.7-4.4,1.9-6.3c0.2-0.1,0.3-0.2,0.4-0.4c0.7-0.6,2.1-1,1.3-2.1
		c-0.5-0.6-1.4,0.3-1.7,1.1c-0.3,0.3-0.7,0.7-1,1c-4.1-1.2-1.7-3-0.5-4.8c1.1-1.6,1-1.6-0.8-3.2c-0.4-0.4-0.8-1.3-0.6-1.7
		c1.9-3-0.8-6.1,0.1-8.8c1.2-3.7-0.4-5.4-3-7.1c3.6-1.4,4.9-4.6,6.2-8c-2.3,2.4-4.6,4.8-6.8,7.2c-1.5-0.9-2.2-2.3-1.6-3.5
		c0.7-1.2,1.5-2.4,2.2-3.6c1-0.1,2.1,0,1.9-1.5c0-0.3-0.1-0.8-0.3-0.8c-1.2-0.4-1.6,0.8-2.2,1.4c-0.8-0.1-2,3.4-2.4-0.2
		c-0.5-5.2,4.3-6.9,7-10c0.8-0.9,2.2-1.4,1.5-3.6c-2.6,2.4-5,4.6-7.6,7c-0.9-3.5-0.9-4.4,1.4-6.9c1.6-1.7,3.4-3.1,4.6-5.2
		c-1.5-1-1.9,0.9-2.9,1c-0.3-0.2-0.5-0.4-0.8-0.7c0.8-3.8,2.3-7.2,5.5-9.7c0.6-0.6,1.9-1.3,0.9-2.1c-0.7-0.6-1.3,0.7-1.7,1.4
		c-0.8,0.6-1.5,1.2-2.9,2.2c0.4-5.1,0.2-9.8,1.2-14.3c0.8-3.1,0.3-3-2.2-2.3c-3.4,0.9-3.4,0.8-3.3-2.4c-2.2,2.4-4.4,4.2-7.4,1.8
		c-7.2-5.8-7.5-6.8-4.2-13.9c-1.7,1.6-3,2.7-4.3,3.9c-3-5.1-2.4-10.3,1.6-14.4c1.6-1.6,3.1-3.3,4.7-5c4.2-0.4,4.1-6.5,8.7-6.5
		c0.3,1.7-1.5,2-2,3.1c-0.4,0.8-2.4,1-1.1,2.5c1.1,1.4,2.3,0,2.9-0.3c3.3-1.4,5.6-4.3,7.8-7c0.7-0.8,2.1-2.4,1.2-3.3
		c-1.5-1.5-2.3,0.3-3.3,1.3c-0.7,0.7-2.2,0.5-4.3,0.9c3.5-4.1,7.3-6.7,9.3-12.5c-7.1,6.9-13.2,12.7-19.3,18.6
		c-3.1-0.6-0.9,3.8-3.6,3.6c-2.3-3.7,3.7-6.2,2.4-8.2c-2-2.9-3-4.5,0.1-6.9c0.1-0.1,1.1-2-0.8-1.8c-1,0.1-1.2-0.4-1-1
		c1.4-5.5-2.2-12.4,4.5-16.5c1-0.6,1.6-1.6,1.4-2.9c1.4,0.4,2.1-0.5,2.9-1.3c5.4-5.1,10.8-10.2,16.3-15.3c1.2-1.1,2.1-3.1,4.5-1.7
		c-6.4,7.2-12.7,14.3-19,21.4c10.3-5.9,16.9-16,26.8-22.3c-7.9,10.7-17.2,20.1-25.7,30.3c10.9-9.2,20.4-20.1,31.4-29.1
		c0.3,0.3,0.7,0.7,1,1c-5,5.8-10,11.6-15,17.4c-1,1.2-3.8,2.4-2.4,3.6c1.8,1.6,1.6-2.1,3.1-2.5c0.1,0,0.1-0.3,0.2-0.4
		c2.1-0.9,3.8-2.4,5.4-4c8.1-8.2,16.3-16.4,24.5-24.5c1.3-1.3,2.4-3.2,5.5-1.4c-13.5,10.7-23.3,24.6-35.7,36.5c3,0.9,4-1,5.2-2.2
		c3.4-3.4,6.4-7.2,10-10.3c7.9-7,14.9-14.9,22.5-22.2c0.6-0.6,1.8-2.1,0.5-2.3c-4-0.8-2-3.9-2.6-6c-8.3,4-12.5,13-21,16.4
		c5.5-7,12.7-12.5,18.8-20.7c-9.2,3.3-12.8,11.2-20,14.5c2.3-4.4,6.6-7.2,9.4-11.1c0.9-1.3,4.2-2.5,2.4-4c-1.9-1.7-3.3,1.8-5.2,2.5
		c-0.2,0.1-0.3,0.5-0.6,0.7c-3.5,3.2-7,6.5-10.5,9.7c3.9-8.2,12.3-12.5,15.8-20.8c-2.6,1.8-4.5,4.7-8.1,4.3c-1-3.8,4.5-4.6,4.3-9.5
		c-3.6,5.3-9.2,6.2-11.9,10.7l0,0c-1,0.4-1.6,1.1-2,2c-0.4,0.4-0.9,0.8-1.3,1.2l0,0c-1.3,0.7-2.2,2.8-4.4,1.5
		c5.9-6.1,12.1-12.1,17.3-19.1c-3.1-0.6-3.4,2.4-5.2,3.4c-0.8-1.1-0.6-2.1,0.3-3c4.7-5,2.9-10.1,0.1-15c-1.6-2.9-2.8-4.9,0.4-8.1
		c1.1-1.1,4.1-6.3,0.1-9.5c-0.7-0.5-1.8-1.2-0.6-2.3c0.4-0.5,0.9-1,1.3-1.5c1-0.3,1-1,0.7-1.8c-0.5,0.3-0.9,0.7-1.4,1
		c-0.5,0.5-1,1.1-1.5,1.6c-3.1-0.3-3.9-1.4-1.5-3.9C322.4,50.6,325.6,47.3,328.8,44z M306.2,319.5c0.4-0.4,0.7-0.7,1.1-1.1
		c0.5-0.6,1.1-1.2,1.6-1.8c0.8-0.5,1.9-1,1-1.9c-0.6-0.6-1.1,0.7-1.7,1.1c-0.5,0.6-1,1.1-1.5,1.7c-0.3,0.3-0.7,0.7-1,1
		c-0.3,0.3-0.7,0.7-1,1c-0.8,0.3-1.7,1.2-1.1,1.7c1,0.8,1.5-0.6,2-1.3C306,319.8,306.1,319.7,306.2,319.5z M327.4,90.6
		c-0.5,0.4-1.6,0.8-0.8,1.6c0.5,0.6,1-0.1,1.2-0.6c0.6-0.2,1.1-0.5,0.7-1.2C328.4,90.2,327.8,90.5,327.4,90.6z M310.8,297.7
		c-0.9,0.2-1.4,0.8-1.4,1.7c0,0.1,0.2,0.3,0.3,0.3c1.1,0.1,1.2-0.9,1.6-1.5c0.1-0.4,0.3-1.1,0.2-1.2
		C311,296.8,310.9,297.3,310.8,297.7z M300.4,276.2c-0.5,0.6-1,1.1-1.5,1.7c-0.6,0.2-1.2,0.5-0.7,1.2c0.1,0.1,0.7-0.2,1.1-0.3
		c0.6-0.6,1.1-1.2,1.7-1.8c0.8-0.5,1.9-1,1-1.9C301.4,274.5,300.9,275.7,300.4,276.2z M300.3,285.7c0.6-0.6,2.1-0.9,1.2-2.1
		c-0.5-0.6-1.4,0.3-1.7,1.1c-0.6,0.2-1.2,0.5-0.6,1.2C299.3,286.1,300,285.8,300.3,285.7z M378.4,207.6c0.8-0.3,1.7-1.2,1.3-1.6
		c-1.1-1.2-1.3,0.6-2,1c-0.3,0.4-0.7,0.9-1,1.3C377.4,208.7,378.1,208.6,378.4,207.6z M370.4,136.2c0.5-0.4,1-0.8,1.5-1.3
		c3.2-2,6.6-4,6.7-8.6c-2.4,2.6-4.9,5.2-7.3,7.8c-0.5,0.5-1.1,1-1.6,1.5c-0.3,0.4-0.6,0.9-1,1.3
		C369.5,137.3,370.1,137.2,370.4,136.2z M314.2,240.1c0.7-0.6,2.1-1,1.3-2.1c-0.5-0.6-1.4,0.3-1.7,1.1c-0.3,0.3-0.7,0.7-1,1
		c-1.5,1.4-3,2.9-4.5,4.3c-2.7,2.8-5.5,5.5-8.2,8.3c-0.2,0.1-0.3,0.2-0.4,0.4c-1.3,1.2-2.6,2.4-4.8,4.6c3.3-0.7,4.2-2.3,5.2-3.6
		c0.3-0.3,0.7-0.7,1-1c3.4-1.9,6.1-4.5,7.9-7.9c2.8-0.4,2.9-3.4,4.8-4.7C313.9,240.5,314.1,240.3,314.2,240.1z M345,223.6
		c-0.5,0.6-1.1,1.2-1.6,1.8c-2.1,2-4.2,4-6.3,6.1c-5.8,5.9-12.1,11.2-17.3,17.7c-3.1,1.8-5.1,4.6-7.6,7.1c-4,4.2-7.9,8.3-11.9,12.5
		c0.1,0.1,0.1,0.1,0.2,0.2c4.1-3.9,8.3-7.8,12.4-11.7c2.5-2.5,6-4.1,6.8-8.1c1.3,0.4,2-0.5,2.9-1.3c5.4-4.8,10.5-9.8,15.1-15.4
		c1.7-2.5,6-2.9,5.5-7.2c0.9,0,1.9,0.4,2.4-0.8c0.5-0.4,1-0.9,1.5-1.3c0.5-0.6,1-1.1,1.5-1.7c0.8-0.5,1.9-1,1-1.9
		c-0.6-0.6-1.1,0.6-1.7,1.1c-0.5,0.6-1,1.1-1.5,1.7C346,222.7,345.5,223.2,345,223.6z M318.8,234.3c-0.9,0.2-1.3,0.7-1.4,1.6
		c0,0.1,0.6,0.4,0.7,0.3c0.4-0.4,0.8-0.9,1.2-1.4c0.1-0.4,0.4-1.1,0.3-1.1C318.9,233.3,318.9,233.9,318.8,234.3z M387.3,222.5
		c0.5-0.4,1-0.9,1.5-1.3c5.1-2.2,6.6-7.5,10.8-10.5c-0.4-0.4-0.8-0.8-1.3-1.1c-3.4,3.6-6.8,7.2-10.1,10.8c-0.6,0.5-1.1,1-1.7,1.5
		c-0.3,0.4-0.6,0.9-0.9,1.3C386.4,223.5,387,223.4,387.3,222.5z M308.3,323.8c-0.5,0.6-1,1.1-1.5,1.7c-0.3,0.3-0.7,0.7-1,1
		c-0.7,0.6-1.4,1.2-2.1,1.9c-1.3,1.4-3.1,2.4-3.9,4.8c3-0.7,4.9-1.7,3.8-4.9c1.6,0.7,2.5-0.1,3.2-1.4c0.2-0.1,0.3-0.2,0.4-0.4
		c0.6-0.6,1.2-1.2,1.7-1.8c0.8-0.5,1.9-1,1-1.9C309.4,322.1,308.8,323.3,308.3,323.8z M331.3,88.3c0.5-0.6,1-1.1,1.5-1.7
		c1.2-1,3-1.7,2.7-4.1c-1.4,1.3-2.4,2.4-3.5,3.5c-0.4,0.5-0.9,1-1.3,1.5c-0.8,0.4-2,1-1,1.9C330.2,90,330.7,88.7,331.3,88.3z
		 M351.6,218.5c1-0.5,1.8-1.1,1.7-3.4c-1.2,1.4-2,2.2-2.7,3c-0.1,0.4-0.4,1-0.3,1.1C351.1,219.7,351.4,219.1,351.6,218.5z
		 M306.3,238.5c-0.7,0.7-1.3,1.3-2,2c-1.3,1.4-3.2,2.3-3.8,4.5c3.4,0.5,3.2-2.4,4.4-3.8c0.7-0.7,1.3-1.3,2-2c0.8-0.5,1.9-1,1-1.9
		C307.4,236.8,306.9,238,306.3,238.5z M302.3,299.7c0.9-0.6,2.3-1.3,1.4-2.4c-0.5-0.6-1.3,0.7-1.8,1.4c-0.6,0.2-1.1,0.5-0.7,1.2
		C301.2,300,301.9,299.7,302.3,299.7z M354,222.6c-0.7,0.7-1.3,1.3-2,2c-1.8,1.9-3.7,3.8-5.5,5.7c-0.8,0.7-1.6,1.5-2.4,2.2
		c-2.7,2.7-5.8,5-7.3,8.7c2.4-2.9,6.4-4,7.9-7.8c1.9,0.4,1.8-1.3,2.5-2.3c2-1.7,4.5-3,5.5-5.6c1.5,0.1,2.1-0.6,2-2
		c0.9-0.3,1.2-1.1,0.7-1.7C354.7,221.3,354.4,222.2,354,222.6z M330.1,262.3c-0.7,0.7-1.3,1.3-2,2c-2.3,2.5-4.6,5-6.9,7.4
		c3.2-1.5,5.6-3.8,7.6-6.6c1.5,0.1,2.1-0.5,2-2c0.5-0.4,1-0.8,1.5-1.2c1.9-0.6,2.8-2,3.4-3.7c4-2.3,7.6-5.6,10.2-9.2
		c2.6-3.6,7.9-4.7,8.8-9.6c0.9-0.3,1.2-1.1,0.6-1.7c-0.5-0.5-0.9,0.4-1.3,0.8c-6.5,6.5-12.9,13.1-19.4,19.6c-1,1-2,2-2.9,2.9
		C331.1,261.4,330.6,261.9,330.1,262.3z M294.1,196.7c1.3-0.7,2.3-1.7,3-3c3.9-2,7.4-4.5,8.9-8.9c0.5-0.4,1-0.9,1.5-1.3
		c5.1-4.8,10.2-9.7,15.3-14.5c10-9.8,20.8-19,28.6-30.8c-4.2,4.9-10.3,7.8-14.3,12.8c-4.5,5.5-11.2,9.1-14.4,15.8
		c-5.6,5-10.9,10.3-15.9,15.9c-0.5,0.4-1,0.8-1.5,1.3c-2.1,2.4-4.8,3.6-8.4,3.8c0.8-1.7,3-2.8,1.4-5c-4.9,4.9-9.8,9.7-14.6,14.6
		c4.1-0.4,6.1-3.3,8.5-5.6c2.5-2.4,3.7-2.4,3.9,1.3c-1,1-1.9,2-2.9,3c-0.3,0.4-0.6,0.9-1,1.3C293.2,197.7,293.8,197.6,294.1,196.7z
		 M300,238.3c1.4-0.8,3.1-1.4,3.5-3.3c1.7-1.7,3.4-3.4,5.1-5.1c0.8-1,2.8-1.4,1.8-3.7c-0.9,1.1-1.8,2.1-2.6,3c-1.9,1.4-3.6,3-5,5
		c-1.2,1.1-2.4,2.3-3.6,3.4c-0.5,0.5-1.7,1.1-1.2,1.7C299,240.3,299.6,239.1,300,238.3z M319.5,241.2c-1.3,1.3-2.5,2.6-3.8,3.9
		c-1.8,2-3.6,3.9-5.4,5.9c0.4,0.3,0.7,0.7,1.1,1c1.7-2.1,3.5-4.1,5.2-6.2c1.1-1.5,3.6-2.1,2.8-4.7c0.8,0.1,1.6,0.4,2.2-0.4
		c0.1-0.1-0.1-0.8-0.2-0.8C320.5,239.9,319.9,240.4,319.5,241.2z M323.8,262.1c1.9-1,3.6-2.2,4.1-5.8c-2.2,2.3-3.5,3.7-4.9,5.1
		c-1.4,1.5-2.9,3-4.3,4.5c-1.9,1.8-3.9,3.6-5.8,5.5c3-0.6,5-2.5,6.7-4.8C321,265.1,322.4,263.6,323.8,262.1z M331.8,71.7
		c2.5-0.1,3.3-2.2,4.7-3.6c0,0-0.7-1-0.9-0.9c-2.1,0.6-3.7,1.9-4.6,3.9c-0.9,0.5-1.8,1.1-2.6,1.6C330.5,73.7,331.2,72.9,331.8,71.7z
		 M333.1,227.6c-3,3-6,5.9-9,8.9c0.4,0.4,0.8,0.7,1.2,1.1c3.3-2.6,5.7-6,8.5-9.1c1.3-1.1,3.1-1.9,3.3-5.4
		C335.2,225.2,334.2,226.4,333.1,227.6z M343.4,177.8c-5.2,5.1-10.3,10.2-15.5,15.3c-0.6,0.7-2.4,1.5-1.5,2.3c1,0.9,1.8-0.7,2.4-1.6
		c0.3,0,0.8,0.1,1-0.1c3.9-4.5,7.7-9.1,12.8-12.4c1.2-0.8,1.3-2.2,0.8-3.5c3,0.7,3.7-2.7,6.1-3.3c1.3-0.3,1.9-2.1,0.7-3.2
		c-1.1-1-2.5-0.2-3.2,0.9C345.6,174,344.5,175.9,343.4,177.8z M321.3,177.6c4.3-3,7.3-7.7,12.4-9.8c-3,7.4-8.3,12.8-15.1,16.9
		c-1.6,1-3.9,2.1-2.9,4.8c-1.4,1.1-2.9,2.1-3.5,3.8c0.4,0.4,0.8,0.8,1.2,1.2c1-1.4,2-2.7,3-4.1c4.6-2.4,7.6-6.7,11.2-10.2
		c3.8-3.6,7.4-7.3,11.1-10.9c-4.2,9.2-11.3,15.7-17.4,23.2c10.5-8.9,21.2-17.7,29.1-29.2c-0.7-0.1-1.1,0.2-1.5,0.6
		c-1.7,1.6-3.7,4.7-5.9,2.4c-1.4-1.5,2.4-2.9,3.2-4.7c1.2-2.8,5.8-3.2,5.3-7.9c-3.8,3.4-7.5,6.2-11.1,9c-1.6,1.2-2.2,3.5-4.8,3.2
		c-0.5-0.2-1-0.4-0.9-1.1c4-3.9,8-7.8,12-11.7c0.6-0.6,1.3-1.3,0.4-2c-0.9-0.6-1.9-0.2-2.6,0.5c-4.7,4.6-10.3,8.4-13.8,14.1
		c-3.9,3.1-6.6,7.3-9.9,10.8c-1.8,1.7-3.6,3.5-5.5,5.2c-1.5,1.2-2.8,2.8-4.5,3.7c-4.4,2.2-5.4,3.4-6.3,8.7c4-4.1,9.7-5.7,11.4-11.6
		C318.5,181.9,319.4,179.2,321.3,177.6z M335.8,266.1c7.5-5.9,14.2-12.6,19.5-20.7c-6.8,6.7-13.6,13.3-20.4,20
		c-2.3,2.4-4.7,4.7-7,7.1C330.5,270.4,334.6,270,335.8,266.1z M347,74.9c0.2,0.3,0.4,0.5,0.6,0.8c-0.6,1.2-2.1,2.6-0.4,3.8
		c1.2,0.9,2.4-0.3,3.4-1.3c2.5-2.6,5.1-5.1,7.6-7.7c0.4-0.5,1.5-0.8,0.7-1.9c-0.8-1-1.4-0.3-2,0c-2,1-4,2.4-5.4-1
		c-0.6-1.5-1.2,0.1-1.7,0.3c-1.7,0.9-3.7,1.7-4.8,3.1c-1.6,1.9-5.7,3.4-4,5.9C342.9,79.7,344.7,74.9,347,74.9z M313,170
		c0.5-0.1,1.1,0,1.4-0.3c10.2-10.1,20.3-20.3,30.5-30.4c1.4-1.4,2.8-2.7,3.5-4.6c3.1-0.6,3.4-3,3.8-5.6c-3.5,0.1-2.6,3.8-4.7,4.9
		c-2.8,2.3-5.7,4.6-8.4,7c-9.7,8.7-17.4,19.4-27,28.2c-1.5,1.2-2.9,2.4-5,4.2C311.5,174.3,311.3,171,313,170z M351.2,122.7
		c-16.2,12.2-28.9,28.2-43.7,43.2C313.1,164.1,351.1,126.4,351.2,122.7z M356.5,253.7c-5.9,5.9-12.8,12.8-19.7,19.7
		C343.5,266.3,351.8,260.9,356.5,253.7z M354.4,232.3c-4.4,4.4-10.6,10.6-16.9,16.7C343.5,242.6,350.9,237.6,354.4,232.3z
		 M301.8,155.7c-5.8,6-11.5,11.9-17.3,17.9C290.9,168.4,298.2,163.9,301.8,155.7z M321.2,255.9c5.7-4,11.1-8.4,15.9-15.4
		C331.1,246.3,326.1,251.1,321.2,255.9z M351.6,79.2c4.5,2.5,9.6-1.2,11.6-8.6C359.5,73.9,356.2,77.5,351.6,79.2z M359,258.8
		c-3.5,3.3-7.9,7.3-12.3,11.3C352.4,267.5,356.1,262.9,359,258.8z M337.9,74.6c2.5-1.2,4.1-4.1,6.4-6.2c0.1-0.1-0.4-0.7-0.7-1
		c-0.3-0.3-0.6-0.4-1.1,0c-2,1.5-4.2,2.9-6.1,4.4c-0.5,0.4-0.7,1.4-0.7,2.2C335.8,74.6,336.6,74.7,337.9,74.6z M393.7,172.8
		c-1.8,3.3-3.8,6-6.3,8.3c-0.3,0.3-1.4,0.6-0.7,1.4c0.3,0.4,0.7,1,1.1,0.9C390.1,183.5,394.7,175.6,393.7,172.8z M354.9,405
		c-4.1,2.5-7.1,5.9-9.8,9.6C349,412.1,353,409.6,354.9,405z M352.8,414.5c4.2-2.4,8.1-4.8,10.7-10.2
		C359.3,408.3,356.1,411.4,352.8,414.5z M361.7,382.3c-3,3.4-6,6.7-7.6,8.5C356.1,389.4,359.2,386.2,361.7,382.3z M343.8,185.7
		c2.1-1.2,3.9-2.2,5.5-3.4c0.3-0.2,1.4-0.6,0.7-1.4c-0.3-0.4-0.7-0.6-1.1-0.9C347.9,182.4,342.8,180.7,343.8,185.7z M371.7,141.6
		c3.7-1,6.6-3,7.7-8C376.4,136.7,374.1,139.1,371.7,141.6z M359.8,393c-6.3,3.9-6.3,3.9-7,7.4C355.1,397.9,357.4,395.5,359.8,393z
		 M312.7,264.8c-2.3,2.3-4.6,4.8-7,7.3C308,269.6,311.9,268.7,312.7,264.8z M334.4,76c-2.7,2.5-6,4.5-7.3,8.1
		C329.4,81.4,333.5,80.2,334.4,76z M388.7,187.6c-1.5,2.3-4.2,3.2-4.9,6c-0.1,0.2,0.9,0.9,1,0.9c2-1.6,3.8-3.4,4.3-6
		C389.1,188.3,389,188.1,388.7,187.6z M358.5,266.7c-2.2,2-4.4,4-7.2,6.6C356,272.5,356.4,268.8,358.5,266.7z M336.7,248.5
		c-1.8,2.3-3.3,4.2-4.3,5.4C334.2,253.5,335.8,251.8,336.7,248.5z M384.1,200.5c-1.8,1.7-3.5,2.6-4.6,5.7
		C382.5,204.9,384.4,204.1,384.1,200.5z M300.3,380.1c2.4-0.4,3-1.9,4-4.3C302.2,377.2,301.1,378.2,300.3,380.1z M283.2,158.4
		c-1.8,1.7-3.2,2.5-3.9,5.5C281.3,162,282.8,161.3,283.2,158.4z M310.8,235.4c-0.1-0.1-0.3-0.5-0.4-0.9c-0.7,0.6-1.7,1-1.7,2.1
		c0,0.2,0.6,0.6,0.9,0.6C310.6,237.3,311,236.7,310.8,235.4z M385.3,198.6c-1,0.2-1.1,0.9-1,1.5c0,0.3,0.1,1,0.9,0.7
		c0.6-0.3,1.2-0.7,1-1.4C386,199.1,385.5,198.8,385.3,198.6z M347,270.3c-1.9,0.5-2.6,1.2-3.1,2.4
		C345.6,273.2,346.1,272.1,347,270.3z M302.9,281.5c-0.3,0.3-0.6,0.9-1,1.4c0.4,0.1,0.9,0.4,1.2,0.2c0.4-0.2,0.7-0.7,0.8-1.1
		C303.9,281.8,303.9,280.9,302.9,281.5z M325.7,60.3c-0.3,0.3-0.6,0.9-1,1.4c0.4,0.1,0.9,0.4,1.2,0.2c0.4-0.2,0.7-0.7,0.8-1.1
		C326.7,60.6,326.7,59.8,325.7,60.3z M307.9,333.5c-0.3-0.3-0.5-0.6-0.7-0.8c-0.2,0.4-0.5,0.8-0.7,1.2c0,0.1,0.4,0.4,0.6,0.6
		C307.4,334.1,307.7,333.8,307.9,333.5z M311.9,321.6c-0.3-0.3-0.5-0.6-0.7-0.8c-0.2,0.4-0.5,0.8-0.7,1.2c0,0.1,0.4,0.4,0.6,0.6
		C311.4,322.2,311.6,321.9,311.9,321.6z M311.8,313.9c-0.1-0.3-0.2-0.5-0.3-0.8c-0.3,0.2-0.6,0.4-0.8,0.7c-0.1,0.1,0.1,0.6,0.2,0.7
		C311.4,314.7,311.6,314.3,311.8,313.9z M304,369.3c-0.3-0.4-0.5-0.6-0.6-0.8c-0.2,0.3-0.5,0.6-0.7,1c0,0.1,0.3,0.4,0.4,0.6
		C303.4,369.8,303.7,369.6,304,369.3z M297.5,223.8c0.3,0.2,0.5,0.4,0.7,0.6c0.2-0.4,0.5-0.7,0.6-1.1c0-0.2-0.3-0.5-0.5-0.7
		C298.1,223,297.8,223.4,297.5,223.8z M338.7,342.4c-0.3-0.3-0.5-0.6-0.7-0.8c-0.2,0.4-0.5,0.8-0.7,1.2c0,0.1,0.4,0.4,0.6,0.6
		C338.2,343.1,338.4,342.7,338.7,342.4z M343.7,218.6c-0.3-0.4-0.5-0.6-0.6-0.8c-0.2,0.3-0.5,0.6-0.7,1c0,0.1,0.3,0.4,0.4,0.6
		C343.1,219.1,343.4,218.8,343.7,218.6z M395.2,198.6c0.3-0.3,0.7-0.5,1-0.8c-0.2-0.2-0.5-0.6-0.6-0.6c-0.4,0.1-0.8,0.4-1.2,0.7
		C394.6,198.1,394.8,198.3,395.2,198.6z M283.2,200c-0.3-0.3-0.5-0.8-0.6-0.7c-0.4,0.1-0.8,0.4-1.2,0.6c0.2,0.2,0.4,0.6,0.6,0.6
		C282.4,200.4,282.8,200.2,283.2,200z M369.3,49.7c0.8,0.2,0.9-0.3,1-0.7c0-0.1-0.5-0.5-0.6-0.4c-0.4,0.2-0.7,0.5-1,0.7
		C368.9,49.5,369.2,49.6,369.3,49.7z M355.5,214.5c-0.3-0.3-0.5-0.6-0.7-0.8c-0.2,0.4-0.5,0.8-0.7,1.2c0,0.1,0.4,0.4,0.6,0.6
		C355,215.1,355.3,214.8,355.5,214.5z M301.5,291.2c0.3,0.2,0.5,0.4,0.7,0.6c0.2-0.4,0.5-0.7,0.6-1.1c0-0.2-0.3-0.5-0.5-0.7
		C302,290.4,301.8,290.8,301.5,291.2z M304,274c-0.3-0.3-0.5-0.6-0.7-0.8c-0.2,0.4-0.5,0.8-0.7,1.2c0,0.1,0.4,0.4,0.6,0.6
		C303.5,274.6,303.7,274.3,304,274z"/>
	<path id="XMLID_16_" class="st4" d="M306,124.1c0.9,2.2-1.4,2.6-2.3,3.6c-6.5,7.5-13,14.9-19.6,22.3c-1.5,1.2-3,2.3-4.7,3.7
		c-1-2.7,0-4.9,1.4-7.1c1.3-1.4,3.4-2.3,3.3-4.7c3.8-1,5.8-3.8,7.7-6.8c-3.2,1.6-5.8,3.9-7.6,7c-1.9,0.8-3.1,2.3-4.2,3.9
		c-2.5-3.5,0.1-5.8,1.9-8.3c0.8-1,2.8-1.4,1.7-3.7c-0.9,1.1-1.8,2-2.6,3c-3.5-5.3,2.4-6.9,4-10.2c0.8-1.7,3.8-1.9,3.1-4.6l-0.2,0.2
		c2.7,1.3,3.6-1.2,4.9-2.5c5.2-4.7,9.7-10.2,15.5-14.3c0.2,0.3,0.4,0.6,0.6,0.9c-1.4,1.6-2.8,3.2-4.2,4.8
		c-6.5,5.3-11.4,12-16.5,18.5c0.3,0.3,0.6,0.6,0.9,1c5.9-5.2,11.8-10.4,17.7-15.6c0.6,3.3-3.3,3.6-4.1,6c-4,3.8-7.8,7.7-10.7,13.5
		c3.5-0.8,4.8-3.1,6.5-4.6C301,127.9,302.8,125.1,306,124.1z"/>
	<path id="XMLID_15_" class="st4" d="M296.7,110.9c-2.9,3.8-5.9,7.6-8.8,11.4l0.2-0.2c-2.5,2.3-5.1,4.6-7.6,6.8
		c1.9-9,8.6-13.9,15.4-18.7C296.2,110.5,296.5,110.7,296.7,110.9z"/>
	<path id="XMLID_14_" class="st4" d="M308.3,105.6c3.1-3.3,4.5-8.5,11.4-9.4c-4.2,4-7.5,7.1-10.8,10.3
		C308.7,106.2,308.5,105.9,308.3,105.6z"/>
	<path id="XMLID_13_" class="st4" d="M305.9,124.2c0-0.3,0.1-0.7,0.1-1c0.3-0.3,0.7-0.6,1-0.9c1.1-0.8,2.2-1.7,2.7-3.1
		c0.4-0.4,0.8-0.8,1.2-1.1c1.2,0.3,1.4-2,3.2-0.8C311.3,119.7,309.8,123.4,305.9,124.2z"/>
	<path id="XMLID_12_" class="st4" d="M288.1,110.4c-0.2,2.4-1.4,4-3.8,4.6c-0.9-3,1.8-3.8,3.2-5.4
		C287.7,109.9,287.9,110.1,288.1,110.4z"/>
	<path id="XMLID_11_" class="st4" d="M295.9,110.3c-0.4-1.9,1.3-1.9,2.3-2.5c0.8-0.5,0.6,0.4,0.7,0.7c0.6,2-1.4,1.7-2.2,2.5
		C296.5,110.7,296.2,110.5,295.9,110.3z"/>
	<path id="XMLID_10_" class="st4" d="M287.5,109.6c0.8-1.2,2.5-1.9,3-0.9c0.6,1.2-1.1,1.7-2.3,1.7
		C287.9,110.1,287.7,109.9,287.5,109.6z"/>
	<path id="XMLID_9_" class="st4" d="M294.1,242.3c-0.4,0.7-1.1,2-1.8,1.4c-1-0.8,0.3-1.5,0.9-2.1
		C293.5,241.9,293.8,242.1,294.1,242.3z"/>
	<path id="XMLID_8_" class="st4" d="M314.9,114.4c0.3-0.1,0.6-0.2,1-0.2c1.1,0.9,0.1,1.5-0.5,1.8c-0.7,0.5-1.1,0-1.1-0.8
		C314.5,115,314.7,114.7,314.9,114.4z"/>
	<path id="XMLID_7_" class="st4" d="M317.6,111.3c1.1-1.1,2.1-2.1,3.2-3.2c0.8-0.4,1.6-0.9,2.5-1.3c-1.8,1.9-1.4,6-5.5,5.5
		C317.7,112,317.6,111.6,317.6,111.3z"/>
	<path id="XMLID_6_" class="st4" d="M321,126c-1.5,2.3-2.8,3.7-5.9,5.5C316.4,127.9,317.5,126.2,321,126z"/>
	<path id="XMLID_5_" class="st4" d="M315.7,114.3c0.3-1.1,0.9-1.9,2.1-2.1C318.2,114,317.5,114.7,315.7,114.3z"/>
	<path id="XMLID_4_" class="st4" d="M347,74.9c0.7-2,1.9-3.6,4.6-3.7c-0.4,2.4-2.3,3.3-3.9,4.5C347.4,75.4,347.2,75.1,347,74.9z"/>
</g>
<path id="XMLID_3_" class="st5" d="M250.6,385.3c4.7,4.6,9.3,9.2,13.9,13.7c0,0.1-0.1,0.1-0.1,0.2c-0.2,0-0.4,0-0.6,0
	c-6.2,0-12.3,0-18.5,0c-0.4,0-0.7-0.1-1-0.4c-6.7-6.8-13.4-13.5-20.1-20.2c-0.3-0.3-0.3-0.5,0-0.8c6.7-6.7,13.4-13.5,20.2-20.2
	c0.3-0.3,0.5-0.4,0.9-0.4c6.2,0,12.5,0,18.7,0c0.1,0,0.3-0.1,0.5,0.2c-4.6,4.5-9.2,9.1-13.9,13.7c0.4,0.2,0.6,0.1,0.8,0.1
	c8.8,0,17.7,0,26.5,0c0.6,0,0.7,0.1,0.7,0.7c0,4.2,0,8.4,0,12.6c0,0.6-0.1,0.7-0.7,0.7c-8.8,0-17.7,0-26.5,0
	C251.1,385.2,250.9,385.2,250.6,385.3z"/>
<path id="XMLID_2_" class="st5" d="M137.6,390.6c2.8-2.8,5.5-5.5,8.2-8.2c-0.3-0.2-0.5-0.1-0.7-0.1c-5,0-10.1,0-15.1,0
	c-0.6,0-0.7-0.2-0.7-0.7c0-2.3,0-4.7,0-7c0-0.5,0.1-0.6,0.6-0.6c5,0,10.1,0,15.1,0c0.2,0,0.4,0,0.7,0c-2.7-2.7-5.4-5.4-8.1-8.1
	c0.2-0.3,0.4-0.2,0.5-0.2c3.5,0,7,0,10.6,0c0.4,0,0.6,0.1,0.9,0.4c3.9,3.9,7.8,7.8,11.7,11.7c0.3,0.3,0.3,0.5,0,0.8
	c-3.9,3.9-7.8,7.8-11.7,11.7c-0.2,0.2-0.3,0.4-0.7,0.4C145.2,390.6,141.5,390.6,137.6,390.6z"/>
</svg>
